<?xml version="1.0" encoding="utf-8"?>
<!-- Generator: Adobe Illustrator 25.0.1, SVG Export Plug-In . SVG Version: 6.00 Build 0)  -->
<svg version="1.1" id="Layer_1" xmlns="http://www.w3.org/2000/svg" xmlns:xlink="http://www.w3.org/1999/xlink" x="0px" y="0px"
	 viewBox="0 0 955 502.2" style="enable-background:new 0 0 955 502.2;" xml:space="preserve">
<style type="text/css">
	.st0{fill:none;}
	.st1{fill:url(#Vector_Smart_Object_1_);}
	.st2{opacity:0.4;fill:#656DB1;}
</style>
<pattern  y="502.2" width="632" height="332" patternUnits="userSpaceOnUse" id="pattern" viewBox="0 -332 632 332" style="overflow:visible;">
	<g>
		<rect y="-332" class="st0" width="632" height="332"/>
		
			<image style="overflow:visible;enable-background:new    ;" width="632" height="332" xlink:href="2854F6E.html"  transform="matrix(1 0 0 -1 0 0)">
		</image>
	</g>
</pattern>
<pattern  id="Vector_Smart_Object_1_" xlink:href="#pattern" patternTransform="matrix(1.5111 0 0 -1.5125 4423.0752 -20677.1094)">
</pattern>
<rect id="Vector_Smart_Object" class="st1" width="955" height="502.2"/>
<polygon class="st2" points="202.9,188.7 207.5,198 217.7,199.5 210.3,206.8 212,217 202.9,212.2 193.7,217 195.4,206.8 188,199.5 
	198.3,198 "/>
<polygon class="st2" points="237.9,251.1 242.5,260.4 252.7,261.9 245.3,269.1 247,279.3 237.9,274.5 228.7,279.3 230.4,269.1 
	223,261.9 233.3,260.4 "/>
<polygon class="st2" points="267.6,339.7 272.2,349 282.4,350.5 275,357.7 276.8,368 267.6,363.1 258.4,368 260.2,357.7 
	252.7,350.5 263,349 "/>
<polygon class="st2" points="326.6,384 331.2,393.3 341.4,394.8 334,402 335.8,412.2 326.6,407.4 317.4,412.2 319.1,402 
	311.7,394.8 322,393.3 "/>
<polygon class="st2" points="212.4,428 217,437.3 227.3,438.8 219.9,446 221.6,456.2 212.4,451.4 203.2,456.2 205,446 197.6,438.8 
	207.8,437.3 "/>
<polygon class="st2" points="410.6,318 415.2,327.3 425.4,328.8 418,336 419.8,346.2 410.6,341.4 401.4,346.2 403.1,336 
	395.7,328.8 406,327.3 "/>
<polygon class="st2" points="425.4,174.6 430,183.9 440.3,185.4 432.9,192.6 434.6,202.9 425.4,198 416.2,202.9 418,192.6 
	410.6,185.4 420.8,183.9 "/>
<polygon class="st2" points="486.6,318 491.2,327.3 501.4,328.8 494,336 495.8,346.2 486.6,341.4 477.4,346.2 479.1,336 
	471.7,328.8 482,327.3 "/>
<polygon class="st2" points="492.4,428 497,437.3 507.2,438.8 499.8,446 501.6,456.2 492.4,451.4 483.2,456.2 484.9,446 
	477.5,438.8 487.8,437.3 "/>
<polygon class="st2" points="330.6,242.7 335.2,252 345.5,253.5 338,260.7 339.8,271 330.6,266.1 321.4,271 323.2,260.7 
	315.7,253.5 326,252 "/>
<polygon class="st2" points="330.6,311.4 335.2,320.7 345.5,322.2 338,329.5 339.8,339.7 330.6,334.9 321.4,339.7 323.2,329.5 
	315.7,322.2 326,320.7 "/>
<polygon class="st2" points="492.4,135.7 497,145 507.2,146.5 499.8,153.7 501.6,164 492.4,159.1 483.2,164 484.9,153.7 
	477.5,146.5 487.8,145 "/>
<polygon class="st2" points="589.6,92.7 594.2,102 604.5,103.5 597,110.7 598.8,121 589.6,116.1 580.4,121 582.2,110.7 574.7,103.5 
	585,102 "/>
<polygon class="st2" points="675.6,143.7 680.2,153 690.5,154.5 683,161.7 684.8,172 675.6,167.1 666.4,172 668.2,161.7 
	660.7,154.5 671,153 "/>
<polygon class="st2" points="660.7,233 665.3,242.3 675.6,243.8 668.2,251 669.9,261.2 660.7,256.4 651.5,261.2 653.3,251 
	645.9,243.8 656.1,242.3 "/>
<polygon class="st2" points="574.7,346.2 579.3,355.5 589.6,357 582.2,364.3 583.9,374.5 574.7,369.7 565.5,374.5 567.3,364.3 
	559.9,357 570.1,355.5 "/>
<polygon class="st2" points="715.7,369.8 720.3,379.1 730.6,380.6 723.2,387.9 724.9,398.1 715.7,393.3 706.5,398.1 708.3,387.9 
	700.9,380.6 711.1,379.1 "/>
<polygon class="st2" points="745.5,406.6 750,415.9 760.3,417.4 752.9,424.6 754.6,434.8 745.5,430 736.3,434.8 738,424.6 
	730.6,417.4 740.9,415.9 "/>
<polygon class="st2" points="879,369.8 883.6,379.1 893.9,380.6 886.4,387.9 888.2,398.1 879,393.3 869.8,398.1 871.6,387.9 
	864.1,380.6 874.4,379.1 "/>
<polygon class="st2" points="864.1,297.3 868.7,306.6 879,308.1 871.6,315.3 873.3,325.6 864.1,320.7 855,325.6 856.7,315.3 
	849.3,308.1 859.5,306.6 "/>
<polygon class="st2" points="854.6,207.7 859.2,217 869.5,218.5 862,225.7 863.8,236 854.6,231.1 845.4,236 847.2,225.7 
	839.7,218.5 850,217 "/>
<polygon class="st2" points="766.6,188.7 771.2,198 781.5,199.5 774,206.8 775.8,217 766.6,212.2 757.4,217 759.2,206.8 
	751.7,199.5 762,198 "/>
<polygon class="st2" points="854.6,129.6 859.2,138.9 869.5,140.4 862,147.6 863.8,157.8 854.6,153 845.4,157.8 847.2,147.6 
	839.7,140.4 850,138.9 "/>
<polygon class="st2" points="893.9,64.4 898.5,73.7 908.7,75.2 901.3,82.5 903,92.7 893.9,87.9 884.7,92.7 886.4,82.5 879,75.2 
	889.3,73.7 "/>
<polygon class="st2" points="766.6,50.3 771.2,59.6 781.5,61.1 774,68.3 775.8,78.6 766.6,73.7 757.4,78.6 759.2,68.3 751.7,61.1 
	762,59.6 "/>
<polygon class="st2" points="440.3,19 444.9,28.3 455.2,29.8 447.7,37 449.5,47.2 440.3,42.4 431.1,47.2 432.9,37 425.4,29.8 
	435.7,28.3 "/>
<polygon class="st2" points="300.9,64.4 305.5,73.7 315.7,75.2 308.3,82.5 310.1,92.7 300.9,87.9 291.7,92.7 293.4,82.5 286,75.2 
	296.3,73.7 "/>
<polygon class="st2" points="123.9,33.1 128.5,42.4 138.7,43.9 131.3,51.1 133.1,61.4 123.9,56.5 114.7,61.4 116.4,51.1 109,43.9 
	119.3,42.4 "/>
<polygon class="st2" points="94.1,88.1 98.7,97.4 109,98.9 101.6,106.1 103.3,116.4 94.1,111.5 85,116.4 86.7,106.1 79.3,98.9 
	89.6,97.4 "/>
<polygon class="st2" points="74.4,233 79,242.3 89.3,243.8 81.9,251 83.6,261.2 74.4,256.4 65.2,261.2 67,251 59.6,243.8 
	69.8,242.3 "/>
<polygon class="st2" points="104.2,369.8 108.7,379.1 119,380.6 111.6,387.9 113.3,398.1 104.2,393.3 95,398.1 96.7,387.9 
	89.3,380.6 99.6,379.1 "/>
<polygon class="st2" points="59.6,448.8 64.2,458.1 74.4,459.6 67,466.9 68.8,477.1 59.6,472.3 50.4,477.1 52.1,466.9 44.7,459.6 
	55,458.1 "/>
<polygon class="st2" points="311.7,135.7 316.3,145 326.6,146.5 319.1,153.7 320.9,164 311.7,159.1 302.5,164 304.3,153.7 
	296.8,146.5 307.1,145 "/>
<polygon class="st2" points="524.4,207.7 529,217 539.3,218.5 531.8,225.7 533.6,236 524.4,231.1 515.2,236 517,225.7 509.5,218.5 
	519.8,217 "/>
</svg>
