<?xml version="1.0" encoding="utf-8"?>
<!-- Generator: Adobe Illustrator 25.0.1, SVG Export Plug-In . SVG Version: 6.00 Build 0)  -->
<svg version="1.1" id="Layer_1" xmlns="http://www.w3.org/2000/svg" xmlns:xlink="http://www.w3.org/1999/xlink" x="0px" y="0px"
	 viewBox="0 0 960 560.3" style="enable-background:new 0 0 960 560.3;" xml:space="preserve">
<style type="text/css">
	.st0{opacity:0.6;clip-path:url(#SVGID_2_);}
	.st1{fill:#35E7B3;}
	.st2{filter:url(#Adobe_OpacityMaskFilter);}
	.st3{mask:url(#SVGID_3_);}
	.st4{fill:#FFFFFF;}
	.st5{clip-path:url(#SVGID_2_);fill:url(#Tracé_2493_1_);}
	.st6{opacity:0.33;}
	.st7{opacity:0.16;fill:#FFFFFF;enable-background:new    ;}
	.st8{opacity:0.16;}
	.st9{fill:none;}
	.st10{fill:none;stroke:#FFFFFF;stroke-width:10;stroke-miterlimit:10;}
	.st11{fill:none;stroke:#FFFFFF;stroke-width:8;stroke-miterlimit:10;}
</style>
<g>
	<g id="Groupe_12136">
		<g>
			<defs>
				<rect id="SVGID_1_" y="0.3" width="960" height="560"/>
			</defs>
			<clipPath id="SVGID_2_">
				<use xlink:href="#SVGID_1_"  style="overflow:visible;"/>
			</clipPath>
			<g id="Tracé_12966" class="st0">
				<g>
					<path class="st1" d="M959.8,307.9c1.9-2.8-159.3,259.7-382.9,163.8s-362.3-121.8-389.3-43.9s-69.4,103.8-100.2,95.9
						c-30.8-8-92.5-33.2-92.5-33.2V-9.4l965.1-1.3C959.9-10.7,957.9,310.7,959.8,307.9z"/>
				</g>
				<defs>
					<filter id="Adobe_OpacityMaskFilter" filterUnits="userSpaceOnUse" x="-5.2" y="-10.7" width="965.1" height="535.7">
						
							<feColorMatrix  type="matrix" values="-1 0 0 0 1  0 -1 0 0 1  0 0 -1 0 1  0 0 0 1 0" color-interpolation-filters="sRGB" result="source"/>
					</filter>
				</defs>
				<mask maskUnits="userSpaceOnUse" x="-5.2" y="-10.7" width="965.1" height="535.7" id="SVGID_3_">
					<g class="st2">
						
							<image style="overflow:visible;" width="970" height="540" xlink:href="34888B5B.html"  transform="matrix(1 0 0 1 -8 -12.703)">
						</image>
					</g>
				</mask>
				<g class="st3">
					<path class="st4" d="M959.8,307.9c1.9-2.8-159.3,259.7-382.9,163.8s-362.3-121.8-389.3-43.9s-69.4,103.8-100.2,95.9
						c-30.8-8-92.5-33.2-92.5-33.2V-9.4l965.1-1.3C959.9-10.7,957.9,310.7,959.8,307.9z"/>
				</g>
			</g>
			
				<linearGradient id="Tracé_2493_1_" gradientUnits="userSpaceOnUse" x1="174.3197" y1="676.7745" x2="174.3197" y2="675.7745" gradientTransform="matrix(965.1179 0 0 -509.9021 -167761.6719 345088.7812)">
				<stop  offset="0" style="stop-color:#838DEF"/>
				<stop  offset="1" style="stop-color:#453ECC"/>
			</linearGradient>
			<path id="Tracé_2493" class="st5" d="M959.8,303.3c1.9-2.7-159.3,247.2-382.9,155.9s-362.3-115.9-389.3-41.8
				s-69.4,98.8-100.2,91.2s-92.5-31.6-92.5-31.6V1.3L960,0.1C960,0.1,957.9,306,959.8,303.3z"/>
		</g>
	</g>
	<g id="Groupe_2734" transform="translate(0 -0.296)" class="st6">
		<path id="Tracé_9679" class="st7" d="M256.8,290.4h-49.5c-1.8,0-3.2-2-3.2-4.6v-70.5c0-2.5,1.4-4.6,3.2-4.6h49.5
			c1.8,0,3.2,2.1,3.2,4.6v70.5C260,288.4,258.6,290.4,256.8,290.4z"/>
		<path id="Tracé_9694" class="st7" d="M749.9,210.5h-47.2c-1.7,0-3.1-2-3.1-4.4V139c0-2.4,1.4-4.4,3.1-4.4h47.2
			c1.7,0,3.1,2,3.1,4.4v67.2C753,208.6,751.6,210.5,749.9,210.5z"/>
		<path id="Tracé_9692" class="st7" d="M930.3,102.4h-63.5c-2.3,0-4.1-2.6-4.1-5.9V6.2c0-3.3,1.8-5.9,4.1-5.9h63.5
			c2.3,0,4.1,2.6,4.1,5.9v90.4C934.5,99.8,932.6,102.4,930.3,102.4z"/>
		<path id="Tracé_9680" class="st7" d="M273.9,310.2h-29.4c-1.1,0-1.9-1.2-1.9-2.7v-41.9c0-1.5,0.9-2.7,1.9-2.7h29.4
			c1.1,0,1.9,1.2,1.9,2.7v41.9C275.8,309,274.9,310.2,273.9,310.2z"/>
		<path id="Tracé_9693" class="st7" d="M767.9,231.2h-25.7c-0.9,0-1.7-1.1-1.7-2.4v-36.7c0-1.3,0.7-2.4,1.7-2.4h25.7
			c0.9,0,1.7,1.1,1.7,2.4v36.6C769.6,230.1,768.9,231.2,767.9,231.2z"/>
		<path id="Tracé_9691" class="st7" d="M957.8,129.1h-34.6c-1.2,0-2.2-1.4-2.2-3.2V76.6c0-1.8,1-3.2,2.2-3.2h34.6
			c1.2,0,2.2,1.4,2.2,3.2v49.3C960,127.7,959,129.1,957.8,129.1z"/>
		<path id="Tracé_9681" class="st7" d="M624,341.7h-40.2c-2.4,0-4.4-2.8-4.4-6.2v-57.2c0-3.5,2-6.2,4.4-6.2H624
			c2.4,0,4.4,2.8,4.4,6.2v57.2C628.4,338.9,626.4,341.7,624,341.7z"/>
		<path id="Tracé_11692" class="st7" d="M641.3,359.9h-30.5c-1.8,0-3.3-2.1-3.3-4.7v-43.4c0-2.6,1.5-4.7,3.3-4.7h30.5
			c1.8,0,3.3,2.1,3.3,4.7v43.4C644.7,357.8,643.2,359.9,641.3,359.9z"/>
		<path id="Tracé_9690" class="st7" d="M45.2,351.3H4.4C2,351.3,0,348.5,0,345v-58c0-3.5,2-6.3,4.4-6.3h40.7c2.5,0,4.4,2.8,4.4,6.3
			v58C49.6,348.5,47.6,351.3,45.2,351.3z"/>
		<path id="Tracé_9689" class="st7" d="M118.6,378.3h-88c-2.8,0-5.1-3.7-5.1-8.4v-37.2c0-4.6,2.3-8.4,5.1-8.4h88
			c2.8,0,5.1,3.7,5.1,8.4v37.2C123.7,374.5,121.4,378.3,118.6,378.3z"/>
		<g id="Groupe_1572" transform="translate(25.525 32.012)" class="st8">
			<path id="Tracé_9684" class="st4" d="M18,51.6c-9.9,0-18-11.5-18-25.6S8.1,0.3,18,0.3s18,11.5,18,25.6S27.9,51.6,18,51.6z
				 M18,12.8c-5.1,0-9.3,5.9-9.3,13.2s4.2,13.2,9.3,13.2s9.3-5.9,9.3-13.2S23.1,12.8,18,12.8z"/>
		</g>
		<g id="Groupe_1571" transform="translate(354.793 307.615)" class="st8">
			<path id="Tracé_9684-2" class="st4" d="M15.1,43.3C6.8,43.3,0,33.7,0,21.8S6.8,0.3,15.1,0.3s15.1,9.6,15.1,21.5
				S23.4,43.3,15.1,43.3z M15.1,10.7c-4.3,0-7.8,5-7.8,11.1s3.5,11.1,7.8,11.1s7.8-5,7.8-11.1S19.4,10.7,15.1,10.7L15.1,10.7z"/>
		</g>
		<g id="Ellipse_344" transform="translate(724.308 295.615)" class="st8">
			<ellipse class="st9" cx="11.9" cy="17.3" rx="11.9" ry="17"/>
			<ellipse class="st10" cx="11.9" cy="17.3" rx="6.9" ry="12"/>
		</g>
		<g id="Ellipse_352" transform="translate(867.214 205.91)" class="st8">
			<ellipse class="st9" cx="11.9" cy="17.3" rx="11.9" ry="17"/>
			<ellipse class="st10" cx="11.9" cy="17.3" rx="6.9" ry="12"/>
		</g>
		<g id="Ellipse_345" transform="translate(326.27 126.529)" class="st8">
			<ellipse class="st9" cx="11.9" cy="17.3" rx="11.9" ry="17"/>
			<ellipse class="st10" cx="11.9" cy="17.3" rx="6.9" ry="12"/>
		</g>
		<g id="Ellipse_67" transform="translate(204.896 73.016)" class="st8">
			<ellipse class="st9" cx="10.2" cy="14.8" rx="10.2" ry="14.5"/>
			<ellipse class="st11" cx="10.2" cy="14.8" rx="6.2" ry="10.5"/>
		</g>
		<g id="Ellipse_65" transform="translate(592.053 100.706)" class="st8">
			<ellipse class="st9" cx="11.9" cy="17.3" rx="11.9" ry="17"/>
			<ellipse class="st10" cx="11.9" cy="17.3" rx="6.9" ry="12"/>
		</g>
		<g id="Ellipse_63" transform="translate(79.446 196.346)" class="st8">
			<ellipse class="st9" cx="11.9" cy="17.3" rx="11.9" ry="17"/>
			<ellipse class="st10" cx="11.9" cy="17.3" rx="6.9" ry="12"/>
		</g>
		<g id="Ellipse_64" transform="translate(920.587 328.615)" class="st8">
			<ellipse class="st9" cx="11.9" cy="17.3" rx="11.9" ry="17"/>
			<ellipse class="st10" cx="11.9" cy="17.3" rx="6.9" ry="12"/>
		</g>
	</g>
</g>
</svg>
