<?xml version="1.0" encoding="utf-8"?>
<!-- Generator: Adobe Illustrator 25.0.1, SVG Export Plug-In . SVG Version: 6.00 Build 0)  -->
<svg version="1.1" id="Groupe_117" xmlns="http://www.w3.org/2000/svg" xmlns:xlink="http://www.w3.org/1999/xlink" x="0px" y="0px"
	 viewBox="0 0 960 960" style="enable-background:new 0 0 960 960;" xml:space="preserve">
<style type="text/css">
	.st0{opacity:0.8;}
	.st1{fill:#35E7B3;}
	.st2{opacity:0.7;fill:#F7F9FC;enable-background:new    ;}
	.st3{opacity:0.5;}
	.st4{opacity:0.5;clip-path:url(#SVGID_2_);}
	.st5{fill:#453ECC;}
</style>
<g id="Groupe_1" transform="translate(4724 4939.129) rotate(90)" class="st0">
	<g id="Groupe_97" transform="translate(-4340.129 4462)">
		
			<rect id="Rectangle_86" x="203" y="2" transform="matrix(2.535182e-06 1 -1 2.535182e-06 208.999 -200.9985)" class="st1" width="4" height="4"/>
		
			<rect id="Rectangle_87" x="189" y="2" transform="matrix(2.535182e-06 1 -1 2.535182e-06 194.999 -186.9985)" class="st1" width="4" height="4"/>
		
			<rect id="Rectangle_88" x="174" y="2" transform="matrix(2.535182e-06 1 -1 2.535182e-06 179.9992 -171.9986)" class="st1" width="4" height="4"/>
		
			<rect id="Rectangle_89" x="159" y="2" transform="matrix(2.535182e-06 1 -1 2.535182e-06 164.9992 -156.9988)" class="st1" width="4" height="4"/>
		
			<rect id="Rectangle_90" x="144" y="2" transform="matrix(2.535182e-06 1 -1 2.535182e-06 149.9992 -141.9988)" class="st1" width="4" height="4"/>
		
			<rect id="Rectangle_91" x="129" y="2" transform="matrix(2.535182e-06 1 -1 2.535182e-06 134.9994 -126.9991)" class="st1" width="4" height="4"/>
		
			<rect id="Rectangle_92" x="114" y="2" transform="matrix(2.535182e-06 1 -1 2.535182e-06 119.9994 -111.9991)" class="st1" width="4" height="4"/>
		
			<rect id="Rectangle_93" x="99" y="2" transform="matrix(2.535182e-06 1 -1 2.535182e-06 104.9994 -96.9991)" class="st1" width="4" height="4"/>
		
			<rect id="Rectangle_94" x="85" y="2" transform="matrix(2.535182e-06 1 -1 2.535182e-06 90.9996 -82.9994)" class="st1" width="4" height="4"/>
		
			<rect id="Rectangle_95" x="70" y="2" transform="matrix(2.535182e-06 1 -1 2.535182e-06 75.9996 -67.9994)" class="st1" width="4" height="4"/>
		
			<rect id="Rectangle_96" x="55" y="2" transform="matrix(2.535182e-06 1 -1 2.535182e-06 60.9998 -52.9997)" class="st1" width="4" height="4"/>
		
			<rect id="Rectangle_97" x="40" y="2" transform="matrix(2.535182e-06 1 -1 2.535182e-06 45.9998 -37.9997)" class="st1" width="4" height="4"/>
		
			<rect id="Rectangle_98" x="25" y="2" transform="matrix(2.535182e-06 1 -1 2.535182e-06 30.9998 -22.9997)" class="st1" width="4" height="4"/>
		
			<rect id="Rectangle_99" x="10" y="2" transform="matrix(2.535182e-06 1 -1 2.535182e-06 16 -8)" class="st1" width="4" height="4"/>
	</g>
	<g id="Groupe_106" transform="translate(-4340.129 4522.191)">
		
			<rect id="Rectangle_86-2" x="203" y="1.8" transform="matrix(2.535182e-06 1 -1 2.535182e-06 208.819 -201.1985)" class="st1" width="4" height="4"/>
		
			<rect id="Rectangle_87-2" x="189" y="1.8" transform="matrix(2.535182e-06 1 -1 2.535182e-06 194.819 -187.1985)" class="st1" width="4" height="4"/>
		
			<rect id="Rectangle_88-2" x="174" y="1.8" transform="matrix(2.535182e-06 1 -1 2.535182e-06 179.8192 -172.1986)" class="st1" width="4" height="4"/>
		
			<rect id="Rectangle_89-2" x="159" y="1.8" transform="matrix(2.535182e-06 1 -1 2.535182e-06 164.8192 -157.1988)" class="st1" width="4" height="4"/>
		
			<rect id="Rectangle_90-2" x="144" y="1.8" transform="matrix(2.535182e-06 1 -1 2.535182e-06 149.8192 -142.1988)" class="st1" width="4" height="4"/>
		
			<rect id="Rectangle_91-2" x="129" y="1.8" transform="matrix(2.535182e-06 1 -1 2.535182e-06 134.8194 -127.1991)" class="st1" width="4" height="4"/>
		
			<rect id="Rectangle_92-2" x="114" y="1.8" transform="matrix(2.535182e-06 1 -1 2.535182e-06 119.8194 -112.1991)" class="st1" width="4" height="4"/>
		
			<rect id="Rectangle_93-2" x="99" y="1.8" transform="matrix(2.535182e-06 1 -1 2.535182e-06 104.8195 -97.1991)" class="st1" width="4" height="4"/>
		
			<rect id="Rectangle_94-2" x="85" y="1.8" transform="matrix(2.535182e-06 1 -1 2.535182e-06 90.8196 -83.1994)" class="st1" width="4" height="4"/>
		
			<rect id="Rectangle_95-2" x="70" y="1.8" transform="matrix(2.535182e-06 1 -1 2.535182e-06 75.8196 -68.1994)" class="st1" width="4" height="4"/>
		
			<rect id="Rectangle_96-2" x="55" y="1.8" transform="matrix(2.535182e-06 1 -1 2.535182e-06 60.8198 -53.1997)" class="st1" width="4" height="4"/>
		
			<rect id="Rectangle_97-2" x="40" y="1.8" transform="matrix(2.535182e-06 1 -1 2.535182e-06 45.8198 -38.1997)" class="st1" width="4" height="4"/>
		
			<rect id="Rectangle_98-2" x="25" y="1.8" transform="matrix(2.535182e-06 1 -1 2.535182e-06 30.8198 -23.1997)" class="st1" width="4" height="4"/>
		
			<rect id="Rectangle_99-2" x="10" y="1.8" transform="matrix(2.535182e-06 1 -1 2.535182e-06 15.82 -8.2)" class="st1" width="4" height="4"/>
	</g>
	<g id="Groupe_111" transform="translate(-4340.129 4583.058)">
		
			<rect id="Rectangle_86-3" x="203.5" y="1.4" transform="matrix(2.535182e-06 1 -1 2.535182e-06 208.483 -201.5985)" class="st1" width="3" height="4"/>
		
			<rect id="Rectangle_87-3" x="189.5" y="1.4" transform="matrix(2.535182e-06 1 -1 2.535182e-06 194.483 -187.5985)" class="st1" width="3" height="4"/>
		
			<rect id="Rectangle_88-3" x="174.5" y="1.4" transform="matrix(2.535182e-06 1 -1 2.535182e-06 179.4832 -172.5986)" class="st1" width="3" height="4"/>
		
			<rect id="Rectangle_89-3" x="159.5" y="1.4" transform="matrix(2.535182e-06 1 -1 2.535182e-06 164.4832 -157.5988)" class="st1" width="3" height="4"/>
		
			<rect id="Rectangle_90-3" x="144.5" y="1.4" transform="matrix(2.535182e-06 1 -1 2.535182e-06 149.4832 -142.5988)" class="st1" width="3" height="4"/>
		
			<rect id="Rectangle_91-3" x="129.5" y="1.4" transform="matrix(2.535182e-06 1 -1 2.535182e-06 134.4834 -127.5991)" class="st1" width="3" height="4"/>
		
			<rect id="Rectangle_92-3" x="114.5" y="1.4" transform="matrix(2.535182e-06 1 -1 2.535182e-06 119.4834 -112.5991)" class="st1" width="3" height="4"/>
		
			<rect id="Rectangle_93-3" x="99.5" y="1.4" transform="matrix(2.535182e-06 1 -1 2.535182e-06 104.4835 -97.5992)" class="st1" width="3" height="4"/>
		
			<rect id="Rectangle_94-3" x="85.5" y="1.4" transform="matrix(2.535182e-06 1 -1 2.535182e-06 90.4836 -83.5994)" class="st1" width="3" height="4"/>
		
			<rect id="Rectangle_95-3" x="70.5" y="1.4" transform="matrix(2.535182e-06 1 -1 2.535182e-06 75.4836 -68.5994)" class="st1" width="3" height="4"/>
		
			<rect id="Rectangle_96-3" x="55.5" y="1.4" transform="matrix(2.535182e-06 1 -1 2.535182e-06 60.4838 -53.5997)" class="st1" width="3" height="4"/>
		
			<rect id="Rectangle_97-3" x="40.5" y="1.4" transform="matrix(2.535182e-06 1 -1 2.535182e-06 45.4838 -38.5997)" class="st1" width="3" height="4"/>
		
			<rect id="Rectangle_98-3" x="25.5" y="1.4" transform="matrix(2.535182e-06 1 -1 2.535182e-06 30.4838 -23.5997)" class="st1" width="3" height="4"/>
		
			<rect id="Rectangle_99-3" x="10.5" y="1.4" transform="matrix(2.535182e-06 1 -1 2.535182e-06 15.484 -8.6)" class="st1" width="3" height="4"/>
	</g>
	<g id="Groupe_116" transform="translate(-4340.129 4643.925)">
		
			<rect id="Rectangle_86-4" x="203.5" y="1.6" transform="matrix(2.535182e-06 1 -1 2.535182e-06 208.549 -201.3985)" class="st1" width="3" height="4"/>
		
			<rect id="Rectangle_87-4" x="189.5" y="1.6" transform="matrix(2.535182e-06 1 -1 2.535182e-06 194.549 -187.3985)" class="st1" width="3" height="4"/>
		
			<rect id="Rectangle_88-4" x="174.5" y="1.6" transform="matrix(2.535182e-06 1 -1 2.535182e-06 179.5491 -172.3986)" class="st1" width="3" height="4"/>
		
			<rect id="Rectangle_89-4" x="159.5" y="1.6" transform="matrix(2.535182e-06 1 -1 2.535182e-06 164.5492 -157.3988)" class="st1" width="3" height="4"/>
		
			<rect id="Rectangle_90-4" x="144.5" y="1.6" transform="matrix(2.535182e-06 1 -1 2.535182e-06 149.5492 -142.3988)" class="st1" width="3" height="4"/>
		
			<rect id="Rectangle_91-4" x="129.5" y="1.6" transform="matrix(2.535182e-06 1 -1 2.535182e-06 134.5494 -127.3991)" class="st1" width="3" height="4"/>
		
			<rect id="Rectangle_92-4" x="114.5" y="1.6" transform="matrix(2.535182e-06 1 -1 2.535182e-06 119.5494 -112.3991)" class="st1" width="3" height="4"/>
		
			<rect id="Rectangle_93-4" x="99.5" y="1.6" transform="matrix(2.535182e-06 1 -1 2.535182e-06 104.5494 -97.3991)" class="st1" width="3" height="4"/>
		
			<rect id="Rectangle_94-4" x="85.5" y="1.6" transform="matrix(2.535182e-06 1 -1 2.535182e-06 90.5496 -83.3994)" class="st1" width="3" height="4"/>
		
			<rect id="Rectangle_95-4" x="70.5" y="1.6" transform="matrix(2.535182e-06 1 -1 2.535182e-06 75.5496 -68.3994)" class="st1" width="3" height="4"/>
		
			<rect id="Rectangle_96-4" x="55.5" y="1.6" transform="matrix(2.535182e-06 1 -1 2.535182e-06 60.5498 -53.3995)" class="st1" width="3" height="4"/>
		
			<rect id="Rectangle_97-4" x="40.5" y="1.6" transform="matrix(2.535182e-06 1 -1 2.535182e-06 45.5498 -38.3997)" class="st1" width="3" height="4"/>
		
			<rect id="Rectangle_98-4" x="25.5" y="1.6" transform="matrix(2.535182e-06 1 -1 2.535182e-06 30.5498 -23.3997)" class="st1" width="3" height="4"/>
		
			<rect id="Rectangle_99-4" x="10.5" y="1.6" transform="matrix(2.535182e-06 1 -1 2.535182e-06 15.55 -8.4)" class="st1" width="3" height="4"/>
	</g>
	<g id="Groupe_98" transform="translate(-4340.129 4474.173)">
		
			<rect id="Rectangle_86-5" x="203" y="1.8" transform="matrix(2.535182e-06 1 -1 2.535182e-06 208.853 -201.1985)" class="st1" width="4" height="4"/>
		
			<rect id="Rectangle_87-5" x="189" y="1.8" transform="matrix(2.535182e-06 1 -1 2.535182e-06 194.853 -187.1985)" class="st1" width="4" height="4"/>
		
			<rect id="Rectangle_88-5" x="174" y="1.8" transform="matrix(2.535182e-06 1 -1 2.535182e-06 179.853 -172.1987)" class="st1" width="4" height="4"/>
		
			<rect id="Rectangle_89-5" x="159" y="1.8" transform="matrix(2.535182e-06 1 -1 2.535182e-06 164.8532 -157.1988)" class="st1" width="4" height="4"/>
		
			<rect id="Rectangle_90-5" x="144" y="1.8" transform="matrix(2.535182e-06 1 -1 2.535182e-06 149.8532 -142.1988)" class="st1" width="4" height="4"/>
		
			<rect id="Rectangle_91-5" x="129" y="1.8" transform="matrix(2.535182e-06 1 -1 2.535182e-06 134.8534 -127.1991)" class="st1" width="4" height="4"/>
		
			<rect id="Rectangle_92-5" x="114" y="1.8" transform="matrix(2.535182e-06 1 -1 2.535182e-06 119.8534 -112.1991)" class="st1" width="4" height="4"/>
		
			<rect id="Rectangle_93-5" x="99" y="1.8" transform="matrix(2.535182e-06 1 -1 2.535182e-06 104.8534 -97.1991)" class="st1" width="4" height="4"/>
		
			<rect id="Rectangle_94-5" x="85" y="1.8" transform="matrix(2.535182e-06 1 -1 2.535182e-06 90.8536 -83.1994)" class="st1" width="4" height="4"/>
		
			<rect id="Rectangle_95-5" x="70" y="1.8" transform="matrix(2.535182e-06 1 -1 2.535182e-06 75.8536 -68.1994)" class="st1" width="4" height="4"/>
		
			<rect id="Rectangle_96-5" x="55" y="1.8" transform="matrix(2.535182e-06 1 -1 2.535182e-06 60.8538 -53.1997)" class="st1" width="4" height="4"/>
		
			<rect id="Rectangle_97-5" x="40" y="1.8" transform="matrix(2.535182e-06 1 -1 2.535182e-06 45.8538 -38.1997)" class="st1" width="4" height="4"/>
		
			<rect id="Rectangle_98-5" x="25" y="1.8" transform="matrix(2.535182e-06 1 -1 2.535182e-06 30.8538 -23.1997)" class="st1" width="4" height="4"/>
		
			<rect id="Rectangle_99-5" x="10" y="1.8" transform="matrix(2.535182e-06 1 -1 2.535182e-06 15.854 -8.2)" class="st1" width="4" height="4"/>
	</g>
	<g id="Groupe_105" transform="translate(-4340.129 4535.041)">
		
			<rect id="Rectangle_86-6" x="203.5" y="1.5" transform="matrix(2.535182e-06 1 -1 2.535182e-06 208.419 -201.4985)" class="st1" width="3" height="4"/>
		
			<rect id="Rectangle_87-6" x="189.5" y="1.5" transform="matrix(2.535182e-06 1 -1 2.535182e-06 194.419 -187.4985)" class="st1" width="3" height="4"/>
		
			<rect id="Rectangle_88-6" x="174.5" y="1.5" transform="matrix(2.535182e-06 1 -1 2.535182e-06 179.4192 -172.4986)" class="st1" width="3" height="4"/>
		
			<rect id="Rectangle_89-6" x="159.5" y="1.5" transform="matrix(2.535182e-06 1 -1 2.535182e-06 164.4192 -157.4988)" class="st1" width="3" height="4"/>
		
			<rect id="Rectangle_90-6" x="144.5" y="1.5" transform="matrix(2.535182e-06 1 -1 2.535182e-06 149.4192 -142.4988)" class="st1" width="3" height="4"/>
		
			<rect id="Rectangle_91-6" x="129.5" y="1.5" transform="matrix(2.535182e-06 1 -1 2.535182e-06 134.4194 -127.4991)" class="st1" width="3" height="4"/>
		
			<rect id="Rectangle_92-6" x="114.5" y="1.5" transform="matrix(2.535182e-06 1 -1 2.535182e-06 119.4194 -112.4991)" class="st1" width="3" height="4"/>
		
			<rect id="Rectangle_93-6" x="99.5" y="1.5" transform="matrix(2.535182e-06 1 -1 2.535182e-06 104.4194 -97.4991)" class="st1" width="3" height="4"/>
		
			<rect id="Rectangle_94-6" x="85.5" y="1.5" transform="matrix(2.535182e-06 1 -1 2.535182e-06 90.4196 -83.4994)" class="st1" width="3" height="4"/>
		
			<rect id="Rectangle_95-6" x="70.5" y="1.5" transform="matrix(2.535182e-06 1 -1 2.535182e-06 75.4196 -68.4994)" class="st1" width="3" height="4"/>
		
			<rect id="Rectangle_96-6" x="55.5" y="1.5" transform="matrix(2.535182e-06 1 -1 2.535182e-06 60.4198 -53.4997)" class="st1" width="3" height="4"/>
		
			<rect id="Rectangle_97-6" x="40.5" y="1.5" transform="matrix(2.535182e-06 1 -1 2.535182e-06 45.4198 -38.4997)" class="st1" width="3" height="4"/>
		
			<rect id="Rectangle_98-6" x="25.5" y="1.5" transform="matrix(2.535182e-06 1 -1 2.535182e-06 30.4198 -23.4997)" class="st1" width="3" height="4"/>
		
			<rect id="Rectangle_99-6" x="10.5" y="1.5" transform="matrix(2.535182e-06 1 -1 2.535182e-06 15.42 -8.5)" class="st1" width="3" height="4"/>
	</g>
	<g id="Groupe_110" transform="translate(-4340.129 4595.231)">
		
			<rect id="Rectangle_86-7" x="203" y="1.8" transform="matrix(2.535182e-06 1 -1 2.535182e-06 208.737 -201.1985)" class="st1" width="4" height="4"/>
		
			<rect id="Rectangle_87-7" x="189" y="1.8" transform="matrix(2.535182e-06 1 -1 2.535182e-06 194.737 -187.1985)" class="st1" width="4" height="4"/>
		
			<rect id="Rectangle_88-7" x="174" y="1.8" transform="matrix(2.535182e-06 1 -1 2.535182e-06 179.7372 -172.1988)" class="st1" width="4" height="4"/>
		
			<rect id="Rectangle_89-7" x="159" y="1.8" transform="matrix(2.535182e-06 1 -1 2.535182e-06 164.7372 -157.1988)" class="st1" width="4" height="4"/>
		
			<rect id="Rectangle_90-7" x="144" y="1.8" transform="matrix(2.535182e-06 1 -1 2.535182e-06 149.7372 -142.1988)" class="st1" width="4" height="4"/>
		
			<rect id="Rectangle_91-7" x="129" y="1.8" transform="matrix(2.535182e-06 1 -1 2.535182e-06 134.7374 -127.1991)" class="st1" width="4" height="4"/>
		
			<rect id="Rectangle_92-7" x="114" y="1.8" transform="matrix(2.535182e-06 1 -1 2.535182e-06 119.7374 -112.1991)" class="st1" width="4" height="4"/>
		
			<rect id="Rectangle_93-7" x="99" y="1.8" transform="matrix(2.535182e-06 1 -1 2.535182e-06 104.7374 -97.1991)" class="st1" width="4" height="4"/>
		
			<rect id="Rectangle_94-7" x="85" y="1.8" transform="matrix(2.535182e-06 1 -1 2.535182e-06 90.7376 -83.1994)" class="st1" width="4" height="4"/>
		
			<rect id="Rectangle_95-7" x="70" y="1.8" transform="matrix(2.535182e-06 1 -1 2.535182e-06 75.7376 -68.1994)" class="st1" width="4" height="4"/>
		
			<rect id="Rectangle_96-7" x="55" y="1.8" transform="matrix(2.535182e-06 1 -1 2.535182e-06 60.7378 -53.1997)" class="st1" width="4" height="4"/>
		
			<rect id="Rectangle_97-7" x="40" y="1.8" transform="matrix(2.535182e-06 1 -1 2.535182e-06 45.7378 -38.1997)" class="st1" width="4" height="4"/>
		
			<rect id="Rectangle_98-7" x="25" y="1.8" transform="matrix(2.535182e-06 1 -1 2.535182e-06 30.7378 -23.1997)" class="st1" width="4" height="4"/>
		
			<rect id="Rectangle_99-7" x="10" y="1.8" transform="matrix(2.535182e-06 1 -1 2.535182e-06 15.738 -8.2)" class="st1" width="4" height="4"/>
	</g>
	<g id="Groupe_115" transform="translate(-4340.129 4655.422)">
		
			<rect id="Rectangle_86-8" x="203" y="1.6" transform="matrix(2.535182e-06 1 -1 2.535182e-06 208.555 -201.3985)" class="st1" width="4" height="4"/>
		
			<rect id="Rectangle_87-8" x="189" y="1.6" transform="matrix(2.535182e-06 1 -1 2.535182e-06 194.555 -187.3985)" class="st1" width="4" height="4"/>
		
			<rect id="Rectangle_88-8" x="174" y="1.6" transform="matrix(2.535182e-06 1 -1 2.535182e-06 179.5552 -172.3986)" class="st1" width="4" height="4"/>
		
			<rect id="Rectangle_89-8" x="159" y="1.6" transform="matrix(2.535182e-06 1 -1 2.535182e-06 164.5552 -157.3988)" class="st1" width="4" height="4"/>
		
			<rect id="Rectangle_90-8" x="144" y="1.6" transform="matrix(2.535182e-06 1 -1 2.535182e-06 149.5552 -142.3988)" class="st1" width="4" height="4"/>
		
			<rect id="Rectangle_91-8" x="129" y="1.6" transform="matrix(2.535182e-06 1 -1 2.535182e-06 134.5554 -127.3991)" class="st1" width="4" height="4"/>
		
			<rect id="Rectangle_92-8" x="114" y="1.6" transform="matrix(2.535182e-06 1 -1 2.535182e-06 119.5554 -112.3991)" class="st1" width="4" height="4"/>
		
			<rect id="Rectangle_93-8" x="99" y="1.6" transform="matrix(2.535182e-06 1 -1 2.535182e-06 104.5554 -97.3991)" class="st1" width="4" height="4"/>
		
			<rect id="Rectangle_94-8" x="85" y="1.6" transform="matrix(2.535182e-06 1 -1 2.535182e-06 90.5556 -83.3994)" class="st1" width="4" height="4"/>
		
			<rect id="Rectangle_95-8" x="70" y="1.6" transform="matrix(2.535182e-06 1 -1 2.535182e-06 75.5556 -68.3994)" class="st1" width="4" height="4"/>
		
			<rect id="Rectangle_96-8" x="55" y="1.6" transform="matrix(2.535182e-06 1 -1 2.535182e-06 60.5558 -53.3997)" class="st1" width="4" height="4"/>
		
			<rect id="Rectangle_97-8" x="40" y="1.6" transform="matrix(2.535182e-06 1 -1 2.535182e-06 45.5558 -38.3997)" class="st1" width="4" height="4"/>
		
			<rect id="Rectangle_98-8" x="25" y="1.6" transform="matrix(2.535182e-06 1 -1 2.535182e-06 30.5558 -23.3997)" class="st1" width="4" height="4"/>
		
			<rect id="Rectangle_99-8" x="10" y="1.6" transform="matrix(2.535182e-06 1 -1 2.535182e-06 15.556 -8.4)" class="st1" width="4" height="4"/>
	</g>
	<g id="Groupe_99" transform="translate(-4340.129 4486.347)">
		
			<rect id="Rectangle_86-9" x="203" y="1.7" transform="matrix(2.535182e-06 1 -1 2.535182e-06 208.607 -201.2985)" class="st1" width="4" height="4"/>
		
			<rect id="Rectangle_87-9" x="189" y="1.7" transform="matrix(2.535182e-06 1 -1 2.535182e-06 194.607 -187.2985)" class="st1" width="4" height="4"/>
		
			<rect id="Rectangle_88-9" x="174" y="1.7" transform="matrix(2.535182e-06 1 -1 2.535182e-06 179.6072 -172.2986)" class="st1" width="4" height="4"/>
		
			<rect id="Rectangle_89-9" x="159" y="1.7" transform="matrix(2.535182e-06 1 -1 2.535182e-06 164.6072 -157.2988)" class="st1" width="4" height="4"/>
		
			<rect id="Rectangle_90-9" x="144" y="1.7" transform="matrix(2.535182e-06 1 -1 2.535182e-06 149.6072 -142.2988)" class="st1" width="4" height="4"/>
		
			<rect id="Rectangle_91-9" x="129" y="1.7" transform="matrix(2.535182e-06 1 -1 2.535182e-06 134.6074 -127.2991)" class="st1" width="4" height="4"/>
		
			<rect id="Rectangle_92-9" x="114" y="1.7" transform="matrix(2.535182e-06 1 -1 2.535182e-06 119.6074 -112.2991)" class="st1" width="4" height="4"/>
		
			<rect id="Rectangle_93-9" x="99" y="1.7" transform="matrix(2.535182e-06 1 -1 2.535182e-06 104.6074 -97.2991)" class="st1" width="4" height="4"/>
		
			<rect id="Rectangle_94-9" x="85" y="1.7" transform="matrix(2.535182e-06 1 -1 2.535182e-06 90.6076 -83.2994)" class="st1" width="4" height="4"/>
		
			<rect id="Rectangle_95-9" x="70" y="1.7" transform="matrix(2.535182e-06 1 -1 2.535182e-06 75.6076 -68.2994)" class="st1" width="4" height="4"/>
		
			<rect id="Rectangle_96-9" x="55" y="1.7" transform="matrix(2.535182e-06 1 -1 2.535182e-06 60.6078 -53.2997)" class="st1" width="4" height="4"/>
		
			<rect id="Rectangle_97-9" x="40" y="1.7" transform="matrix(2.535182e-06 1 -1 2.535182e-06 45.6078 -38.2997)" class="st1" width="4" height="4"/>
		
			<rect id="Rectangle_98-9" x="25" y="1.7" transform="matrix(2.535182e-06 1 -1 2.535182e-06 30.6078 -23.2997)" class="st1" width="4" height="4"/>
		
			<rect id="Rectangle_99-9" x="10" y="1.7" transform="matrix(2.535182e-06 1 -1 2.535182e-06 15.608 -8.3)" class="st1" width="4" height="4"/>
	</g>
	<g id="Groupe_104" transform="translate(-4340.129 4547.214)">
		
			<rect id="Rectangle_86-10" x="203" y="1.8" transform="matrix(2.535182e-06 1 -1 2.535182e-06 208.773 -201.1985)" class="st1" width="4" height="4"/>
		
			<rect id="Rectangle_87-10" x="189" y="1.8" transform="matrix(2.535182e-06 1 -1 2.535182e-06 194.773 -187.1985)" class="st1" width="4" height="4"/>
		
			<rect id="Rectangle_88-10" x="174" y="1.8" transform="matrix(2.535182e-06 1 -1 2.535182e-06 179.7732 -172.1986)" class="st1" width="4" height="4"/>
		
			<rect id="Rectangle_89-10" x="159" y="1.8" transform="matrix(2.535182e-06 1 -1 2.535182e-06 164.7732 -157.1988)" class="st1" width="4" height="4"/>
		
			<rect id="Rectangle_90-10" x="144" y="1.8" transform="matrix(2.535182e-06 1 -1 2.535182e-06 149.7732 -142.1988)" class="st1" width="4" height="4"/>
		
			<rect id="Rectangle_91-10" x="129" y="1.8" transform="matrix(2.535182e-06 1 -1 2.535182e-06 134.7734 -127.1991)" class="st1" width="4" height="4"/>
		
			<rect id="Rectangle_92-10" x="114" y="1.8" transform="matrix(2.535182e-06 1 -1 2.535182e-06 119.7734 -112.1991)" class="st1" width="4" height="4"/>
		
			<rect id="Rectangle_93-10" x="99" y="1.8" transform="matrix(2.535182e-06 1 -1 2.535182e-06 104.7734 -97.1991)" class="st1" width="4" height="4"/>
		
			<rect id="Rectangle_94-10" x="85" y="1.8" transform="matrix(2.535182e-06 1 -1 2.535182e-06 90.7736 -83.1994)" class="st1" width="4" height="4"/>
		
			<rect id="Rectangle_95-10" x="70" y="1.8" transform="matrix(2.535182e-06 1 -1 2.535182e-06 75.7736 -68.1994)" class="st1" width="4" height="4"/>
		
			<rect id="Rectangle_96-10" x="55" y="1.8" transform="matrix(2.535182e-06 1 -1 2.535182e-06 60.7738 -53.1997)" class="st1" width="4" height="4"/>
		
			<rect id="Rectangle_97-10" x="40" y="1.8" transform="matrix(2.535182e-06 1 -1 2.535182e-06 45.7738 -38.1997)" class="st1" width="4" height="4"/>
		
			<rect id="Rectangle_98-10" x="25" y="1.8" transform="matrix(2.535182e-06 1 -1 2.535182e-06 30.7738 -23.1997)" class="st1" width="4" height="4"/>
		
			<rect id="Rectangle_99-10" x="10" y="1.8" transform="matrix(2.535182e-06 1 -1 2.535182e-06 15.774 -8.2)" class="st1" width="4" height="4"/>
	</g>
	<g id="Groupe_109" transform="translate(-4340.129 4607.405)">
		
			<rect id="Rectangle_86-11" x="203" y="1.6" transform="matrix(2.535182e-06 1 -1 2.535182e-06 208.591 -201.3985)" class="st1" width="4" height="4"/>
		
			<rect id="Rectangle_87-11" x="189" y="1.6" transform="matrix(2.535182e-06 1 -1 2.535182e-06 194.591 -187.3985)" class="st1" width="4" height="4"/>
		
			<rect id="Rectangle_88-11" x="174" y="1.6" transform="matrix(2.535182e-06 1 -1 2.535182e-06 179.591 -172.3987)" class="st1" width="4" height="4"/>
		
			<rect id="Rectangle_89-11" x="159" y="1.6" transform="matrix(2.535182e-06 1 -1 2.535182e-06 164.5912 -157.3988)" class="st1" width="4" height="4"/>
		
			<rect id="Rectangle_90-11" x="144" y="1.6" transform="matrix(2.535182e-06 1 -1 2.535182e-06 149.5912 -142.3988)" class="st1" width="4" height="4"/>
		
			<rect id="Rectangle_91-11" x="129" y="1.6" transform="matrix(2.535182e-06 1 -1 2.535182e-06 134.5914 -127.3991)" class="st1" width="4" height="4"/>
		
			<rect id="Rectangle_92-11" x="114" y="1.6" transform="matrix(2.535182e-06 1 -1 2.535182e-06 119.5914 -112.3991)" class="st1" width="4" height="4"/>
		
			<rect id="Rectangle_93-11" x="99" y="1.6" transform="matrix(2.535182e-06 1 -1 2.535182e-06 104.5915 -97.3992)" class="st1" width="4" height="4"/>
		
			<rect id="Rectangle_94-11" x="85" y="1.6" transform="matrix(2.535182e-06 1 -1 2.535182e-06 90.5916 -83.3994)" class="st1" width="4" height="4"/>
		
			<rect id="Rectangle_95-11" x="70" y="1.6" transform="matrix(2.535182e-06 1 -1 2.535182e-06 75.5916 -68.3994)" class="st1" width="4" height="4"/>
		
			<rect id="Rectangle_96-11" x="55" y="1.6" transform="matrix(2.535182e-06 1 -1 2.535182e-06 60.5918 -53.3997)" class="st1" width="4" height="4"/>
		
			<rect id="Rectangle_97-11" x="40" y="1.6" transform="matrix(2.535182e-06 1 -1 2.535182e-06 45.5918 -38.3997)" class="st1" width="4" height="4"/>
		
			<rect id="Rectangle_98-11" x="25" y="1.6" transform="matrix(2.535182e-06 1 -1 2.535182e-06 30.5918 -23.3997)" class="st1" width="4" height="4"/>
		
			<rect id="Rectangle_99-11" x="10" y="1.6" transform="matrix(2.535182e-06 1 -1 2.535182e-06 15.592 -8.4)" class="st1" width="4" height="4"/>
	</g>
	<g id="Groupe_114" transform="translate(-4340.129 4667.596)">
		
			<rect id="Rectangle_86-12" x="203" y="2.4" transform="matrix(2.535182e-06 1 -1 2.535182e-06 209.409 -200.5985)" class="st1" width="4" height="4"/>
		
			<rect id="Rectangle_87-12" x="189" y="2.4" transform="matrix(2.535182e-06 1 -1 2.535182e-06 195.409 -186.5985)" class="st1" width="4" height="4"/>
		
			<rect id="Rectangle_88-12" x="174" y="2.4" transform="matrix(2.535182e-06 1 -1 2.535182e-06 180.4091 -171.5986)" class="st1" width="4" height="4"/>
		
			<rect id="Rectangle_89-12" x="159" y="2.4" transform="matrix(2.535182e-06 1 -1 2.535182e-06 165.4092 -156.5988)" class="st1" width="4" height="4"/>
		
			<rect id="Rectangle_90-12" x="144" y="2.4" transform="matrix(2.535182e-06 1 -1 2.535182e-06 150.4092 -141.5988)" class="st1" width="4" height="4"/>
		
			<rect id="Rectangle_91-12" x="129" y="2.4" transform="matrix(2.535182e-06 1 -1 2.535182e-06 135.4094 -126.5991)" class="st1" width="4" height="4"/>
		
			<rect id="Rectangle_92-12" x="114" y="2.4" transform="matrix(2.535182e-06 1 -1 2.535182e-06 120.4094 -111.5991)" class="st1" width="4" height="4"/>
		
			<rect id="Rectangle_93-12" x="99" y="2.4" transform="matrix(2.535182e-06 1 -1 2.535182e-06 105.4094 -96.5991)" class="st1" width="4" height="4"/>
		
			<rect id="Rectangle_94-12" x="85" y="2.4" transform="matrix(2.535182e-06 1 -1 2.535182e-06 91.4096 -82.5994)" class="st1" width="4" height="4"/>
		
			<rect id="Rectangle_95-12" x="70" y="2.4" transform="matrix(2.535182e-06 1 -1 2.535182e-06 76.4096 -67.5994)" class="st1" width="4" height="4"/>
		
			<rect id="Rectangle_96-12" x="55" y="2.4" transform="matrix(2.535182e-06 1 -1 2.535182e-06 61.4098 -52.5997)" class="st1" width="4" height="4"/>
		
			<rect id="Rectangle_97-12" x="40" y="2.4" transform="matrix(2.535182e-06 1 -1 2.535182e-06 46.4098 -37.5997)" class="st1" width="4" height="4"/>
		
			<rect id="Rectangle_98-12" x="25" y="2.4" transform="matrix(2.535182e-06 1 -1 2.535182e-06 31.4098 -22.5997)" class="st1" width="4" height="4"/>
		
			<rect id="Rectangle_99-12" x="10" y="2.4" transform="matrix(2.535182e-06 1 -1 2.535182e-06 16.41 -7.6)" class="st1" width="4" height="4"/>
	</g>
	<g id="Groupe_100" transform="translate(-4340.129 4498.521)">
		
			<rect id="Rectangle_86-13" x="203" y="2.5" transform="matrix(2.535182e-06 1 -1 2.535182e-06 209.459 -200.4985)" class="st1" width="4" height="4"/>
		
			<rect id="Rectangle_87-13" x="189" y="2.5" transform="matrix(2.535182e-06 1 -1 2.535182e-06 195.459 -186.4985)" class="st1" width="4" height="4"/>
		
			<rect id="Rectangle_88-13" x="174" y="2.5" transform="matrix(2.535182e-06 1 -1 2.535182e-06 180.459 -171.4987)" class="st1" width="4" height="4"/>
		
			<rect id="Rectangle_89-13" x="159" y="2.5" transform="matrix(2.535182e-06 1 -1 2.535182e-06 165.4592 -156.4988)" class="st1" width="4" height="4"/>
		
			<rect id="Rectangle_90-13" x="144" y="2.5" transform="matrix(2.535182e-06 1 -1 2.535182e-06 150.4592 -141.4988)" class="st1" width="4" height="4"/>
		
			<rect id="Rectangle_91-13" x="129" y="2.5" transform="matrix(2.535182e-06 1 -1 2.535182e-06 135.4594 -126.4991)" class="st1" width="4" height="4"/>
		
			<rect id="Rectangle_92-13" x="114" y="2.5" transform="matrix(2.535182e-06 1 -1 2.535182e-06 120.4594 -111.4991)" class="st1" width="4" height="4"/>
		
			<rect id="Rectangle_93-13" x="99" y="2.5" transform="matrix(2.535182e-06 1 -1 2.535182e-06 105.4594 -96.4991)" class="st1" width="4" height="4"/>
		
			<rect id="Rectangle_94-13" x="85" y="2.5" transform="matrix(2.535182e-06 1 -1 2.535182e-06 91.4596 -82.4994)" class="st1" width="4" height="4"/>
		
			<rect id="Rectangle_95-13" x="70" y="2.5" transform="matrix(2.535182e-06 1 -1 2.535182e-06 76.4596 -67.4994)" class="st1" width="4" height="4"/>
		
			<rect id="Rectangle_96-13" x="55" y="2.5" transform="matrix(2.535182e-06 1 -1 2.535182e-06 61.4598 -52.4997)" class="st1" width="4" height="4"/>
		
			<rect id="Rectangle_97-13" x="40" y="2.5" transform="matrix(2.535182e-06 1 -1 2.535182e-06 46.4598 -37.4997)" class="st1" width="4" height="4"/>
		
			<rect id="Rectangle_98-13" x="25" y="2.5" transform="matrix(2.535182e-06 1 -1 2.535182e-06 31.4598 -22.4997)" class="st1" width="4" height="4"/>
		
			<rect id="Rectangle_99-13" x="10" y="2.5" transform="matrix(2.535182e-06 1 -1 2.535182e-06 16.46 -7.5)" class="st1" width="4" height="4"/>
	</g>
	<g id="Groupe_103" transform="translate(-4340.129 4558.711)">
		
			<rect id="Rectangle_86-14" x="203" y="2.3" transform="matrix(2.535182e-06 1 -1 2.535182e-06 209.277 -200.6985)" class="st1" width="4" height="4"/>
		
			<rect id="Rectangle_87-14" x="189" y="2.3" transform="matrix(2.535182e-06 1 -1 2.535182e-06 195.277 -186.6985)" class="st1" width="4" height="4"/>
		
			<rect id="Rectangle_88-14" x="174" y="2.3" transform="matrix(2.535182e-06 1 -1 2.535182e-06 180.2772 -171.6986)" class="st1" width="4" height="4"/>
		
			<rect id="Rectangle_89-14" x="159" y="2.3" transform="matrix(2.535182e-06 1 -1 2.535182e-06 165.2772 -156.6988)" class="st1" width="4" height="4"/>
		
			<rect id="Rectangle_90-14" x="144" y="2.3" transform="matrix(2.535182e-06 1 -1 2.535182e-06 150.2772 -141.6988)" class="st1" width="4" height="4"/>
		
			<rect id="Rectangle_91-14" x="129" y="2.3" transform="matrix(2.535182e-06 1 -1 2.535182e-06 135.2774 -126.6991)" class="st1" width="4" height="4"/>
		
			<rect id="Rectangle_92-14" x="114" y="2.3" transform="matrix(2.535182e-06 1 -1 2.535182e-06 120.2774 -111.6991)" class="st1" width="4" height="4"/>
		
			<rect id="Rectangle_93-14" x="99" y="2.3" transform="matrix(2.535182e-06 1 -1 2.535182e-06 105.2774 -96.6991)" class="st1" width="4" height="4"/>
		
			<rect id="Rectangle_94-14" x="85" y="2.3" transform="matrix(2.535182e-06 1 -1 2.535182e-06 91.2776 -82.6994)" class="st1" width="4" height="4"/>
		
			<rect id="Rectangle_95-14" x="70" y="2.3" transform="matrix(2.535182e-06 1 -1 2.535182e-06 76.2776 -67.6994)" class="st1" width="4" height="4"/>
		
			<rect id="Rectangle_96-14" x="55" y="2.3" transform="matrix(2.535182e-06 1 -1 2.535182e-06 61.2778 -52.6997)" class="st1" width="4" height="4"/>
		
			<rect id="Rectangle_97-14" x="40" y="2.3" transform="matrix(2.535182e-06 1 -1 2.535182e-06 46.2778 -37.6997)" class="st1" width="4" height="4"/>
		
			<rect id="Rectangle_98-14" x="25" y="2.3" transform="matrix(2.535182e-06 1 -1 2.535182e-06 31.2778 -22.6997)" class="st1" width="4" height="4"/>
		
			<rect id="Rectangle_99-14" x="10" y="2.3" transform="matrix(2.535182e-06 1 -1 2.535182e-06 16.278 -7.7)" class="st1" width="4" height="4"/>
	</g>
	<g id="Groupe_108" transform="translate(-4340.129 4619.578)">
		
			<rect id="Rectangle_86-15" x="203.5" y="1.9" transform="matrix(2.535182e-06 1 -1 2.535182e-06 208.943 -201.0985)" class="st1" width="3" height="4"/>
		
			<rect id="Rectangle_87-15" x="189.5" y="1.9" transform="matrix(2.535182e-06 1 -1 2.535182e-06 194.943 -187.0985)" class="st1" width="3" height="4"/>
		
			<rect id="Rectangle_88-15" x="174.5" y="1.9" transform="matrix(2.535182e-06 1 -1 2.535182e-06 179.9431 -172.0986)" class="st1" width="3" height="4"/>
		
			<rect id="Rectangle_89-15" x="159.5" y="1.9" transform="matrix(2.535182e-06 1 -1 2.535182e-06 164.9432 -157.0988)" class="st1" width="3" height="4"/>
		
			<rect id="Rectangle_90-15" x="144.5" y="1.9" transform="matrix(2.535182e-06 1 -1 2.535182e-06 149.9432 -142.0988)" class="st1" width="3" height="4"/>
		
			<rect id="Rectangle_91-15" x="129.5" y="1.9" transform="matrix(2.535182e-06 1 -1 2.535182e-06 134.9434 -127.0991)" class="st1" width="3" height="4"/>
		
			<rect id="Rectangle_92-15" x="114.5" y="1.9" transform="matrix(2.535182e-06 1 -1 2.535182e-06 119.9434 -112.0991)" class="st1" width="3" height="4"/>
		
			<rect id="Rectangle_93-15" x="99.5" y="1.9" transform="matrix(2.535182e-06 1 -1 2.535182e-06 104.9435 -97.0991)" class="st1" width="3" height="4"/>
		
			<rect id="Rectangle_94-15" x="85.5" y="1.9" transform="matrix(2.535182e-06 1 -1 2.535182e-06 90.9436 -83.0994)" class="st1" width="3" height="4"/>
		
			<rect id="Rectangle_95-15" x="70.5" y="1.9" transform="matrix(2.535182e-06 1 -1 2.535182e-06 75.9436 -68.0994)" class="st1" width="3" height="4"/>
		
			<rect id="Rectangle_96-15" x="55.5" y="1.9" transform="matrix(2.535182e-06 1 -1 2.535182e-06 60.9438 -53.0995)" class="st1" width="3" height="4"/>
		
			<rect id="Rectangle_97-15" x="40.5" y="1.9" transform="matrix(2.535182e-06 1 -1 2.535182e-06 45.9438 -38.0997)" class="st1" width="3" height="4"/>
		
			<rect id="Rectangle_98-15" x="25.5" y="1.9" transform="matrix(2.535182e-06 1 -1 2.535182e-06 30.9438 -23.0997)" class="st1" width="3" height="4"/>
		
			<rect id="Rectangle_99-15" x="10.5" y="1.9" transform="matrix(2.535182e-06 1 -1 2.535182e-06 15.944 -8.1)" class="st1" width="3" height="4"/>
	</g>
	<g id="Groupe_113" transform="translate(-4340.129 4680.445)">
		
			<rect id="Rectangle_86-16" x="203" y="1.6" transform="matrix(2.535182e-06 1 -1 2.535182e-06 208.509 -201.3985)" class="st1" width="4" height="4"/>
		
			<rect id="Rectangle_87-16" x="189" y="1.6" transform="matrix(2.535182e-06 1 -1 2.535182e-06 194.509 -187.3985)" class="st1" width="4" height="4"/>
		
			<rect id="Rectangle_88-16" x="174" y="1.6" transform="matrix(2.535182e-06 1 -1 2.535182e-06 179.509 -172.3985)" class="st1" width="4" height="4"/>
		
			<rect id="Rectangle_89-16" x="159" y="1.6" transform="matrix(2.535182e-06 1 -1 2.535182e-06 164.5092 -157.3988)" class="st1" width="4" height="4"/>
		
			<rect id="Rectangle_90-16" x="144" y="1.6" transform="matrix(2.535182e-06 1 -1 2.535182e-06 149.5092 -142.3988)" class="st1" width="4" height="4"/>
		
			<rect id="Rectangle_91-16" x="129" y="1.6" transform="matrix(2.535182e-06 1 -1 2.535182e-06 134.5094 -127.3991)" class="st1" width="4" height="4"/>
		
			<rect id="Rectangle_92-16" x="114" y="1.6" transform="matrix(2.535182e-06 1 -1 2.535182e-06 119.5094 -112.3991)" class="st1" width="4" height="4"/>
		
			<rect id="Rectangle_93-16" x="99" y="1.6" transform="matrix(2.535182e-06 1 -1 2.535182e-06 104.5095 -97.3992)" class="st1" width="4" height="4"/>
		
			<rect id="Rectangle_94-16" x="85" y="1.6" transform="matrix(2.535182e-06 1 -1 2.535182e-06 90.5096 -83.3994)" class="st1" width="4" height="4"/>
		
			<rect id="Rectangle_95-16" x="70" y="1.6" transform="matrix(2.535182e-06 1 -1 2.535182e-06 75.5096 -68.3994)" class="st1" width="4" height="4"/>
		
			<rect id="Rectangle_96-16" x="55" y="1.6" transform="matrix(2.535182e-06 1 -1 2.535182e-06 60.5098 -53.3995)" class="st1" width="4" height="4"/>
		
			<rect id="Rectangle_97-16" x="40" y="1.6" transform="matrix(2.535182e-06 1 -1 2.535182e-06 45.5098 -38.3997)" class="st1" width="4" height="4"/>
		
			<rect id="Rectangle_98-16" x="25" y="1.6" transform="matrix(2.535182e-06 1 -1 2.535182e-06 30.5098 -23.3997)" class="st1" width="4" height="4"/>
		
			<rect id="Rectangle_99-16" x="10" y="1.6" transform="matrix(2.535182e-06 1 -1 2.535182e-06 15.51 -8.4)" class="st1" width="4" height="4"/>
	</g>
	<g id="Groupe_101" transform="translate(-4340.129 4510.694)">
		
			<rect id="Rectangle_86-17" x="203.5" y="1.8" transform="matrix(2.535182e-06 1 -1 2.535182e-06 208.813 -201.1985)" class="st1" width="3" height="4"/>
		
			<rect id="Rectangle_87-17" x="189.5" y="1.8" transform="matrix(2.535182e-06 1 -1 2.535182e-06 194.813 -187.1985)" class="st1" width="3" height="4"/>
		
			<rect id="Rectangle_88-17" x="174.5" y="1.8" transform="matrix(2.535182e-06 1 -1 2.535182e-06 179.8132 -172.1986)" class="st1" width="3" height="4"/>
		
			<rect id="Rectangle_89-17" x="159.5" y="1.8" transform="matrix(2.535182e-06 1 -1 2.535182e-06 164.8132 -157.1988)" class="st1" width="3" height="4"/>
		
			<rect id="Rectangle_90-17" x="144.5" y="1.8" transform="matrix(2.535182e-06 1 -1 2.535182e-06 149.8132 -142.1988)" class="st1" width="3" height="4"/>
		
			<rect id="Rectangle_91-17" x="129.5" y="1.8" transform="matrix(2.535182e-06 1 -1 2.535182e-06 134.8134 -127.1991)" class="st1" width="3" height="4"/>
		
			<rect id="Rectangle_92-17" x="114.5" y="1.8" transform="matrix(2.535182e-06 1 -1 2.535182e-06 119.8134 -112.1991)" class="st1" width="3" height="4"/>
		
			<rect id="Rectangle_93-17" x="99.5" y="1.8" transform="matrix(2.535182e-06 1 -1 2.535182e-06 104.8134 -97.1991)" class="st1" width="3" height="4"/>
		
			<rect id="Rectangle_94-17" x="85.5" y="1.8" transform="matrix(2.535182e-06 1 -1 2.535182e-06 90.8136 -83.1994)" class="st1" width="3" height="4"/>
		
			<rect id="Rectangle_95-17" x="70.5" y="1.8" transform="matrix(2.535182e-06 1 -1 2.535182e-06 75.8136 -68.1994)" class="st1" width="3" height="4"/>
		
			<rect id="Rectangle_96-17" x="55.5" y="1.8" transform="matrix(2.535182e-06 1 -1 2.535182e-06 60.8138 -53.1997)" class="st1" width="3" height="4"/>
		
			<rect id="Rectangle_97-17" x="40.5" y="1.8" transform="matrix(2.535182e-06 1 -1 2.535182e-06 45.8138 -38.1997)" class="st1" width="3" height="4"/>
		
			<rect id="Rectangle_98-17" x="25.5" y="1.8" transform="matrix(2.535182e-06 1 -1 2.535182e-06 30.8138 -23.1997)" class="st1" width="3" height="4"/>
		
			<rect id="Rectangle_99-17" x="10.5" y="1.8" transform="matrix(2.535182e-06 1 -1 2.535182e-06 15.814 -8.2)" class="st1" width="3" height="4"/>
	</g>
	<g id="Groupe_102" transform="translate(-4340.129 4571.561)">
		
			<rect id="Rectangle_86-18" x="203.5" y="1.9" transform="matrix(2.535182e-06 1 -1 2.535182e-06 208.977 -201.0985)" class="st1" width="3" height="4"/>
		
			<rect id="Rectangle_87-18" x="189.5" y="1.9" transform="matrix(2.535182e-06 1 -1 2.535182e-06 194.977 -187.0985)" class="st1" width="3" height="4"/>
		
			<rect id="Rectangle_88-18" x="174.5" y="1.9" transform="matrix(2.535182e-06 1 -1 2.535182e-06 179.9771 -172.0987)" class="st1" width="3" height="4"/>
		
			<rect id="Rectangle_89-18" x="159.5" y="1.9" transform="matrix(2.535182e-06 1 -1 2.535182e-06 164.9772 -157.0988)" class="st1" width="3" height="4"/>
		
			<rect id="Rectangle_90-18" x="144.5" y="1.9" transform="matrix(2.535182e-06 1 -1 2.535182e-06 149.9772 -142.0988)" class="st1" width="3" height="4"/>
		
			<rect id="Rectangle_91-18" x="129.5" y="1.9" transform="matrix(2.535182e-06 1 -1 2.535182e-06 134.9774 -127.0991)" class="st1" width="3" height="4"/>
		
			<rect id="Rectangle_92-18" x="114.5" y="1.9" transform="matrix(2.535182e-06 1 -1 2.535182e-06 119.9774 -112.0991)" class="st1" width="3" height="4"/>
		
			<rect id="Rectangle_93-18" x="99.5" y="1.9" transform="matrix(2.535182e-06 1 -1 2.535182e-06 104.9774 -97.0991)" class="st1" width="3" height="4"/>
		
			<rect id="Rectangle_94-18" x="85.5" y="1.9" transform="matrix(2.535182e-06 1 -1 2.535182e-06 90.9776 -83.0994)" class="st1" width="3" height="4"/>
		
			<rect id="Rectangle_95-18" x="70.5" y="1.9" transform="matrix(2.535182e-06 1 -1 2.535182e-06 75.9776 -68.0994)" class="st1" width="3" height="4"/>
		
			<rect id="Rectangle_96-18" x="55.5" y="1.9" transform="matrix(2.535182e-06 1 -1 2.535182e-06 60.9778 -53.0997)" class="st1" width="3" height="4"/>
		
			<rect id="Rectangle_97-18" x="40.5" y="1.9" transform="matrix(2.535182e-06 1 -1 2.535182e-06 45.9778 -38.0997)" class="st1" width="3" height="4"/>
		
			<rect id="Rectangle_98-18" x="25.5" y="1.9" transform="matrix(2.535182e-06 1 -1 2.535182e-06 30.9778 -23.0997)" class="st1" width="3" height="4"/>
		
			<rect id="Rectangle_99-18" x="10.5" y="1.9" transform="matrix(2.535182e-06 1 -1 2.535182e-06 15.978 -8.1)" class="st1" width="3" height="4"/>
	</g>
	<g id="Groupe_107" transform="translate(-4340.129 4631.752)">
		
			<rect id="Rectangle_86-19" x="203" y="2.2" transform="matrix(2.535182e-06 1 -1 2.535182e-06 209.297 -200.7985)" class="st1" width="4" height="4"/>
		
			<rect id="Rectangle_87-19" x="189" y="2.2" transform="matrix(2.535182e-06 1 -1 2.535182e-06 195.297 -186.7985)" class="st1" width="4" height="4"/>
		
			<rect id="Rectangle_88-19" x="174" y="2.2" transform="matrix(2.535182e-06 1 -1 2.535182e-06 180.2971 -171.7987)" class="st1" width="4" height="4"/>
		
			<rect id="Rectangle_89-19" x="159" y="2.2" transform="matrix(2.535182e-06 1 -1 2.535182e-06 165.2972 -156.7988)" class="st1" width="4" height="4"/>
		
			<rect id="Rectangle_90-19" x="144" y="2.2" transform="matrix(2.535182e-06 1 -1 2.535182e-06 150.2972 -141.7988)" class="st1" width="4" height="4"/>
		
			<rect id="Rectangle_91-19" x="129" y="2.2" transform="matrix(2.535182e-06 1 -1 2.535182e-06 135.2974 -126.7991)" class="st1" width="4" height="4"/>
		
			<rect id="Rectangle_92-19" x="114" y="2.2" transform="matrix(2.535182e-06 1 -1 2.535182e-06 120.2974 -111.7991)" class="st1" width="4" height="4"/>
		
			<rect id="Rectangle_93-19" x="99" y="2.2" transform="matrix(2.535182e-06 1 -1 2.535182e-06 105.2975 -96.7992)" class="st1" width="4" height="4"/>
		
			<rect id="Rectangle_94-19" x="85" y="2.2" transform="matrix(2.535182e-06 1 -1 2.535182e-06 91.2976 -82.7994)" class="st1" width="4" height="4"/>
		
			<rect id="Rectangle_95-19" x="70" y="2.2" transform="matrix(2.535182e-06 1 -1 2.535182e-06 76.2976 -67.7994)" class="st1" width="4" height="4"/>
		
			<rect id="Rectangle_96-19" x="55" y="2.2" transform="matrix(2.535182e-06 1 -1 2.535182e-06 61.2978 -52.7997)" class="st1" width="4" height="4"/>
		
			<rect id="Rectangle_97-19" x="40" y="2.2" transform="matrix(2.535182e-06 1 -1 2.535182e-06 46.2978 -37.7997)" class="st1" width="4" height="4"/>
		
			<rect id="Rectangle_98-19" x="25" y="2.2" transform="matrix(2.535182e-06 1 -1 2.535182e-06 31.2978 -22.7997)" class="st1" width="4" height="4"/>
		
			<rect id="Rectangle_99-19" x="10" y="2.2" transform="matrix(2.535182e-06 1 -1 2.535182e-06 16.298 -7.8)" class="st1" width="4" height="4"/>
	</g>
	<g id="Groupe_112" transform="translate(-4340.129 4691.943)">
		
			<rect id="Rectangle_86-20" x="203" y="2.1" transform="matrix(2.535182e-06 1 -1 2.535182e-06 209.015 -200.8985)" class="st1" width="4" height="4"/>
		
			<rect id="Rectangle_87-20" x="189" y="2.1" transform="matrix(2.535182e-06 1 -1 2.535182e-06 195.015 -186.8985)" class="st1" width="4" height="4"/>
		
			<rect id="Rectangle_88-20" x="174" y="2.1" transform="matrix(2.535182e-06 1 -1 2.535182e-06 180.0152 -171.8986)" class="st1" width="4" height="4"/>
		
			<rect id="Rectangle_89-20" x="159" y="2.1" transform="matrix(2.535182e-06 1 -1 2.535182e-06 165.0152 -156.8988)" class="st1" width="4" height="4"/>
		
			<rect id="Rectangle_90-20" x="144" y="2.1" transform="matrix(2.535182e-06 1 -1 2.535182e-06 150.0152 -141.8988)" class="st1" width="4" height="4"/>
		
			<rect id="Rectangle_91-20" x="129" y="2.1" transform="matrix(2.535182e-06 1 -1 2.535182e-06 135.0154 -126.8991)" class="st1" width="4" height="4"/>
		
			<rect id="Rectangle_92-20" x="114" y="2.1" transform="matrix(2.535182e-06 1 -1 2.535182e-06 120.0154 -111.8991)" class="st1" width="4" height="4"/>
		
			<rect id="Rectangle_93-20" x="99" y="2.1" transform="matrix(2.535182e-06 1 -1 2.535182e-06 105.0154 -96.8991)" class="st1" width="4" height="4"/>
		
			<rect id="Rectangle_94-20" x="85" y="2.1" transform="matrix(2.535182e-06 1 -1 2.535182e-06 91.0156 -82.8994)" class="st1" width="4" height="4"/>
		
			<rect id="Rectangle_95-20" x="70" y="2.1" transform="matrix(2.535182e-06 1 -1 2.535182e-06 76.0156 -67.8994)" class="st1" width="4" height="4"/>
		
			<rect id="Rectangle_96-20" x="55" y="2.1" transform="matrix(2.535182e-06 1 -1 2.535182e-06 61.0158 -52.8995)" class="st1" width="4" height="4"/>
		
			<rect id="Rectangle_97-20" x="40" y="2.1" transform="matrix(2.535182e-06 1 -1 2.535182e-06 46.0158 -37.8997)" class="st1" width="4" height="4"/>
		
			<rect id="Rectangle_98-20" x="25" y="2.1" transform="matrix(2.535182e-06 1 -1 2.535182e-06 31.0158 -22.8997)" class="st1" width="4" height="4"/>
		
			<rect id="Rectangle_99-20" x="10" y="2.1" transform="matrix(2.535182e-06 1 -1 2.535182e-06 16.016 -7.9)" class="st1" width="4" height="4"/>
	</g>
</g>
<path id="Background" class="st2" d="M0,960c0,0,239.9-129.7,479.9-129.7S960,960,960,960V0H0V960z"/>
<g class="st3">
	<g>
		<g>
			<defs>
				<path id="SVGID_1_" d="M736.2,96.9L736.2,96.9c26.5-17.9,62.5-10.9,80.4,15.6l50.4,74.7c17.9,26.5,10.9,62.5-15.6,80.4l0,0
					c-26.5,17.9-62.5,10.9-80.4-15.6l-50.4-74.7C702.7,150.8,709.7,114.8,736.2,96.9z"/>
			</defs>
			<clipPath id="SVGID_2_">
				<use xlink:href="#SVGID_1_"  style="overflow:visible;"/>
			</clipPath>
			<g id="Groupe_de_masques_4" transform="translate(0 0)" class="st4">
				<path id="Tracé_12482" class="st5" d="M824.3,195.5c29.7,0,53.7-24,53.7-53.7s-24-53.7-53.7-53.7s-53.7,24-53.7,53.7
					S794.6,195.5,824.3,195.5L824.3,195.5z"/>
			</g>
		</g>
	</g>
</g>
</svg>
