<svg id="Groupe_1" data-name="Groupe 1" xmlns="http://www.w3.org/2000/svg" xmlns:xlink="http://www.w3.org/1999/xlink" width="162" height="75" viewBox="0 0 162 75">
  <defs>
    <linearGradient id="linear-gradient" y1="0.5" x2="1" y2="0.5" gradientUnits="objectBoundingBox">
      <stop offset="0" stop-color="#00efb7"/>
      <stop offset="1" stop-color="#0197fe"/>
    </linearGradient>
  </defs>
  <path id="Tracé_3078" data-name="Tracé 3078" d="M188.1,200.045h-11.7a.941.941,0,0,0-.94.947v23.974L160.3,200.49a.932.932,0,0,0-.8-.445H147.625a37.342,37.342,0,0,0-56.486,0H59.729a.943.943,0,0,0-.945.947v9.681a.946.946,0,0,0,.945.947H76.213L58.884,246.147a.935.935,0,0,0-.1.426v1a.946.946,0,0,0,.945.947H90.538a37.373,37.373,0,0,0,57.689,0h10.855a.945.945,0,0,0,.945-.947V221.183l15.17,26.858a.938.938,0,0,0,.822.478H188.1a.946.946,0,0,0,.945-.947v-46.58A.946.946,0,0,0,188.1,200.045Zm-109.935,36.9,4.038-8.047a37.343,37.343,0,0,0,1.828,8.047H78.169Zm41.213,18.934a31.25,31.25,0,1,1,31.186-31.25A31.254,31.254,0,0,1,119.382,255.882Zm84.662-44.272V218.5h13.64a.945.945,0,0,1,.945.947v9.672a.945.945,0,0,1-.945.947h-13.64v6.893h15.794a.946.946,0,0,1,.945.947v9.667a.946.946,0,0,1-.945.947H191.411a.945.945,0,0,1-.945-.947V200.992a.943.943,0,0,1,.945-.947h28.427a.946.946,0,0,1,.945.947v9.672a.946.946,0,0,1-.945.947Z" transform="translate(-58.784 -187.132)" fill="url(#linear-gradient)"/>
  <path id="Tracé_3079" data-name="Tracé 3079" d="M188.628,223.82a25,25,0,1,0,25,25A25,25,0,0,0,188.628,223.82Zm0,43.75a18.75,18.75,0,1,1,18.75-18.75A18.769,18.769,0,0,1,188.628,267.57Z" transform="translate(-128.011 -211.32)" fill="url(#linear-gradient)"/>
  <path id="gear-1" d="M225.315,275.712v-3.367c-1.72-.612-2.805-.783-3.353-2.1h0c-.549-1.323.1-2.223.882-3.861l-2.38-2.38c-1.626.773-2.534,1.432-3.862.882h0c-1.322-.548-1.494-1.642-2.1-3.353h-3.367c-.606,1.7-.78,2.8-2.1,3.353h0c-1.324.549-2.221-.1-3.861-.882l-2.38,2.38c.776,1.633,1.432,2.536.882,3.862h0c-.549,1.324-1.649,1.5-3.353,2.1v3.367c1.7.6,2.8.78,3.353,2.1h0c.553,1.336-.119,2.256-.882,3.861l2.38,2.381c1.628-.773,2.535-1.432,3.861-.882h0c1.322.548,1.5,1.645,2.1,3.353H214.5c.606-1.7.78-2.8,2.112-3.357h0c1.314-.546,2.209.1,3.852.886l2.38-2.381c-.774-1.63-1.432-2.534-.883-3.86S223.614,276.318,225.315,275.712Zm-12.5,2.484a4.167,4.167,0,1,1,4.167-4.168A4.167,4.167,0,0,1,212.815,278.2Z" transform="translate(-152.209 -236.181)" fill="#3f454b"/>
</svg>
