<svg xmlns="http://www.w3.org/2000/svg" width="500" height="414" viewBox="0 0 500 414">
  <g id="Creativity-rafiki" transform="translate(-56.11 -98.8)">
    <g id="freepik--Shadow--inject-40" transform="translate(56.11 484.29)">
      <ellipse id="freepik--path--inject-40" cx="250" cy="14.255" rx="250" ry="14.255" fill="#f5f5f5"/>
    </g>
    <g id="freepik--Painting--inject-40" transform="translate(84.129 98.8)">
      <path id="Tracé_12901" data-name="Tracé 12901" d="M422.713,366.821H105.375a15.791,15.791,0,0,1-15.628-15.111l-8.185-237.3A14.545,14.545,0,0,1,96.157,99.3H413.495a15.8,15.8,0,0,1,15.628,15.111l8.185,237.3a14.557,14.557,0,0,1-14.6,15.111Z" transform="translate(-77.533 -98.67)" fill="#fff"/>
      <path id="Tracé_12902" data-name="Tracé 12902" d="M79.644,171.968H80.9l-.252-7.342H79.393ZM79.166,157.5h1.259l-.806-23.309H78.36Z" transform="translate(-78.36 -89.624)" fill="#453ecc"/>
      <path id="Tracé_12903" data-name="Tracé 12903" d="M422.868,367.58H105.53a16.371,16.371,0,0,1-16.282-15.741l-8.185-237.3A15.111,15.111,0,0,1,96.262,98.8H413.6a16.371,16.371,0,0,1,16.282,15.741l8.185,237.3a15.111,15.111,0,0,1-15.2,15.741ZM96.3,100.059a13.852,13.852,0,0,0-13.978,14.482l8.185,237.3a15.111,15.111,0,0,0,14.973,14.482H422.818a13.928,13.928,0,0,0,13.991-14.482l-8.185-237.3a15.111,15.111,0,0,0-14.985-14.482Z" transform="translate(-77.663 -98.8)" fill="#453ecc"/>
      <path id="Tracé_12904" data-name="Tracé 12904" d="M249.332,137.81,205.66,276.872l31.91,6.233a5.465,5.465,0,0,0,6.032-3,101.749,101.749,0,0,1,25.727-33.522,61.365,61.365,0,0,0,20.728-37.073C295.043,179,277.351,149.383,249.332,137.81Z" transform="translate(-45.354 -88.685)" fill="#453ecc"/>
      <path id="Tracé_12905" data-name="Tracé 12905" d="M224.3,286.025a13.588,13.588,0,0,0,16.157-11.119h0a14.708,14.708,0,0,0-11.686-16.547L205.64,253.85l-8.45,26.886Z" transform="translate(-47.55 -58.599)" fill="#453ecc"/>
      <g id="Groupe_12114" data-name="Groupe 12114" transform="translate(54.007 31.15)" opacity="0.2">
        <path id="Tracé_12906" data-name="Tracé 12906" d="M229.635,124.372c-71.325,18.662-72.446,48.507-48.394,104.847a292.621,292.621,0,0,1,11.107,30.462c16.736,55.509,39.252-54.627,51.2-101.132a30.824,30.824,0,0,1,1.133-3.665c4.508-11.736,14.091-23.926.466-29.555a24.4,24.4,0,0,0-15.514-.957Z" transform="translate(-109.345 -123.536)" fill="#453ecc"/>
        <path id="Tracé_12907" data-name="Tracé 12907" d="M189.421,269.321c-7.682-2.77-14.658-6.674-9.268-13.575a17.1,17.1,0,0,1,5.352-4.357c9.747-5.314,13.386-1.914,15.187,8.727a8.362,8.362,0,0,1-11.271,9.205Z" transform="translate(-106.469 -91.028)" fill="#453ecc"/>
        <path id="Tracé_12908" data-name="Tracé 12908" d="M289.165,285.776c-19.834,22.289-42.727,40.372-59.5,10.817a69.337,69.337,0,0,1-7.984-25.374c-5.49-42.161,11.17-49.414,50.5-38.962C295.977,238.579,305.12,267.844,289.165,285.776Z" transform="translate(-95.472 -96.452)" fill="#453ecc"/>
        <path id="Tracé_12909" data-name="Tracé 12909" d="M142.52,128.184c14.872,4.8,28.485,11.837,18.625,25.425a32.653,32.653,0,0,1-9.936,8.7c-18.285,10.842-25.463,4.546-29.618-15.716a16.005,16.005,0,0,1,20.929-18.411Z" transform="translate(-121.247 -122.562)" fill="#453ecc"/>
        <path id="Tracé_12910" data-name="Tracé 12910" d="M322.186,256.808c-2.519,0-4.785-1.776-6.3-3.325a24.19,24.19,0,0,1-4.634-6.888c-1.977-4.445-.655-8.349,3.463-10.2,3.9-1.738,10.276-1.776,13.751,1.259,1.536,1.322,3.136,3.778,2,7.946h0l-.176.642a23.067,23.067,0,0,1-3.085,7.694A6.485,6.485,0,0,1,322.8,256.8Zm-1.259-20.363a14.116,14.116,0,0,0-5.6,1.108c-3.476,1.562-4.546,4.76-2.859,8.563a22.957,22.957,0,0,0,4.382,6.51c1.41,1.473,3.576,3.161,5.83,2.884a5.3,5.3,0,0,0,3.564-2.355,22.289,22.289,0,0,0,2.9-7.3l.176-.642c.768-2.846.239-5.037-1.574-6.649a10.528,10.528,0,0,0-6.85-2.116Z" transform="translate(-72.216 -94.583)" fill="#453ecc"/>
      </g>
      <path id="Tracé_12911" data-name="Tracé 12911" d="M213.761,273.407,196.749,270.1a6.737,6.737,0,0,1-5.314-5.717,113.512,113.512,0,0,0-13.852-41.493,65.822,65.822,0,0,1-6.926-46.115c7.342-33.5,38.71-54.073,72.962-47.853a67.51,67.51,0,0,1,13.575,3.979l.617.252-.2.63Zm17.794-144.2a60.193,60.193,0,0,0-59.526,47.953,64.362,64.362,0,0,0,6.788,45.107,115.023,115.023,0,0,1,14.066,41.984,5.251,5.251,0,0,0,4.143,4.458l15.8,3.073,43.294-137.866a66.213,66.213,0,0,0-12.656-3.639h0a67.232,67.232,0,0,0-11.913-1.07Z" transform="translate(-54.815 -91.278)" fill="#453ecc"/>
      <path id="Tracé_12912" data-name="Tracé 12912" d="M241.267,131.814l-1.347-.466,6.435-20.488,1.335.466Z" transform="translate(-36.471 -95.673)" fill="#453ecc"/>
      <path id="Tracé_12913" data-name="Tracé 12913" d="M245.365,130.9l-.705-1.234,4.407-2.43.718,1.234Z" transform="translate(-35.242 -91.426)" fill="#453ecc"/>
      <path id="Tracé_12914" data-name="Tracé 12914" d="M191.777,288.064l-1.347-.466,4.407-14.028,1.347.466Z" transform="translate(-49.303 -53.486)" fill="#453ecc"/>
      <path id="Tracé_12915" data-name="Tracé 12915" d="M199.112,276.516l-2.128-.416a15.351,15.351,0,0,1-9.633-6.3,14.948,14.948,0,0,1-2.632-11.094h0a14.242,14.242,0,0,1,16.962-11.648l6.3,1.259ZM186.1,259a13.525,13.525,0,0,0,2.393,10.074,13.965,13.965,0,0,0,8.714,5.692l.919.176,8.022-25.538-4.685-.919A12.895,12.895,0,0,0,186.1,259.05Z" transform="translate(-50.832 -60.437)" fill="#453ecc"/>
    </g>
    <g id="freepik--Character--inject-40" transform="translate(386.637 119.83)">
      <path id="Tracé_12916" data-name="Tracé 12916" d="M361.287,221.83c-.277,5.642-3.35,24.556-1.675,28.334s6.435,14.28,21.685,13.991,12.933-23.5,12.933-23.5Z" transform="translate(-296.397 -87.931)" fill="#263238"/>
      <path id="Tracé_12917" data-name="Tracé 12917" d="M361.287,221.83c-.277,5.642-3.35,24.556-1.675,28.334s6.435,14.28,21.685,13.991,12.933-23.5,12.933-23.5Z" transform="translate(-296.397 -87.931)" opacity="0.2"/>
      <path id="Tracé_12918" data-name="Tracé 12918" d="M399,177.686c.5,3.123,1.146,6.057,1.776,9.067s1.41,5.944,2.166,8.89,1.587,5.906,2.519,8.815c.428,1.461.882,2.922,1.347,4.382s.856,2.8,1.561,4.622a55.217,55.217,0,0,0,4.6,8.676c1.687,2.657,3.463,5.2,5.314,7.656s3.778,4.848,5.7,7.2,3.954,4.634,6.095,6.876l4.193-3.312c-1.561-2.519-3.186-5.037-4.722-7.556s-3.123-5.037-4.6-7.619-2.922-5.113-4.231-7.669a53,53,0,0,1-3.3-7.556c-.327-1.02-.68-2.607-1.045-4.017l-1.045-4.332-2-8.676c-.655-2.9-1.259-5.805-1.864-8.7s-1.259-5.83-1.788-8.626Z" transform="translate(-286.055 -99.863)" fill="#ffc3bd"/>
      <path id="Tracé_12919" data-name="Tracé 12919" d="M426.853,226l8.928,5.805-8.55,2.519s-6.561-4.118-5.339-8.336Z" transform="translate(-280.16 -86.853)" fill="#ffc3bd"/>
      <path id="Tracé_12920" data-name="Tracé 12920" d="M437.169,235.723l-6.359,2.8-4.71-5.465,8.55-2.493Z" transform="translate(-279.029 -85.668)" fill="#ffc3bd"/>
      <path id="Tracé_12921" data-name="Tracé 12921" d="M390.152,408.771a12.7,12.7,0,0,0,2.783-.378.252.252,0,0,0,.088-.453c-.365-.239-3.564-2.3-4.8-1.75a.856.856,0,0,0-.491.705,1.423,1.423,0,0,0,.415,1.259A2.96,2.96,0,0,0,390.152,408.771Zm2.078-.743c-1.826.378-3.211.315-3.778-.176a.97.97,0,0,1-.252-.894.34.34,0,0,1,.214-.315C389.081,406.341,390.933,407.235,392.23,408.028Z" transform="translate(-288.982 -40.155)" fill="#453ecc"/>
      <path id="Tracé_12922" data-name="Tracé 12922" d="M392.4,408.9h.126a.277.277,0,0,0,.126-.227c0-.126,0-3.161-1.159-4.181a1.322,1.322,0,0,0-1.058-.327.856.856,0,0,0-.844.693c-.239,1.2,1.675,3.463,2.682,4.042Zm-1.8-4.269a.768.768,0,0,1,.554.214,5.7,5.7,0,0,1,.982,3.325c-1.007-.806-2.2-2.519-2.053-3.236,0-.113.088-.264.4-.3Z" transform="translate(-288.499 -40.66)" fill="#453ecc"/>
      <path id="Tracé_12923" data-name="Tracé 12923" d="M336.781,404.258a.252.252,0,0,0,.227-.1.264.264,0,0,0,0-.29c-.29-.441-2.77-4.231-4.256-4.407h-.1a.806.806,0,0,0-.693.365,1.372,1.372,0,0,0-.214,1.259c.479,1.461,3.325,2.594,4.974,3.148Zm-4.067-4.307c.819.1,2.405,2.027,3.476,3.576-2.229-.831-3.69-1.776-3.954-2.594a.882.882,0,0,1,.138-.831.3.3,0,0,1,.277-.151Z" transform="translate(-303.511 -41.876)" fill="#453ecc"/>
      <path id="Tracé_12924" data-name="Tracé 12924" d="M336.054,404.434h0a.264.264,0,0,0,.2-.139c0-.113,1.259-2.707.642-4.319a1.788,1.788,0,0,0-.995-1.058c-.63-.29-.982-.076-1.159.151-.756.932.277,4.143,1.083,5.264a.277.277,0,0,0,.227.1Zm-.579-5.15a1.339,1.339,0,0,1,.277.088,1.259,1.259,0,0,1,.73.781,5.742,5.742,0,0,1-.453,3.488c-.718-1.259-1.259-3.7-.844-4.256C335.21,399.347,335.273,399.259,335.475,399.284Z" transform="translate(-302.784 -42.052)" fill="#453ecc"/>
      <path id="Tracé_12925" data-name="Tracé 12925" d="M395.5,147.33c-1.259,6.3-3.979,19.909.39,24.09,0,0-1.713,6.3-13.336,6.3-12.794,0-6.12-6.3-6.12-6.3,6.989-1.662,6.8-6.85,5.591-11.711Z" transform="translate(-292.356 -107.247)" fill="#ffc3bd"/>
      <path id="Tracé_12926" data-name="Tracé 12926" d="M379.035,136.854a.365.365,0,0,0,.227,0,.491.491,0,0,0,.277-.642,4.924,4.924,0,0,0-3.387-3.06.494.494,0,0,0-.189.97h0a4,4,0,0,1,2.645,2.519.491.491,0,0,0,.428.214Z" transform="translate(-292.132 -110.926)" fill="#263238"/>
      <path id="Tracé_12927" data-name="Tracé 12927" d="M375.783,140.17a22.493,22.493,0,0,1-4.093,4.685,3.665,3.665,0,0,0,2.859,1.184Z" transform="translate(-293.136 -109.104)" fill="#ed847e"/>
      <path id="Tracé_12928" data-name="Tracé 12928" d="M376.176,139.508c-.176.844-.768,1.423-1.259,1.259a1.441,1.441,0,0,1-.667-1.713c.176-.831.756-1.423,1.259-1.259A1.441,1.441,0,0,1,376.176,139.508Z" transform="translate(-292.485 -109.726)" fill="#263238"/>
      <path id="Tracé_12929" data-name="Tracé 12929" d="M375.809,138.075l-1.889-.995S374.625,138.856,375.809,138.075Z" transform="translate(-292.558 -109.905)" fill="#263238"/>
      <path id="Tracé_12930" data-name="Tracé 12930" d="M346.178,413.02l-9.9-3.639,7.757-23.171,9.9,3.639Z" transform="translate(-302.317 -45.311)" fill="#ffc3bd"/>
      <path id="Tracé_12931" data-name="Tracé 12931" d="M403.733,412.747H393.18l.831-24.417h10.553Z" transform="translate(-287.564 -44.762)" fill="#ffc3bd"/>
      <path id="Tracé_12932" data-name="Tracé 12932" d="M395.65,406.75H407.5a.844.844,0,0,1,.844.73l1.347,9.369A1.687,1.687,0,0,1,408,418.726c-4.13-.063-6.12-.315-11.333-.315-3.211,0-7.9.34-12.316.34s-4.672-4.382-2.821-4.773c8.261-1.788,9.57-4.231,12.353-6.573A2.733,2.733,0,0,1,395.65,406.75Z" transform="translate(-290.866 -39.986)" fill="#263238"/>
      <path id="Tracé_12933" data-name="Tracé 12933" d="M340.77,402.859l10.288,5.868a.844.844,0,0,1,.378,1.045l-3.476,8.815a1.7,1.7,0,0,1-2.393.793c-3.551-2.116-5.163-3.312-9.7-5.893-2.783-1.587-8.714-4.584-12.593-6.775s-1.876-6.108-.088-5.541c8.072,2.519,12.1,2.027,15.691,1.373a2.771,2.771,0,0,1,1.889.315Z" transform="translate(-306.266 -41.447)" fill="#263238"/>
      <path id="Tracé_12934" data-name="Tracé 12934" d="M343.3,386.21l-4.156,12.416L349.2,401.8l4-11.951Z" transform="translate(-301.576 -45.311)" opacity="0.2"/>
      <path id="Tracé_12935" data-name="Tracé 12935" d="M404.481,388.33H393.928l-.428,12.593h10.553Z" transform="translate(-287.481 -44.762)" opacity="0.2"/>
      <path id="Tracé_12936" data-name="Tracé 12936" d="M365.034,176.82c-2.027,4.735-4.244,9.608-6.473,14.318-1.146,2.342-2.33,4.672-3.551,6.951s-2.519,4.5-3.841,6.586c-.655,1.07-1.36,2.04-2.053,3.022a2.959,2.959,0,0,1-.844.907,2.619,2.619,0,0,1-1.637.176,10.891,10.891,0,0,1-2.8-.806,52.172,52.172,0,0,1-12.265-8.273l-4.055,3.488a42.9,42.9,0,0,0,2.607,3.425c.907,1.1,1.839,2.166,2.859,3.186a34.906,34.906,0,0,0,6.989,5.654,19.179,19.179,0,0,0,4.735,2.053,12.1,12.1,0,0,0,6.3,0,11.233,11.233,0,0,0,5.616-3.715c.957-1.146,1.914-2.3,2.745-3.476a109.352,109.352,0,0,0,8.765-14.381,161.878,161.878,0,0,0,6.9-15.111Z" transform="translate(-304.589 -99.601)" fill="#ffc3bd"/>
      <path id="Tracé_12937" data-name="Tracé 12937" d="M330.3,211.529h0a1.549,1.549,0,0,1-1.876-1.083l-9.306-32.527,4.672-1.259,7.644,32.955a1.574,1.574,0,0,1-1.133,1.914Z" transform="translate(-306.766 -99.643)" fill="#453ecc"/>
      <path id="Tracé_12938" data-name="Tracé 12938" d="M336.007,178.605,312.433,184.7a46.454,46.454,0,0,1-3.123-15.665l23.536-6.095a46.9,46.9,0,0,0,3.161,15.665Z" transform="translate(-309.31 -103.2)" fill="#453ecc"/>
      <path id="Tracé_12939" data-name="Tracé 12939" d="M335.338,178.605l-20.312,5.251a46.468,46.468,0,0,1-3.136-15.665l20.287-5.251a46.9,46.9,0,0,0,3.161,15.665Z" transform="translate(-308.641 -103.2)" fill="#fff" opacity="0.3"/>
      <rect id="Rectangle_26776" data-name="Rectangle 26776" width="24.342" height="9.659" rx="1.68" transform="translate(2.436 78.81) rotate(-14.51)" fill="#453ecc"/>
      <path id="Tracé_12940" data-name="Tracé 12940" d="M334.038,197.682l-3.123-7.392-7.165,4.873s3.526,5.427,7.732,6.082Z" transform="translate(-305.566 -96.109)" fill="#ffc3bd"/>
      <path id="Tracé_12941" data-name="Tracé 12941" d="M326.832,187.16,320.41,191l4.206,4.974,7.165-4.886Z" transform="translate(-306.432 -96.92)" fill="#ffc3bd"/>
      <path id="Tracé_12942" data-name="Tracé 12942" d="M404.96,145.292c-2.77,10.074-3.778,14.431-10,18.587-9.419,6.3-21.219.655-21.508-10.074-.277-9.646,4.307-24.543,15.174-26.445a14.268,14.268,0,0,1,16.333,17.932Z" transform="translate(-292.682 -112.488)" fill="#ffc3bd"/>
      <path id="Tracé_12943" data-name="Tracé 12943" d="M401.171,123.685c-1.6,2.519-1.637,5.679-.365,9.029-3.476-2.922-9.268-13.991-11.006-17.214a24.682,24.682,0,0,0-.567,10.628c-2.9-.567-6.876-3.035-12.039-10.188-.516,4.76.831,10.15,3.085,15.111a12.5,12.5,0,0,1-4.71-1.02c-.617,2.33,4.949,6.422,4.949,6.422s-3.337,4.47,0,13.3c2.519,5.276,3.337,16.371,9.608,17.63,2.519.516,5.49-1.259,8.148-3.539a6.069,6.069,0,0,1-.579,2.078c1.549-1.159,3.2-3.463,3.287-4.722h0a8.814,8.814,0,0,1-.554,3.047,16.37,16.37,0,0,0,3.992-6.17,10.073,10.073,0,0,1,.39,3.236,15.476,15.476,0,0,0,3.4-7.77,11.056,11.056,0,0,1,1.574,4.47c2.657-4.407,3.5-9.18,1.826-12.593a5.906,5.906,0,0,0,1.007-1.964C414.356,137.411,405.7,135.623,401.171,123.685Z" transform="translate(-292.143 -115.5)" fill="#263238"/>
      <path id="Tracé_12944" data-name="Tracé 12944" d="M378.735,140.172a10.175,10.175,0,0,0-1.259,5.692c.189,2.594,2.141,2.657,3.652.894s2.9-4.836,1.964-6.951S379.944,138.12,378.735,140.172Z" transform="translate(-291.643 -109.559)" fill="#ffc3bd"/>
      <path id="Tracé_12945" data-name="Tracé 12945" d="M374.91,219.16s6.12,72.4,12.479,113.2c5.125,32.955,9.168,109.985,9.168,109.985h14.394s5.528-70.457,2.922-103.047c-6.586-82.483,7.694-93.476-7.43-120.135Z" transform="translate(-292.301 -88.623)" fill="#453ecc"/>
      <path id="Tracé_12946" data-name="Tracé 12946" d="M374.91,219.16s6.12,72.4,12.479,113.2c5.125,32.955,9.168,109.985,9.168,109.985h14.394s5.528-70.457,2.922-103.047c-6.586-82.483,7.694-93.476-7.43-120.135Z" transform="translate(-292.301 -88.623)" fill="#fff" opacity="0.6"/>
      <path id="Tracé_12947" data-name="Tracé 12947" d="M388.565,238.58c-3.778,5.44-8.815,11.686-10.465,18.373,1.259,12.215,2.657,25.727,4.219,38.723C386.323,284.846,393.224,263.2,388.565,238.58Z" transform="translate(-291.474 -83.588)" fill="#453ecc" opacity="0.4"/>
      <path id="Tracé_12948" data-name="Tracé 12948" d="M373.089,219.16s-11.245,81.072-16.005,112.882C352.046,365.135,338.32,438.6,338.32,438.6l13.726,3.9s25.387-71,30.474-103.487c5.541-35.411,28.5-119.858,28.5-119.858Z" transform="translate(-301.788 -88.623)" fill="#453ecc"/>
      <path id="Tracé_12949" data-name="Tracé 12949" d="M373.089,219.16s-11.245,81.072-16.005,112.882C352.046,365.135,338.32,438.6,338.32,438.6l13.726,3.9s25.387-71,30.474-103.487c5.541-35.411,28.5-119.858,28.5-119.858Z" transform="translate(-301.788 -88.623)" fill="#fff" opacity="0.6"/>
      <path id="Tracé_12950" data-name="Tracé 12950" d="M336.68,394.678l17.529,5.3,2.884-6.51L338.33,387.79Z" transform="translate(-302.214 -44.902)" fill="#263238"/>
      <path id="Tracé_12951" data-name="Tracé 12951" d="M390.561,398.077h18.322l.957-6.422L390.46,391Z" transform="translate(-288.27 -44.069)" fill="#263238"/>
      <path id="Tracé_12952" data-name="Tracé 12952" d="M409.688,217.216l1.927,3.841c.151.3-.2.6-.693.6H365.991c-.39,0-.705-.189-.73-.441l-.39-3.778c0-.264.315-.491.73-.491h43.382a.793.793,0,0,1,.705.264Z" transform="translate(-294.905 -89.198)" fill="#453ecc"/>
      <path id="Tracé_12953" data-name="Tracé 12953" d="M396.035,222.146h1.159c.239,0,.416-.126.39-.264l-.541-5.037c0-.151-.214-.264-.453-.264h-1.159c-.227,0-.4.113-.39.264l.541,5.037C395.607,222.045,395.808,222.146,396.035,222.146Z" transform="translate(-287.082 -89.292)" fill="#453ecc"/>
      <path id="Tracé_12954" data-name="Tracé 12954" d="M396.035,222.146h1.159c.239,0,.416-.126.39-.264l-.541-5.037c0-.151-.214-.264-.453-.264h-1.159c-.227,0-.4.113-.39.264l.541,5.037C395.607,222.045,395.808,222.146,396.035,222.146Z" transform="translate(-287.082 -89.292)" fill="#fff" opacity="0.6"/>
      <path id="Tracé_12955" data-name="Tracé 12955" d="M373.673,222.146h1.159c.227,0,.4-.126.39-.264l-.542-5.037c0-.151-.227-.264-.453-.264h-1.146c-.239,0-.416.113-.39.264l.542,5.037C373.232,222.045,373.433,222.146,373.673,222.146Z" transform="translate(-292.878 -89.292)" fill="#453ecc"/>
      <path id="Tracé_12956" data-name="Tracé 12956" d="M373.673,222.146h1.159c.227,0,.4-.126.39-.264l-.542-5.037c0-.151-.227-.264-.453-.264h-1.146c-.239,0-.416.113-.39.264l.542,5.037C373.232,222.045,373.433,222.146,373.673,222.146Z" transform="translate(-292.878 -89.292)" fill="#fff" opacity="0.6"/>
      <path id="Tracé_12957" data-name="Tracé 12957" d="M403.149,166.34c13.122,5.767,9.545,29.769,14.192,35.083,7.795,8.953,3.236,44.163,3.236,44.163-8.676-7.745-16.471-30.147-22.755-43.558C397.848,202.028,395.757,163.078,403.149,166.34Z" transform="translate(-286.427 -102.369)" fill="#263238"/>
      <path id="Tracé_12958" data-name="Tracé 12958" d="M408.63,189.42l-2.33,30.953a102.154,102.154,0,0,0,7.178,13.386C412.13,221.267,411.224,200.464,408.63,189.42Z" transform="translate(-284.163 -96.334)" opacity="0.2"/>
      <path id="Tracé_12959" data-name="Tracé 12959" d="M384.077,164.977c-12.593.944-14.469-1.083-19.808,1.007-6.221,2.456-3.186,42.1-3.186,83.326,0,18.738,40.75,40.3,40.75,40.3s10.993-10.074,10.993-22.113c7.329,0,9.709-7.128,8.311-21.534-1.259-13,1.927-55.408-.214-63.984s-5.7-17.743-11.988-16.484S400.208,163.818,384.077,164.977Z" transform="translate(-296.078 -102.744)" fill="#263238"/>
      <path id="Tracé_12960" data-name="Tracé 12960" d="M371.73,165.13c2.065,1.5,14.595,5.919,21.937,6.183s8.4-4.244,8.4-4.244Z" transform="translate(-293.126 -102.632)" opacity="0.2"/>
      <path id="Tracé_12961" data-name="Tracé 12961" d="M371.264,167.7c-2.519-.718,1.335-2.8,1.839-4.47s-.579-5.465,2.2-4.407,19.292-1.473,24.959,1.4,6.435,6.082,2.8,8.739S386.262,172,371.264,167.7Z" transform="translate(-293.466 -104.316)" fill="#263238"/>
      <path id="Tracé_12962" data-name="Tracé 12962" d="M368.1,191.1c-1.259-8.248-4.722-2.078-7.707,5.755.113,8.374.34,17.705.5,27.477C364.936,215.816,369.973,203.047,368.1,191.1Z" transform="translate(-296.066 -96.915)" opacity="0.2"/>
      <path id="Tracé_12963" data-name="Tracé 12963" d="M369.606,165.315c-8.2,1.171-15.048,24.4-19.7,29.732-7.795,8.941.63,40.007.63,40.007,8.676-7.745,15.7-19.393,21.987-32.8C372.528,202.25,377.628,164.157,369.606,165.315Z" transform="translate(-299.641 -102.591)" fill="#263238"/>
      <path id="Tracé_12964" data-name="Tracé 12964" d="M400.62,189.78s1.536,58.2,1.763,71.212a7.417,7.417,0,0,0,5.037-1.687Z" transform="translate(-285.635 -96.241)" opacity="0.2"/>
    </g>
  </g>
</svg>
