<svg xmlns="http://www.w3.org/2000/svg" width="340.344" height="469" viewBox="0 0 340.344 469">
  <g id="Creativity-pana" transform="translate(0)">
    <g id="freepik--Pencil--inject-39" transform="translate(68.176 0)">
      <path id="Tracé_12778" data-name="Tracé 12778" d="M200.813,299.759c-2.287-17.215,9.82-31.427,24.951-39.964s32.687-11.423,49.4-16.146c15.761-4.477,31.437-11.017,43.106-22.515s18.678-28.776,14.49-44.613c-1.069-3.975-2.939-7.972-6.358-10.269s-8.623-2.233-11.177.994c-5.428,6.882,5.15,19.234-1.475,24.94-1.517,1.325-3.612,1.806-5.183,3.056-4.178,3.345-2.832,9.831-3.419,15.152-1.165,10.525-11.038,17.834-20.73,22.1-12.983,5.706-27.045,8.388-40.809,11.754s-27.665,7.651-39.131,16.029-21.435,21.371-21.371,35.573c0,3.964.524,8.837,3.013,11.914s5.653,3.729,9.243,2.041,6.091-4.274,5.428-10.023" transform="translate(-171.154 -25.954)" fill="#453ecc"/>
      <g id="Groupe_12097" data-name="Groupe 12097" transform="translate(11.952 138.705)" opacity="0.8">
        <path id="Tracé_12779" data-name="Tracé 12779" d="M200.813,299.759c-2.287-17.215,9.82-31.427,24.951-39.964s32.687-11.423,49.4-16.146c15.761-4.477,31.437-11.017,43.106-22.515s18.678-28.776,14.49-44.613c-1.069-3.975-2.939-7.972-6.358-10.269s-8.623-2.233-11.177.994c-5.428,6.882,5.15,19.234-1.475,24.94-1.517,1.325-3.612,1.806-5.183,3.056-4.178,3.345-2.832,9.831-3.419,15.152-1.165,10.525-11.038,17.834-20.73,22.1-12.983,5.706-27.045,8.388-40.809,11.754s-27.665,7.651-39.131,16.029-21.435,21.371-21.371,35.573c0,3.964.524,8.837,3.013,11.914s5.653,3.729,9.243,2.041,6.091-4.274,5.428-10.023" transform="translate(-183.107 -164.658)" fill="#fff"/>
      </g>
      <path id="Tracé_12780" data-name="Tracé 12780" d="M322.581,171.4c.545-6.411-4.21-11.936-9.617-14.906s-11.6-4.189-17.172-6.828c-13.838-6.561-22.632-22-23.284-37.827s6.219-31.662,16.947-43.288c4.37-4.723,9.735-9.681,9.8-16.125.064-6.732-6.411-12.032-12.972-11.947s-12.524,4.456-16.424,9.938-6.048,11.989-8.153,18.4c1.5-2.693-1.571-6.016-4.541-5.728s-5.343,2.757-7.127,5.215a55.672,55.672,0,0,0-10.686,37.24,52.467,52.467,0,0,0,16.563,34.13c10.547,9.617,24.492,14.116,38.02,18.39l28.221,8.9" transform="translate(-219.726 -34.468)" fill="#453ecc"/>
      <g id="Groupe_12098" data-name="Groupe 12098" transform="translate(19.464 6.011)" opacity="0.8">
        <path id="Tracé_12781" data-name="Tracé 12781" d="M322.581,171.4c.545-6.411-4.21-11.936-9.617-14.906s-11.6-4.189-17.172-6.828c-13.838-6.561-22.632-22-23.284-37.827s6.219-31.662,16.947-43.288c4.37-4.723,9.735-9.681,9.8-16.125.064-6.732-6.411-12.032-12.972-11.947s-12.524,4.456-16.424,9.938-6.048,11.989-8.153,18.4c1.5-2.693-1.571-6.016-4.541-5.728s-5.343,2.757-7.127,5.215a55.672,55.672,0,0,0-10.686,37.24,52.467,52.467,0,0,0,16.563,34.13c10.547,9.617,24.492,14.116,38.02,18.39l28.221,8.9" transform="translate(-239.19 -40.479)" fill="#fff"/>
      </g>
      <path id="Tracé_12782" data-name="Tracé 12782" d="M236.7,37.549a6.005,6.005,0,1,1-.983-.31" transform="translate(-125.989 -34.7)" fill="#453ecc"/>
      <g id="Groupe_12099" data-name="Groupe 12099" transform="translate(102.413 2.394)" opacity="0.8">
        <path id="Tracé_12783" data-name="Tracé 12783" d="M236.7,37.549a6.005,6.005,0,1,1-.983-.31" transform="translate(-228.402 -37.094)" fill="#fff"/>
      </g>
      <path id="Tracé_12784" data-name="Tracé 12784" d="M321.577,430.626c3.462-7.17.438-16.114-5.076-21.863s-13.037-9.029-20.3-12.235c-16.093-7.1-33.126-15.537-41.3-31.1-2.757-5.247-4.328-11.017-5.877-16.744-3-11.07-5.824-23.647.214-33.4,1.742-2.81,4.349-5.343,7.6-5.877,3.708-.663,7.48,1.378,9.788,4.36a21.618,21.618,0,0,1,3.729,10.5c.9,7.085.15,14.3.9,21.371s3.323,14.629,9.136,18.668c7.127,4.969,17.289,3.857,24.2,9.1,5.589,4.274,7.715,11.583,12.075,17.1,3.676,4.606,8.816,7.747,13.517,11.295s9.254,7.865,10.857,13.539a16.029,16.029,0,0,1-22.322,18.839" transform="translate(-245.671 -16.038)" fill="#453ecc"/>
      <g id="Groupe_12100" data-name="Groupe 12100" transform="translate(0 293.245)" opacity="0.8">
        <path id="Tracé_12785" data-name="Tracé 12785" d="M321.577,430.626c3.462-7.17.438-16.114-5.076-21.863s-13.037-9.029-20.3-12.235c-16.093-7.1-33.126-15.537-41.3-31.1-2.757-5.247-4.328-11.017-5.877-16.744-3-11.07-5.824-23.647.214-33.4,1.742-2.81,4.349-5.343,7.6-5.877,3.708-.663,7.48,1.378,9.788,4.36a21.618,21.618,0,0,1,3.729,10.5c.9,7.085.15,14.3.9,21.371s3.323,14.629,9.136,18.668c7.127,4.969,17.289,3.857,24.2,9.1,5.589,4.274,7.715,11.583,12.075,17.1,3.676,4.606,8.816,7.747,13.517,11.295s9.254,7.865,10.857,13.539a16.029,16.029,0,0,1-22.322,18.839" transform="translate(-245.671 -309.283)" fill="#fff"/>
      </g>
      <path id="Tracé_12786" data-name="Tracé 12786" d="M190.381,87.22a22.28,22.28,0,0,0-.641-36.235c-3.291-2.255-7.181-3.644-10.109-6.411-2.6-2.415-4.274-5.76-7.191-7.79a10.472,10.472,0,0,0-15.9,12.118c1.336,3.751,4.7,6.5,6.112,10.215,1.517,4.018.534,8.549,1.069,12.759a17.621,17.621,0,0,0,23.594,14.191" transform="translate(-7.489 -34.854)" fill="#453ecc"/>
      <g id="Groupe_12101" data-name="Groupe 12101" transform="translate(148.42)" opacity="0.8">
        <path id="Tracé_12787" data-name="Tracé 12787" d="M190.381,87.22a22.28,22.28,0,0,0-.641-36.235c-3.291-2.255-7.181-3.644-10.109-6.411-2.6-2.415-4.274-5.76-7.191-7.79a10.472,10.472,0,0,0-15.9,12.118c1.336,3.751,4.7,6.5,6.112,10.215,1.517,4.018.534,8.549,1.069,12.759a17.621,17.621,0,0,0,23.594,14.191" transform="translate(-155.909 -34.854)" fill="#fff"/>
      </g>
      <path id="Tracé_12788" data-name="Tracé 12788" d="M177.843,62.42H164.71V89.487a5.781,5.781,0,0,0,5.781,5.781h1.56a5.781,5.781,0,0,0,5.781-5.781V62.42Z" transform="translate(4.642 -32.964)" fill="#453ecc"/>
      <path id="Tracé_12789" data-name="Tracé 12789" d="M177.843,63.193,171.282,51.15,164.71,63.193Z" transform="translate(4.642 -33.737)" fill="#ffbe9d"/>
      <path id="Tracé_12790" data-name="Tracé 12790" d="M173.624,55.916s-2,3-5.2,0l2.6-4.766Z" transform="translate(4.897 -33.737)" fill="#453ecc"/>
      <path id="Tracé_12791" data-name="Tracé 12791" d="M164.68,86.539a41.672,41.672,0,0,0,6.679.267,41.513,41.513,0,0,0,6.668-.267,41.516,41.516,0,0,0-6.668-.267A41.674,41.674,0,0,0,164.68,86.539Z" transform="translate(4.491 -31.331)" fill="#263238"/>
      <path id="Tracé_12792" data-name="Tracé 12792" d="M164.76,84.648a39.974,39.974,0,0,0,6.54.267,39.973,39.973,0,0,0,6.54-.267,42.316,42.316,0,0,0-6.54-.256,42.316,42.316,0,0,0-6.54.256Z" transform="translate(4.592 -31.459)" fill="#263238"/>
      <path id="Tracé_12793" data-name="Tracé 12793" d="M168.337,62.6c-.139,0-.267,5.236-.267,11.7s.128,11.754.267,11.754.267-5.247.267-11.754S168.487,62.6,168.337,62.6Z" transform="translate(10.291 -32.952)" fill="#fafafa"/>
      <path id="Tracé_12794" data-name="Tracé 12794" d="M173.307,62.6c-.15,0-.267,5.236-.267,11.7s.118,11.754.267,11.754.267-5.247.267-11.754S173.457,62.6,173.307,62.6Z" transform="translate(0.01 -32.952)" fill="#fafafa"/>
    </g>
    <g id="freepik--Notebook--inject-39" transform="translate(75.46 389.868)">
      <path id="Tracé_12795" data-name="Tracé 12795" d="M287.111,408.72l-59.658,2.554-1.443,3.473,39.11,63.473,70.59-2.062Z" transform="translate(-226.01 -399.087)" fill="#263238"/>
      <path id="Tracé_12796" data-name="Tracé 12796" d="M331.617,469.473l-71.006,4.061-37.1-57.564,26.052,2.116,65.92,23.209Z" transform="translate(-219.246 -398.59)" fill="#e0e0e0"/>
      <path id="Tracé_12797" data-name="Tracé 12797" d="M332.219,465.833,267.036,466.9c2.7-8.346-3.676-20.089-12.449-24.043-5.813-2.618-16.744-6.016-22.386-8.912-10.686-5.5-20.41-15.911-19.565-24.855l26.8-.887,34.194-1.325c2.864,8.484,8.976,14.03,18.272,17.375,8.313,2.992,17.781,2.981,25.9,6.411,13.058,5.471,19.33,23.2,14.468,35.2" transform="translate(-209.868 -399.213)" fill="#ebebeb"/>
      <path id="Tracé_12798" data-name="Tracé 12798" d="M332.5,465.852s.064-.139.16-.427l.449-1.25a15.175,15.175,0,0,0,.556-2.137,21.7,21.7,0,0,0,.449-2.971,30.521,30.521,0,0,0-.513-8.292,30.989,30.989,0,0,0-4.189-10.344,25.159,25.159,0,0,0-1.87-2.629c-.353-.417-.695-.876-1.069-1.282l-1.207-1.229a11.277,11.277,0,0,0-1.3-1.165c-.459-.374-.908-.769-1.4-1.122a23.98,23.98,0,0,0-3.206-1.9c-4.52-2.276-9.916-3.206-15.537-4.274-2.821-.513-5.728-1.069-8.634-1.849a40.383,40.383,0,0,1-8.6-3.462,28.4,28.4,0,0,1-4.007-2.629,24.063,24.063,0,0,1-3.558-3.366,25.645,25.645,0,0,1-4.958-8.741l-.064-.182h-.182l-28.477,1.069c-9.884.385-20.11.652-30.582,1l-1.9.064h-.235v.235a14.554,14.554,0,0,0,.855,6.027,22.908,22.908,0,0,0,1.2,2.778,26.862,26.862,0,0,0,1.56,2.565,39.675,39.675,0,0,0,8.078,8.549,47.923,47.923,0,0,0,9.756,6.016c3.441,1.549,6.924,2.81,10.333,4.071s6.785,2.458,9.98,3.847a19.939,19.939,0,0,1,4.392,2.671c.695.492,1.272,1.122,1.9,1.667a11.73,11.73,0,0,1,1.678,1.881,24.214,24.214,0,0,1,4.563,8.549,15.922,15.922,0,0,1,.16,9.126l-.1.288h.3l47.434-.833,13.154-.267,3.441-.1H327.85l-13.154.15-47.423.663.2.278a16.242,16.242,0,0,0-.139-9.382,24.417,24.417,0,0,0-4.627-8.741c-.5-.684-1.133-1.272-1.7-1.913a11.982,11.982,0,0,0-1.945-1.72,19.745,19.745,0,0,0-4.488-2.725c-3.206-1.41-6.6-2.618-10.012-3.879s-6.882-2.533-10.29-4.071a46.865,46.865,0,0,1-9.617-5.963,39.035,39.035,0,0,1-7.971-8.42,28.758,28.758,0,0,1-1.549-2.479,22.443,22.443,0,0,1-1.165-2.7,14.117,14.117,0,0,1-.833-5.8l-.256.235,1.913-.053c10.472-.353,20.7-.63,30.572-1.069l28.488-1.069-.246-.171a26.372,26.372,0,0,0,5.065,8.9,24.363,24.363,0,0,0,3.633,3.419,27.777,27.777,0,0,0,4.082,2.661,40.1,40.1,0,0,0,8.7,3.483c2.939.8,5.856,1.336,8.677,1.838,5.621,1,11,1.945,15.451,4.167a23.247,23.247,0,0,1,3.131,1.859c.492.342.93.737,1.389,1.069a11.083,11.083,0,0,1,1.293,1.154l1.24,1.229c.385.406.716.855,1.069,1.272a23.621,23.621,0,0,1,1.87,2.586,30.561,30.561,0,0,1,4.2,10.237,30,30,0,0,1,.588,8.228,20.651,20.651,0,0,1-.406,2.96,15.217,15.217,0,0,1-.513,2.137c-.182.556-.31.972-.406,1.272A1.7,1.7,0,0,1,332.5,465.852Z" transform="translate(-210.147 -399.232)" fill="#263238"/>
      <path id="Tracé_12799" data-name="Tracé 12799" d="M273.368,408.43a11.185,11.185,0,0,1-.15-1.165,6.572,6.572,0,0,1,.513-3.077,6.315,6.315,0,0,1,3.077-3.313,7.053,7.053,0,0,1,9.467,3.633,7.9,7.9,0,0,1,.63,4.541,7.78,7.78,0,0,1-1.069,2.928c-.406.641-.705.94-.673.972a3.077,3.077,0,0,0,.834-.855,7.148,7.148,0,0,0,1.314-2.981,8.025,8.025,0,0,0-.545-4.809,7.48,7.48,0,0,0-10.13-3.868,6.582,6.582,0,0,0-3.206,3.612,6.25,6.25,0,0,0-.363,3.206,4.586,4.586,0,0,0,.214.866C273.3,408.344,273.346,408.43,273.368,408.43Z" transform="translate(-227.975 -399.705)" fill="#263238"/>
      <path id="Tracé_12800" data-name="Tracé 12800" d="M282.927,408.43c.053,0-.085-.417-.15-1.165a6.71,6.71,0,0,1,.513-3.078,6.347,6.347,0,0,1,3.088-3.313,7.063,7.063,0,0,1,9.467,3.633,7.886,7.886,0,0,1,.62,4.541,7.608,7.608,0,0,1-1.069,2.928c-.406.641-.705.94-.673.972a2.853,2.853,0,0,0,.844-.855,7.287,7.287,0,0,0,1.314-2.981,8.121,8.121,0,0,0-.556-4.809,7.48,7.48,0,0,0-10.119-3.868A6.582,6.582,0,0,0,283,404.048a6.411,6.411,0,0,0-.374,3.206,3.79,3.79,0,0,0,.224.866.759.759,0,0,0,.075.31Z" transform="translate(-247.761 -399.705)" fill="#263238"/>
      <path id="Tracé_12801" data-name="Tracé 12801" d="M290.127,408.906a10.874,10.874,0,0,1-.086-1.175,6.658,6.658,0,0,1,.684-3.045,6.326,6.326,0,0,1,3.27-3.12,7.117,7.117,0,0,1,5.492.107,7.2,7.2,0,0,1,3.751,4.039,7.94,7.94,0,0,1,.374,4.574,7.663,7.663,0,0,1-1.282,2.864c-.438.609-.759.9-.727.93a2.865,2.865,0,0,0,.887-.8,7.223,7.223,0,0,0,1.485-2.906,8.11,8.11,0,0,0-.278-4.83,7.48,7.48,0,0,0-9.9-4.434,6.582,6.582,0,0,0-3.409,3.419,6.261,6.261,0,0,0-.556,3.206,3.814,3.814,0,0,0,.171.876A.618.618,0,0,0,290.127,408.906Z" transform="translate(-262.697 -399.648)" fill="#263238"/>
      <path id="Tracé_12802" data-name="Tracé 12802" d="M297.762,409.324v-1.175a6.54,6.54,0,0,1,.844-3,6.3,6.3,0,0,1,3.43-2.949,7.053,7.053,0,0,1,9.008,4.638,7.864,7.864,0,0,1,.128,4.584,7.769,7.769,0,0,1-1.432,2.8c-.47.577-.8.844-.769.887a2.992,2.992,0,0,0,.93-.759,7.277,7.277,0,0,0,1.635-2.821,8.11,8.11,0,0,0,0-4.841,7.565,7.565,0,0,0-3.751-4.552,7.48,7.48,0,0,0-5.9-.4,6.625,6.625,0,0,0-3.59,3.206,6.3,6.3,0,0,0-.716,3.206,4.448,4.448,0,0,0,.118.876C297.708,409.228,297.741,409.324,297.762,409.324Z" transform="translate(-278.677 -399.595)" fill="#263238"/>
      <path id="Tracé_12803" data-name="Tracé 12803" d="M305.62,409.132v-1.175a6.551,6.551,0,0,1,.93-2.981,6.337,6.337,0,0,1,3.5-2.853,7.042,7.042,0,0,1,8.88,4.894,7.811,7.811,0,0,1-1.507,7.341c-.492.566-.833.823-.8.855a2.725,2.725,0,0,0,.951-.716,7.394,7.394,0,0,0,1.71-2.778,8.089,8.089,0,0,0,.118-4.841,7.6,7.6,0,0,0-3.623-4.659,7.48,7.48,0,0,0-5.877-.556,6.647,6.647,0,0,0-3.687,3.12,6.337,6.337,0,0,0-.8,3.206,4.188,4.188,0,0,0,.1.887C305.567,409.026,305.6,409.132,305.62,409.132Z" transform="translate(-294.87 -399.596)" fill="#263238"/>
      <path id="Tracé_12804" data-name="Tracé 12804" d="M312.169,410.019v-1.175a6.529,6.529,0,0,1,.812-3.013,6.336,6.336,0,0,1,3.387-2.981,7.042,7.042,0,0,1,9.061,4.531,7.854,7.854,0,0,1-1.208,7.394c-.47.588-.791.855-.769.9a2.916,2.916,0,0,0,.919-.769,7.127,7.127,0,0,0,1.6-2.842,8.067,8.067,0,0,0-.075-4.841,7.565,7.565,0,0,0-3.8-4.509,7.48,7.48,0,0,0-5.9-.32,6.55,6.55,0,0,0-3.548,3.27,6.273,6.273,0,0,0-.684,3.206,4.273,4.273,0,0,0,.128.876C312.115,409.923,312.147,410.03,312.169,410.019Z" transform="translate(-308.45 -399.553)" fill="#263238"/>
    </g>
    <g id="freepik--air-balloon--inject-39" transform="translate(0 181.412)">
      <path id="Tracé_12805" data-name="Tracé 12805" d="M364.122,204.652a58.322,58.322,0,0,1,8.837.406A36.748,36.748,0,0,1,405.016,241.7a65.5,65.5,0,0,1-2.276,17.471c-5.14,18.23-6.721,34.29-6.134,42.123l-17.2,9.243s-7.961-11.444-15.654-16.381-33.3-18.166-43.437-31.683c-6.529-8.741-7.79-26.714,7.79-42.379A52.819,52.819,0,0,1,364.122,204.652Z" transform="translate(-315.729 -204.625)" fill="#453ecc"/>
      <path id="Tracé_12806" data-name="Tracé 12806" d="M326.817,313.71l-15.537,8.4,10.109,12.844,10.365-4.7Z" transform="translate(-237.712 -197.146)" fill="#455a64"/>
      <path id="Tracé_12807" data-name="Tracé 12807" d="M323.994,315.51c.139-.053-1.4-4.67-3.441-10.3s-3.8-10.173-3.943-10.119,1.4,4.659,3.441,10.3S323.855,315.553,323.994,315.51Z" transform="translate(-235.648 -198.423)" fill="#263238"/>
      <path id="Tracé_12808" data-name="Tracé 12808" d="M340.858,322.234c.128-.075-2.308-4.435-5.428-9.735s-5.76-9.5-5.9-9.5,2.308,4.435,5.439,9.735S340.74,322.288,340.858,322.234Z" transform="translate(-266.317 -197.88)" fill="#263238"/>
      <g id="Groupe_12102" data-name="Groupe 12102" transform="translate(19.471 0.499)" opacity="0.4">
        <path id="Tracé_12809" data-name="Tracé 12809" d="M352.492,205.111c.695,0,9.243,10.044,13.026,16.819,12.727,22.793,13.3,44.965,16.83,70.825.5,3.7,2.34,11.658,2.308,11.476-1.881,1.475-8.207,4.413-8.207,4.413s-5.973-7.2-8.345-10.825c-9.489-14.5-19.8-25.817-27.932-41.129s-15.954-28.851-8.431-44.516C331.74,212.174,344.8,204.673,352.492,205.111Z" transform="translate(-328.7 -205.093)"/>
      </g>
      <path id="Tracé_12810" data-name="Tracé 12810" d="M315.22,263.195a2.867,2.867,0,0,0,.224-.492c.139-.321.31-.823.6-1.443a25.824,25.824,0,0,1,3-5.054,26.286,26.286,0,0,1,6.593-6.155,25.24,25.24,0,0,1,10.825-4.007h.128l.064-.086a61.052,61.052,0,0,1,6.935-7.971,34.986,34.986,0,0,1,9.478-6.518,24.353,24.353,0,0,1,11.209-2.137,18.5,18.5,0,0,1,9.8,3.27l.16.107.139-.128a19.234,19.234,0,0,1,10.472-4.648,18.882,18.882,0,0,1,8.9,1.133,19.983,19.983,0,0,1,5.108,2.874c.534.427.94.769,1.2,1a2.691,2.691,0,0,0,.417.342,4.673,4.673,0,0,0-.363-.4c-.246-.256-.63-.62-1.154-1.069a18.753,18.753,0,0,0-5.108-3.024,18.989,18.989,0,0,0-9.051-1.261,19.544,19.544,0,0,0-10.739,4.691h.3A18.924,18.924,0,0,0,364.3,228.84a24.919,24.919,0,0,0-11.444,2.137,35.263,35.263,0,0,0-9.617,6.636,59.625,59.625,0,0,0-6.967,8.068l.16-.1a25.251,25.251,0,0,0-10.985,4.146,26.383,26.383,0,0,0-6.614,6.315,24.3,24.3,0,0,0-2.907,5.172c-.267.63-.417,1.143-.534,1.475a4.137,4.137,0,0,0-.171.5Z" transform="translate(-310.639 -203.062)" fill="#263238"/>
      <path id="Tracé_12811" data-name="Tracé 12811" d="M319.74,283.639a11.092,11.092,0,0,1,1.485-3.729,10.151,10.151,0,0,1,3.3-3.206,9.243,9.243,0,0,1,5.7-1.346h.214v-.214a14.989,14.989,0,0,1,21.852-10.9l.16.085.128-.139a10.9,10.9,0,0,1,5.973-3.206,12.042,12.042,0,0,1,5.343.171,12.534,12.534,0,0,1,4.274,2.137,1.347,1.347,0,0,0-.224-.235c-.16-.139-.4-.363-.727-.609a10.781,10.781,0,0,0-3.206-1.549,12.075,12.075,0,0,0-5.5-.278,11.156,11.156,0,0,0-6.251,3.3l.289-.053a15.548,15.548,0,0,0-6.134-1.774,15.751,15.751,0,0,0-6.9,1.069,15.174,15.174,0,0,0-6.593,5.151,15.355,15.355,0,0,0-2.864,6.871l.246-.192a9.617,9.617,0,0,0-5.931,1.485,10.3,10.3,0,0,0-3.334,3.345,8.955,8.955,0,0,0-1.133,2.821,7.115,7.115,0,0,0-.117.791,1.249,1.249,0,0,0-.043.2Z" transform="translate(-283.166 -200.799)" fill="#263238"/>
      <path id="Tracé_12812" data-name="Tracé 12812" d="M314.3,325.81a1.543,1.543,0,0,1,.566-.385,2.81,2.81,0,0,1,1.817.064,5.492,5.492,0,0,0,1.378.246,2.137,2.137,0,0,0,1.539-.673c.823-.866,1.133-2.137,1.913-2.96a1.8,1.8,0,0,1,1.432-.609,8.944,8.944,0,0,1,1.624.331,3.643,3.643,0,0,0,1.624.085,3.11,3.11,0,0,0,2.3-2.383,1.24,1.24,0,0,0,0-.727,1.953,1.953,0,0,1-.182.684,3.141,3.141,0,0,1-1.069,1.485,2.458,2.458,0,0,1-1.122.5,3.205,3.205,0,0,1-1.421-.128,8.547,8.547,0,0,0-1.72-.363,2.287,2.287,0,0,0-1.838.759c-.908,1.069-1.186,2.244-1.881,2.981a1.742,1.742,0,0,1-1.2.577,4.939,4.939,0,0,1-1.272-.182,2.8,2.8,0,0,0-2,.128C314.345,325.5,314.281,325.81,314.3,325.81Z" transform="translate(-237.732 -196.797)" fill="#263238"/>
      <path id="Tracé_12813" data-name="Tracé 12813" d="M315.34,323.51a65.674,65.674,0,0,0,7.576-3.74,69.365,69.365,0,0,0,7.341-4.21,68.49,68.49,0,0,0-7.587,3.74A69.807,69.807,0,0,0,315.34,323.51Z" transform="translate(-240.554 -197.019)" fill="#263238"/>
      <path id="Tracé_12814" data-name="Tracé 12814" d="M313.632,327.073s.214.107.588.278c.192.085.406.214.705.342a2.629,2.629,0,0,0,1.069.139,4.445,4.445,0,0,0,2.565-.994,3.515,3.515,0,0,0,.972-1.336,4.861,4.861,0,0,1,.759-1.4,3.6,3.6,0,0,1,2.81-.812,6.475,6.475,0,0,0,2.7-.257,2.522,2.522,0,0,0,1.368-1.25c.171-.417.107-.684.085-.673a3.705,3.705,0,0,1-.278.577,2.437,2.437,0,0,1-1.314.994,6.411,6.411,0,0,1-2.543.118,4,4,0,0,0-3.206.94,5.344,5.344,0,0,0-.833,1.549,3.206,3.206,0,0,1-.823,1.186,4.339,4.339,0,0,1-2.276.983,3.206,3.206,0,0,1-1.667-.3C313.878,327.041,313.632,327.041,313.632,327.073Z" transform="translate(-235.758 -196.639)" fill="#263238"/>
    </g>
    <g id="freepik--Character--inject-39" transform="translate(55.905 66.423)">
      <path id="Tracé_12815" data-name="Tracé 12815" d="M239.376,234.721,212.5,230.736l12.823-18.166,6.882.406a12.278,12.278,0,0,1,10.568,7.395h0a12.321,12.321,0,0,1,.78,7.2Z" transform="translate(-100.088 -89.092)" fill="#453ecc"/>
      <path id="Tracé_12816" data-name="Tracé 12816" d="M239.376,234.721,212.5,230.736l12.823-18.166,6.882.406a12.278,12.278,0,0,1,10.568,7.395h0a12.321,12.321,0,0,1,.78,7.2Z" transform="translate(-100.088 -89.092)" opacity="0.4"/>
      <path id="Tracé_12817" data-name="Tracé 12817" d="M322.321,265.814c-.278.769-.577,1.678-.887,2.768a8.764,8.764,0,0,0-.288,2.885,13.379,13.379,0,0,0,.609,3.548c.438,1.069-.588,2.052-1.453,1.539s-2.137-3.291-2.137-6.86-3.569.705-4.926,2.244-5.781,6.1-6.582,6.059c-1.175-.064-1.325-1.336.064-2.842s5.247-6.3,4.4-6.988-7.64,7.256-7.64,7.256-1.175,1.934-2.137,1.186c-1.817-1.357,6.037-9.254,6.807-9.98.524-.513-.363-1.282-.908-.705s-6.6,8.068-8.463,6.7c-1.421-1.069,6.411-6.55,6.8-8.794s-5.514,4.776-6.828,3.729c-.5-.4-.812-.759,3.206-4.274,1.923-1.731,9.254-6.86,9.254-6.86l22.055-63.142,17.033,9.756Z" transform="translate(-298.46 -90.415)" fill="#ffbe9d"/>
      <path id="Tracé_12818" data-name="Tracé 12818" d="M201.9,151.985l24.641-29.407h0a17.161,17.161,0,0,1,1.207-2.939,9.243,9.243,0,0,1,5.813-4.851c1.56-.342,3.355-.171,4.584-1.2.545-.459.908-1.069,1.485-1.539a1.313,1.313,0,0,1,1.9.1,1.678,1.678,0,0,1-.107,1.475,13.71,13.71,0,0,1-4.274,5.514c2.308.705,5.61,1.774,5.61,1.774s5.2-5.653,7.875-5.642-2.137,5.054-2.137,5.054,4.274-3.954,5.6-2.842-2.073,4.05-2.073,4.05a5.663,5.663,0,0,1,3.473-.972c1.208.2,2.244,1.624,1.592,2.661a2.778,2.778,0,0,1-1.069.866l-6.561,3.654a7.939,7.939,0,0,1-3.5,1.282c-3.334.107-5.866-1.955-9.19-1.87,0,0-18.582,39.12-20.463,41.14s-42.743,4.766-42.743,4.766L149.932,152.7Z" transform="translate(-46.74 -96.009)" fill="#ffbe9d"/>
      <path id="Tracé_12819" data-name="Tracé 12819" d="M289.965,348.83,264.8,359.783l13.464,31.384c2.928-1.464,1.966-20.3,1.966-20.3l16.413-6.358Z" transform="translate(-208.839 -79.749)" fill="#453ecc"/>
      <g id="Groupe_12103" data-name="Groupe 12103" transform="translate(66.243 280.344)" opacity="0.6">
        <path id="Tracé_12820" data-name="Tracé 12820" d="M284.886,359.872a1.4,1.4,0,0,0-1.849-.267,1.346,1.346,0,0,0-.267,1.827,1.464,1.464,0,0,0,1.945.267,1.389,1.389,0,0,0,.075-1.934" transform="translate(-282.527 -359.371)" fill="#fff"/>
      </g>
      <path id="Tracé_12821" data-name="Tracé 12821" d="M281,359.144l2.586-1L295.533,388.6s0,1.667-1.069,1.923Z" transform="translate(-225.039 -79.111)" fill="#fff" opacity="0.6"/>
      <path id="Tracé_12822" data-name="Tracé 12822" d="M282.753,370.021c-.16.053-.556-.684-1.378-1.218s-1.624-.673-1.624-.833.983-.321,1.955.353S282.9,369.989,282.753,370.021Z" transform="translate(-210.967 -78.447)" fill="#263238"/>
      <path id="Tracé_12823" data-name="Tracé 12823" d="M282.958,373.587c-.139.107-.684-.449-1.56-.695s-1.614-.1-1.678-.246.769-.63,1.849-.31S283.1,373.523,282.958,373.587Z" transform="translate(-211.118 -78.145)" fill="#263238"/>
      <path id="Tracé_12824" data-name="Tracé 12824" d="M279.74,376.881c-.1-.128.588-.673,1.592-.641s1.646.609,1.549.727-.737-.128-1.571-.139S279.826,377.052,279.74,376.881Z" transform="translate(-211.042 -77.87)" fill="#263238"/>
      <path id="Tracé_12825" data-name="Tracé 12825" d="M277.9,368.335c-.171,0-.256-.8-.695-1.635s-.994-1.4-.9-1.539.93.278,1.421,1.272S278.048,368.357,277.9,368.335Z" transform="translate(-202.532 -78.631)" fill="#263238"/>
      <path id="Tracé_12826" data-name="Tracé 12826" d="M273.126,366.287a3.343,3.343,0,0,1-.663-1.571,7.328,7.328,0,0,1-.2-1.859,8.143,8.143,0,0,1,.085-1.069,2.072,2.072,0,0,1,.171-.63.716.716,0,0,1,.78-.417.887.887,0,0,1,.641.513,2.33,2.33,0,0,1,.171.63,6,6,0,0,1-.246,2.981c-.353,1.015-.823,1.507-.876,1.464s.246-.609.492-1.581a7.1,7.1,0,0,0,.182-1.742,6.966,6.966,0,0,0-.107-1.069c-.053-.363-.171-.652-.363-.673s-.085,0-.16.107a2.14,2.14,0,0,0-.118.47,8.794,8.794,0,0,0-.118,1.069,9.128,9.128,0,0,0,.075,1.763,12.046,12.046,0,0,1,.256,1.613Z" transform="translate(-194.362 -78.933)" fill="#263238"/>
      <path id="Tracé_12827" data-name="Tracé 12827" d="M268.389,365.944a3.364,3.364,0,0,1,1.336-1.069,5.45,5.45,0,0,1,1.817-.524,4.894,4.894,0,0,1,1.069,0,1.443,1.443,0,0,1,1.229.663.812.812,0,0,1-.16.844,2.435,2.435,0,0,1-.513.406,3.835,3.835,0,0,1-1.069.46,3.954,3.954,0,0,1-1.9,0c-1.069-.267-1.539-.823-1.5-.855a14.422,14.422,0,0,0,1.571.449,3.911,3.911,0,0,0,1.688-.128,3.622,3.622,0,0,0,.9-.427c.31-.192.524-.427.438-.534a.951.951,0,0,0-.748-.331,5.525,5.525,0,0,0-1.069,0,6.164,6.164,0,0,0-1.7.363C268.966,365.6,268.442,366.008,268.389,365.944Z" transform="translate(-189.924 -78.687)" fill="#263238"/>
      <path id="Tracé_12828" data-name="Tracé 12828" d="M279.4,389.521,268.99,411.331l-3.259,19.683a2.468,2.468,0,0,1-3.013,2h0a2.447,2.447,0,0,1-1.72-1.475c-1.913-4.734-8.869-22.2-8.014-23.754.983-1.8,9.457-23.733,9.457-23.733Z" transform="translate(-178.888 -77.334)" fill="#453ecc"/>
      <path id="Tracé_12829" data-name="Tracé 12829" d="M278.337,431.534l-9.061-26.714-.427.93a3.729,3.729,0,0,0-.182,2.565c.663,2.276,2.618,8.549,7.886,21.713a2.458,2.458,0,0,0,1.785,1.507Z" transform="translate(-194.508 -75.91)" fill="#fff" opacity="0.6"/>
      <g id="Groupe_12104" data-name="Groupe 12104" transform="translate(79.914 323.161)" opacity="0.6">
        <path id="Tracé_12830" data-name="Tracé 12830" d="M272.166,400.113a1.485,1.485,0,0,1-.427,1.945,1.443,1.443,0,0,1-1.945-.406,1.592,1.592,0,0,1,.47-2.062,1.485,1.485,0,0,1,1.966.652" transform="translate(-269.597 -399.44)" fill="#fff"/>
      </g>
      <path id="Tracé_12831" data-name="Tracé 12831" d="M264.076,418.779a5.343,5.343,0,0,1,5.46-.192,1.725,1.725,0,0,0-.641-.641,3.826,3.826,0,0,0-2.137-.545,3.879,3.879,0,0,0-2.084.684C264.2,418.426,264.034,418.736,264.076,418.779Z" transform="translate(-180.953 -75.048)" fill="#263238"/>
      <path id="Tracé_12832" data-name="Tracé 12832" d="M264.64,422.153a18.44,18.44,0,0,1,2.372-.064,20.481,20.481,0,0,1,2.276.684c.118-.086-.737-1.069-2.2-1.218A2.735,2.735,0,0,0,264.64,422.153Z" transform="translate(-181.324 -74.768)" fill="#263238"/>
      <path id="Tracé_12833" data-name="Tracé 12833" d="M263.52,413.978a24.088,24.088,0,0,1,3.655-.353,22.714,22.714,0,0,1,3.612.705,6.743,6.743,0,0,0-7.266-.353Z" transform="translate(-181.614 -75.344)" fill="#263238"/>
      <path id="Tracé_12834" data-name="Tracé 12834" d="M262.4,407.479c0,.16,1.443.192,3.056.855s2.693,1.592,2.8,1.475a4.809,4.809,0,0,0-2.607-1.977,4.755,4.755,0,0,0-3.248-.353Z" transform="translate(-177.887 -75.738)" fill="#263238"/>
      <path id="Tracé_12835" data-name="Tracé 12835" d="M259.738,401.414a12.3,12.3,0,0,1,3.206.812,11.837,11.837,0,0,1,2.586,2.041c.053,0-.053-.417-.438-.93a5.215,5.215,0,0,0-1.923-1.592,5.268,5.268,0,0,0-2.426-.556C260.1,401.211,259.728,401.361,259.738,401.414Z" transform="translate(-172.33 -76.159)" fill="#263238"/>
      <path id="Tracé_12836" data-name="Tracé 12836" d="M259.1,401.343a2.49,2.49,0,0,0,.406-.823,6.465,6.465,0,0,0,.31-2.479,2.81,2.81,0,0,0-.545-1.72.994.994,0,0,0-1.069-.267,1.667,1.667,0,0,0-.8.844,3.494,3.494,0,0,0,1.475,4.21,4.071,4.071,0,0,0,4.509-.3,1.4,1.4,0,0,0,.534-1.069.972.972,0,0,0-.716-.887,3.516,3.516,0,0,0-1.8.107,6.9,6.9,0,0,0-2.276,1.069c-.481.331-.695.577-.673.609a10.686,10.686,0,0,1,3.035-1.282,3.131,3.131,0,0,1,1.571-.054.524.524,0,0,1,.4.481,1,1,0,0,1-.4.662,3.622,3.622,0,0,1-3.911.224,3.035,3.035,0,0,1-1.346-3.6,1.122,1.122,0,0,1,.534-.609.524.524,0,0,1,.609.128,2.48,2.48,0,0,1,.492,1.453A9.48,9.48,0,0,1,259.1,401.343Z" transform="translate(-167.97 -76.515)" fill="#263238"/>
      <path id="Tracé_12837" data-name="Tracé 12837" d="M191.14,359.885l28.541-19.234-9.446-92.741,27.035-15.783,24.716-5.728s10.322,21.478,14.96,35.263c9.767,29.247,16.616,39.729,15.045,60.908-.492,6.711-25.261,23.508-40.9,32.816a50.833,50.833,0,0,1-.833,5.546c-5.343,24.171-21.671,56.313-21.671,56.313l-24.791-11.53,7.993-27.409-8.335,4.862Zm61.346-59.84-3.334-14.864c.705,9.457,1.346,19.32,1.806,28.776a29.535,29.535,0,0,0,1.528-13.881Z" transform="translate(-125.701 -88.144)" fill="#263238"/>
      <path id="Tracé_12838" data-name="Tracé 12838" d="M228.2,415.538a2.361,2.361,0,0,0,.192-.4l.524-1.165,1.913-4.52c1.646-3.943,4.007-9.617,6.839-16.723s6.187-15.526,9.617-25.036c.844-2.383,1.667-4.83,2.447-7.362.342-1.282.78-2.543,1-3.9.064-.331.139-.673.192-1l.118-1.015.224-2.03q.449-4.1.716-8.356c.085-1.411.16-2.842.224-4.274a37.078,37.078,0,0,0,0-4.36c-.427-11.647-1.4-22.7-2.212-32.752s-1.592-19.1-2.233-26.714-1.069-13.752-1.282-18.016c-.139-2.137-.214-3.783-.256-4.894l-.075-1.282a1.614,1.614,0,0,0,0-.427,2.543,2.543,0,0,0,0,.427v1.282c0,1.122.053,2.778.15,4.9.182,4.274.556,10.429,1.122,18.037s1.325,16.659,2.137,26.714,1.742,21.1,2.137,32.719c.085,1.453,0,2.885,0,4.328s-.128,2.853-.224,4.274q-.256,4.274-.695,8.324l-.224,2.041-.118,1c-.053.331-.128.652-.192.983-.214,1.3-.641,2.575-.983,3.847-.759,2.511-1.581,4.958-2.415,7.341-3.355,9.5-6.679,17.952-9.457,25.058s-5.1,12.823-6.689,16.776c-.78,1.966-1.4,3.494-1.827,4.563-.192.5-.353.9-.459,1.186A1.532,1.532,0,0,1,228.2,415.538Z" transform="translate(-125.36 -86.436)" fill="#455a64"/>
      <path id="Tracé_12839" data-name="Tracé 12839" d="M230,249.676a4.387,4.387,0,0,0,.641-.524,6.743,6.743,0,0,0,1.207-1.945,20.773,20.773,0,0,0,1.218-7.352,62.231,62.231,0,0,0-.353-7.48,16.989,16.989,0,0,0-.427-3.045,18.068,18.068,0,0,0,0,3.077c.1,1.891.246,4.509.2,7.394a23.9,23.9,0,0,1-1.069,7.234,8.26,8.26,0,0,1-1.015,1.934A4.12,4.12,0,0,0,230,249.676Z" transform="translate(-108.075 -87.943)" fill="#455a64"/>
      <path id="Tracé_12840" data-name="Tracé 12840" d="M214.634,227.72a6.219,6.219,0,0,0-.214,2.586,11.968,11.968,0,0,0,6.828,10.023,6.316,6.316,0,0,0,2.49.748c0-.085-.93-.342-2.319-1.069a12.652,12.652,0,0,1-6.625-9.713C214.613,228.714,214.731,227.72,214.634,227.72Z" transform="translate(-82.047 -88.053)" fill="#455a64"/>
      <path id="Tracé_12841" data-name="Tracé 12841" d="M264,278.18v.278a4.268,4.268,0,0,0,.064.823q.128,1.154.321,3.206c.31,2.789.737,6.753,1.272,11.626,1.069,9.863,2.65,23.4,4.338,38.372a69.853,69.853,0,0,1-1.4,21.051,72.673,72.673,0,0,1-2.575,8.869c-.962,2.736-1.849,5.289-2.671,7.63-1.614,4.638-2.917,8.41-3.836,11.06-.427,1.282-.769,2.287-1.069,3.013l-.256.791a.855.855,0,0,0-.064.267.587.587,0,0,1,.118-.256,4.459,4.459,0,0,0,.3-.769c.278-.716.641-1.71,1.069-2.981l4-11c.833-2.329,1.752-4.883,2.736-7.608a72.194,72.194,0,0,0,2.639-8.922,69.392,69.392,0,0,0,1.464-21.2c-1.667-15.013-3.334-28.541-4.5-38.361-.609-4.873-1.069-8.837-1.443-11.615-.171-1.346-.31-2.394-.417-3.206a4.582,4.582,0,0,0-.118-.812.908.908,0,0,0,.032-.257Z" transform="translate(-175.762 -84.593)" fill="#455a64"/>
      <path id="Tracé_12842" data-name="Tracé 12842" d="M233.8,226.968l-4.381-11.188-9.991,14.9,13.325-3.323" transform="translate(-97.517 -88.872)" fill="#ffbe9d"/>
      <path id="Tracé_12843" data-name="Tracé 12843" d="M211.184,198.142l11.85-26.575c1.421-4.274,4.082-4.937,6.3-7.416l29.7-16.744c21.649-8.869,33.435,20.858,33.435,20.858l19.672,44.88c23.134,7.662,6.753,25.432,6.753,25.432s6.294-10.942.1-14.885c-6.475-4.135-13.656,6.753-20.559,17.1-8.153,12.2-34.632,20.132-34.632,20.132-3.1-3.27-2.233-14.693-4.659-20.826-.769-1.934-19.106-44.41-19.106-44.41L232.929,212.9s-9.1-10.686-13.528-12.374A50.357,50.357,0,0,0,211.184,198.142Z" transform="translate(-179.426 -93.673)" fill="#453ecc"/>
      <path id="Tracé_12844" data-name="Tracé 12844" d="M244.4,212.71a4.435,4.435,0,0,0,.9.63,17.364,17.364,0,0,0,2.7,1.272,19.33,19.33,0,0,0,18.764-2.9,16.635,16.635,0,0,0,2.191-2.03,3.484,3.484,0,0,0,.663-.866c-.075-.075-1.069,1.133-3.077,2.6a20.078,20.078,0,0,1-18.411,2.842C245.757,213.468,244.4,212.624,244.4,212.71Z" transform="translate(-160.015 -89.349)" fill="#263238"/>
      <path id="Tracé_12845" data-name="Tracé 12845" d="M269.367,174.916h0l-18.326,1.731L221.72,145.658l17.247-.6,30.7,3.035a79.652,79.652,0,0,0-.3,26.821Z" transform="translate(-135.829 -93.721)" fill="#453ecc"/>
      <path id="Tracé_12846" data-name="Tracé 12846" d="M222.77,157.74a1.935,1.935,0,0,0,.224.566l.737,1.581c.663,1.432,1.592,3.409,2.714,5.8,2.276,4.915,5.343,11.754,8.549,19.341s6.262,14.458,8.549,19.384c1.122,2.468,2.052,4.445,2.714,5.813l.78,1.56a2.607,2.607,0,0,0,.31.534,3.541,3.541,0,0,0-.214-.577l-.684-1.6-2.565-5.877c-2.137-5.033-5.118-11.882-8.367-19.448s-6.411-14.4-8.73-19.288c-1.186-2.436-2.137-4.392-2.874-5.738-.342-.62-.609-1.133-.823-1.539A2.831,2.831,0,0,0,222.77,157.74Z" transform="translate(-114.631 -92.851)" fill="#263238"/>
      <path id="Tracé_12847" data-name="Tracé 12847" d="M289,166.17c-.053.1,1.069.684,2.639,2.009a18.954,18.954,0,0,1,2.468,2.554,20.922,20.922,0,0,1,2.329,3.687,21.79,21.79,0,0,1,1.453,4.1,18.67,18.67,0,0,1,.47,3.537c.075,2.03-.16,3.291-.053,3.3a3.1,3.1,0,0,0,.214-.866,6.3,6.3,0,0,0,.15-1.069,11.114,11.114,0,0,0,.075-1.411,16.755,16.755,0,0,0-.374-3.633,20.3,20.3,0,0,0-1.443-4.274,20.526,20.526,0,0,0-2.426-3.761,17.289,17.289,0,0,0-2.618-2.533,10.082,10.082,0,0,0-1.143-.812,6.538,6.538,0,0,0-.908-.545A2.8,2.8,0,0,0,289,166.17Z" transform="translate(-236.802 -92.273)" fill="#263238"/>
      <path id="Tracé_12848" data-name="Tracé 12848" d="M268.365,128.191l17.193,32.142a11.348,11.348,0,0,0,14.629,5h0a11.337,11.337,0,0,0,5.343-15.644l-2.96-5.578s7.48-4.841,3.975-12.919c-3.12-7.2-14.575-27.548-17-31.843l-14.49,6.486a16.274,16.274,0,0,0-6.689,22.354Z" transform="translate(-221.284 -96.855)" fill="#ffbe9d"/>
      <path id="Tracé_12849" data-name="Tracé 12849" d="M281.818,141.13a20.506,20.506,0,0,1-11.808,1.71s5.065,4.67,12.759.363Z" transform="translate(-200.532 -93.99)" fill="#eb996e"/>
      <path id="Tracé_12850" data-name="Tracé 12850" d="M278.311,117.122a1.261,1.261,0,0,1-.588,1.656,1.207,1.207,0,0,1-1.646-.5,1.261,1.261,0,0,1,.588-1.656,1.208,1.208,0,0,1,1.646.5Z" transform="translate(-202.549 -95.681)" fill="#263238"/>
      <path id="Tracé_12851" data-name="Tracé 12851" d="M280.754,116.163c-.075.214-1.229,0-2.468.513s-1.859,1.571-2.062,1.485-.064-.374.192-.833a3.505,3.505,0,0,1,1.571-1.378,3.355,3.355,0,0,1,2.052-.224C280.54,115.842,280.8,116.024,280.754,116.163Z" transform="translate(-205.057 -95.737)" fill="#263238"/>
      <path id="Tracé_12852" data-name="Tracé 12852" d="M289.114,122.442a1.25,1.25,0,0,1-.588,1.656,1.207,1.207,0,0,1-1.646-.513,1.261,1.261,0,0,1,.588-1.646,1.2,1.2,0,0,1,1.646.5Z" transform="translate(-224.903 -95.316)" fill="#263238"/>
      <path id="Tracé_12853" data-name="Tracé 12853" d="M292.016,121.452c-.075.214-1.229,0-2.468.513s-1.859,1.581-2.062,1.5-.075-.374.192-.844a3.494,3.494,0,0,1,1.571-1.368,3.281,3.281,0,0,1,2.052-.224C291.8,121.142,292.059,121.356,292.016,121.452Z" transform="translate(-228.351 -95.374)" fill="#263238"/>
      <path id="Tracé_12854" data-name="Tracé 12854" d="M281.852,128.754a9.3,9.3,0,0,1,1.838-1.25c.3-.182.577-.374.534-.609a2.093,2.093,0,0,0-.63-.844l-2.009-1.988a45.68,45.68,0,0,1-4.9-5.343,44.475,44.475,0,0,1,5.343,4.926l1.977,2.02a2,2,0,0,1,.716,1.165.908.908,0,0,1-.31.695,2.468,2.468,0,0,1-.5.31A8.185,8.185,0,0,1,281.852,128.754Z" transform="translate(-209.606 -95.527)" fill="#263238"/>
      <path id="Tracé_12855" data-name="Tracé 12855" d="M277.39,130.43c.192-.1.791,1.24,2.362,1.678s2.939-.342,3.035-.16-.2.4-.8.684a3.622,3.622,0,0,1-2.49.214,3.142,3.142,0,0,1-1.9-1.443C277.294,130.868,277.294,130.473,277.39,130.43Z" transform="translate(-208.393 -94.724)" fill="#263238"/>
      <path id="Tracé_12856" data-name="Tracé 12856" d="M294.529,116.781c0,.4-1.272.78-2.639,1.6s-2.372,1.742-2.693,1.528c-.15-.107-.085-.513.235-1.069a5.429,5.429,0,0,1,4.071-2.383C294.123,116.46,294.518,116.6,294.529,116.781Z" transform="translate(-232.712 -95.682)" fill="#263238"/>
      <path id="Tracé_12857" data-name="Tracé 12857" d="M282.5,113.039c-.1.385-1.069.47-2.137.908s-1.806,1.069-2.137.833-.15-.449.118-.876a3.067,3.067,0,0,1,1.485-1.218,3.131,3.131,0,0,1,1.923-.182C282.283,112.59,282.55,112.825,282.5,113.039Z" transform="translate(-208.851 -95.958)" fill="#263238"/>
      <path id="Tracé_12858" data-name="Tracé 12858" d="M298.521,130.85c-.171,0-6.251.833-3.622,6.251s7.48,1.656,7.48,1.5S298.521,130.85,298.521,130.85Z" transform="translate(-246.033 -94.695)" fill="#ffbe9d"/>
      <path id="Tracé_12859" data-name="Tracé 12859" d="M300.532,137.178s-.064.107-.182.267a1.069,1.069,0,0,1-.705.353,2.607,2.607,0,0,1-2.137-1.571,3.5,3.5,0,0,1-.4-1.475,1.218,1.218,0,0,1,.363-1.069.534.534,0,0,1,.684,0c.139.118.16.235.192.235s.075-.15-.075-.353a.684.684,0,0,0-.385-.235.8.8,0,0,0-.588.118,1.485,1.485,0,0,0-.577,1.314,3.579,3.579,0,0,0,.406,1.667,2.736,2.736,0,0,0,2.511,1.678,1.207,1.207,0,0,0,.8-.566C300.586,137.317,300.554,137.178,300.532,137.178Z" transform="translate(-246.858 -94.526)" fill="#eb996e"/>
      <path id="Tracé_12860" data-name="Tracé 12860" d="M290.831,134.009a3.206,3.206,0,0,1,3.206.182c.705.62,1.186,1.475,1.891,2.137a2.137,2.137,0,0,0,2.586.406,1.849,1.849,0,0,0,.577-1.763,5.107,5.107,0,0,0-.78-1.785c-1.464-2.415-3.142-4.723-4.4-7.256a14.415,14.415,0,0,1-1.72-8.2A7.907,7.907,0,0,1,297,111.249c1.763-.62,3.729-.438,5.535-.951a7.384,7.384,0,0,0,4.744-4.36,12.828,12.828,0,0,1,.705-1.218c-.064-.128-.705-1.218-1.336-1.432-4.766-1.614-11.209.235-15.152,3.345a17.514,17.514,0,0,0-6.753,13.122c-.053,5.022,3.11,10.557,6.048,14.3" transform="translate(-241.485 -96.626)" fill="#263238"/>
      <path id="Tracé_12861" data-name="Tracé 12861" d="M288.319,133.811c-1.507-2.565-3.943-4.413-5.8-6.721s-3.206-5.567-1.817-8.217c.449-.908,1.175-1.667,1.549-2.607a12.918,12.918,0,0,0,.534-3,10.429,10.429,0,0,1,5.172-7.48c1.9-1.069,4.093-1.5,6.027-2.511,3.045-1.6,5.279-4.573,8.549-5.845a4.06,4.06,0,0,1,3.323-.107,2.009,2.009,0,0,1,.823,2.874,1.742,1.742,0,0,1,2.4-1.154,2.629,2.629,0,0,1,1.357,2.575,5.717,5.717,0,0,1-1.165,2.821,14.468,14.468,0,0,1-8.228,5.674l-7.384-.577-6.048,4.477-4.467,7.127,8.11,10.536Z" transform="translate(-239.026 -97.015)" fill="#263238"/>
    </g>
    <g id="freepik--light-bulb--inject-39" transform="translate(151.294 36.795)">
      <path id="Tracé_12862" data-name="Tracé 12862" d="M208.992,93.664a26.052,26.052,0,1,1,35.551,25.913c-.2,3.077-.427,6.561-.427,6.561l-22.782-1.475s.1-3.687.267-6.978a26.03,26.03,0,0,1-12.609-24.021Z" transform="translate(-208.937 -69.288)" fill="#453ecc"/>
      <path id="Tracé_12863" data-name="Tracé 12863" d="M230.688,123.4v-1.272c0-.823-.118-2.052-.246-3.622s-.31-3.5-.663-5.717a39.441,39.441,0,0,0-1.891-7.394A25.26,25.26,0,0,0,226,101.363a4.841,4.841,0,0,0-1.678-1.71,2.682,2.682,0,0,0-2.468-.075,1.763,1.763,0,0,0-.887.972,1.785,1.785,0,0,0,0,1.346,3.729,3.729,0,0,0,1.891,1.859,7.159,7.159,0,0,0,9.307-4.135,5.471,5.471,0,0,0,.353-2.992,2.34,2.34,0,0,0-2.255-1.955,1.646,1.646,0,0,0-1.378.833,2.34,2.34,0,0,0-.31,1.581,5.108,5.108,0,0,0,1.656,2.7,7.736,7.736,0,0,0,5.952,2.137,6.775,6.775,0,0,0,5.268-3.419,3.943,3.943,0,0,0,.374-3.142,1.9,1.9,0,0,0-2.671-1.175,2.65,2.65,0,0,0-1.175,1.069,4.146,4.146,0,0,0-.492,1.475,7.4,7.4,0,0,0,.2,2.992,7.736,7.736,0,0,0,3.387,4.595,7.886,7.886,0,0,0,5.343,1.069,4.157,4.157,0,0,0,2.415-1.069,2.009,2.009,0,0,0,.31-2.49,1.72,1.72,0,0,0-1.133-.652,2.533,2.533,0,0,0-1.261.16,3.718,3.718,0,0,0-1.7,1.688c-.748,1.368-1.357,2.7-1.977,3.975-2.415,5.108-4.167,9.329-5.343,12.256-.588,1.464-1.069,2.607-1.325,3.377-.139.385-.246.684-.331.887a2.341,2.341,0,0,0-.1.31l.128-.3.363-.866,1.378-3.366c1.218-2.906,3-7.117,5.439-12.2.62-1.261,1.25-2.618,1.988-3.954a3.515,3.515,0,0,1,1.581-1.571,1.8,1.8,0,0,1,2.084.406,1.763,1.763,0,0,1-.3,2.137,3.868,3.868,0,0,1-2.255.994,7.6,7.6,0,0,1-5.14-1.069,7.48,7.48,0,0,1-3.206-4.424,7.052,7.052,0,0,1-.192-2.874,2.81,2.81,0,0,1,1.485-2.3,1.624,1.624,0,0,1,1.357,0,1.656,1.656,0,0,1,.887,1.069,3.622,3.622,0,0,1-.353,2.885,6.486,6.486,0,0,1-5.022,3.206,7.405,7.405,0,0,1-5.7-2.062,4.819,4.819,0,0,1-1.549-2.5,2.062,2.062,0,0,1,.267-1.378,1.368,1.368,0,0,1,1.122-.684,1.891,1.891,0,0,1,1.272.5,2.137,2.137,0,0,1,.662,1.207,5.118,5.118,0,0,1-.331,2.821,6.871,6.871,0,0,1-8.976,3.986,3.462,3.462,0,0,1-1.752-1.71,1.539,1.539,0,0,1,.727-1.977,2.426,2.426,0,0,1,2.233.064,4.638,4.638,0,0,1,1.571,1.6,25.253,25.253,0,0,1,1.881,3.975,38.96,38.96,0,0,1,1.923,7.33c.374,2.212.577,4.135.727,5.706s.224,2.778.3,3.622c0,.4.064.716.075.94A2.9,2.9,0,0,0,230.688,123.4Z" transform="translate(-210.042 -67.594)" fill="#263238"/>
      <path id="Tracé_12864" data-name="Tracé 12864" d="M226.319,125.348l19.555,1.272a1.485,1.485,0,0,0,1.571-1.378h0a1.475,1.475,0,0,0-1.378-1.56L226.5,122.42a1.464,1.464,0,0,0-1.56,1.368h0A1.475,1.475,0,0,0,226.319,125.348Z" transform="translate(-212.437 -65.645)" fill="#263238"/>
      <path id="Tracé_12865" data-name="Tracé 12865" d="M226.687,126.36l19.565,1.272a1.467,1.467,0,1,1-.192,2.928l-2.137-.139-3.206,5.247a1.913,1.913,0,0,1-1.742.9l-6.988-.449a1.934,1.934,0,0,1-1.614-1.133l-2.415-5.589-1.464-.1a1.475,1.475,0,0,1,.192-2.939Z" transform="translate(-212.891 -65.374)" fill="#263238"/>
      <g id="Groupe_12105" data-name="Groupe 12105" transform="translate(33.323 5.252)" opacity="0.2">
        <path id="Tracé_12866" data-name="Tracé 12866" d="M222.167,79.521a18.935,18.935,0,0,0-4.99-3.793,14.072,14.072,0,0,0-3.89-1.432c-.983-.16-1.549-.107-1.614.1-.139.47,1.785,1.293,4.274,3.206a21.435,21.435,0,0,1,8.388,21.628c-.566,3.152-1.432,5.054-1.069,5.343.192.118.641-.224,1.25-1a13.517,13.517,0,0,0,1.945-3.708,19.064,19.064,0,0,0,1.069-6.155,20.3,20.3,0,0,0-1.336-7.64" transform="translate(-211.667 -74.202)" fill="#fff"/>
      </g>
      <g id="Groupe_12106" data-name="Groupe 12106" transform="translate(23.773 2.964)" opacity="0.2">
        <path id="Tracé_12867" data-name="Tracé 12867" d="M232.5,75.266c1.646.085,3.131-.267,3.355-1.133.1-.427-.182-.908-.748-1.3a5.279,5.279,0,0,0-4.915-.3c-.62.331-.94.78-.9,1.218" transform="translate(-229.292 -72.062)" fill="#fff"/>
      </g>
      <path id="Tracé_12868" data-name="Tracé 12868" d="M232.38,134.937a11.4,11.4,0,0,0,1.378-.331,11.391,11.391,0,0,1,3.345-.2,11.541,11.541,0,0,1,3.206.823c.791.342,1.261.62,1.282.577a3.965,3.965,0,0,0-1.186-.78,9.617,9.617,0,0,0-3.313-.93,9.446,9.446,0,0,0-3.43.3A4.135,4.135,0,0,0,232.38,134.937Z" transform="translate(-214.534 -64.847)" fill="#455a64"/>
      <path id="Tracé_12869" data-name="Tracé 12869" d="M228.86,129.261c0,.085,3.526.385,7.9.673s7.9.438,7.907.342-3.526-.385-7.886-.663S228.871,129.176,228.86,129.261Z" transform="translate(-213.845 -65.177)" fill="#455a64"/>
      <path id="Tracé_12870" data-name="Tracé 12870" d="M230.31,131.51a11.754,11.754,0,0,0,1.913.31c1.186.16,2.832.331,4.659.481s3.473.224,4.67.256a10.686,10.686,0,0,0,1.934,0,10.772,10.772,0,0,0-1.923-.214l-4.659-.353-4.659-.385a11.4,11.4,0,0,0-1.934-.1Z" transform="translate(-214.216 -65.022)" fill="#455a64"/>
    </g>
    <g id="freepik--Book--inject-39" transform="translate(228.084 159.992)">
      <path id="Tracé_12871" data-name="Tracé 12871" d="M151.181,254.641l-4.274,6.807s-18.166-16.68-36.107-11.968C110.832,249.458,126.989,235.759,151.181,254.641Z" transform="translate(-70.997 -180.461)" fill="#453ecc"/>
      <path id="Tracé_12872" data-name="Tracé 12872" d="M186.718,250.184s-13.3-14.447-32.816-11.156l-5.343.8,1.688-3.067S184.218,225.137,186.718,250.184Z" transform="translate(-146.884 -181.187)" fill="#453ecc"/>
      <path id="Tracé_12873" data-name="Tracé 12873" d="M109.125,203.631s26.65-4.584,44.11,4.873l-27.783,52.232S102.735,238.841,81,252.326Z" transform="translate(-41.208 -183.35)" fill="#f5f5f5"/>
      <path id="Tracé_12874" data-name="Tracé 12874" d="M109.1,203.642a1.838,1.838,0,0,0-.15.214l-.4.663-1.539,2.6-5.77,9.895L80.813,252.272a.235.235,0,0,0,.321.321,29.354,29.354,0,0,1,10.226-3.922,32.057,32.057,0,0,1,5.76-.406,36.213,36.213,0,0,1,5.9.748,50.65,50.65,0,0,1,22.034,11.754l.235.214a.256.256,0,0,0,.374,0v-.053l27.751-52.306a.2.2,0,0,0-.085-.289h0a53.738,53.738,0,0,0-17.76-5.289,90.331,90.331,0,0,0-14.223-.62c-3.932.139-7,.449-9.072.705-1.069.128-1.838.246-2.372.342l-.609.107h.011l.609-.075c.534-.064,1.325-.171,2.372-.278,2.137-.214,5.15-.481,9.072-.577a90.731,90.731,0,0,1,14.158.716,53.611,53.611,0,0,1,17.6,5.343l-.085-.289L125.244,260.65l.417-.075-.235-.214a56.259,56.259,0,0,0-10.622-7.48,44.345,44.345,0,0,0-11.669-4.424,34.966,34.966,0,0,0-5.995-.748,31.245,31.245,0,0,0-5.856.417A30.06,30.06,0,0,0,80.9,252.133l.331.321,20.207-35.263,5.685-9.98,1.485-2.65c.16-.3.289-.524.374-.695a1.792,1.792,0,0,0,.118-.224Z" transform="translate(-41.181 -183.36)" fill="#263238"/>
      <path id="Tracé_12875" data-name="Tracé 12875" d="M148.4,193.754s20.153-12.823,41.546,10.686l-28.082,48.716s-5.728-19.768-39.259-12.9Z" transform="translate(-122.366 -184.19)" fill="#f5f5f5"/>
      <path id="Tracé_12876" data-name="Tracé 12876" d="M148.432,193.767a.941.941,0,0,0-.139.2c-.086.16-.214.363-.363.63l-1.421,2.479-5.343,9.446-18.732,33.692a.205.205,0,0,0,.246.31h0l4.99-.823a22.861,22.861,0,0,1,2.575-.289l2.629-.214a22.438,22.438,0,0,1,2.682-.064l2.7.011c.919,0,1.827.182,2.746.267a20.465,20.465,0,0,1,2.757.417l2.746.62,2.7.951a28.6,28.6,0,0,1,2.607,1.207,8.152,8.152,0,0,1,1.261.716l1.229.791c.812.545,1.539,1.207,2.3,1.817a24.258,24.258,0,0,1,2.02,2.137,16.831,16.831,0,0,1,2.992,5.129h0a.267.267,0,0,0,.342.16.256.256,0,0,0,.139-.118l1.133-1.956c9.927-17.257,19.234-33.339,26.917-46.771a.246.246,0,0,0,0-.267,47.274,47.274,0,0,0-15.206-11.434,30.369,30.369,0,0,0-14.351-2.693,29.471,29.471,0,0,0-9.179,2.052,22.729,22.729,0,0,0-2.244,1.069l-.556.321-.171.128.192-.1.566-.289c.5-.246,1.25-.609,2.255-.994a30,30,0,0,1,23.338.844,47.1,47.1,0,0,1,15.024,11.4V204.3l-26.981,46.8-1.175,1.934.492.064a17.589,17.589,0,0,0-3.088-5.343,28.982,28.982,0,0,0-2.073-2.212c-.791-.63-1.528-1.314-2.362-1.859l-1.25-.812a8.549,8.549,0,0,0-1.293-.727c-.9-.417-1.742-.919-2.661-1.24l-2.746-.951-2.8-.63a19.235,19.235,0,0,0-2.8-.417c-.93-.085-1.849-.256-2.768-.267h-2.746a18.972,18.972,0,0,0-2.7.064l-2.65.224a20.746,20.746,0,0,0-2.6.288l-5.022.844.246.342c7.662-13.891,14.062-25.528,18.572-33.724,2.233-4.071,4-7.3,5.2-9.521l1.368-2.522c.139-.278.256-.492.342-.652A1.746,1.746,0,0,0,148.432,193.767Z" transform="translate(-122.403 -184.203)" fill="#263238"/>
      <path id="Tracé_12877" data-name="Tracé 12877" d="M152.819,184.62,122.76,242.483S98.344,241.414,88,253.318l27.847-48.459S132.175,184.62,152.819,184.62Z" transform="translate(-48.272 -184.577)" fill="#f5f5f5"/>
      <path id="Tracé_12878" data-name="Tracé 12878" d="M153.048,184.623h-.769l-2.308.1h-.812l-.887.15-2.009.331a16.2,16.2,0,0,0-2.3.556,26.223,26.223,0,0,0-2.575.759c-7.181,2.394-16.819,8.185-25.475,18.166h0l-27.89,48.427a.267.267,0,0,0,.1.363.256.256,0,0,0,.321,0h0l1.175-1.175a25.486,25.486,0,0,1,7.694-5.076,43.812,43.812,0,0,1,8.6-2.821,71.807,71.807,0,0,1,17.1-1.688h0a.256.256,0,0,0,.224-.128c8.762-16.99,16.242-31.512,21.553-41.792,2.586-5.076,4.659-9.136,6.123-11.936.695-1.357,1.24-2.415,1.614-3.206l.406-.8.128-.267a1.507,1.507,0,0,0-.16.289l-.449.823-1.688,3.206L144.5,200.886l-21.692,41.482.224-.128a71.8,71.8,0,0,0-17.215,1.667,44.963,44.963,0,0,0-8.7,2.842,26.061,26.061,0,0,0-7.843,5.193l-1.218,1.2.438.31c10.333-18.005,19.9-34.7,27.783-48.47h0a70.1,70.1,0,0,1,13.154-11.9,50.682,50.682,0,0,1,12.053-6.283,26.405,26.405,0,0,1,2.565-.78,15.807,15.807,0,0,1,2.276-.577l2-.363.866-.16.791-.064Z" transform="translate(-48.501 -184.58)" fill="#263238"/>
    </g>
    <g id="freepik--Stars--inject-39" transform="translate(19.071 74.956)">
      <path id="Tracé_12879" data-name="Tracé 12879" d="M176.354,338.2l-.641,1.069a7.373,7.373,0,0,1-3.035,2.8l-1.069.556,1.069.641a7.481,7.481,0,0,1,2.8,3.035l.556,1.122.641-1.069a7.373,7.373,0,0,1,3.035-2.8l1.122-.556-1.069-.641a7.3,7.3,0,0,1-2.8-3.035Z" transform="translate(43.386 -89.011)" fill="#453ecc"/>
      <path id="Tracé_12880" data-name="Tracé 12880" d="M120.9,131.93,120.263,133a7.352,7.352,0,0,1-3.035,2.789l-1.069.556,1.069.652a7.245,7.245,0,0,1,2.8,3.035l.556,1.069.641-1.069a7.33,7.33,0,0,1,3.045-2.8l1.122-.556-1.069-.641a7.48,7.48,0,0,1-2.8-3.045Z" transform="translate(158.077 -103.154)" fill="#453ecc"/>
      <path id="Tracé_12881" data-name="Tracé 12881" d="M377.609,167.52l-.641,1.069a7.33,7.33,0,0,1-3.045,2.8l-1.122.556,1.069.641a7.373,7.373,0,0,1,2.789,3.045l.556,1.069.652-1.069a7.288,7.288,0,0,1,3.035-2.789l1.133-.534-1.069-.652a7.245,7.245,0,0,1-2.8-3.035Z" transform="translate(-372.8 -100.713)" fill="#453ecc"/>
      <path id="Tracé_12882" data-name="Tracé 12882" d="M347.319,351.15l-.641,1.069a7.373,7.373,0,0,1-3.045,2.789l-1.122.556,1.069.652a7.384,7.384,0,0,1,2.8,3.035l.545,1.122.652-1.069a7.3,7.3,0,0,1,3.035-2.8l1.122-.556-1.069-.641a7.33,7.33,0,0,1-2.8-3.045Z" transform="translate(-310.133 -88.123)" fill="#453ecc"/>
      <path id="Tracé_12883" data-name="Tracé 12883" d="M353.96,389.74l-.31.128a2,2,0,0,1-1.069.107l-.331-.064.128.31a2,2,0,0,1,.107,1.069l-.064.331.31-.128a2.008,2.008,0,0,1,1.069-.107l.331.064-.128-.31a2,2,0,0,1-.107-1.069Z" transform="translate(-322.939 -85.477)" fill="#453ecc"/>
      <path id="Tracé_12884" data-name="Tracé 12884" d="M371.388,128.81l-.3.128a2.03,2.03,0,0,1-1.069.107l-.321-.064.118.31a1.9,1.9,0,0,1,.107,1.069l-.064.331.31-.128a2.03,2.03,0,0,1,1.069-.107l.321.064-.118-.31a1.9,1.9,0,0,1-.107-1.069Z" transform="translate(-359.014 -103.367)" fill="#453ecc"/>
      <path id="Tracé_12885" data-name="Tracé 12885" d="M133.18,105l-.31.118a1.9,1.9,0,0,1-1.069.107h-.331l.128.3a2.031,2.031,0,0,1,.107,1.069l-.064.321.31-.118a1.9,1.9,0,0,1,1.069-.107h.331l-.128-.3a2.03,2.03,0,0,1-.107-1.069Z" transform="translate(133.759 -105)" fill="#453ecc"/>
      <path id="Tracé_12886" data-name="Tracé 12886" d="M162.55,308.16l-.31.118a1.817,1.817,0,0,1-1.069.107l-.331-.053.128.31a2,2,0,0,1,.107,1.069l-.064.321.31-.118a1.9,1.9,0,0,1,1.069-.107l.331.064-.128-.31a2.03,2.03,0,0,1-.107-1.069Z" transform="translate(73.005 -91.07)" fill="#453ecc"/>
      <path id="Tracé_12887" data-name="Tracé 12887" d="M132.9,386.69l.3.31.887.887,3.451,3.409,12.823,12.363v-.128c-.673,13.41-1.528,31.576-2.426,51.879v.449l.385-.246,4.627-3.1,29.321-19.63h.064v-.064c4.381-13.069,8.068-24.1,10.686-31.875,1.282-3.868,2.287-6.924,2.992-9.04l.769-2.4q.128-.385.192-.609a.474.474,0,0,1,.053-.214l-.085.192-.224.609c-.192.566-.47,1.357-.833,2.383l-3.1,9.008c-2.65,7.768-6.411,18.764-10.835,31.811l.085-.107-29.354,19.6-4.627,3.088.363.2c.866-20.3,1.646-38.468,2.223-51.9v-.075h-.053l-12.908-12.246-3.516-3.3-.919-.844A1.891,1.891,0,0,0,132.9,386.69Z" transform="translate(68.558 -85.686)" fill="#453ecc"/>
      <path id="Tracé_12888" data-name="Tracé 12888" d="M176.641,445.25l.1,3.024-2.447,1.8,2.906.844.951,2.874,1.71-2.5,3.024-.011-1.859-2.394.93-2.885-2.853,1.026Z" transform="translate(38.472 -81.67)" fill="#453ecc"/>
      <path id="Tracé_12889" data-name="Tracé 12889" d="M145.23,426.04,145.166,428l-1.646,1.069,1.849.652.5,1.9,1.2-1.549,1.955.107-1.1-1.624.705-1.827-1.881.556Z" transform="translate(105.21 -82.988)" fill="#453ecc"/>
      <path id="Tracé_12890" data-name="Tracé 12890" d="M134.029,385.11l-1.475,1.9-2.4-.15,1.346,2-.876,2.233,2.308-.663,1.859,1.528.085-2.4,2.02-1.293-2.255-.823Z" transform="translate(131.627 -85.794)" fill="#453ecc"/>
      <path id="Tracé_12891" data-name="Tracé 12891" d="M192.719,383.34l-1.485,1.891-2.394-.139,1.346,1.988-.876,2.244,2.308-.673,1.859,1.528.075-2.4,2.03-1.293-2.265-.823Z" transform="translate(10.223 -85.915)" fill="#453ecc"/>
      <path id="Tracé_12892" data-name="Tracé 12892" d="M176.868,400.48l-.94,1.218-1.528-.1.855,1.272-.556,1.432,1.475-.427,1.186.972.053-1.528,1.293-.834-1.443-.524Z" transform="translate(42.53 -84.74)" fill="#453ecc"/>
    </g>
    <g id="freepik--Planets--inject-39" transform="translate(35.329 64.079)">
      <ellipse id="Ellipse_455" data-name="Ellipse 455" cx="21.307" cy="21.307" rx="21.307" ry="21.307" transform="translate(238.393 203.186)" fill="#453ecc"/>
      <g id="Groupe_12107" data-name="Groupe 12107" transform="translate(262.468 227.667)" opacity="0.3">
        <path id="Tracé_12893" data-name="Tracé 12893" d="M114.08,311.353a3.484,3.484,0,1,0,3.473-3.473,3.484,3.484,0,0,0-3.473,3.473Z" transform="translate(-114.08 -307.88)" fill="#fff"/>
      </g>
      <g id="Groupe_12108" data-name="Groupe 12108" transform="translate(267.383 219.097)" opacity="0.3">
        <path id="Tracé_12894" data-name="Tracé 12894" d="M112.2,301.88a2.03,2.03,0,1,0,2.03-2.02,2.03,2.03,0,0,0-2.03,2.02Z" transform="translate(-112.2 -299.86)" fill="#fff"/>
      </g>
      <path id="Tracé_12895" data-name="Tracé 12895" d="M147.418,311.908c-.1.374,18.24,17.963,13.507,21.713s-24.577-5.866-41.557-19.555-32.431-30.315-28.189-34.718,25.421,8.623,25.421,8.623l-2.532,1.624s-12.823-8.217-16.862-5.033,7.48,15.644,23.8,27.548,32.057,20.239,34.483,16.98-9.083-14.126-9.083-14.126Z" transform="translate(132.959 -82.232)" fill="#453ecc"/>
      <g id="Groupe_12109" data-name="Groupe 12109" transform="translate(223.428 196.208)" opacity="0.3">
        <path id="Tracé_12896" data-name="Tracé 12896" d="M147.418,311.908c-.1.374,18.24,17.963,13.507,21.713s-24.577-5.866-41.557-19.555-32.431-30.315-28.189-34.718,25.421,8.623,25.421,8.623l-2.532,1.624s-12.823-8.217-16.862-5.033,7.48,15.644,23.8,27.548,32.057,20.239,34.483,16.98-9.083-14.126-9.083-14.126Z" transform="translate(-90.469 -278.44)"/>
      </g>
      <g id="Groupe_12110" data-name="Groupe 12110" transform="translate(271.43 209.464)" opacity="0.3">
        <path id="Tracé_12897" data-name="Tracé 12897" d="M104.731,290.861c-.171.2,1.272,1.432,2.907,3.89a19.608,19.608,0,0,1,.427,21.553c-1.539,2.533-2.928,3.815-2.746,4.007s1.817-.833,3.719-3.355a18.745,18.745,0,0,0-.46-22.889C106.579,291.63,104.827,290.711,104.731,290.861Z" transform="translate(-104.717 -290.845)" fill="#fff"/>
      </g>
      <ellipse id="Ellipse_456" data-name="Ellipse 456" cx="17.578" cy="17.578" rx="17.578" ry="17.578" transform="translate(25.349 49.708) rotate(-136.14)" fill="#453ecc"/>
      <g id="Groupe_12111" data-name="Groupe 12111" transform="translate(13.396 15.344)" opacity="0.4">
        <path id="Tracé_12898" data-name="Tracé 12898" d="M354.056,111.98a2.853,2.853,0,1,0-.79,2.047A2.864,2.864,0,0,0,354.056,111.98Z" transform="translate(-348.329 -109.181)"/>
      </g>
      <g id="Groupe_12112" data-name="Groupe 12112" transform="translate(10.04 23.187)" opacity="0.4">
        <path id="Tracé_12899" data-name="Tracé 12899" d="M357.045,118.166a1.667,1.667,0,1,0-.462,1.2,1.678,1.678,0,0,0,.462-1.2Z" transform="translate(-353.69 -116.52)"/>
      </g>
      <g id="Groupe_12113" data-name="Groupe 12113" transform="translate(15.03 29.96)" opacity="0.4">
        <path id="Tracé_12900" data-name="Tracé 12900" d="M351.609,122.86a.6.6,0,0,0-.6.62.631.631,0,0,0,.63.609.62.62,0,0,0,.6-.63.609.609,0,0,0-.63-.6Z" transform="translate(-351.01 -122.86)"/>
      </g>
    </g>
  </g>
</svg>
