<svg xmlns="http://www.w3.org/2000/svg" xmlns:xlink="http://www.w3.org/1999/xlink" width="278.865" height="254.25" viewBox="0 0 278.865 254.25">
  <defs>
    <linearGradient id="linear-gradient" x1="0.189" y1="0.946" x2="0.869" y2="0.009" gradientUnits="objectBoundingBox">
      <stop offset="0" stop-color="#d2deff" stop-opacity="0"/>
      <stop offset="0.685" stop-color="#d2deff"/>
    </linearGradient>
  </defs>
  <g id="user-interface_1_" data-name="user-interface (1)" transform="translate(0 -22.597)">
    <g id="Groupe_2703" data-name="Groupe 2703" transform="translate(0 30.798)">
      <path id="Tracé_12458" data-name="Tracé 12458" d="M2.667,195.431c9.5,94.156,159.267,91.035,229.194,74.218,44.918-10.8,47.71-32.392,46.9-78.431-.523-29.676,1.875-108.237-17.431-132.964-29.656-37.981-56.224-14.16-92.949-1.762C121.272,72.395,102.917,44,58.1,44.847-7.61,46.088-2.238,146.836,2.667,195.431Z" transform="translate(0 -37.654)" fill="url(#linear-gradient)"/>
    </g>
    <g id="Groupe_2714" data-name="Groupe 2714" transform="translate(19.896 22.597)">
      <g id="Groupe_2713" data-name="Groupe 2713" transform="translate(0 32.323)">
        <g id="Groupe_2707" data-name="Groupe 2707">
          <g id="Groupe_2704" data-name="Groupe 2704">
            <path id="Tracé_12459" data-name="Tracé 12459" d="M266.986,298.45H49.7a8.17,8.17,0,0,1-8.17-8.17V119.112a8.17,8.17,0,0,1,8.17-8.17H266.986a8.17,8.17,0,0,1,8.17,8.17V290.279A8.17,8.17,0,0,1,266.986,298.45Z" transform="translate(-38.806 -95.147)" fill="#2626bc" opacity="0.1"/>
            <path id="Tracé_12460" data-name="Tracé 12460" d="M266.986,274.45H49.7a8.17,8.17,0,0,1-8.17-8.17V95.112a8.17,8.17,0,0,1,8.17-8.17H266.986a8.17,8.17,0,0,1,8.17,8.17V266.279A8.17,8.17,0,0,1,266.986,274.45Z" transform="translate(-38.806 -84.219)" fill="#fff"/>
            <path id="Tracé_12461" data-name="Tracé 12461" d="M275.156,124.695V95.113a8.17,8.17,0,0,0-8.17-8.17H49.7a8.17,8.17,0,0,0-8.17,8.17v29.582Z" transform="translate(-38.806 -84.22)" fill="#35e7b3"/>
            <path id="Tracé_12462" data-name="Tracé 12462" d="M264.709,274.9H47.422A10.906,10.906,0,0,1,36.529,264V92.836A10.906,10.906,0,0,1,47.422,81.943H264.709A10.906,10.906,0,0,1,275.6,92.836V264A10.9,10.9,0,0,1,264.709,274.9ZM47.422,87.39a5.453,5.453,0,0,0-5.447,5.447V264a5.453,5.453,0,0,0,5.447,5.447H264.709A5.453,5.453,0,0,0,270.155,264V92.836a5.453,5.453,0,0,0-5.447-5.447Z" transform="translate(-36.529 -81.943)" fill="#2626bc"/>
          </g>
          <g id="Groupe_2706" data-name="Groupe 2706" transform="translate(20.802 14.161)">
            <g id="Groupe_2705" data-name="Groupe 2705" transform="translate(0 2.723)">
              <circle id="Ellipse_393" data-name="Ellipse 393" cx="5.937" cy="5.937" r="5.937" fill="#453ecc"/>
              <circle id="Ellipse_394" data-name="Ellipse 394" cx="5.937" cy="5.937" r="5.937" transform="translate(18.955)" fill="#fff"/>
              <circle id="Ellipse_395" data-name="Ellipse 395" cx="5.937" cy="5.937" r="5.937" transform="translate(37.909)" fill="#97ffd2"/>
            </g>
            <path id="Tracé_12463" data-name="Tracé 12463" d="M370.279,124.937h-74.16V111.6h74.16A2.724,2.724,0,0,1,373,114.318v7.9A2.724,2.724,0,0,1,370.279,124.937Z" transform="translate(-175.533 -109.606)" fill="#dcfdee"/>
            <path id="Tracé_12464" data-name="Tracé 12464" d="M286.254,110.1a7.384,7.384,0,1,0-2.3,12l2.368,2.368a2.723,2.723,0,1,0,3.851-3.851l-2.368-2.368A7.391,7.391,0,0,0,286.254,110.1Zm-6.591,3.851a1.938,1.938,0,1,1,0,2.74A1.94,1.94,0,0,1,279.662,113.953Z" transform="translate(-165.303 -107.943)" fill="#fff"/>
          </g>
        </g>
        <g id="Groupe_2708" data-name="Groupe 2708" transform="translate(101.208 60.431)">
          <circle id="Ellipse_396" data-name="Ellipse 396" cx="18.328" cy="18.328" r="18.328" fill="#35e7b3"/>
          <path id="Tracé_12465" data-name="Tracé 12465" d="M257.486,220.121a9.05,9.05,0,1,0-15.512,6.329,9.014,9.014,0,0,0-2.587,6.324v2.669a18.262,18.262,0,0,0,5.447,2.032v-4.7a3.6,3.6,0,0,1,7.206,0v4.7a18.263,18.263,0,0,0,5.447-2.032v-2.669a8.995,8.995,0,0,0-2.593-6.324A9.018,9.018,0,0,0,257.486,220.121Zm-9.052,3.606a3.6,3.6,0,1,1,3.606-3.606A3.609,3.609,0,0,1,248.434,223.726Z" transform="translate(-230.107 -201.173)" fill="#fff"/>
        </g>
        <path id="Tracé_12466" data-name="Tracé 12466" d="M262.039,299.325H132.859a5.446,5.446,0,0,1-5.447-5.447v-8.246a5.446,5.446,0,0,1,5.447-5.447H262.038a5.446,5.446,0,0,1,5.447,5.447v8.246a5.446,5.446,0,0,1-5.446,5.447Z" transform="translate(-77.912 -172.211)" fill="#d2deff"/>
        <path id="Tracé_12467" data-name="Tracé 12467" d="M361.043,280.187h-16.2v19.139h16.2a5.447,5.447,0,0,0,5.447-5.447v-8.246A5.447,5.447,0,0,0,361.043,280.187Z" transform="translate(-176.916 -172.212)" fill="#9fb0fe"/>
        <g id="Groupe_2709" data-name="Groupe 2709" transform="translate(56.853 138.001)">
          <path id="Tracé_12468" data-name="Tracé 12468" d="M161.392,358.518H143.635a2.724,2.724,0,0,1-2.723-2.723V338.037a2.724,2.724,0,0,1,2.723-2.723h17.757a2.724,2.724,0,0,1,2.723,2.723v17.757A2.723,2.723,0,0,1,161.392,358.518Z" transform="translate(-140.912 -335.314)" fill="#ffa8cf"/>
          <path id="Tracé_12469" data-name="Tracé 12469" d="M223.917,358.518H206.16a2.724,2.724,0,0,1-2.723-2.723V338.037a2.724,2.724,0,0,1,2.723-2.723h17.757a2.724,2.724,0,0,1,2.723,2.723v17.757A2.723,2.723,0,0,1,223.917,358.518Z" transform="translate(-169.382 -335.314)" fill="#35e7b3"/>
          <path id="Tracé_12470" data-name="Tracé 12470" d="M286.441,358.518H268.684a2.724,2.724,0,0,1-2.723-2.723V338.037a2.724,2.724,0,0,1,2.723-2.723h17.757a2.724,2.724,0,0,1,2.723,2.723v17.757A2.723,2.723,0,0,1,286.441,358.518Z" transform="translate(-197.852 -335.314)" fill="#453ecc"/>
          <path id="Tracé_12471" data-name="Tracé 12471" d="M348.966,358.518H331.209a2.724,2.724,0,0,1-2.723-2.723V338.037a2.724,2.724,0,0,1,2.723-2.723h17.757a2.724,2.724,0,0,1,2.723,2.723v17.757A2.723,2.723,0,0,1,348.966,358.518Z" transform="translate(-226.322 -335.314)" fill="#8399fe"/>
        </g>
        <g id="Groupe_2710" data-name="Groupe 2710" transform="translate(207.899 50.627)">
          <path id="Tracé_12472" data-name="Tracé 12472" d="M432.221,180.342H420.957a2.723,2.723,0,1,1,0-5.447h11.264a2.723,2.723,0,1,1,0,5.447Z" transform="translate(-418.234 -174.895)" fill="#8399fe"/>
        </g>
        <g id="Groupe_2711" data-name="Groupe 2711" transform="translate(207.899 63.154)">
          <path id="Tracé_12473" data-name="Tracé 12473" d="M432.221,203.342H420.957a2.723,2.723,0,1,1,0-5.447h11.264a2.723,2.723,0,1,1,0,5.447Z" transform="translate(-418.234 -197.895)" fill="#8399fe"/>
        </g>
        <g id="Groupe_2712" data-name="Groupe 2712" transform="translate(207.899 75.681)">
          <path id="Tracé_12474" data-name="Tracé 12474" d="M432.221,226.342H420.957a2.723,2.723,0,1,1,0-5.447h11.264a2.723,2.723,0,1,1,0,5.447Z" transform="translate(-418.234 -220.895)" fill="#8399fe"/>
        </g>
      </g>
      <path id="Tracé_12475" data-name="Tracé 12475" d="M354.213,49.289A7.784,7.784,0,1,1,362,41.5,7.793,7.793,0,0,1,354.213,49.289Zm0-10.121A2.337,2.337,0,1,0,356.55,41.5,2.34,2.34,0,0,0,354.213,39.168Z" transform="translate(-177.639 -27.662)" fill="#6583fe"/>
      <path id="Tracé_12476" data-name="Tracé 12476" d="M79.116,49.289A7.784,7.784,0,1,1,86.9,41.5,7.793,7.793,0,0,1,79.116,49.289Zm0-10.121A2.337,2.337,0,1,0,81.453,41.5,2.34,2.34,0,0,0,79.116,39.168Z" transform="translate(-52.376 -27.662)" fill="#35e7b3"/>
      <path id="Tracé_12477" data-name="Tracé 12477" d="M424.949,40.026a2.723,2.723,0,0,1-2.723-2.723,3.271,3.271,0,0,0-3.268-3.268,2.723,2.723,0,1,1,0-5.447,3.271,3.271,0,0,0,3.268-3.268,2.723,2.723,0,1,1,5.447,0,3.271,3.271,0,0,0,3.268,3.268,2.723,2.723,0,0,1,0,5.447,3.271,3.271,0,0,0-3.268,3.268A2.723,2.723,0,0,1,424.949,40.026Z" transform="translate(-209.424 -22.597)" fill="#453ecc"/>
      <path id="Tracé_12478" data-name="Tracé 12478" d="M318.2,474.832a2.723,2.723,0,0,1-2.723-2.723,3.272,3.272,0,0,0-3.268-3.268,2.723,2.723,0,1,1,0-5.447,3.272,3.272,0,0,0,3.268-3.268,2.723,2.723,0,1,1,5.447,0,3.271,3.271,0,0,0,3.267,3.268,2.723,2.723,0,1,1,0,5.447,3.271,3.271,0,0,0-3.267,3.268A2.723,2.723,0,0,1,318.2,474.832Z" transform="translate(-160.817 -220.582)" fill="#453ecc"/>
      <path id="Tracé_12479" data-name="Tracé 12479" d="M270.361,474.832a2.723,2.723,0,0,1-2.723-2.723,3.271,3.271,0,0,0-3.268-3.268,2.723,2.723,0,1,1,0-5.447,3.271,3.271,0,0,0,3.268-3.268,2.723,2.723,0,1,1,5.447,0,3.271,3.271,0,0,0,3.268,3.268,2.723,2.723,0,1,1,0,5.447,3.271,3.271,0,0,0-3.268,3.268A2.723,2.723,0,0,1,270.361,474.832Z" transform="translate(-139.035 -220.582)" fill="#35e7b3"/>
    </g>
  </g>
</svg>
