<?xml version="1.0" encoding="utf-8"?>
<!-- Generator: Adobe Illustrator 25.0.1, SVG Export Plug-In . SVG Version: 6.00 Build 0)  -->
<svg version="1.1" id="Layer_1" xmlns="http://www.w3.org/2000/svg" xmlns:xlink="http://www.w3.org/1999/xlink" x="0px" y="0px"
	 viewBox="0 0 960 637" style="enable-background:new 0 0 960 637;" xml:space="preserve">
<style type="text/css">
	.st0{clip-path:url(#SVGID_2_);}
	.st1{fill:#35E7B3;}
	.st2{opacity:0.75;}
	.st3{fill:#FFFFFF;}
	.st4{clip-path:url(#SVGID_4_);fill:url(#Tracé_2_2_);stroke:#707070;}
	.st5{clip-path:url(#SVGID_6_);fill:url(#Tracé_3_2_);}
	.st6{clip-path:url(#SVGID_8_);}
	.st7{clip-path:url(#SVGID_10_);fill:url(#Tracé_2_3_);stroke:#707070;}
	.st8{clip-path:url(#SVGID_12_);fill:url(#Tracé_3_3_);}
</style>
<g>
	<g>
		<g>
			<defs>
				<rect id="SVGID_1_" width="960" height="637"/>
			</defs>
			<clipPath id="SVGID_2_">
				<use xlink:href="#SVGID_1_"  style="overflow:visible;"/>
			</clipPath>
			<g id="Tracé_1" class="st0">
				<g>
					<path class="st1" d="M-40.1,512.2c11.2-4.8,22.5-119.3,253.1-60.8s320.5,50.9,452.7,20.4s205.3,19.7,233.4,40.4
						c28.1,20.7,101.2,102.1,101.2,102.1V-47.5H-40.1V512.2z"/>
				</g>
				<g class="st2">
					<path class="st3" d="M-40.1,512.2c11.2-4.8,22.5-119.3,253.1-60.8s320.5,50.9,452.7,20.4s205.3,19.7,233.4,40.4
						c28.1,20.7,101.2,102.1,101.2,102.1V-47.5H-40.1V512.2z"/>
				</g>
			</g>
		</g>
	</g>
	<g>
		<g>
			<defs>
				<rect id="SVGID_3_" width="960" height="637"/>
			</defs>
			<clipPath id="SVGID_4_">
				<use xlink:href="#SVGID_3_"  style="overflow:visible;"/>
			</clipPath>
			
				<linearGradient id="Tracé_2_2_" gradientUnits="userSpaceOnUse" x1="-130.3741" y1="858.4333" x2="-130.3741" y2="857.4335" gradientTransform="matrix(1040.366 0 0 -661.769 136116.8594 568029.875)">
				<stop  offset="0" style="stop-color:#838DEF"/>
				<stop  offset="1" style="stop-color:#453ECC"/>
			</linearGradient>
			<path id="Tracé_2" class="st4" d="M-40.1,504.9c11.2-4.8,22.5-119.3,253.1-60.8s320.5,50.9,452.7,20.4s205.3,19.7,233.4,40.4
				S1000.3,607,1000.3,607V-54.7H-40.1V504.9z"/>
		</g>
	</g>
	<g>
		<g>
			<defs>
				<rect id="SVGID_5_" width="960" height="637"/>
			</defs>
			<clipPath id="SVGID_6_">
				<use xlink:href="#SVGID_5_"  style="overflow:visible;"/>
			</clipPath>
			
				<linearGradient id="Tracé_3_2_" gradientUnits="userSpaceOnUse" x1="-130.3741" y1="858.4335" x2="-130.3741" y2="857.4334" gradientTransform="matrix(1040.366 0 0 -661.769 136116.8594 567990.4375)">
				<stop  offset="0" style="stop-color:#838DEF"/>
				<stop  offset="1" style="stop-color:#453ECC"/>
			</linearGradient>
			<path id="Tracé_3" class="st5" d="M-40.1,465.5c11.2-4.8,22.5-119.3,253.1-60.8s320.5,50.9,452.7,20.4s205.3,19.7,233.4,40.4
				s101.2,102.1,101.2,102.1V-94.2H-40.1V465.5z"/>
		</g>
	</g>
</g>
<g>
	<g>
		<g>
			<defs>
				<rect id="SVGID_7_" x="0.1" width="960" height="637"/>
			</defs>
			<clipPath id="SVGID_8_">
				<use xlink:href="#SVGID_7_"  style="overflow:visible;"/>
			</clipPath>
			<g id="Tracé_1_1_" class="st6">
				<g>
					<path class="st1" d="M-40,512.2c11.2-4.8,22.5-119.3,253.1-60.8s320.5,50.9,452.7,20.4s205.3,19.7,233.4,40.4
						c28.1,20.7,101.2,102.1,101.2,102.1V-47.5H-40V512.2z"/>
				</g>
				<g class="st2">
					<path class="st3" d="M-40,512.2c11.2-4.8,22.5-119.3,253.1-60.8s320.5,50.9,452.7,20.4s205.3,19.7,233.4,40.4
						c28.1,20.7,101.2,102.1,101.2,102.1V-47.5H-40V512.2z"/>
				</g>
			</g>
		</g>
	</g>
	<g>
		<g>
			<defs>
				<rect id="SVGID_9_" x="0.1" width="960" height="637"/>
			</defs>
			<clipPath id="SVGID_10_">
				<use xlink:href="#SVGID_9_"  style="overflow:visible;"/>
			</clipPath>
			
				<linearGradient id="Tracé_2_3_" gradientUnits="userSpaceOnUse" x1="-130.374" y1="858.4333" x2="-130.374" y2="857.4335" gradientTransform="matrix(1040.366 0 0 -661.769 136116.8594 568029.875)">
				<stop  offset="0" style="stop-color:#838DEF"/>
				<stop  offset="1" style="stop-color:#453ECC"/>
			</linearGradient>
			<path id="Tracé_2_1_" class="st7" d="M-40,504.9c11.2-4.8,22.5-119.3,253.1-60.8s320.5,50.9,452.7,20.4s205.3,19.7,233.4,40.4
				S1000.4,607,1000.4,607V-54.7H-40V504.9z"/>
		</g>
	</g>
	<g>
		<g>
			<defs>
				<rect id="SVGID_11_" x="0.1" width="960" height="637"/>
			</defs>
			<clipPath id="SVGID_12_">
				<use xlink:href="#SVGID_11_"  style="overflow:visible;"/>
			</clipPath>
			
				<linearGradient id="Tracé_3_3_" gradientUnits="userSpaceOnUse" x1="-130.374" y1="858.4335" x2="-130.374" y2="857.4334" gradientTransform="matrix(1040.366 0 0 -661.769 136116.8594 567990.4375)">
				<stop  offset="0" style="stop-color:#838DEF"/>
				<stop  offset="1" style="stop-color:#453ECC"/>
			</linearGradient>
			<path id="Tracé_3_1_" class="st8" d="M-40,465.5c11.2-4.8,22.5-119.3,253.1-60.8s320.5,50.9,452.7,20.4s205.3,19.7,233.4,40.4
				s101.2,102.1,101.2,102.1V-94.2H-40V465.5z"/>
		</g>
	</g>
</g>
</svg>
