<svg xmlns="http://www.w3.org/2000/svg" width="96.519" height="145" viewBox="0 0 96.519 145">
  <g id="Layer_2" data-name="Layer 2" transform="translate(22.464 32.003)">
    <g id="Layer_1" data-name="Layer 1" transform="translate(-22.464 -32.003)">
      <path id="Tracé_1" data-name="Tracé 1" d="M19.26,326.623c0-5.341-3.86-8.873-9.419-8.873h-7v17.719H9.851c5.563,0,9.419-3.505,9.419-8.846M6.617,321.07H9.851a5.192,5.192,0,0,1,5.563,5.553,5.309,5.309,0,0,1-5.563,5.526H6.617Z" transform="translate(-1.899 -215.681)" fill="#fff"/>
      <rect id="Rectangle_1" data-name="Rectangle 1" width="3.777" height="17.719" transform="translate(19.93 102.069)" fill="#fff"/>
      <path id="Tracé_2" data-name="Tracé 2" d="M89.369,335.258a9.856,9.856,0,0,0,7.557-3.346v-6.8H88.465V328.4h4.685v2.127a5.994,5.994,0,0,1-3.777,1.355,5.819,5.819,0,0,1,0-11.626,5.029,5.029,0,0,1,4.2,2.319l3.141-1.7a8.3,8.3,0,0,0-7.345-3.959c-5.188,0-9.449,3.562-9.449,9.164s4.257,9.191,9.449,9.191" transform="translate(-53.613 -215.134)" fill="#fff"/>
      <rect id="Rectangle_2" data-name="Rectangle 2" width="3.777" height="17.719" transform="translate(46.228 102.069)" fill="#fff"/>
      <path id="Tracé_3" data-name="Tracé 3" d="M168.015,335.469v-14.4h5.162v-3.32H159.02v3.32h5.188v14.4Z" transform="translate(-106.665 -215.681)" fill="#fff"/>
      <path id="Tracé_4" data-name="Tracé 4" d="M203.63,332.467h7.62l1.09,3h4.307l-6.838-17.719h-4.738L198.2,335.469h4.307Zm3.807-10.933,2.767,7.62h-5.536Z" transform="translate(-133.053 -215.681)" fill="#fff"/>
      <path id="Tracé_5" data-name="Tracé 5" d="M262.61,332.149v-14.4h-3.78v17.719h11.285v-3.32Z" transform="translate(-173.595 -215.681)" fill="#fff"/>
      <path id="Tracé_6" data-name="Tracé 6" d="M2.3,408.95c0-1.352,1.223-2.273,2.942-2.273a5.483,5.483,0,0,1,4.145,1.716l1.073-1.325a6.736,6.736,0,0,0-5.092-1.988c-2.813,0-4.92,1.61-4.92,3.976,0,5.109,8.5,3.071,8.5,6.759,0,1.093-.815,2.468-3.373,2.468a6.06,6.06,0,0,1-4.513-2.038L0,417.6a7.114,7.114,0,0,0,5.5,2.273c3.866,0,5.3-2.124,5.3-4.2,0-5.341-8.485-3.5-8.485-6.716" transform="translate(0 -274.87)" fill="#fff"/>
      <path id="Tracé_7" data-name="Tracé 7" d="M48.1,405.76H37.23v1.587h4.532v12.719h1.782V407.347H48.1Z" transform="translate(-24.895 -275.325)" fill="#fff"/>
      <path id="Tracé_8" data-name="Tracé 8" d="M74.118,405.76,68.36,420.066H70.4l1.269-3.174H78.8l1.269,3.174H82.11L76.331,405.76Zm-1.932,9.545,3.051-7.7,3.028,7.7Z" transform="translate(-45.853 -275.325)" fill="#fff"/>
      <path id="Tracé_9" data-name="Tracé 9" d="M125.758,410.077a4.16,4.16,0,0,0-4.489-4.307H115.51v14.306h1.783v-5.689h2.856l3.644,5.685h2.1l-3.866-5.834a3.957,3.957,0,0,0,3.717-4.161m-8.465,2.747v-5.47h3.76a2.738,2.738,0,1,1,0,5.47Z" transform="translate(-77.469 -275.331)" fill="#fff"/>
      <path id="Tracé_10" data-name="Tracé 10" d="M159.84,405.76h-4.9v14.306h4.9a7.156,7.156,0,1,0,0-14.306m0,12.719h-3.114V407.347h3.114a5.566,5.566,0,0,1,0,11.132" transform="translate(-103.921 -275.325)" fill="#fff"/>
      <path id="Tracé_11" data-name="Tracé 11" d="M205.71,405c-4.254,0-7.11,3.174-7.11,7.4s2.859,7.4,7.11,7.4,7.11-3.174,7.11-7.4-2.879-7.4-7.11-7.4m0,13.213c-3.224,0-5.265-2.488-5.265-5.815s2.041-5.815,5.265-5.815,5.261,2.468,5.261,5.815-2.061,5.815-5.261,5.815" transform="translate(-133.214 -274.817)" fill="#fff"/>
      <path id="Tracé_12" data-name="Tracé 12" d="M256.971,416.528l-4.446-10.768H249.97v14.306h1.782V408.288l4.854,11.778h.732l4.874-11.778v11.778H264V405.76H261.44Z" transform="translate(-167.671 -275.325)" fill="#fff"/>
      <path id="Tracé_13" data-name="Tracé 13" d="M160.322,131.647l5.755,7.922a4.946,4.946,0,1,0,8-5.815l-5.756-7.918a4.945,4.945,0,0,0-8,5.815" transform="translate(-106.91 -84.031)" fill="#fff"/>
      <path id="Tracé_14" data-name="Tracé 14" d="M116.4,248.864a4.943,4.943,0,1,0,1.093-6.908,4.943,4.943,0,0,0-1.093,6.908" transform="translate(-77.431 -163.457)" fill="#fff"/>
      <path id="Tracé_15" data-name="Tracé 15" d="M111.5,143.5a4.943,4.943,0,1,0-6.908-1.093A4.943,4.943,0,0,0,111.5,143.5" transform="translate(-69.516 -91.261)" fill="#fff"/>
      <path id="Tracé_16" data-name="Tracé 16" d="M200.893,187.464a4.943,4.943,0,1,0,1.093-6.908,4.943,4.943,0,0,0-1.093,6.908" transform="translate(-134.097 -121.814)" fill="#fff"/>
      <path id="Tracé_17" data-name="Tracé 17" d="M88.533,202.05a4.943,4.943,0,0,0,1.093-6.908l-5.755-7.918a4.946,4.946,0,1,0-8,5.815l5.756,7.918a4.943,4.943,0,0,0,6.908,1.093" transform="translate(-50.259 -125.7)" fill="#fff"/>
      <path id="Tracé_18" data-name="Tracé 18" d="M69.787,94.492a4.945,4.945,0,0,0,8-5.815l-5.755-7.922a4.945,4.945,0,0,0-8,5.815Z" transform="translate(-42.319 -53.431)" fill="#fff"/>
      <path id="Tracé_19" data-name="Tracé 19" d="M145.14,189.779a4.947,4.947,0,0,0,1.093-6.908l-10.44-14.366a4.945,4.945,0,0,0-8,5.815l10.44,14.366a4.946,4.946,0,0,0,6.908,1.093" transform="translate(-85.105 -113.082)" fill="#fff"/>
      <path id="Tracé_20" data-name="Tracé 20" d="M92.478,38.265a4.943,4.943,0,1,0,8-5.8L78.374,2.036a4.945,4.945,0,1,0-8,5.815Z" transform="translate(-46.609 0.003)" fill="#fff"/>
    </g>
  </g>
</svg>
