<svg xmlns="http://www.w3.org/2000/svg" xmlns:xlink="http://www.w3.org/1999/xlink" width="232" height="245.016" viewBox="0 0 232 245.016">
  <defs>
    <linearGradient id="linear-gradient" x1="0.231" y1="0.821" x2="0.662" y2="0.293" gradientUnits="objectBoundingBox">
      <stop offset="0.011" stop-color="#dafced"/>
      <stop offset="0.761" stop-color="#cbdcfa"/>
      <stop offset="1" stop-color="#c6d1ff"/>
    </linearGradient>
  </defs>
  <g id="search_4_" data-name="search (4)" transform="translate(-13.599 0)">
    <g id="Groupe_2715" data-name="Groupe 2715" transform="translate(13.599 0)">
      <path id="Tracé_12480" data-name="Tracé 12480" d="M25.345,64.465c9.558-27.615,27.546-75.523,65.9-62.16,14.933,5.2,19.622,24.963,34.632,27.426,14.177,2.326,26.178-11.607,39.667-14.249C182.3,12.2,200.033,16.591,206.4,32.939c7.617,19.56-14.834,41.508-9.406,59.369,8.953,29.461,42.046-19.367,47.964,28.177,8.281,66.53-65.466,184.967-115.147,87.573-25.192-49.385-51.594-14.751-90.864-39.318C1.657,145.413,13.2,99.558,25.345,64.465Z" transform="translate(-13.599 0)" fill="url(#linear-gradient)"/>
    </g>
    <g id="Groupe_2726" data-name="Groupe 2726" transform="translate(34.442 29.491)">
      <path id="Tracé_12481" data-name="Tracé 12481" d="M245.81,218.327l-41.672-41.672a48.094,48.094,0,0,0-59.266-72.429,25.78,25.78,0,1,0-26.809,38.536,48.39,48.39,0,0,0-.133,7.727H69.023a6.868,6.868,0,0,0-6.872,6.867V266.005a6.868,6.868,0,0,0,6.872,6.867H177.672a6.867,6.867,0,0,0,6.867-6.867v-74.19a47.769,47.769,0,0,0,10.562-6.122l41.672,41.672a6.391,6.391,0,0,0,9.038-9.038Z" transform="translate(-59.76 -77.271)" fill="#2626bc" opacity="0.1"/>
      <g id="Groupe_2725" data-name="Groupe 2725" transform="translate(0)">
        <g id="Groupe_2721" data-name="Groupe 2721" transform="translate(2.391 10.153)">
          <g id="Groupe_2718" data-name="Groupe 2718" transform="translate(0 51.101)">
            <g id="Groupe_2717" data-name="Groupe 2717">
              <path id="Tracé_12482" data-name="Tracé 12482" d="M184.539,196.5V305.144a6.867,6.867,0,0,1-6.867,6.867H69.023a6.868,6.868,0,0,1-6.872-6.867V196.5a6.868,6.868,0,0,1,6.872-6.867H177.672A6.867,6.867,0,0,1,184.539,196.5Z" transform="translate(-62.151 -189.628)" fill="#838def"/>
              <path id="Tracé_12483" data-name="Tracé 12483" d="M245.217,196.5v45.538a48.094,48.094,0,0,1-66.025-52.406H238.35A6.867,6.867,0,0,1,245.217,196.5Z" transform="translate(-122.829 -189.628)" fill="#453ecc"/>
              <path id="Tracé_12484" data-name="Tracé 12484" d="M0,0H88.039V88.038H0Z" transform="translate(105.214 17.172) rotate(90)" fill="#453ecc"/>
              <g id="Groupe_2716" data-name="Groupe 2716" transform="translate(17.18 25.152)">
                <path id="Tracé_12485" data-name="Tracé 12485" d="M155.122,263.067,98.051,320.138v-77.95h34.957a10.485,10.485,0,0,1,9.223,5.6,48.037,48.037,0,0,0,8.408,11.311A48.947,48.947,0,0,0,155.122,263.067Z" transform="translate(-98.051 -242.188)" fill="#453ecc"/>
                <path id="Tracé_12486" data-name="Tracé 12486" d="M202.272,319.331v39.075H144.387l44.589-44.583A7.789,7.789,0,0,1,202.272,319.331Z" transform="translate(-122.213 -278.345)" fill="#453ecc"/>
              </g>
            </g>
            <path id="Tracé_12487" data-name="Tracé 12487" d="M187.461,216.044l-32.517,32.517L92.882,310.618,80.741,298.478l60.115-60.12,34.46-34.46Z" transform="translate(-71.845 -197.069)" fill="#35e7b3"/>
            <path id="Tracé_12488" data-name="Tracé 12488" d="M252.967,216.044l-32.517,32.517a47.922,47.922,0,0,1-13.332-9.427c-.254-.254-.507-.512-.756-.775l34.46-34.46Z" transform="translate(-137.35 -197.069)" fill="#453ecc"/>
          </g>
          <g id="Groupe_2720" data-name="Groupe 2720" transform="translate(55.682)">
            <g id="Groupe_2719" data-name="Groupe 2719" transform="translate(72.008 72.009)">
              <path id="Tracé_12489" data-name="Tracé 12489" d="M384.952,289.287a6.391,6.391,0,0,1-9.038,0l-46.929-46.929,9.038-9.038,46.929,46.929A6.391,6.391,0,0,1,384.952,289.287Z" transform="translate(-328.984 -233.319)" fill="#8399fe"/>
              <path id="Tracé_12490" data-name="Tracé 12490" d="M348.731,244.028a54.571,54.571,0,0,1-4.259,4.781,56.447,56.447,0,0,1-4.776,4.264l-10.715-10.715,9.04-9.04Z" transform="translate(-328.981 -233.318)" fill="#6583fe"/>
              <path id="Tracé_12491" data-name="Tracé 12491" d="M395.8,309.172l14.956,14.956a6.391,6.391,0,0,0,9.038-9.038l-14.956-14.956Z" transform="translate(-363.823 -268.16)" fill="#453ecc"/>
            </g>
            <circle id="Ellipse_397" data-name="Ellipse 397" cx="48.085" cy="48.085" r="48.085" fill="#00d890"/>
            <path id="Tracé_12492" data-name="Tracé 12492" d="M209.179,121.582a25.781,25.781,0,0,1-25.784,25.779,25.52,25.52,0,0,1-4.431-.383A48,48,0,0,1,192.6,106.422a48.489,48.489,0,0,1,6.389-5.374A25.743,25.743,0,0,1,209.179,121.582Z" transform="translate(-178.512 -92.336)" fill="#00d890"/>
            <circle id="Ellipse_398" data-name="Ellipse 398" cx="37.007" cy="37.007" r="37.007" transform="translate(11.078 11.078)" fill="#35e7b3"/>
          </g>
          <path id="Tracé_12493" data-name="Tracé 12493" d="M264.387,162.8v32.838a37.008,37.008,0,0,1-60.335-39.71H257.52a6.868,6.868,0,0,1,6.867,6.872Z" transform="translate(-134.899 -120.953)" fill="#838def"/>
          <path id="Tracé_12494" data-name="Tracé 12494" d="M220.608,155.928A25.813,25.813,0,0,1,202.16,175.1a37.146,37.146,0,0,1,1.9-19.171Z" transform="translate(-134.9 -120.953)" fill="#453ecc"/>
          <path id="Tracé_12495" data-name="Tracé 12495" d="M240.947,203.7v27.248a37.024,37.024,0,0,1-36.57-27.248Z" transform="translate(-136.315 -145.863)" fill="#453ecc"/>
          <path id="Tracé_12496" data-name="Tracé 12496" d="M204.377,203.7a36.767,36.767,0,0,0,5.538,11.694h17.607v13.364a37.118,37.118,0,0,0,13.426,2.191V203.7Z" transform="translate(-136.315 -145.863)" fill="#453ecc"/>
        </g>
        <g id="Groupe_2724" data-name="Groupe 2724">
          <g id="Groupe_2722" data-name="Groupe 2722">
            <circle id="Ellipse_399" data-name="Ellipse 399" cx="25.781" cy="25.781" r="25.781" transform="translate(37.177 2.394)" fill="#8399fe"/>
            <path id="Tracé_12497" data-name="Tracé 12497" d="M244.9,189.026l-31.864-31.864a2.393,2.393,0,1,0-3.383,3.384l31.864,31.864a4,4,0,1,1-5.654,5.654l-39.792-39.792q1.51-1.289,2.939-2.715a50.482,50.482,0,0,0-55.873-81.969,28.166,28.166,0,1,0-30.216,43.45,50.512,50.512,0,0,0,66.625,50.615v70.742a4.482,4.482,0,0,1-4.477,4.477H66.416a4.482,4.482,0,0,1-4.477-4.477V129.748a4.482,4.482,0,0,1,4.477-4.477h35.129a2.393,2.393,0,0,0,0-4.785H66.416a9.273,9.273,0,0,0-9.262,9.262V238.4a9.273,9.273,0,0,0,9.262,9.262H175.064a9.273,9.273,0,0,0,9.262-9.262V165.759a50.013,50.013,0,0,0,7.926-4.534l40.222,40.222A8.784,8.784,0,1,0,244.9,189.026ZM96.724,89.8a23.388,23.388,0,1,1,23.388,23.388A23.415,23.415,0,0,1,96.724,89.8ZM131,152.173a45.587,45.587,0,0,1-13.335-34.312c.806.07,1.62.113,2.444.113a28.163,28.163,0,0,0,25.459-40.227A45.7,45.7,0,1,1,131,152.173Z" transform="translate(-57.154 -61.626)" fill="#2626bc"/>
          </g>
          <g id="Groupe_2723" data-name="Groupe 2723" transform="translate(49.441 13.618)">
            <path id="Tracé_12498" data-name="Tracé 12498" d="M170.18,119.2c-.09,0-.18,0-.27-.012a3.089,3.089,0,0,1-2.6-1.929L163.97,108.9a.442.442,0,0,0-.412-.279,3.088,3.088,0,1,1,0-6.176A6.588,6.588,0,0,1,169.7,106.6l1.073,2.683,11.013-17.744a3.088,3.088,0,1,1,5.247,3.257L172.8,117.736a3.086,3.086,0,0,1-2.622,1.46Z" transform="translate(-160.47 -90.083)" fill="#fff"/>
          </g>
        </g>
      </g>
      <path id="Tracé_12499" data-name="Tracé 12499" d="M427.671,178.706a2.385,2.385,0,0,1-1.692-.7l-2.855-2.854-2.854,2.854a2.393,2.393,0,0,1-3.383-3.384l4.546-4.546a2.393,2.393,0,0,1,3.383,0l4.546,4.546a2.392,2.392,0,0,1-1.692,4.084Z" transform="translate(-244.373 -117.812)" fill="#453ecc"/>
      <path id="Tracé_12500" data-name="Tracé 12500" d="M90.482,136.667a6.939,6.939,0,1,1,4.907-2.032A6.893,6.893,0,0,1,90.482,136.667Zm0-9.091a2.151,2.151,0,1,0,1.523.63A2.147,2.147,0,0,0,90.482,127.575Z" transform="translate(-70.915 -93.521)" fill="#6583fe"/>
      <path id="Tracé_12501" data-name="Tracé 12501" d="M456.635,232.7a6.939,6.939,0,1,1,4.907-2.032A6.893,6.893,0,0,1,456.635,232.7Zm0-9.091a2.151,2.151,0,1,0,1.523.63A2.147,2.147,0,0,0,456.635,223.611Z" transform="translate(-261.847 -143.599)" fill="#6583fe"/>
      <path id="Tracé_12502" data-name="Tracé 12502" d="M388.241,426.285a6.936,6.936,0,1,1,4.906-2.029A6.915,6.915,0,0,1,388.241,426.285Zm0-9.088a2.152,2.152,0,1,0,1.522.63A2.147,2.147,0,0,0,388.241,417.2Z" transform="translate(-226.184 -244.546)" fill="#453ecc"/>
      <path id="Tracé_12503" data-name="Tracé 12503" d="M346.6,455.573a2.384,2.384,0,0,1-1.692-.7l-2.855-2.854-2.855,2.854a2.393,2.393,0,1,1-3.383-3.384l4.546-4.546a2.393,2.393,0,0,1,3.383,0l4.546,4.546a2.393,2.393,0,0,1-1.692,4.084Z" transform="translate(-202.099 -262.186)" fill="#00eca2"/>
    </g>
  </g>
</svg>
