<svg xmlns="http://www.w3.org/2000/svg" xmlns:xlink="http://www.w3.org/1999/xlink" width="876.614" height="771.932" viewBox="0 0 876.614 771.932">
  <defs>
    <clipPath id="clip-path">
      <path id="Intersection_1" data-name="Intersection 1" d="M115.941,1.209c-2.209,3.244-7.381,10.886-11.355,13.92S88.43,20.678,88.43,20.678A60.3,60.3,0,0,0,87.584,9.3C86.526,3.818,82.412-.884,82.035,2.032a76.48,76.48,0,0,0-.87,15.283c.47,5.409.4,14.883.4,14.883l1.576,10.3S47.519,65.024,34.117,72.124,8.393,87.079,8.393,87.079L0,87.737s.4,14.86,5.525,20.88a49.8,49.8,0,0,0,10.062,9.169s13.355-2.47,20.387-6.279S96.849,50.846,98.283,44.521A57.949,57.949,0,0,1,106.7,26.087c2.867-3.786,12.086-15,12.7-19.657.453-3.447-.448-6.43-1.844-6.43C117.065,0,116.515.367,115.941,1.209ZM88.667,21.854c.516-.119,12.509-2.611,16.646-5.786S114.72,5.207,116.906,1.962c.423-.635.681-.73.681-.73a7.477,7.477,0,0,1,.635,5.1c-.493,3.763-7.641,12.909-11.074,17.306l-1.388,1.786a59.106,59.106,0,0,0-8.6,18.811c-1.2,5.244-54.292,62.169-61.746,66.213a84.875,84.875,0,0,1-19.587,6.067,51.452,51.452,0,0,1-9.4-8.676C2.4,103.138,1.433,92.3,1.221,88.8l7.267-.588a1.112,1.112,0,0,0,.54-.165c.118,0,12.439-7.9,25.629-14.906S83.424,43.7,83.775,43.463a1.154,1.154,0,0,0,.542-1.177l-1.6-10.274c0-.212,0-9.406-.375-14.813a74.273,74.273,0,0,1,.8-14.555,14.081,14.081,0,0,1,3.293,6.842,58.282,58.282,0,0,1,.823,11.123,1.221,1.221,0,0,0,.423.94,1.108,1.108,0,0,0,.751.307Z" transform="translate(119.516 117.787) rotate(180)" fill="none"/>
    </clipPath>
    <clipPath id="clip-path-2">
      <path id="Intersection_2" data-name="Intersection 2" d="M153.422,2.424c-5.2,3.058-1.316,9.971-1.316,9.971s-5.83,11.474-15.683,13.378-62.38,51.469-62.38,51.469L20.48,83.427,0,123.941l46.086,6.7s-1.574-.212,30.168,9.9c0,0,25.91,9.876,27.487,10.088s28.9,7.595,34.893,10.534,20.292,3.784,35.033,1.481,66.471-6.067,66.471-6.067-9.688-11.546-10.274-19-.142-30.966-.142-30.966l-40.442,3.128,49-51.095a50.409,50.409,0,0,0,14.3-7.172c4.844-4.16-10.416-14.155-21.02-22.548S198.168,7.317,182.179,3.059C174.146.921,168.239,0,163.689,0A19.456,19.456,0,0,0,153.422,2.424Zm-106.983,127L1.976,122.976,21.115,84.532l53.446-6.16.281-.258c14.532-13.732,54.081-49.66,61.815-51.141,10.3-1.974,16.248-13.518,16.459-14.106l.281-.565-.3-.54c-.118-.26-3.244-5.974.893-8.395s10.253-3.928,27.864.777C198.073,8.468,220.716,21.8,230.8,29.748c1.739,1.363,3.574,2.751,5.432,4.16C243.289,39.318,252.2,46.017,252.3,49.4a1.25,1.25,0,0,1-.518,1.083,49.571,49.571,0,0,1-13.895,7.053H237.6l-.212.212-51.116,53.327,42.323-3.269c0,5.056-.353,23.208.163,29.791.472,6.114,6.348,14.32,9.125,17.894-10.088.751-51.495,3.9-64.331,5.9-13.85,2.186-28.217,1.6-34.331-1.365s-33.459-10.416-35.268-10.651c-1.318-.235-17.376-6.255-27.205-10.016-26.945-8.606-29.7-9.688-29.98-9.83l-.493,1.058Zm183.283-22.808Z" transform="translate(253.502 163.963) rotate(180)" fill="none"/>
    </clipPath>
    <clipPath id="clip-path-3">
      <path id="Intersection_3" data-name="Intersection 3" d="M6.725,14.24A254.825,254.825,0,0,1,0,40.551S16.79,59.338,22.055,63.782s13.027,2.939,13.8-3.479S50.953,26.584,51.281,20.236s-13.637,6.186-13.637,6.186L30.1,11l-17.023,3.6S13.262,1.355,8.606.132A3.546,3.546,0,0,0,7.718,0C4.481,0,7.685,6.939,6.725,14.24ZM7.76,1.074Zm.565.07c2.586.635,3.644,8.183,3.572,13.332v1.458l17.59-3.716,7.83,16.013,1.151-1.058c5.032-4.514,10.439-8.065,11.755-7.665v.565c-.163,3.149-4.419,12.767-8.158,21.162-3.574,8.041-7.053,15.634-7.337,18.809A5.406,5.406,0,0,1,31.2,64.559a8.51,8.51,0,0,1-8.372-1.765c-4.7-3.949-18.811-19.632-21.42-22.618A235.994,235.994,0,0,0,7.972,14.31,35.587,35.587,0,0,0,7.76,5.4a11.525,11.525,0,0,1-.007-4.288A1.422,1.422,0,0,1,8.325,1.143Z" transform="translate(51.287 66.329) rotate(180)" fill="none"/>
    </clipPath>
    <clipPath id="clip-path-4">
      <path id="Intersection_4" data-name="Intersection 4" d="M16.457,30.574A147.9,147.9,0,0,0,0,37.462s19.42,18.576,21.466,19.4,1.223,7.618.7,10.769,5.667,9.288,13.592,6.088,3.009-6.535,3.009-6.535a195.44,195.44,0,0,0,8.065-20.269c2.021-7.195,3.974-37.926,5.032-45.781C51.975.352,51.769,0,51.307,0,47.125,0,21.962,28.9,16.457,30.574Zm9.195,40.958A5.1,5.1,0,0,1,23.3,67.793c.893-6.723.963-11.074-1.435-12.013-1.316-.635-10.958-9.523-19.822-17.987a133.035,133.035,0,0,1,14.7-6.09c2.774-.846,8.6-6.49,17.892-15.683C40.3,10.4,47.872,2.9,50.623,1.441c-.353,2.774-.8,7.83-1.318,13.59-1.033,11.992-2.351,26.9-3.644,31.554a192.514,192.514,0,0,1-7.993,20.1l-.423.918.821.563c.284.188,1.058.893.988,1.6s-.516,1.551-3.763,2.867a9.4,9.4,0,0,1-9.639-1.1Z" transform="translate(51.896 74.617) rotate(180)" fill="none"/>
    </clipPath>
    <clipPath id="clip-path-5">
      <path id="Intersection_5" data-name="Intersection 5" d="M19.187,2.337c-2.235.751-8.534,23.936-8.534,23.936A31.707,31.707,0,0,1,3.27,29.563C1.1,29.8,0,33.938,0,33.938l6.537,11a55.054,55.054,0,0,1-2.163,8.253c-.87,2.47,3.832,19.211,3.832,19.211L35.6,74.991S32.449,58.555,32.661,56.98s9.146-8.395,9.146-8.395l.94-3.056c.942-3.081,6.044-1.342,6.044-1.342a60.486,60.486,0,0,0,2.844,6.8c2.139,4.537,8.818,6.511,11.757.493s-4.4-15-4.4-15,1.1-12.674-1.716-15.19S30.615,1.725,28.592.384A2.809,2.809,0,0,0,27.028,0C24.6,0,20.969,1.736,19.187,2.337ZM9.171,71.3C7.03,63.706,5.056,54.981,5.525,53.618a57.48,57.48,0,0,0,2.351-8.465V44.73L1.293,33.772c.423-1.34,1.318-2.963,2.093-3.032a31.69,31.69,0,0,0,7.853-3.456l.4-.237.142-.47C14.625,16.069,18.387,4.5,19.727,3.372a11.158,11.158,0,0,0,1.412-.542c1.835-.7,5.644-2.209,6.725-1.481C29.815,2.665,53.727,19.736,56.432,22.18c1.67,1.458,1.786,9.171,1.316,14.108v.47l.307.377S64.9,45.623,62.311,50.89a4.706,4.706,0,0,1-4.4,3.1,6.043,6.043,0,0,1-5.149-3.574c-2-4.421-2.776-6.655-2.8-6.679L49.8,43.2l-.565-.188a8.52,8.52,0,0,0-5.76,0,3.526,3.526,0,0,0-1.788,2.139l-.823,2.7c-6,4.7-9.1,7.618-9.288,8.958a166.9,166.9,0,0,0,2.658,16.836Z" transform="translate(64.087 74.991) rotate(180)" fill="none"/>
    </clipPath>
  </defs>
  <g id="Mobile_apps-bro" data-name="Mobile apps-bro" transform="translate(0)">
    <g id="freepik--Device--inject-96" transform="translate(349.414 88.567)">
      <path id="Tracé_12242" data-name="Tracé 12242" d="M129.3,752.818l286.553,23.748c8.253.682,16.459-6.184,18.293-15.354L556.036,161.632c1.857-9.146,5.62-26.358-27.675-27.957L238.541,111.267c-8.23-.682-16.459,6.184-18.293,15.331L96.522,727.213C94.665,735.278,103.741,752.183,129.3,752.818Z" transform="translate(-94.226 -107.687)" fill="#263238"/>
      <path id="Tracé_12243" data-name="Tracé 12243" d="M417.653,778.4c8.371,0,16.459-7.054,18.317-16.342l121.891-599.58c1.129-5.479,2.751-13.473-2.21-19.845-4.491-5.761-13.167-8.888-26.546-9.405l-289.8-22.408c-8.794-.729-17.564,6.584-19.539,16.271L96.042,727.587c-.941,4.162.752,9.664,4.4,14.319s12.109,12.25,29.462,12.7L416.43,778.328A10.373,10.373,0,0,0,417.653,778.4ZM238.084,112.982h1.035L528.94,135.39c12.509.588,20.856,3.5,24.853,8.606,4.279,5.549,2.845,12.579,1.81,17.729L433.665,761.634c-1.74,8.582-9.405,15-17.047,14.414L130.066,752.276h0c-16.459-.4-24.383-7.548-27.7-11.756a16.271,16.271,0,0,1-3.95-12.391l123.655-600.78c1.669-8.206,8.7-14.46,16.013-14.46Z" transform="translate(-94.898 -108.297)" fill="#263238"/>
      <path id="Tracé_12244" data-name="Tracé 12244" d="M117.9,743.16l286.553,23.725c8.229.682,16.459-6.184,18.293-15.33L544.632,151.832c1.857-9.146-3.315-17.117-11.568-17.8L246.511,110.309c-8.253-.705-16.459,6.16-18.293,15.33l-121.891,599.7C104.47,734.507,109.642,742.478,117.9,743.16Z" transform="translate(-104.76 -108.986)" fill="#fff"/>
      <path id="Tracé_12245" data-name="Tracé 12245" d="M406.23,768.745c8.394,0,16.459-7.054,18.34-16.318L546.461,152.705a17.188,17.188,0,0,0-2.727-13.755,13.591,13.591,0,0,0-9.9-5.455L247.283,109.771c-8.794-.752-17.564,6.56-19.539,16.271L105.876,725.834a17.139,17.139,0,0,0,2.727,13.779,13.519,13.519,0,0,0,9.9,5.431l286.506,23.7ZM246.06,112.051h1.035L533.647,135.8a11.239,11.239,0,0,1,8.206,4.514A14.861,14.861,0,0,1,544.2,152.07L422.266,752.051c-1.74,8.559-9.405,15.025-17.047,14.39L118.667,742.716h0a11.309,11.309,0,0,1-8.206-4.514,14.814,14.814,0,0,1-2.351-11.9L230,126.723c1.716-8.3,8.747-14.578,16.059-14.578Z" transform="translate(-105.437 -109.717)" fill="#263238"/>
      <path id="Tracé_12246" data-name="Tracé 12246" d="M168.9,135.792l39.384,3.221a5.008,5.008,0,0,0,4.938-4.162h0a3.762,3.762,0,0,0-3.1-4.773l-39.384-3.268a5.055,5.055,0,0,0-4.961,4.162h0a3.786,3.786,0,0,0,3.127,4.82Z" transform="translate(86.586 -86.62)" fill="#263238"/>
      <path id="Tracé_12247" data-name="Tracé 12247" d="M116.5,664.673l276.418,22.878L502.254,149.6l-65.507-5.432L428,150.35a15.213,15.213,0,0,1-9.922,2.8l-115.59-9.405a12.015,12.015,0,0,1-8.676-4.7l-5.338-7.054-62.638-5.2Z" transform="translate(-86.811 -86.647)" fill="#453ecc"/>
      <path id="Tracé_12248" data-name="Tracé 12248" d="M393.539,689.457a1.152,1.152,0,0,0,1.152-.941L504.05,150.564a1.128,1.128,0,0,0-.212-.941,1.081,1.081,0,0,0-.823-.47l-65.531-5.432a1.151,1.151,0,0,0-.776.212l-8.747,6.184a14.107,14.107,0,0,1-9.147,2.7l-115.59-9.593a10.769,10.769,0,0,1-7.83-4.279l-5.338-7.054a1.222,1.222,0,0,0-.846-.447l-62.615-5.2a1.2,1.2,0,0,0-1.246.94L116.016,665.168a1.129,1.129,0,0,0,.211.941,1.176,1.176,0,0,0,.847.447ZM501.464,151.387,392.6,687.036,118.437,664.322,227.3,128.7l61.134,5.055,5.008,6.631a13.143,13.143,0,0,0,9.523,5.2l115.59,9.57a16.316,16.316,0,0,0,10.7-3.127l8.394-5.925Z" transform="translate(-87.432 -87.378)" fill="#263238"/>
      <path id="Tracé_12249" data-name="Tracé 12249" d="M221.79,370.853a7.806,7.806,0,0,1,7.712-6.443,5.878,5.878,0,0,1,4.867,7.5,7.783,7.783,0,0,1-7.712,6.443,5.878,5.878,0,0,1-4.867-7.5Z" transform="translate(-66.165 234.448)" fill="#263238"/>
      <path id="Tracé_12250" data-name="Tracé 12250" d="M137.688,214.873l29.532,2.351a10.04,10.04,0,0,0,9.946-8.324l6.678-32.918c1.011-4.961-1.81-9.405-6.3-9.664L148.01,163.85a10.087,10.087,0,0,0-9.946,8.347l-6.678,32.777C130.446,210.17,133.2,214.5,137.688,214.873Z" transform="translate(196.823 -36.568)" fill="#fff"/>
      <path id="Tracé_12251" data-name="Tracé 12251" d="M168.538,219.072a11.38,11.38,0,0,0,10.487-9.288l6.678-32.918a9.921,9.921,0,0,0-1.575-7.9,7.97,7.97,0,0,0-5.784-3.174l-29.532-2.351a11.239,11.239,0,0,0-11.192,9.264l-6.678,32.777a9.875,9.875,0,0,0,1.6,7.924,7.877,7.877,0,0,0,5.761,3.174l29.532,2.351Zm-20.433-53.3h.517l29.532,2.351a5.642,5.642,0,0,1,4.091,2.351,7.641,7.641,0,0,1,1.152,6.043l-6.678,32.918a8.888,8.888,0,0,1-8.7,7.383l-29.532-2.351a5.455,5.455,0,0,1-4.068-2.351,7.547,7.547,0,0,1-1.176-6.043l6.678-32.777a8.982,8.982,0,0,1,8.182-7.524Z" transform="translate(196.117 -37.123)" fill="#fff"/>
      <path id="Tracé_12252" data-name="Tracé 12252" d="M165.773,212.431l29.532,2.351a10.04,10.04,0,0,0,9.946-8.347l6.678-32.777c1.011-4.985-1.811-9.405-6.3-9.687L176.1,161.62a10.04,10.04,0,0,0-9.946,8.347l-6.678,32.777C158.508,207.729,161.329,212.055,165.773,212.431Z" transform="translate(102.714 -39.582)" fill="#fff"/>
      <path id="Tracé_12253" data-name="Tracé 12253" d="M196.6,216.752a11.38,11.38,0,0,0,10.487-9.405l6.678-32.777a9.994,9.994,0,0,0-1.575-7.924,8.065,8.065,0,0,0-5.784-3.174l-29.532-2.351a11.286,11.286,0,0,0-11.192,9.287L159,203.161a9.993,9.993,0,0,0,1.575,7.924,7.97,7.97,0,0,0,5.784,3.174h0l29.532,2.351Zm-20.456-53.3h.541l29.532,2.351a5.714,5.714,0,0,1,4.091,2.351,7.666,7.666,0,0,1,1.152,6.043l-6.678,32.777a8.912,8.912,0,0,1-8.7,7.407l-29.532-2.351h0a5.713,5.713,0,0,1-4.091-2.234,7.665,7.665,0,0,1-1.152-6.043l6.678-32.777A8.982,8.982,0,0,1,176.139,163.448Z" transform="translate(102.082 -40.257)" fill="#fff"/>
      <path id="Tracé_12254" data-name="Tracé 12254" d="M193.83,210.112l29.532,2.351a10.064,10.064,0,0,0,9.946-8.347l6.678-32.777c1.011-4.985-1.811-9.405-6.3-9.687L204.153,159.3a10.04,10.04,0,0,0-9.946,8.323l-6.678,32.8C186.424,205.385,189.128,209.735,193.83,210.112Z" transform="translate(8.82 -42.717)" fill="#fff"/>
      <path id="Tracé_12255" data-name="Tracé 12255" d="M224.656,214.432a11.4,11.4,0,0,0,10.487-9.405l6.678-32.777a9.969,9.969,0,0,0-1.575-7.924,7.972,7.972,0,0,0-5.784-3.174L204.928,158.8a11.239,11.239,0,0,0-11.192,9.288l-6.678,32.777a9.922,9.922,0,0,0,1.575,7.9,7.97,7.97,0,0,0,5.784,3.174h0l29.532,2.351Zm-20.456-53.3h.541l29.532,2.351a5.549,5.549,0,0,1,4.091,2.234,7.666,7.666,0,0,1,1.152,6.043l-6.678,32.777a8.911,8.911,0,0,1-8.7,7.406l-29.532-2.351a5.643,5.643,0,0,1-4.091-2.351,7.6,7.6,0,0,1-1.152-6.019l6.678-32.8a8.982,8.982,0,0,1,8.159-7.289Z" transform="translate(8.044 -43.393)" fill="#fff"/>
      <path id="Tracé_12256" data-name="Tracé 12256" d="M221.888,207.781l29.532,2.351a10.04,10.04,0,0,0,9.946-8.347l6.678-32.777c1.011-4.961-1.811-9.405-6.3-9.687L232.21,156.97a10.064,10.064,0,0,0-9.946,8.347l-6.678,32.777C214.576,203.079,217.421,207.405,221.888,207.781Z" transform="translate(-85.309 -45.865)" fill="#fff"/>
      <path id="Tracé_12257" data-name="Tracé 12257" d="M252.784,212.035a11.381,11.381,0,0,0,10.487-9.405l6.631-32.683a9.923,9.923,0,0,0-1.575-7.9,7.971,7.971,0,0,0-5.784-3.174l-29.532-2.351a11.239,11.239,0,0,0-11.192,9.264l-6.677,32.777a9.968,9.968,0,0,0,1.575,7.924,7.97,7.97,0,0,0,5.784,3.174h0l29.532,2.351Zm-20.456-53.3h.541l29.532,2.351a5.643,5.643,0,0,1,4.091,2.351,7.6,7.6,0,0,1,1.058,5.972l-6.584,32.918a8.888,8.888,0,0,1-8.7,7.407l-29.532-2.351h0a5.549,5.549,0,0,1-4.091-2.351,7.666,7.666,0,0,1-1.152-6.043l6.678-32.777a8.982,8.982,0,0,1,8.112-7.477Z" transform="translate(-86.061 -46.474)" fill="#fff"/>
      <path id="Tracé_12258" data-name="Tracé 12258" d="M144.207,246.822l29.532,2.351a10.087,10.087,0,0,0,9.969-8.347l6.654-32.777c1.011-4.985-1.811-9.405-6.278-9.687l-29.556-2.351a10.064,10.064,0,0,0-9.946,8.347l-6.654,32.777C136.918,242.1,139.716,246.445,144.207,246.822Z" transform="translate(174.974 6.89)" fill="#fff"/>
      <path id="Tracé_12259" data-name="Tracé 12259" d="M175.035,251.142a11.427,11.427,0,0,0,10.51-9.405L192.2,208.96a9.876,9.876,0,0,0-1.576-7.924,7.876,7.876,0,0,0-5.761-3.174l-29.532-2.352a11.263,11.263,0,0,0-11.216,9.405l-6.654,32.777a9.852,9.852,0,0,0,1.575,7.9,7.877,7.877,0,0,0,5.761,3.174h0l29.532,2.351Zm-20.433-53.3h.517l29.532,2.351a5.548,5.548,0,0,1,4.091,2.234,7.477,7.477,0,0,1,1.152,6.043l-6.654,32.871a8.911,8.911,0,0,1-8.7,7.406l-29.556-2.351a5.6,5.6,0,0,1-4.068-2.351,7.43,7.43,0,0,1-1.152-6.019l6.654-32.777A8.982,8.982,0,0,1,154.6,197.838Z" transform="translate(174.29 6.214)" fill="#fff"/>
      <path id="Tracé_12260" data-name="Tracé 12260" d="M172.267,244.491l29.532,2.351a10.064,10.064,0,0,0,9.97-8.347l6.654-32.777c1.011-4.961-1.81-9.405-6.278-9.687l-29.556-2.351a10.064,10.064,0,0,0-9.946,8.347L165.989,234.8C164.978,239.789,167.776,244.115,172.267,244.491Z" transform="translate(80.936 3.741)" fill="#fff"/>
      <path id="Tracé_12261" data-name="Tracé 12261" d="M203.1,248.8a11.4,11.4,0,0,0,10.51-9.405l6.654-32.777a9.852,9.852,0,0,0-1.575-7.9,7.877,7.877,0,0,0-5.761-3.174l-29.532-2.351a11.287,11.287,0,0,0-11.216,9.264l-6.654,32.777a9.876,9.876,0,0,0,1.575,7.924,7.877,7.877,0,0,0,5.761,3.174h0l29.532,2.351Zm-20.433-53.3h.517l29.532,2.351a5.642,5.642,0,0,1,4.091,2.351,7.5,7.5,0,0,1,1.152,6.019l-6.654,32.8a8.888,8.888,0,0,1-8.723,7.383l-29.532-2.351h0a5.5,5.5,0,0,1-4.068-2.234,7.478,7.478,0,0,1-1.152-6.043L174.483,203A8.982,8.982,0,0,1,182.665,195.495Z" transform="translate(80.249 3.079)" fill="#fff"/>
      <path id="Tracé_12262" data-name="Tracé 12262" d="M228.412,239.774l29.532,2.469a10.111,10.111,0,0,0,9.969-8.347l6.631-32.777c1.011-4.985-1.811-9.405-6.3-9.687l-29.532-2.351a10.064,10.064,0,0,0-9.946,8.324l-6.654,32.777C221.123,235.071,223.921,239.421,228.412,239.774Z" transform="translate(-107.164 -2.475)" fill="#fff"/>
      <path id="Tracé_12263" data-name="Tracé 12263" d="M259.215,244.118a11.427,11.427,0,0,0,10.51-9.405l6.654-32.683a9.877,9.877,0,0,0-1.575-7.924,7.876,7.876,0,0,0-5.761-3.174l-29.556-2.351a11.262,11.262,0,0,0-11.192,9.264l-6.654,32.918a9.851,9.851,0,0,0,1.575,7.9,7.876,7.876,0,0,0,5.761,3.174h0l29.532,2.351Zm-20.433-53.3h.517l29.532,2.351a5.549,5.549,0,0,1,4.091,2.234,7.548,7.548,0,0,1,1.152,6.043l-6.654,32.8a8.864,8.864,0,0,1-8.723,7.406L229.165,239.3a5.6,5.6,0,0,1-4.068-2.351,7.453,7.453,0,0,1-1.152-6.043l6.584-32.683A8.958,8.958,0,0,1,238.782,190.814Z" transform="translate(-107.823 -3.151)" fill="#fff"/>
      <path id="Tracé_12264" data-name="Tracé 12264" d="M150.759,278.882l29.532,2.351a10.064,10.064,0,0,0,9.946-8.347l6.654-32.777c1.011-4.985-1.787-9.405-6.278-9.687l-29.532-2.351a10.063,10.063,0,0,0-9.969,8.347l-6.654,32.777C143.564,274.179,146.385,278.505,150.759,278.882Z" transform="translate(152.997 50.212)" fill="#fff"/>
      <path id="Tracé_12265" data-name="Tracé 12265" d="M181.577,283.2a11.4,11.4,0,0,0,10.487-9.405l6.654-32.777a9.828,9.828,0,0,0-1.575-7.924,8.041,8.041,0,0,0-5.761-3.174L161.85,227.57a11.287,11.287,0,0,0-11.216,9.405l-6.654,32.777a9.9,9.9,0,0,0,1.575,7.924,7.925,7.925,0,0,0,5.761,3.174h0l29.556,2.351Zm-20.456-53.3h.541l29.532,2.351a5.6,5.6,0,0,1,4.068,2.351,7.429,7.429,0,0,1,1.152,6.019L189.76,273.4a8.888,8.888,0,0,1-8.7,7.407l-29.532-2.351a5.714,5.714,0,0,1-4.091-2.351,7.571,7.571,0,0,1-1.152-6.043l6.654-32.777A9.029,9.029,0,0,1,161.121,229.9Z" transform="translate(152.44 49.536)" fill="#fff"/>
      <path id="Tracé_12266" data-name="Tracé 12266" d="M178.807,276.561l29.532,2.351a10.064,10.064,0,0,0,9.946-8.347l6.654-32.777c1.011-4.984-1.787-9.405-6.278-9.687L189.13,225.75a10.063,10.063,0,0,0-9.969,8.347l-6.654,32.777C171.471,271.835,174.293,276.185,178.807,276.561Z" transform="translate(59.112 47.077)" fill="#fff"/>
      <path id="Tracé_12267" data-name="Tracé 12267" d="M209.615,280.842a11.427,11.427,0,0,0,10.51-9.405l6.654-32.706a9.876,9.876,0,0,0-1.575-7.924,7.878,7.878,0,0,0-5.761-3.174l-29.532-2.352a11.287,11.287,0,0,0-11.216,9.288l-6.654,32.777a9.852,9.852,0,0,0,1.575,7.9,7.924,7.924,0,0,0,5.761,3.174l29.556,2.351Zm-20.433-53.3h.541l29.532,2.351a5.5,5.5,0,0,1,4.068,2.351,7.476,7.476,0,0,1,1.152,6.043l-6.654,32.777a8.864,8.864,0,0,1-8.7,7.406l-29.532-2.351a5.642,5.642,0,0,1-4.091-2.351,7.5,7.5,0,0,1-1.152-6.019L181,234.968a9.029,9.029,0,0,1,8.182-7.43Z" transform="translate(58.402 46.442)" fill="#fff"/>
      <path id="Tracé_12268" data-name="Tracé 12268" d="M206.871,274.2l29.532,2.351a10.064,10.064,0,0,0,9.946-8.347L253,235.429c1.011-4.961-1.787-9.405-6.278-9.687l-29.532-2.351a10.087,10.087,0,0,0-9.97,8.347l-6.654,32.777C199.559,269.5,202.333,273.9,206.871,274.2Z" transform="translate(-34.952 43.888)" fill="#fff"/>
      <path id="Tracé_12269" data-name="Tracé 12269" d="M237.812,278.484a11.4,11.4,0,0,0,10.51-9.405l6.56-32.683a9.853,9.853,0,0,0-1.575-7.9,7.875,7.875,0,0,0-5.761-3.174l-29.532-2.352a11.286,11.286,0,0,0-11.216,9.264l-6.654,32.777a9.876,9.876,0,0,0,1.575,7.924,7.876,7.876,0,0,0,5.761,3.174l29.532,2.351Zm-20.55-53.3h.541l29.532,2.351a5.6,5.6,0,0,1,4.068,2.351,7.43,7.43,0,0,1,1.152,6.019L245.9,268.68a8.841,8.841,0,0,1-8.7,7.406l-29.532-2.351a5.549,5.549,0,0,1-4.091-2.234,7.571,7.571,0,0,1-1.152-6.043l6.654-32.777a9.029,9.029,0,0,1,8.182-7.5Z" transform="translate(-35.773 43.32)" fill="#fff"/>
      <path id="Tracé_12270" data-name="Tracé 12270" d="M234.9,271.912l29.556,2.351a10.064,10.064,0,0,0,9.946-8.347l6.654-32.777c1.011-4.985-1.787-9.405-6.278-9.687L245.247,221.1a10.063,10.063,0,0,0-9.969,8.347l-6.654,32.777C227.612,267.209,230.528,271.535,234.9,271.912Z" transform="translate(-128.983 40.794)" fill="#fff"/>
      <path id="Tracé_12271" data-name="Tracé 12271" d="M265.67,276.178a11.427,11.427,0,0,0,10.51-9.4l6.7-32.683a9.9,9.9,0,0,0-1.575-7.924,7.877,7.877,0,0,0-5.761-3.174l-29.532-2.351a11.286,11.286,0,0,0-11.216,9.405l-6.654,32.777a9.828,9.828,0,0,0,1.575,7.9,7.993,7.993,0,0,0,5.761,3.2l29.532,2.351Zm-20.409-53.3h.541l29.532,2.351a5.667,5.667,0,0,1,4.068,2.351,7.477,7.477,0,0,1,1.152,6.043L273.9,266.4a8.841,8.841,0,0,1-8.7,7.406l-29.532-2.351a5.643,5.643,0,0,1-4.091-2.351,7.43,7.43,0,0,1-1.152-6.019l6.654-32.777a9.029,9.029,0,0,1,8.183-7.43Z" transform="translate(-129.608 40.172)" fill="#fff"/>
      <path id="Tracé_12272" data-name="Tracé 12272" d="M157.259,311l29.532,2.351a10.04,10.04,0,0,0,9.946-8.324l6.678-32.8c1.011-4.961-1.811-9.4-6.3-9.664l-29.532-2.469a10.087,10.087,0,0,0-9.946,8.347l-6.678,32.777C149.947,306.293,152.769,310.619,157.259,311Z" transform="translate(131.284 93.481)" fill="#fff"/>
      <path id="Tracé_12273" data-name="Tracé 12273" d="M188.037,315.235a11.38,11.38,0,0,0,10.487-9.405l6.678-32.777a9.923,9.923,0,0,0-1.528-7.877A7.972,7.972,0,0,0,197.889,262l-29.532-2.352a11.216,11.216,0,0,0-11.192,9.264l-6.678,32.777a9.969,9.969,0,0,0,1.575,7.923,7.971,7.971,0,0,0,5.784,3.174h0l29.532,2.352Zm-20.456-53.3h.541l29.532,2.351a5.644,5.644,0,0,1,4.091,2.351,7.641,7.641,0,0,1,1.152,6.043l-6.678,32.777a8.911,8.911,0,0,1-8.7,7.406l-29.532-2.351a5.642,5.642,0,0,1-4.091-2.351,7.641,7.641,0,0,1-1.152-6.043l6.678-32.777A8.982,8.982,0,0,1,167.58,261.931Z" transform="translate(130.65 92.886)" fill="#fff"/>
      <path id="Tracé_12274" data-name="Tracé 12274" d="M185.319,308.527l29.532,2.351a10.04,10.04,0,0,0,9.946-8.347l6.678-32.613c1.011-4.985-1.81-9.405-6.3-9.687l-29.532-2.351a10.04,10.04,0,0,0-9.946,8.347L179.018,299C178.007,303.824,180.828,308.151,185.319,308.527Z" transform="translate(37.246 90.494)" fill="#fff"/>
      <path id="Tracé_12275" data-name="Tracé 12275" d="M216.146,312.972a11.38,11.38,0,0,0,10.487-9.4l6.678-32.777a9.993,9.993,0,0,0-1.575-7.924,8.136,8.136,0,0,0-5.784-3.174l-29.532-2.351a11.262,11.262,0,0,0-11.192,9.287L178.548,299.4a9.993,9.993,0,0,0,1.576,7.924,8.066,8.066,0,0,0,5.784,3.174h0l29.556,2.469Zm-20.456-53.3h.541l29.532,2.351a5.715,5.715,0,0,1,4.091,2.234,7.665,7.665,0,0,1,1.152,6.043l-6.678,32.777a8.865,8.865,0,0,1-8.7,7.407L186.1,308.128A5.714,5.714,0,0,1,182,305.895a7.666,7.666,0,0,1-1.152-6.043l6.678-32.777a8.982,8.982,0,0,1,8.159-7.477Z" transform="translate(36.564 89.764)" fill="#fff"/>
      <path id="Tracé_12276" data-name="Tracé 12276" d="M213.481,306.248l29.532,2.351a10.064,10.064,0,0,0,9.946-8.347l6.584-32.683c1.011-4.985-1.81-9.405-6.3-9.687l-29.532-2.351a10.04,10.04,0,0,0-9.946,8.324l-6.678,32.918C206.168,301.521,208.99,305.871,213.481,306.248Z" transform="translate(-56.892 87.319)" fill="#fff"/>
      <path id="Tracé_12277" data-name="Tracé 12277" d="M244.206,310.609a11.4,11.4,0,0,0,10.487-9.405l6.678-32.777a9.969,9.969,0,0,0-1.576-7.924,7.97,7.97,0,0,0-5.784-3.151L224.479,255a11.216,11.216,0,0,0-11.192,9.288l-6.678,32.777a9.922,9.922,0,0,0,1.575,7.9,7.97,7.97,0,0,0,5.784,3.174l29.532,2.351ZM223.75,257.3h.541l29.532,2.351a5.549,5.549,0,0,1,4.091,2.351,7.665,7.665,0,0,1,1.152,6.043l-6.678,32.777a8.912,8.912,0,0,1-8.7,7.407l-29.532-2.351a5.643,5.643,0,0,1-4.091-2.351,7.6,7.6,0,0,1-1.152-6.02l6.678-32.8a8.982,8.982,0,0,1,8.159-7.36Z" transform="translate(-57.474 86.602)" fill="#fff"/>
      <path id="Tracé_12278" data-name="Tracé 12278" d="M241.389,303.917l29.532,2.351a10.04,10.04,0,0,0,9.946-8.347l6.725-32.683c1.011-4.961-1.81-9.405-6.3-9.687L251.759,253.2a10.063,10.063,0,0,0-9.946,8.347l-6.678,32.777C234.077,299.215,236.9,303.541,241.389,303.917Z" transform="translate(-150.778 84.17)" fill="#fff"/>
      <path id="Tracé_12279" data-name="Tracé 12279" d="M272.265,308.279a11.381,11.381,0,0,0,10.487-9.405L289.43,266.1a9.853,9.853,0,0,0-1.6-7.9,7.877,7.877,0,0,0-5.76-3.174l-29.532-2.351a11.216,11.216,0,0,0-11.192,9.264l-6.677,32.777a9.991,9.991,0,0,0,1.575,7.924,7.972,7.972,0,0,0,5.784,3.174l29.532,2.351Zm-20.433-53.3h.517l29.532,2.351a5.644,5.644,0,0,1,4.091,2.351,7.6,7.6,0,0,1,1.152,6.019l-6.678,32.777a8.888,8.888,0,0,1-8.7,7.407l-29.532-2.352a5.618,5.618,0,0,1-4.091-2.233,7.666,7.666,0,0,1-1.152-6.043L243.65,262.4a8.982,8.982,0,0,1,8.182-7.43Z" transform="translate(-151.51 83.453)" fill="#fff"/>
      <path id="Tracé_12280" data-name="Tracé 12280" d="M163.759,343.012l29.532,2.351a10.087,10.087,0,0,0,9.97-8.347l6.654-32.777c1.011-4.985-1.81-9.405-6.278-9.687L174.081,292.2a10.063,10.063,0,0,0-9.946,8.347l-6.654,32.777C156.493,338.285,159.291,342.635,163.759,343.012Z" transform="translate(109.431 136.871)" fill="#fff"/>
      <path id="Tracé_12281" data-name="Tracé 12281" d="M194.585,347.332a11.428,11.428,0,0,0,10.51-9.405l6.654-32.777a9.876,9.876,0,0,0-1.575-7.924,7.877,7.877,0,0,0-5.761-3.175L174.857,291.7a11.24,11.24,0,0,0-11.192,9.288l-6.654,32.777a9.852,9.852,0,0,0,1.575,7.9,7.877,7.877,0,0,0,5.831,3.174h0l29.532,2.351Zm-20.433-53.3h.517L204.2,296.38a5.548,5.548,0,0,1,4.091,2.233,7.478,7.478,0,0,1,1.152,6.043l-6.654,32.777a8.958,8.958,0,0,1-8.723,7.407l-29.532-2.351a5.6,5.6,0,0,1-4.068-2.351,7.43,7.43,0,0,1-1.152-6.019l6.654-32.777A9.006,9.006,0,0,1,174.152,294.028Z" transform="translate(108.772 136.195)" fill="#fff"/>
      <path id="Tracé_12282" data-name="Tracé 12282" d="M191.822,340.749l29.532,2.351a10.063,10.063,0,0,0,9.969-8.324l6.654-32.918c1.011-4.961-1.811-9.405-6.3-9.687l-29.532-2.351a10.064,10.064,0,0,0-9.946,8.347l-6.654,32.777C184.533,336.047,187.237,340.373,191.822,340.749Z" transform="translate(15.413 133.655)" fill="#fff"/>
      <path id="Tracé_12283" data-name="Tracé 12283" d="M222.648,344.9a11.4,11.4,0,0,0,10.51-9.288l6.654-32.8a9.852,9.852,0,0,0-1.575-7.9,7.876,7.876,0,0,0-5.761-3.174l-29.556-2.351a11.215,11.215,0,0,0-11.192,9.264l-6.654,32.777a9.874,9.874,0,0,0,1.575,7.924,7.876,7.876,0,0,0,5.761,3.174h0l29.532,2.351Zm-20.433-53.3h.517l29.532,2.351a5.643,5.643,0,0,1,4.091,2.351,7.5,7.5,0,0,1,1.152,6.019l-6.654,32.8a8.888,8.888,0,0,1-8.723,7.383l-29.509-2.3a5.5,5.5,0,0,1-4.068-2.351,7.478,7.478,0,0,1-1.152-6.043l6.654-32.777a9.006,9.006,0,0,1,8.159-7.36Z" transform="translate(14.731 133.073)" fill="#fff"/>
      <path id="Tracé_12284" data-name="Tracé 12284" d="M219.875,338.362l29.532,2.352a10.064,10.064,0,0,0,9.97-8.347l6.654-32.777c1.011-4.985-1.81-9.405-6.3-9.687L230.2,287.551a10.064,10.064,0,0,0-10.064,8.347L213.6,328.581C212.586,333.66,215.431,337.986,219.875,338.362Z" transform="translate(-78.617 130.587)" fill="#fff"/>
      <path id="Tracé_12285" data-name="Tracé 12285" d="M250.747,342.628a11.4,11.4,0,0,0,10.51-9.405l6.631-32.683a9.9,9.9,0,0,0-1.575-7.924,7.924,7.924,0,0,0-5.761-3.174L231,287.091a11.216,11.216,0,0,0-11.192,9.288l-6.654,32.777a9.8,9.8,0,0,0,1.575,7.924,7.877,7.877,0,0,0,5.761,3.174l29.532,2.351Zm-20.48-53.4h.517l29.532,2.352a5.714,5.714,0,0,1,4.091,2.351,7.572,7.572,0,0,1,1.152,6.043l-6.654,32.777a8.888,8.888,0,0,1-8.723,7.407l-29.532-2.352a5.668,5.668,0,0,1-4.068-2.351,7.478,7.478,0,0,1-1.152-6.043l6.654-32.777A8.982,8.982,0,0,1,230.267,289.23Z" transform="translate(-79.345 129.965)" fill="#fff"/>
      <path id="Tracé_12286" data-name="Tracé 12286" d="M247.937,335.964l29.532,2.469a10.111,10.111,0,0,0,9.969-8.347l6.654-32.777c1.011-4.985-1.811-9.405-6.3-9.687l-29.532-2.351a10.064,10.064,0,0,0-9.946,8.323l-6.654,32.918C240.648,331.261,243.446,335.611,247.937,335.964Z" transform="translate(-172.657 127.506)" fill="#fff"/>
      <path id="Tracé_12287" data-name="Tracé 12287" d="M278.765,340.362a11.427,11.427,0,0,0,10.51-9.405l6.654-32.777a9.875,9.875,0,0,0-1.575-7.924,7.923,7.923,0,0,0-5.761-3.174l-29.556-2.351a11.263,11.263,0,0,0-11.192,9.264l-6.654,32.8a9.853,9.853,0,0,0,1.575,7.9,7.876,7.876,0,0,0,5.761,3.174l29.532,2.351Zm-20.339-53.3h.517l29.532,2.352a5.548,5.548,0,0,1,4.091,2.351,7.549,7.549,0,0,1,1.152,6.043l-6.654,32.777a8.959,8.959,0,0,1-8.723,7.407l-29.532-2.351a5.6,5.6,0,0,1-4.068-2.352,7.453,7.453,0,0,1-1.152-6.043l6.654-32.777A8.958,8.958,0,0,1,258.426,287.058Z" transform="translate(-173.34 126.776)" fill="#fff"/>
      <path id="Tracé_12288" data-name="Tracé 12288" d="M170.3,375.072l29.532,2.352a10.064,10.064,0,0,0,9.946-8.347l6.654-32.777c1.011-4.985-1.787-9.405-6.278-9.687l-29.532-2.351a10.063,10.063,0,0,0-9.97,8.347L164,365.384C162.986,370.369,165.808,374.7,170.3,375.072Z" transform="translate(87.607 180.193)" fill="#263238"/>
      <path id="Tracé_12289" data-name="Tracé 12289" d="M198.336,372.752l29.556,2.351a10.063,10.063,0,0,0,9.946-8.347l6.654-32.777c1.011-4.985-1.787-9.405-6.278-9.687l-29.532-2.352a10.064,10.064,0,0,0-9.97,8.347l-6.654,32.777C191.046,368.026,193.868,372.375,198.336,372.752Z" transform="translate(-6.431 177.058)" fill="#263238"/>
      <path id="Tracé_12290" data-name="Tracé 12290" d="M226.4,370.367l29.556,2.351a10.063,10.063,0,0,0,9.946-8.347l6.654-32.683c1.011-4.961-1.787-9.405-6.278-9.688l-29.532-2.351A10.087,10.087,0,0,0,226.772,328l-6.654,32.777C219.106,365.665,221.928,369.991,226.4,370.367Z" transform="translate(-100.468 173.964)" fill="#263238"/>
      <path id="Tracé_12291" data-name="Tracé 12291" d="M254.456,368.1l29.556,2.351a10.063,10.063,0,0,0,9.946-8.347l6.654-32.777c1.011-4.985-1.787-9.405-6.278-9.688L264.8,317.29a10.063,10.063,0,0,0-9.969,8.347l-6.654,32.777C247.166,363.4,249.988,367.725,254.456,368.1Z" transform="translate(-194.505 170.775)" fill="#263238"/>
      <path id="Tracé_12292" data-name="Tracé 12292" d="M256.889,288.42c8.794,0,17.282-7.477,19.257-17.235L289.69,204.6a17.94,17.94,0,0,0-2.845-14.413,13.943,13.943,0,0,0-10.2-5.62l-60.005-4.985c-9.24-.752-18.458,7.054-20.527,17.188l-13.543,66.589a18.011,18.011,0,0,0,2.821,14.413,14.108,14.108,0,0,0,10.228,5.62l60.005,4.985Zm-41.524-108.3h1.223l60.005,4.985a13.426,13.426,0,0,1,9.781,5.384,17.282,17.282,0,0,1,2.728,13.943l-13.52,66.589c-2.022,9.946-10.957,17.423-19.916,16.718l-60.005-4.985a13.521,13.521,0,0,1-9.8-5.384,17.446,17.446,0,0,1-2.727-13.943l13.543-66.589C198.695,187.385,206.83,180.12,215.365,180.12Z" transform="translate(-28.963 -15.382)" fill="#263238"/>
      <path id="Tracé_12293" data-name="Tracé 12293" d="M249.478,276.349c7.665,0,15.048-6.49,16.765-14.978l11.545-56.807a15.659,15.659,0,0,0-2.469-12.556,12.3,12.3,0,0,0-8.958-4.938l-51.188-4.232c-8.041-.682-16.083,6.019-17.893,14.931l-11.545,56.807a15.66,15.66,0,0,0,2.493,12.556,12.3,12.3,0,0,0,8.958,4.938L248.42,276.3A8.7,8.7,0,0,0,249.478,276.349Zm-35.434-92.382a7.629,7.629,0,0,1,1.035,0l51.188,4.232a11.122,11.122,0,0,1,8.018,4.491,14.46,14.46,0,0,1,2.351,11.615l-11.545,56.807c-1.693,8.347-9.1,14.578-16.624,13.99L197.28,270.87a11.076,11.076,0,0,1-8.112-4.468,14.46,14.46,0,0,1-2.351-11.616l11.568-56.807C200.054,190.032,206.92,183.966,214.044,183.966Z" transform="translate(-24.608 -10.975)" fill="#263238"/>
      <path id="Tracé_12294" data-name="Tracé 12294" d="M239.642,260.285a14.577,14.577,0,0,0,13.379-11.9l8.911-43.922a12.509,12.509,0,0,0-1.975-10.04,9.92,9.92,0,0,0-7.242-3.974l-39.549-3.292c-6.419-.517-12.838,4.7-14.272,11.874l-8.935,43.922a12.509,12.509,0,0,0,2,10.04,9.876,9.876,0,0,0,7.219,3.974l39.572,3.292ZM212.249,188.9h.776l39.549,3.268a8.208,8.208,0,0,1,5.972,3.292,10.722,10.722,0,0,1,1.669,8.629l-8.935,43.922c-1.27,6.231-6.819,10.934-12.391,10.463l-39.572-3.268a8.206,8.206,0,0,1-5.949-3.292,10.722,10.722,0,0,1-1.669-8.629l8.911-43.922A12.767,12.767,0,0,1,212.249,188.9Z" transform="translate(-18.792 -5.117)" fill="#263238"/>
      <path id="Tracé_12295" data-name="Tracé 12295" d="M200.327,242.2l29.532,2.351a10.063,10.063,0,0,0,9.969-8.347l6.654-32.777c1.011-4.985-1.811-9.405-6.278-9.687l-29.556-2.351a10.063,10.063,0,0,0-9.946,8.347l-6.654,32.777C193.038,237.5,195.836,241.755,200.327,242.2Z" transform="translate(-13.101 0.647)" fill="#263238"/>
    </g>
    <g id="freepik--Character--inject-96" transform="translate(0 195.957)">
      <path id="Tracé_12296" data-name="Tracé 12296" d="M395.8,177.469C405.2,169.9,414.821,162.7,424.39,155.39L628.083,186.1l-16.2,75.594L480.516,387.675,525.5,528.047l-91.818,99.037c-19.633-20.033-41.688-38-61.416-57.795-91.7-92.1-88.62-267.531-5.667-364.1a224.33,224.33,0,0,1,29.2-27.722Z" transform="translate(-303.93 -155.39)" opacity="0.1"/>
      <path id="Tracé_12297" data-name="Tracé 12297" d="M220.247,235.128s107.972-25.088,114.038-26.288,31.037-8.653,36.892-8.418,26.8,3.057,30.8,5.2,2.657,4.091.541,3.809l-22.008-2.963-11.545,6.466s7.054,7.054,7.5,11.756c.988,11.756.729,14.508-1.881,14.108s-2.963-13.732-2.963-13.732l-1.975-1.34-1.834,9.9s-2.563,3.433-4-.447c-.988-2.7.988-9.029.988-9.029l-3.856-3.174s-.964,8.206-2.821,9.217-2.892,0-2.681-1.552,1.129-7.689,1.129-7.689l-6.819-4.138S240.021,262.991,228.594,264.66a65.482,65.482,0,0,1-23.278-1.5Z" transform="translate(151.473 -94.544)" fill="#fff"/>
      <path id="Tracé_12298" data-name="Tracé 12298" d="M222.289,266.946a51.533,51.533,0,0,0,7.289-.494c11.169-1.646,111.522-43.781,120.9-47.708l5.643,3.433c-.259,1.693-.846,5.69-1.011,6.913a2.8,2.8,0,0,0,1.105,2.775,3.128,3.128,0,0,0,3.292,0c1.693-.917,2.657-5.008,3.127-8.018l1.646,1.364c-.541,1.881-1.646,6.513-.729,9.005a3.542,3.542,0,0,0,2.563,2.586c1.81.282,3.292-1.622,3.456-1.834a1.577,1.577,0,0,0,.212-.494l1.5-8.018c.212,6.419,1.082,13.779,3.95,14.108a2.821,2.821,0,0,0,2.351-.682c1.576-1.5,1.576-4.985.753-14.743-.329-3.95-4.7-9.076-6.772-11.31l9.875-5.525L403.08,211.2a2.821,2.821,0,0,0,3.245-1.622c.259-.87.235-2.586-3.1-4.4-4.35-2.351-25.864-5.079-31.3-5.314-4.326-.188-18.293,3.5-28.451,6.207-3.786,1.011-7.054,1.858-8.747,2.351-6,1.317-112.862,26.147-114.038,26.405a1.152,1.152,0,0,0-.776.588l-14.931,27.91a1.174,1.174,0,0,0,0,1.011,1.1,1.1,0,0,0,.776.658A68.855,68.855,0,0,0,222.289,266.946Zm128.287-50.694a1.006,1.006,0,0,0-.447,0c-1.105.447-109.735,46.132-120.88,47.778A63.861,63.861,0,0,1,207.9,262.9l13.943-26.1c8.136-1.881,107.76-24.994,113.5-26.264,1.74-.376,4.891-1.223,8.841-2.351,9.405-2.516,23.748-6.3,27.769-6.137,5.831.259,26.546,3.033,30.285,5.055,1.552.823,1.928,1.481,1.951,1.623s-.141,0-.4,0H403.5l-22.032-2.939a1.129,1.129,0,0,0-.729.141L369.2,212.4a1.176,1.176,0,0,0-.588.87,1.2,1.2,0,0,0,.353.987c1.881,1.858,6.866,7.43,7.171,10.934.353,4.444.988,11.874,0,12.861a.892.892,0,0,1-.517,0c-.846-.611-1.81-6.537-1.952-12.6a1.246,1.246,0,0,0-.517-.941l-1.952-1.34a1.269,1.269,0,0,0-1.129-.117,1.246,1.246,0,0,0-.706.87l-1.787,9.593c-.376.423-.823.776-1.082.729s-.376-.235-.706-1.058a18.6,18.6,0,0,1,1.011-8.277,1.2,1.2,0,0,0-.376-1.246l-3.856-3.2a1.246,1.246,0,0,0-1.176-.188,1.2,1.2,0,0,0-.729.964c-.494,3.95-1.528,7.853-2.351,8.347a.87.87,0,0,1-.823,0,.579.579,0,0,1,0-.517c.212-1.575,1.129-7.642,1.129-7.642a1.129,1.129,0,0,0-.564-1.175l-6.819-4.162A1.128,1.128,0,0,0,350.575,216.253Z" transform="translate(150.654 -95.302)" fill="#263238"/>
      <path id="Tracé_12299" data-name="Tracé 12299" d="M429.224,243.439s7.336,11.757,5.431,12.6-9.547-8.394-9.547-8.394l3.763,11.757s.259,2.351-4.091-.541-3.315-10.534-3.315-10.534l-.47,12.391s2.939,4.562-1.129,4.021-4.585-10.11-4.209-13.026a22.833,22.833,0,0,1,4.82-9.405C422.688,239.607,428.519,240.383,429.224,243.439Z" transform="translate(-373.283 -40.17)" fill="#fff"/>
      <path id="Tracé_12300" data-name="Tracé 12300" d="M421.262,266.615a2.586,2.586,0,0,0,2.351-1.082c.893-1.434,0-3.48-.658-4.444v-2.351a7.166,7.166,0,0,0,1.857,1.811c2.351,1.622,3.927,2.046,5.008,1.387a2,2,0,0,0,.917-1.928l-2.116-6.631c5.173,5.432,6.677,4.7,7.242,4.444a1.694,1.694,0,0,0,.893-1.105c.682-2.351-3.715-9.8-5.76-13.026a5.221,5.221,0,0,0-4.162-3.315,6.749,6.749,0,0,0-6.584,1.881,23.822,23.822,0,0,0-5.055,10.017,26.582,26.582,0,0,0,.423,7.806c1.058,5.008,3.175,6.325,4.7,6.537A4.454,4.454,0,0,0,421.262,266.615Zm.352-2.351a3.1,3.1,0,0,1-.8,0c-1.176-.165-2.187-1.881-2.774-4.7a24.762,24.762,0,0,1-.4-7.054,22.2,22.2,0,0,1,4.561-8.865,4.4,4.4,0,0,1,4.256-1.058,3.056,3.056,0,0,1,2.351,1.787.822.822,0,0,0,.141.329,54.451,54.451,0,0,1,5.5,10.7,48.454,48.454,0,0,1-7.712-7.877,1.2,1.2,0,0,0-1.481-.282,1.176,1.176,0,0,0-.564,1.387l3.527,11.051a10.753,10.753,0,0,1-2.046-1.152,8.746,8.746,0,0,1-2.916-7.054V249a1.182,1.182,0,0,0-2.351-.188,18.756,18.756,0,0,0-.117,2.657l-.353,9.828a1.082,1.082,0,0,0,.188.705,4.417,4.417,0,0,1,.823,2.21Zm13.05-8.206ZM430.1,244.113Z" transform="translate(-374.021 -40.843)" fill="#263238"/>
      <path id="Tracé_12301" data-name="Tracé 12301" d="M480.718,200.26s-13.356,2.469-20.386,6.278-60.875,60.664-62.309,66.989a57.982,57.982,0,0,1-8.418,18.434c-2.869,3.786-12.086,15-12.7,19.657s1.246,8.465,3.456,5.22,7.383-10.887,11.357-13.92,16.153-5.549,16.153-5.549a60.354,60.354,0,0,0,.847,11.38c1.058,5.478,5.173,10.181,5.549,7.265a76.417,76.417,0,0,0,.87-15.283c-.47-5.408-.4-14.884-.4-14.884l-1.575-10.3s35.622-22.525,49.025-29.626,25.723-14.954,25.723-14.954l8.394-.658s-.4-14.86-5.526-20.88A49.783,49.783,0,0,0,480.718,200.26Z" transform="translate(-343.469 -94.757)" fill="#fff"/>
      <path id="Tracé_12302" data-name="Tracé 12302" d="M379.424,319.923a3.174,3.174,0,0,0,2.586-1.74c2.187-3.221,7.289-10.722,11.1-13.637,2.94-2.234,10.957-4.256,14.249-5.008a59.586,59.586,0,0,0,.894,10.134c.8,4.185,3.574,9.193,6.066,9.1a1.928,1.928,0,0,0,1.81-1.9A79.454,79.454,0,0,0,417,301.3c-.47-5.267-.4-14.672-.4-14.766l-1.482-9.711c4.914-3.1,36.093-22.69,48.319-29.18s23.654-13.685,25.535-14.837l8.112-.635a1.176,1.176,0,0,0,1.081-1.2c0-.611-.47-15.354-5.784-21.632a51.248,51.248,0,0,0-10.346-9.405,1.153,1.153,0,0,0-.847-.165c-.541,0-13.614,2.539-20.738,6.4s-61.3,60.687-62.9,67.764a57.706,57.706,0,0,1-8.182,17.987l-1.387,1.763c-5.314,6.819-11.028,14.414-11.568,18.458-.4,3.08.117,6.8,2.233,7.595a1.9,1.9,0,0,0,.776.188Zm29.133-23.043h-.235c-.517.117-12.508,2.61-16.647,5.784s-9.405,10.863-11.592,14.108c-.423.635-.682.729-.682.729a7.476,7.476,0,0,1-.635-5.1c.494-3.762,7.642-12.909,11.075-17.305l1.387-1.787a59.144,59.144,0,0,0,8.606-18.81c1.2-5.243,54.291-62.168,61.745-66.213a84.831,84.831,0,0,1,19.587-6.066,51.467,51.467,0,0,1,9.405,8.676c4.02,4.7,4.985,15.542,5.2,19.045l-7.265.588a1.127,1.127,0,0,0-.541.165c-.117,0-12.438,7.9-25.629,14.907s-48.766,29.438-49.119,29.673a1.152,1.152,0,0,0-.54,1.176l1.6,10.275c0,.212,0,9.405.376,14.813a74.323,74.323,0,0,1-.8,14.555,14.11,14.11,0,0,1-3.292-6.842,58.266,58.266,0,0,1-.823-11.122,1.223,1.223,0,0,0-.423-.94,1.1,1.1,0,0,0-.752-.306Z" transform="translate(-344.151 -95.445)" fill="#263238"/>
      <g id="Groupe_2563" data-name="Groupe 2563" transform="translate(33.321 105.502)" clip-path="url(#clip-path)">
        <path id="Tracé_12303" data-name="Tracé 12303" d="M383.4,273.526c1.434-6.325,55.279-63.179,62.31-66.989s20.386-6.278,20.386-6.278a49.791,49.791,0,0,1,10.063,9.17c5.126,6.019,5.526,20.88,5.526,20.88l-8.394.658s-1.6,1.035-4.232,2.633l-6.184-17.8s-59.887,44.91-65.836,50.153-12.415,14.39-17.212,20.2a32.9,32.9,0,0,1-3.033,3.174A60.113,60.113,0,0,0,383.4,273.526Z" transform="translate(-362.164 -200.26)" fill="#453ecc"/>
        <path id="Tracé_12304" data-name="Tracé 12304" d="M383.4,273.526c1.434-6.325,55.279-63.179,62.31-66.989s20.386-6.278,20.386-6.278a49.791,49.791,0,0,1,10.063,9.17c5.126,6.019,5.526,20.88,5.526,20.88l-8.394.658s-1.6,1.035-4.232,2.633l-6.184-17.8s-59.887,44.91-65.836,50.153-12.415,14.39-17.212,20.2a32.9,32.9,0,0,1-3.033,3.174A60.113,60.113,0,0,0,383.4,273.526Z" transform="translate(-362.164 -200.26)" fill="#fff" opacity="0.5"/>
      </g>
      <path id="Tracé_12307" data-name="Tracé 12307" d="M465.494,282.3l-2.352,29.932s11.122,98.754-11.075,127.229-93.84,103.1-93.84,103.1l-11.263-13.379s39.972-77.592,47.426-88.55,19.586-39.972,19.586-39.972S389.194,297.7,387.455,288.574s-.823-33.906-.494-36.234,28.1,11.451,44.533,17.212S465.494,282.3,465.494,282.3Z" transform="translate(-242.964 -24.735)" fill="#263238"/>
      <path id="Tracé_12308" data-name="Tracé 12308" d="M358.737,544.461a1.129,1.129,0,0,0,.846-.376c.729-.729,71.949-75.007,93.934-103.175s11.756-124.031,11.309-128.075l2.351-29.744a1.222,1.222,0,0,0-.729-1.175c-.188,0-17.658-7.054-33.929-12.838-6.913-2.351-15.989-6.325-23.96-9.782-15.754-6.772-19.915-8.394-21.444-7.548a1.741,1.741,0,0,0-.705,1.058c-.305,2.351-1.293,27.2.494,36.609,1.693,8.888,24.571,103.927,26.475,111.758-1.411,3.362-12.532,29.509-19.328,39.525-7.36,10.815-45.874,85.493-47.5,88.667a1.176,1.176,0,0,0,.141,1.293l11.263,13.379a1.2,1.2,0,0,0,.87.423ZM464.545,283.773l-2.163,29.109c.117,1.2,10.816,98.754-10.816,126.57-20.55,26.358-84.482,93.323-92.853,102.07l-9.923-11.756c4.021-7.783,40.09-77.593,47.026-87.75,7.384-10.84,19.211-39.079,19.7-40.278a1.291,1.291,0,0,0,0-.729c-.259-1.035-24.806-103.034-26.522-112.016-1.6-8.347-.917-30.19-.564-35.058a175.061,175.061,0,0,1,18.951,7.524c8.018,3.456,17.118,7.383,24.124,9.828,14.343,4.985,29.532,11.051,33.13,12.485Z" transform="translate(-243.355 -25.459)" fill="#263238"/>
      <path id="Tracé_12309" data-name="Tracé 12309" d="M433.358,294.463s7.736,8.747,5.667,10.84l-2.046,2.093S480.384,364.2,486.1,379.2,503,430.086,502.768,431.849s-7.571,7.877-12.321,7.83S339.071,449.7,339.071,449.7l-3.363-14.672,106.514-33.811s-64.026-93.37-67.012-102.07.823-37.245,1.364-41.336,6.066-9.852,10.722-9.241,44.675,29.109,44.675,29.109" transform="translate(-253.339 -29.542)" fill="#263238"/>
      <path id="Tracé_12310" data-name="Tracé 12310" d="M339.751,451.461h0c1.458,0,146.086-10.017,151.259-10.017h0c5.032,0,13.1-6.207,13.449-8.864s-11.756-39.714-16.765-53.21c-5.385-14.108-43.123-64-48.648-71.291l1.34-1.364c2.351-2.493-2.469-8.864-5.62-12.438a1.176,1.176,0,0,0-1.67,0,1.129,1.129,0,0,0,0,1.646c3.386,3.832,6.161,8.347,5.69,9.264l-2.046,2.069a1.2,1.2,0,0,0,0,1.552c.423.564,43.382,56.831,48.954,71.5,5.784,15.236,16.459,49.73,16.6,52.152-.376,1.223-7.054,6.725-11.074,6.725h0c-5.1,0-136.493,9.005-150.483,9.946l-2.892-12.65,105.479-33.459a1.2,1.2,0,0,0,.753-.753,1.082,1.082,0,0,0-.141-1.035c-22.1-32.26-64.543-95.016-66.871-101.788-2.68-7.853.423-33.2,1.434-40.795a10.628,10.628,0,0,1,3.456-5.667,7.806,7.806,0,0,1,5.949-2.563c3.174.423,28.8,17.94,44.2,28.9a1.176,1.176,0,0,0,1.646-.282,1.152,1.152,0,0,0-.282-1.622c-4.115-2.939-40.442-28.686-45.262-29.321a10.134,10.134,0,0,0-7.854,3.151,13.027,13.027,0,0,0-4.185,7.054c-1.317,9.875-4.115,33.741-1.317,41.853s58.171,89.349,66.26,101.106L336.106,434.578a1.175,1.175,0,0,0-.8,1.387l3.386,14.672a1.152,1.152,0,0,0,1.058.823Z" transform="translate(-254.019 -30.132)" fill="#263238"/>
      <path id="Tracé_12311" data-name="Tracé 12311" d="M415.03,341.581a1.082,1.082,0,0,0,.635-.212,1.176,1.176,0,0,0,.329-1.622l-37.409-55.679c-.705-1.717-7.995-17.964-30.355-22.408a1.176,1.176,0,0,0-1.364.941,1.128,1.128,0,0,0,.917,1.364c21.867,4.35,28.592,20.926,28.662,21.161l.118.235,37.479,55.773a1.2,1.2,0,0,0,.988.446Z" transform="translate(-192.923 -11.812)" fill="#fff"/>
      <path id="Tracé_12312" data-name="Tracé 12312" d="M411.589,276.919a1.167,1.167,0,0,0,.706-2.116c-1.223-.893-29.885-21.7-46.744-18.011a1.175,1.175,0,0,0-.894,1.411,1.152,1.152,0,0,0,1.387.893c15.8-3.456,44.674,17.4,44.863,17.588A1.079,1.079,0,0,0,411.589,276.919Z" transform="translate(-231.335 -18.958)" fill="#fff"/>
      <path id="Tracé_12313" data-name="Tracé 12313" d="M399.505,355.443a1.221,1.221,0,0,0,.776-.282,1.2,1.2,0,0,0,.118-1.669l-47.99-56.055a1.176,1.176,0,1,0-1.787,1.528l47.99,56.055A1.15,1.15,0,0,0,399.505,355.443Z" transform="translate(-185.651 36.001)" fill="#fff"/>
      <path id="Tracé_12314" data-name="Tracé 12314" d="M359.339,318.69h.282l15.636-3.739a1.176,1.176,0,0,0,.87-1.411,1.153,1.153,0,0,0-1.411-.87l-15.636,3.739a1.183,1.183,0,1,0,.259,2.351Z" transform="translate(-179.203 57.094)" fill="#fff"/>
      <path id="Tracé_12315" data-name="Tracé 12315" d="M458.538,220.541c31.743,10.111,30.167,9.9,30.167,9.9l46.086,6.7-20.48,40.513-53.562,6.184s-52.528,49.565-62.38,51.47-15.683,13.379-15.683,13.379,3.879,6.913-1.317,9.97-12.768,3.621-28.756-.635-38.773-17.47-49.377-25.864-25.864-18.387-21.02-22.549a50.455,50.455,0,0,1,14.3-7.171l49-51.094-40.443,3.127s.447-23.513-.141-30.966-10.275-19-10.275-19,51.728-3.762,66.471-6.066,29.038-1.458,35.034,1.481,33.318,10.322,34.893,10.534S458.538,220.541,458.538,220.541Z" transform="translate(-157.404 -99.003)" fill="#fff"/>
      <path id="Tracé_12316" data-name="Tracé 12316" d="M371.434,362.951a21.161,21.161,0,0,0,10.934-2.586c4.7-2.681,3.48-8.041,2.069-10.957,1.246-2.21,6.56-10.722,14.554-12.25,9.805-1.881,58.077-47.144,62.709-51.494l53.915-6.207,21.373-42.535-47.708-6.913h0c-2.351-1.129-9.405-3.362-29.908-9.922-4.42-1.693-26.1-9.923-27.722-10.134s-28.827-7.642-34.541-10.44c-6.537-3.2-21.162-3.856-35.716-1.575s-65.836,6.019-66.377,6.043l-2.351.165,1.481,1.764s9.405,11.239,10.017,18.34.118,30.567.118,30.849v1.293L342.96,253.4l-46.673,48.672a49.543,49.543,0,0,0-14.437,7.289,3.6,3.6,0,0,0-1.317,2.939c.141,4.515,8.323,10.722,16.976,17.306,1.857,1.387,3.691,2.774,5.408,4.138,10.251,8.065,33.271,21.608,49.824,26.029A75.236,75.236,0,0,0,371.434,362.951ZM514.088,277.27l-53.445,6.16-.282.259c-14.531,13.731-54.08,49.659-61.815,51.141-10.3,1.975-16.247,13.52-16.459,14.108l-.282.564.306.541c.117.258,3.245,5.972-.894,8.394s-10.251,3.927-27.863-.776C337.129,353.334,314.486,340,304.4,332.055c-1.74-1.364-3.574-2.751-5.431-4.162-7.054-5.408-15.966-12.109-16.059-15.5a1.245,1.245,0,0,1,.517-1.082,49.51,49.51,0,0,1,13.9-7.054h.282l.212-.212,51.117-53.328-42.323,3.268c0-5.055.353-23.207-.165-29.791-.47-6.113-6.348-14.32-9.123-17.894,10.087-.752,51.494-3.9,64.331-5.9,13.85-2.187,28.216-1.6,34.329,1.364s33.459,10.416,35.27,10.651c1.317.235,17.376,6.254,27.2,10.017h0c26.946,8.606,29.7,9.687,29.979,9.828l.494-1.058h0l-.165,1.176,44.463,6.442Z" transform="translate(-157.816 -99.723)" fill="#263238"/>
      <g id="Groupe_2564" data-name="Groupe 2564" transform="translate(123.886 98.116)" clip-path="url(#clip-path-2)">
        <path id="Tracé_12317" data-name="Tracé 12317" d="M390.511,198.451c14.719-2.351,29.038-1.458,35.034,1.481s33.318,10.322,34.893,10.534a23.185,23.185,0,0,1,3.057.987l-5.314,15.166L443.6,222.293s-29.956-6.631-43.335-6.631-65.131,4.515-65.131,4.515l-1.623-.376a61.644,61.644,0,0,0-9.405-15.166S375.792,200.755,390.511,198.451Z" transform="translate(-310.677 -197.13)" fill="#453ecc"/>
        <path id="Tracé_12318" data-name="Tracé 12318" d="M390.511,198.451c14.719-2.351,29.038-1.458,35.034,1.481s33.318,10.322,34.893,10.534a23.185,23.185,0,0,1,3.057.987l-5.314,15.166L443.6,222.293s-29.956-6.631-43.335-6.631-65.131,4.515-65.131,4.515l-1.623-.376a61.644,61.644,0,0,0-9.405-15.166S375.792,200.755,390.511,198.451Z" transform="translate(-310.677 -197.13)" fill="#fff" opacity="0.5"/>
        <path id="Tracé_12319" data-name="Tracé 12319" d="M333.482,279.228a50.451,50.451,0,0,1,14.3-7.171l46.156-48.319,12.226-4.068,43.123,7.054-75.618,28.827c1.364.282,4.35.964,10.557,2.516,15.683,3.927,64.261,0,64.261,0S411.662,272.95,392.852,280s-25.864,5.5-14.907,10.98,24.312,8.629,61.134,5.479c9.616-.8,18.5-1.528,26.428-2.116-7.242,5.761-13.238,9.922-15.965,10.463-9.875,1.881-15.683,13.379-15.683,13.379s3.88,6.913-1.317,9.969-12.768,3.621-28.756-.635-38.773-17.47-49.377-25.864S328.661,283.3,333.482,279.228Z" transform="translate(-332.557 -166.644)" fill="#453ecc"/>
        <path id="Tracé_12320" data-name="Tracé 12320" d="M333.482,279.228a50.451,50.451,0,0,1,14.3-7.171l46.156-48.319,12.226-4.068,43.123,7.054-75.618,28.827c1.364.282,4.35.964,10.557,2.516,15.683,3.927,64.261,0,64.261,0S411.662,272.95,392.852,280s-25.864,5.5-14.907,10.98,24.312,8.629,61.134,5.479c9.616-.8,18.5-1.528,26.428-2.116-7.242,5.761-13.238,9.922-15.965,10.463-9.875,1.881-15.683,13.379-15.683,13.379s3.88,6.913-1.317,9.969-12.768,3.621-28.756-.635-38.773-17.47-49.377-25.864S328.661,283.3,333.482,279.228Z" transform="translate(-332.557 -166.644)" fill="#fff" opacity="0.5"/>
      </g>
      <path id="Tracé_12323" data-name="Tracé 12323" d="M352.252,222.91,332.666,250.35l-5.126-4.656,14.3-17.541" transform="translate(-83.613 -64.15)" fill="#fff"/>
      <path id="Tracé_12324" data-name="Tracé 12324" d="M333.324,252.2h.118a1.106,1.106,0,0,0,.847-.494l19.586-27.44a1.176,1.176,0,0,0-.282-1.646,1.223,1.223,0,0,0-1.646.282l-18.811,26.358-3.315-3.01,13.567-16.671a1.177,1.177,0,1,0-1.811-1.5L327.3,245.635a1.152,1.152,0,0,0,.118,1.6l5.1,4.7A1.177,1.177,0,0,0,333.324,252.2Z" transform="translate(-84.271 -64.82)" fill="#263238"/>
      <path id="Tracé_12325" data-name="Tracé 12325" d="M295.266,251.08a1.128,1.128,0,0,0,.611-.164L339,224.652a1.176,1.176,0,1,0-1.223-2l-33.624,20.409,19.962-18.811a1.181,1.181,0,0,0-1.623-1.717l-28.215,26.5a1.152,1.152,0,0,0-.118,1.575A1.1,1.1,0,0,0,295.266,251.08Z" transform="translate(8.078 -65.093)" fill="#263238"/>
      <path id="Tracé_12326" data-name="Tracé 12326" d="M347.593,225.664h.211l34.941-6.3a1.195,1.195,0,1,0-.423-2.351l-34.94,6.3a1.176,1.176,0,0,0-.941,1.364,1.2,1.2,0,0,0,1.152.988Z" transform="translate(-159.486 -72.148)" fill="#263238"/>
      <path id="Tracé_12327" data-name="Tracé 12327" d="M381.317,223.5a1.176,1.176,0,0,0,0-2.351l-35.27-1.6a1.152,1.152,0,0,0-1.246,1.105,1.176,1.176,0,0,0,1.129,1.223l35.152,1.622Z" transform="translate(-154.436 -68.693)" fill="#263238"/>
      <path id="Tracé_12328" data-name="Tracé 12328" d="M380.2,242.011c-1.74-.141-3.48-.306-5.2-.541" transform="translate(-223.15 -39.07)" fill="#fff"/>
      <path id="Tracé_12329" data-name="Tracé 12329" d="M380.976,243.882a1.176,1.176,0,0,0,0-2.351c-1.716-.141-3.433-.329-5.125-.564a1.2,1.2,0,0,0-1.341,1.011,1.176,1.176,0,0,0,1.011,1.317c1.74.235,3.5.423,5.267.564Z" transform="translate(-223.929 -39.765)" fill="#263238"/>
      <path id="Tracé_12330" data-name="Tracé 12330" d="M353.493,248.245a223.528,223.528,0,0,0,54.927-7.924,1.176,1.176,0,0,0,.8-1.458,1.2,1.2,0,0,0-1.458-.8c-.306,0-30.873,9.006-59.558,7.83a1.152,1.152,0,0,0-1.222,1.128,1.175,1.175,0,0,0,1.128,1.223C349.9,248.222,351.706,248.245,353.493,248.245Z" transform="translate(-186.337 -43.73)" fill="#263238"/>
      <path id="Tracé_12331" data-name="Tracé 12331" d="M366.037,224.484a254.85,254.85,0,0,0-6.725,26.311c-1.034,7.877,2.774,15.33-1.881,14.108s-4.468-14.46-4.468-14.46l-17.023,3.6-7.547-15.424s-13.967,12.532-13.638,6.184,14.649-33.647,15.424-40.066,8.535-7.924,13.8-3.48S366.037,224.484,366.037,224.484Z" transform="translate(-67.325 -96.856)" fill="#fff"/>
      <path id="Tracé_12332" data-name="Tracé 12332" d="M358.841,266.877a2.352,2.352,0,0,0,1.716-.588c1.293-1.129,1.058-3.315.705-6.349a34.6,34.6,0,0,1-.212-8.347,258.392,258.392,0,0,1,6.678-26.147l.188-.635-.423-.494c-.705-.752-16.836-18.81-22.126-23.325a10.91,10.91,0,0,0-10.722-2.187,7.806,7.806,0,0,0-5.008,6.419c-.376,2.774-3.809,10.581-7.054,18.1-4.209,9.523-8.183,18.481-8.347,22.079a2.61,2.61,0,0,0,1.34,2.8c2.822,1.317,9.406-3.833,13.073-7.054l7.289,14.86,16.46-3.5c0,4,.8,13.05,5.361,14.108A4.93,4.93,0,0,0,358.841,266.877Zm.164-2.351a1.408,1.408,0,0,1-.729,0c-2.587-.635-3.645-8.182-3.574-13.332v-1.458l-17.588,3.715-7.83-16.012-1.152,1.058c-5.032,4.514-10.44,8.065-11.757,7.665V245.6c.165-3.151,4.421-12.767,8.159-21.162,3.574-8.041,7.054-15.636,7.336-18.81a5.408,5.408,0,0,1,3.527-4.515,8.512,8.512,0,0,1,8.371,1.763c4.7,3.95,18.81,19.633,21.42,22.62a235.8,235.8,0,0,0-6.56,25.864,35.512,35.512,0,0,0,.211,8.912,11.563,11.563,0,0,1,0,4.326Z" transform="translate(-67.888 -97.489)" fill="#263238"/>
      <g id="Groupe_2565" data-name="Groupe 2565" transform="translate(247.426 101.851)" clip-path="url(#clip-path-3)">
        <path id="Tracé_12333" data-name="Tracé 12333" d="M329.155,204.711c.846-6.278,8.535-7.924,13.8-3.48a27.879,27.879,0,0,1,2.116,1.952l-7.453,21.162-14.39-4.279a92.011,92.011,0,0,0,5.925-15.354Z" transform="translate(-313.726 -198.685)" fill="#453ecc"/>
        <path id="Tracé_12334" data-name="Tracé 12334" d="M329.155,204.711c.846-6.278,8.535-7.924,13.8-3.48a27.879,27.879,0,0,1,2.116,1.952l-7.453,21.162-14.39-4.279a92.011,92.011,0,0,0,5.925-15.354Z" transform="translate(-313.726 -198.685)" fill="#fff" opacity="0.5"/>
      </g>
      <path id="Tracé_12337" data-name="Tracé 12337" d="M357.407,228.163a148.141,148.141,0,0,1-16.459,6.889c-6.114,1.857-36.469,37.292-35.411,29.438s3.01-38.585,5.032-45.78a195.37,195.37,0,0,1,8.065-20.268s-4.914-3.339,3.01-6.537,14.108,2.939,13.59,6.09-1.34,9.946.706,10.769S357.407,228.163,357.407,228.163Z" transform="translate(-36.969 -107.259)" fill="#fff"/>
      <path id="Tracé_12338" data-name="Tracé 12338" d="M306.566,267.494c2.351,0,6.654-3.95,18.316-15.495,6.8-6.748,14.508-14.39,16.93-15.119a145.892,145.892,0,0,0,16.459-7.054l1.505-.729-1.223-1.176c-4.585-4.4-19.7-18.81-21.8-19.657-.329-.235-1.011-1.646,0-9.405a7.053,7.053,0,0,0-3.245-5.925,11.756,11.756,0,0,0-11.944-1.434c-3.316,1.364-5.032,2.939-5.22,4.82a3.95,3.95,0,0,0,1.222,3.127,175.809,175.809,0,0,0-7.759,19.657c-1.364,4.867-2.68,19.892-3.738,31.978-.541,6.066-.988,11.31-1.34,13.943a2.176,2.176,0,0,0,.917,2.351A1.716,1.716,0,0,0,306.566,267.494Zm49.26-38.961a132.958,132.958,0,0,1-14.7,6.09c-2.774.847-8.606,6.49-17.893,15.683-5.667,5.62-13.238,13.12-15.988,14.578.352-2.774.8-7.83,1.316-13.59,1.035-11.992,2.351-26.9,3.645-31.554a192.075,192.075,0,0,1,7.994-20.1l.423-.917-.823-.564c-.283-.188-1.058-.894-.988-1.6s.517-1.552,3.762-2.869a9.4,9.4,0,0,1,9.64,1.105,5.1,5.1,0,0,1,2.351,3.739c-.893,6.725-.964,11.075,1.434,12.015C337.321,211.181,346.961,220.069,355.825,228.534Z" transform="translate(-37.433 -107.959)" fill="#263238"/>
      <g id="Groupe_2566" data-name="Groupe 2566" transform="translate(268.541 83.749)" clip-path="url(#clip-path-4)">
        <path id="Tracé_12339" data-name="Tracé 12339" d="M309.677,218.71a195.392,195.392,0,0,1,8.065-20.268s-4.914-3.339,3.01-6.537,14.108,2.939,13.59,6.09-1.34,9.946.705,10.769c1.34.517,10.322,8.888,16.224,14.46l.705,4.326-44.557,7.312A127.618,127.618,0,0,1,309.677,218.71Z" transform="translate(-304.571 -191.008)" fill="#453ecc"/>
        <path id="Tracé_12340" data-name="Tracé 12340" d="M309.677,218.71a195.392,195.392,0,0,1,8.065-20.268s-4.914-3.339,3.01-6.537,14.108,2.939,13.59,6.09-1.34,9.946.705,10.769c1.34.517,10.322,8.888,16.224,14.46l.705,4.326-44.557,7.312A127.618,127.618,0,0,1,309.677,218.71Z" transform="translate(-304.571 -191.008)" fill="#fff" opacity="0.5"/>
      </g>
      <path id="Tracé_12343" data-name="Tracé 12343" d="M358.625,199.044a50.928,50.928,0,0,0,16.835-6.3c6.49-4.467,4-13.873-2.915-18.011s-15.213-10.04-24.266-10.181-11.968,9.617-18.387,9.828-23.513-7.43-33.153.376-8.441,35.269-4.938,40.96S302.146,234.2,302.146,234.2s5.526-1.411,9.922-2.351,1.528-3.527,6.184-2.351,9.405,2.351,13.473-.87,5.173-6.772,7.689-9.64,7.054-9.193,6.325-11.427a46.368,46.368,0,0,1-1.034-8.159Z" transform="translate(-20.528 -143.013)" fill="#263238"/>
      <path id="Tracé_12344" data-name="Tracé 12344" d="M302.026,236.223l.894-.235s5.5-1.387,9.9-2.351a5.032,5.032,0,0,0,3.621-2.351l.211-.306a4.256,4.256,0,0,1,1.811.259c4.844,1.2,9.852,2.351,14.46-1.082a22.333,22.333,0,0,0,5.6-6.584,24.742,24.742,0,0,1,2.351-3.221s7.806-8.958,6.56-12.579a34.152,34.152,0,0,1-.917-6.631l12.862-.259a50.768,50.768,0,0,0,17.329-6.49,9.569,9.569,0,0,0,4.256-8.465,14.531,14.531,0,0,0-7.266-11.521l-2.774-1.693c-6.513-4-13.873-8.512-22.055-8.653-5.337-.117-8.818,3.057-11.757,5.808-2.352,2.116-4.209,3.927-6.678,4.021a38.463,38.463,0,0,1-7.454-1.176c-8.065-1.74-19.116-4.115-26.405,1.81-9.923,8.065-9.076,36.069-5.2,42.488,3.433,5.714,10.251,18.293,10.322,18.434Zm14.86-7.618a2.61,2.61,0,0,0-2.351,1.364c-.329.517-.635.988-2.163,1.34-3.339.752-7.336,1.74-9.076,2.187-1.575-2.892-7.054-12.791-9.946-17.705-3.41-5.667-4.021-32.377,4.7-39.478,6.419-5.2,16.835-2.963,24.43-1.317a40.387,40.387,0,0,0,8.018,1.223c3.339,0,5.808-2.351,8.206-4.7,2.727-2.563,5.572-5.2,9.969-5.2h.165c7.548,0,14.625,4.467,20.879,8.3l2.8,1.716a12.134,12.134,0,0,1,6.114,9.593,7.219,7.219,0,0,1-3.245,6.443,49.371,49.371,0,0,1-16.294,6.09l-15.048.282v1.223a43.483,43.483,0,0,0,1.1,8.465c.423,1.2-2.61,6.3-6.113,10.275a31.114,31.114,0,0,0-2.492,3.527,20.5,20.5,0,0,1-5.032,5.972c-3.715,2.822-7.947,1.763-12.462.658a9.409,9.409,0,0,0-2.163-.259Z" transform="translate(-20.925 -143.676)" fill="#263238"/>
      <path id="Tracé_12345" data-name="Tracé 12345" d="M310.257,190.732a1.153,1.153,0,0,0,.8-.329c9.405-9.076,32.918-11.286,33.177-11.31a1.2,1.2,0,0,0,1.081-1.293,1.222,1.222,0,0,0-1.293-1.058c-.987,0-24.524,2.351-34.587,11.968a1.152,1.152,0,0,0,0,1.646A1.128,1.128,0,0,0,310.257,190.732Z" transform="translate(-33.294 -126.541)" fill="#fff"/>
      <path id="Tracé_12346" data-name="Tracé 12346" d="M322.537,189.776a1.082,1.082,0,0,0,.776-.306,36.442,36.442,0,0,1,4.7-3.48,1.2,1.2,0,0,0-1.246-2.022,39.109,39.109,0,0,0-5.1,3.739,1.176,1.176,0,0,0,.776,2.069Z" transform="translate(-45.033 -116.909)" fill="#fff"/>
      <path id="Tracé_12347" data-name="Tracé 12347" d="M310.455,187.432a1.485,1.485,0,0,0,.447,0,78.327,78.327,0,0,1,20.715-4.891,1.175,1.175,0,0,0,1.1-1.246,1.152,1.152,0,0,0-1.27-1.082,78.76,78.76,0,0,0-21.42,5.032,1.195,1.195,0,1,0,.423,2.351Z" transform="translate(-20.607 -121.854)" fill="#fff"/>
      <path id="Tracé_12348" data-name="Tracé 12348" d="M320.67,183.751a1.128,1.128,0,0,0,.94-.494,22.526,22.526,0,0,1,6.325-5.291,1.176,1.176,0,0,0-1.2-2.022,23.285,23.285,0,0,0-7.054,5.972,1.153,1.153,0,0,0,.282,1.623,1.132,1.132,0,0,0,.706.212Z" transform="translate(-40.885 -127.837)" fill="#fff"/>
      <path id="Tracé_12349" data-name="Tracé 12349" d="M344.52,186.469a8.866,8.866,0,0,0,4.867-1.411,5.643,5.643,0,0,0,2.939-4.562c.258-4.7-5.808-9.711-6.513-10.252a1.176,1.176,0,0,0-1.646.188,1.223,1.223,0,0,0,.188,1.67c1.622,1.27,5.784,5.243,5.62,8.276a3.339,3.339,0,0,1-1.858,2.681c-3.033,1.9-6.019.94-10.957-.705a70.026,70.026,0,0,0-23.325-4.138,47.848,47.848,0,0,0-19.257,3.527,1.176,1.176,0,0,0-.611,1.528,1.2,1.2,0,0,0,1.552.635,44.958,44.958,0,0,1,18.293-3.339,67.53,67.53,0,0,1,22.619,4.021,26.777,26.777,0,0,0,8.089,1.881Z" transform="translate(-4.543 -135.658)" fill="#fff"/>
      <path id="Tracé_12350" data-name="Tracé 12350" d="M348.58,179.347s4.7,16.741,3.833,19.21a55.115,55.115,0,0,0-2.163,8.253l6.536,11s-1.1,4.138-3.268,4.373a31.625,31.625,0,0,0-7.383,3.292s-6.3,23.184-8.535,23.936-7.383,3.292-9.405,1.952-25.864-18.387-28.686-20.9-1.717-15.189-1.717-15.189-7.336-8.982-4.4-15,9.617-4.044,11.757.494a60.577,60.577,0,0,1,2.845,6.8s5.1,1.74,6.043-1.34l.94-3.057s8.935-6.819,9.147-8.394-2.94-18.011-2.94-18.011Z" transform="translate(-6.228 -126.513)" fill="#fff"/>
      <path id="Tracé_12351" data-name="Tracé 12351" d="M330.371,253.7a20.922,20.922,0,0,0,6.7-1.834l1.482-.588c1.858-.635,4.961-8.794,9.17-24.265a26.854,26.854,0,0,1,6.513-2.892c2.892-.329,4.115-4.7,4.256-5.243l.118-.47-6.56-11.075a53.512,53.512,0,0,1,2.046-7.595c1.011-2.633-2.657-15.942-3.809-19.939l-.235-.776L320.284,176.2l.306,1.528c1.27,6.631,3.009,16.459,2.915,17.658a59.18,59.18,0,0,1-8.676,7.595l-.306.235-1.058,3.433a1.152,1.152,0,0,1-.588.729,5.688,5.688,0,0,1-3.433,0c-.353-.94-1.176-3.033-2.657-6.3a8.346,8.346,0,0,0-7.265-4.961,7.266,7.266,0,0,0-6.537,4.42c-2.916,5.949,2.822,14.108,4.232,15.895-.235,2.986-.823,13.073,2.163,15.683s26.829,19.657,28.8,21.021A3.9,3.9,0,0,0,330.371,253.7Zm25.7-34.964c-.423,1.34-1.316,2.963-2.092,3.033a31.67,31.67,0,0,0-7.854,3.457l-.4.235-.142.47c-2.845,10.51-6.607,22.079-7.947,23.208a11.144,11.144,0,0,0-1.411.541c-1.834.705-5.643,2.21-6.724,1.481-1.952-1.317-25.865-18.387-28.568-20.832-1.67-1.458-1.787-9.17-1.317-14.108v-.47l-.306-.376s-6.842-8.488-4.256-13.755a4.7,4.7,0,0,1,4.4-3.1,6.043,6.043,0,0,1,5.149,3.574c2,4.42,2.774,6.654,2.8,6.678l.165.541.564.188a8.534,8.534,0,0,0,5.761,0,3.525,3.525,0,0,0,1.787-2.14l.823-2.7c6-4.7,9.1-7.618,9.288-8.959a166.9,166.9,0,0,0-2.657-16.835l25.065,2.351c2.14,7.595,4.115,16.318,3.644,17.682a57.685,57.685,0,0,0-2.351,8.465v.423Z" transform="translate(-6.806 -127.269)" fill="#263238"/>
      <g id="Groupe_2567" data-name="Groupe 2567" transform="translate(286.472 50.247)" clip-path="url(#clip-path-5)">
        <path id="Tracé_12352" data-name="Tracé 12352" d="M302.733,200.273c2.939-6,9.616-4.044,11.756.494a60.573,60.573,0,0,1,2.845,6.8s5.1,1.74,6.043-1.34l.941-3.057s8.935-6.819,9.146-8.394-2.939-18.011-2.939-18.011l8.112.776c3.621,9.123,6.748,19.116,4.891,22.855-3.738,7.477-7.5,11.216-7.5,16.459s-2.986,9.734-3.738,14.225c-.588,3.6,5.526,15.824,7.994,20.55a3.739,3.739,0,0,1-2.657-.259c-1.952-1.317-25.865-18.387-28.686-20.9s-1.716-15.189-1.716-15.189S299.794,206.292,302.733,200.273Z" transform="translate(-301.967 -176.76)" fill="#453ecc"/>
        <path id="Tracé_12353" data-name="Tracé 12353" d="M302.733,200.273c2.939-6,9.616-4.044,11.756.494a60.573,60.573,0,0,1,2.845,6.8s5.1,1.74,6.043-1.34l.941-3.057s8.935-6.819,9.146-8.394-2.939-18.011-2.939-18.011l8.112.776c3.621,9.123,6.748,19.116,4.891,22.855-3.738,7.477-7.5,11.216-7.5,16.459s-2.986,9.734-3.738,14.225c-.588,3.6,5.526,15.824,7.994,20.55a3.739,3.739,0,0,1-2.657-.259c-1.952-1.317-25.865-18.387-28.686-20.9s-1.716-15.189-1.716-15.189S299.794,206.292,302.733,200.273Z" transform="translate(-301.967 -176.76)" fill="#fff" opacity="0.5"/>
      </g>
      <path id="Tracé_12356" data-name="Tracé 12356" d="M226.762,203.42s9.922,5.6,13.92,7.736,9.828,2.351,7.9,4.7-12.6-1.669-12.6-1.669-12.274,0-16.976-.682a8.041,8.041,0,0,1-6.254-5.1" transform="translate(289.586 -90.487)" fill="#fff"/>
      <path id="Tracé_12357" data-name="Tracé 12357" d="M246.689,218.539a4.351,4.351,0,0,0,3.5-1.176,2.351,2.351,0,0,0,.541-2.187c-.423-1.434-2.351-2.022-4.7-2.751A28.02,28.02,0,0,1,241.8,210.8c-3.927-2.116-13.779-7.665-13.873-7.736a1.2,1.2,0,0,0-1.623.447,1.176,1.176,0,0,0,.447,1.6c.117,0,9.993,5.643,13.943,7.759a28.844,28.844,0,0,0,4.7,1.787,15.291,15.291,0,0,1,2.962,1.152h0c-.729.917-6.09,0-11.263-2.046a1.108,1.108,0,0,0-.4,0c-.141,0-12.25,0-16.859-.658a6.842,6.842,0,0,1-5.29-4.326,1.182,1.182,0,1,0-2.234.776,9.264,9.264,0,0,0,7.218,5.878c4.444.588,15.213.682,16.93.682A33.67,33.67,0,0,0,246.689,218.539Z" transform="translate(288.917 -91.169)" fill="#263238"/>
      <path id="Tracé_12358" data-name="Tracé 12358" d="M423.5,383.309,424.63,406l14.39,29.791c.94,1.9-.776,5.831-5.266,4.044s-13.99-10.769-19.352-15.048-13.426-14.836-18.293-18.458-10.322-11.451-10.087-13.214,26.217-23.184,26.217-23.184Z" transform="translate(-308.119 134.517)" fill="#453ecc"/>
      <path id="Tracé_12359" data-name="Tracé 12359" d="M436.555,442.127a4.444,4.444,0,0,0,4.209-6.184c-.87-1.81-13.026-26.993-14.3-29.579l-1.105-22.455a1.128,1.128,0,0,0-.259-.705l-11.263-13.355a1.2,1.2,0,0,0-1.669-.141c-26.335,21.726-26.57,23.372-26.64,23.936-.329,2.351,5.784,10.745,10.557,14.3a82.607,82.607,0,0,1,8.958,9.005,96,96,0,0,0,9.405,9.405c1.528,1.223,3.363,2.8,5.338,4.491,5.1,4.4,10.887,9.405,14.3,10.722A6.775,6.775,0,0,0,436.555,442.127Zm-13.52-57.7,1.1,22.29a.963.963,0,0,0,.118.447l14.39,29.814a2.116,2.116,0,0,1-.447,2.14c-.705.776-1.858.87-3.339.282-3.033-1.2-8.911-6.254-13.637-10.3-2-1.716-3.856-3.339-5.408-4.561a93.453,93.453,0,0,1-9.029-9.17,79.97,79.97,0,0,0-9.287-9.405,34.047,34.047,0,0,1-9.617-12.015c1.552-2.163,15.613-14.108,24.9-21.8Zm2.351,22.243ZM387.765,394.184Z" transform="translate(-308.805 133.846)" fill="#263238"/>
      <path id="Tracé_12360" data-name="Tracé 12360" d="M396.635,394.9c-4.844-3.621-10.322-11.451-10.087-13.214a14.738,14.738,0,0,1,3.057-3.292c3.527,3.88,10.581,11.639,16.858,18.411,7.054,7.665,25.347,24.947,32.1,31.3a4.044,4.044,0,0,1-4.279.306c-4.515-1.787-13.99-10.769-19.351-15.048S401.5,398.635,396.635,394.9Z" transform="translate(-308.646 145.949)" fill="#263238"/>
      <path id="Tracé_12361" data-name="Tracé 12361" d="M437.029,430.677a4.54,4.54,0,0,0,2.939-1.011,1.223,1.223,0,0,0,.447-.87,1.292,1.292,0,0,0-.376-.894c-7.312-6.889-25.041-23.7-32.025-31.225-6.278-6.725-13.261-14.413-16.859-18.411a1.13,1.13,0,0,0-.823-.376,1.176,1.176,0,0,0-.846.306c-3.08,2.869-3.362,3.456-3.433,4.021-.329,2.351,5.784,10.746,10.557,14.3a82.66,82.66,0,0,1,8.958,9.006,96.09,96.09,0,0,0,9.405,9.4c1.529,1.223,3.362,2.8,5.337,4.491,5.1,4.4,10.887,9.406,14.3,10.722A7.053,7.053,0,0,0,437.029,430.677Zm0-2.351a3.486,3.486,0,0,1-1.693-.377c-3.033-1.2-8.911-6.254-13.637-10.3-2-1.717-3.856-3.339-5.408-4.561a93.511,93.511,0,0,1-9.029-9.17,79.953,79.953,0,0,0-9.288-9.405,34.817,34.817,0,0,1-9.617-11.992,23.673,23.673,0,0,1,1.811-1.9c3.786,4.185,10.252,11.263,16.083,17.54,6.654,7.242,22.854,22.667,30.826,30.191ZM388.31,382.852Z" transform="translate(-309.326 145.273)" fill="#263238"/>
      <path id="Tracé_12362" data-name="Tracé 12362" d="M445.195,344.288l-12.509,13.755L413.052,398.18s-4.891,1.128-7.054-.353,1.528-51.376,2.539-58.947-.329-10.722,2.821-12.086,30.45,2.892,30.45,2.892Z" transform="translate(-359.463 75.865)" fill="#453ecc"/>
      <path id="Tracé_12363" data-name="Tracé 12363" d="M410.206,400.411a18.558,18.558,0,0,0,3.879-.447,1.152,1.152,0,0,0,.8-.635L434.4,359.358l12.3-13.567a1.153,1.153,0,0,0,.282-1.058l-3.386-14.7a1.128,1.128,0,0,0-.964-.893c-4.7-.705-27.792-4.232-31.084-2.8-2.822,1.223-2.916,3.527-3.033,7.054a44.611,44.611,0,0,1-.47,5.949c0,.564-5.478,57.748-2.046,60.1A7.478,7.478,0,0,0,410.206,400.411Zm2.822-2.634a10.483,10.483,0,0,1-5.432-.165c-1.387-4.279,1.67-48.977,2.869-57.959a58.538,58.538,0,0,0,.47-6.16c.165-3.6.306-4.42,1.623-4.985,1.74-.753,15.989.846,29.039,2.845l3.056,13.308-12.109,13.285-.189.282ZM407.667,397.777Z" transform="translate(-360.191 75.162)" fill="#263238"/>
      <path id="Tracé_12364" data-name="Tracé 12364" d="M424.23,326.785a11.885,11.885,0,0,1,3.715-.259c-1.552,13.873-5.479,48.79-6.466,56.22a90.115,90.115,0,0,0-.329,15.777,5.007,5.007,0,0,1-2.352-.705c-2.163-1.458,1.528-51.376,2.54-58.947S421.079,328.149,424.23,326.785Z" transform="translate(-372.31 75.804)" fill="#263238"/>
      <path id="Tracé_12365" data-name="Tracé 12365" d="M421.684,400.391a1.222,1.222,0,0,0,.823-.329,1.2,1.2,0,0,0,.353-.917,87.615,87.615,0,0,1,.329-15.542c.987-7.43,4.843-41.806,6.442-56.243a1.106,1.106,0,0,0-.259-.894,1.292,1.292,0,0,0-.87-.423,10.465,10.465,0,0,0-4.208.353h0c-2.822,1.223-2.916,3.527-3.033,7.054a44.647,44.647,0,0,1-.47,5.948c0,.564-5.479,57.748-2.046,60.1a6.35,6.35,0,0,0,2.821.893Zm5.432-72c-1.693,15.072-5.338,47.708-6.3,54.9a84.083,84.083,0,0,0-.423,14.437H420.2c-1.387-4.279,1.67-48.978,2.869-57.96a58.463,58.463,0,0,0,.47-6.16c.165-3.6.306-4.42,1.623-4.985h0A6.1,6.1,0,0,1,427.116,328.395Z" transform="translate(-372.797 75.112)" fill="#263238"/>
    </g>
    <g id="freepik--Stars--inject-96" transform="translate(73.011 0)">
      <path id="Tracé_12366" data-name="Tracé 12366" d="M99.426,274.037a1.176,1.176,0,0,0,1.176-1.176V252.006a1.2,1.2,0,0,0-1.176-1.176,1.176,1.176,0,0,0-1.176,1.176v20.856A1.176,1.176,0,0,0,99.426,274.037Z" transform="translate(634.155 169.535)" fill="#263238"/>
      <path id="Tracé_12367" data-name="Tracé 12367" d="M95,257.621h20.856a1.176,1.176,0,0,0,0-2.351H95a1.176,1.176,0,0,0-1.176,1.176A1.2,1.2,0,0,0,95,257.621Z" transform="translate(628.146 175.535)" fill="#263238"/>
      <path id="Tracé_12368" data-name="Tracé 12368" d="M346.575,163.927a1.176,1.176,0,0,0,1.176-1.176V141.9a1.176,1.176,0,0,0-2.351,0v20.856A1.175,1.175,0,0,0,346.575,163.927Z" transform="translate(-194.117 20.744)" fill="#263238"/>
      <path id="Tracé_12369" data-name="Tracé 12369" d="M342.145,147.5H363a1.176,1.176,0,0,0,0-2.351H342.145a1.2,1.2,0,0,0-1.175,1.176A1.176,1.176,0,0,0,342.145,147.5Z" transform="translate(-200.127 26.73)" fill="#263238"/>
      <path id="Tracé_12370" data-name="Tracé 12370" d="M332.526,395.337a1.2,1.2,0,0,0,1.176-1.176V373.306a1.176,1.176,0,1,0-2.351,0v20.856A1.176,1.176,0,0,0,332.526,395.337Z" transform="translate(-147.032 333.447)" fill="#263238"/>
      <path id="Tracé_12371" data-name="Tracé 12371" d="M328.1,378.941h20.856a1.176,1.176,0,1,0,0-2.351H328.1a1.176,1.176,0,1,0,0,2.351Z" transform="translate(-153.041 339.474)" fill="#263238"/>
      <path id="Tracé_12372" data-name="Tracé 12372" d="M220.576,95.257a1.176,1.176,0,0,0,1.176-1.176V73.226a1.176,1.176,0,1,0-2.351,0V94.082A1.176,1.176,0,0,0,220.576,95.257Z" transform="translate(228.146 -72.05)" fill="#263238"/>
      <path id="Tracé_12373" data-name="Tracé 12373" d="M216.145,78.841H237a1.176,1.176,0,0,0,0-2.351H216.145a1.175,1.175,0,0,0-1.176,1.176A1.2,1.2,0,0,0,216.145,78.841Z" transform="translate(222.136 -66.05)" fill="#263238"/>
      <path id="Tracé_12374" data-name="Tracé 12374" d="M74.576,339.257a1.176,1.176,0,0,0,1.176-1.176V317.226a1.176,1.176,0,1,0-2.351,0v20.856A1.176,1.176,0,0,0,74.576,339.257Z" transform="translate(717.435 257.666)" fill="#263238"/>
      <path id="Tracé_12375" data-name="Tracé 12375" d="M70.146,322.841H91a1.176,1.176,0,1,0,0-2.351H70.146a1.176,1.176,0,0,0-1.176,1.176,1.2,1.2,0,0,0,1.176,1.176Z" transform="translate(711.425 263.666)" fill="#263238"/>
      <path id="Tracé_12376" data-name="Tracé 12376" d="M345.181,138.241a18.411,18.411,0,1,0-18.411-18.411A18.411,18.411,0,0,0,345.181,138.241Zm0-34.47a16.059,16.059,0,1,1-16.059,16.059A16.059,16.059,0,0,1,345.181,103.771Z" transform="translate(-166.153 -32.362)" fill="#263238"/>
      <path id="Tracé_12377" data-name="Tracé 12377" d="M92.727,294.681A18.411,18.411,0,1,0,74.34,276.27,18.41,18.41,0,0,0,92.727,294.681Zm0-34.47A16.059,16.059,0,1,1,76.691,276.27a16.059,16.059,0,0,1,16.036-16.059Z" transform="translate(679.815 179.034)" fill="#263238"/>
      <path id="Tracé_12378" data-name="Tracé 12378" d="M376.5,192.285a5.1,5.1,0,1,0-5.079-5.1A5.1,5.1,0,0,0,376.5,192.285Zm0-7.853a2.751,2.751,0,1,1-2.727,2.751,2.751,2.751,0,0,1,2.727-2.751Z" transform="translate(-289.172 76.633)" fill="#263238"/>
      <path id="Tracé_12379" data-name="Tracé 12379" d="M319.839,395.115a5.1,5.1,0,1,0-5.079-5.079A5.1,5.1,0,0,0,319.839,395.115Zm0-7.83a2.751,2.751,0,1,1-2.728,2.751,2.751,2.751,0,0,1,2.728-2.751Z" transform="translate(-99.287 350.717)" fill="#263238"/>
      <path id="Tracé_12380" data-name="Tracé 12380" d="M411.479,301.485a5.1,5.1,0,1,0-5.079-5.1,5.1,5.1,0,0,0,5.079,5.1Zm0-7.83a2.751,2.751,0,1,1-2.728,2.727A2.75,2.75,0,0,1,411.479,293.655Z" transform="translate(-406.4 224.195)" fill="#263238"/>
      <path id="Tracé_12381" data-name="Tracé 12381" d="M319.2,277.065a5.1,5.1,0,1,0-5.1-5.1,5.1,5.1,0,0,0,5.1,5.1Zm0-7.83a2.751,2.751,0,1,1-2.751,2.727,2.751,2.751,0,0,1,2.751-2.727Z" transform="translate(-97.075 191.196)" fill="#263238"/>
      <path id="Tracé_12382" data-name="Tracé 12382" d="M203.152,95.125a5.1,5.1,0,1,0-5.1-5.1A5.1,5.1,0,0,0,203.152,95.125Zm0-7.83a2.751,2.751,0,1,1-2.751,2.728A2.751,2.751,0,0,1,203.152,87.295Z" transform="translate(291.843 -54.659)" fill="#263238"/>
    </g>
  </g>
</svg>
