<svg xmlns="http://www.w3.org/2000/svg" width="960" height="856.34" viewBox="0 0 960 856.34">
  <g id="Groupe_1" data-name="Groupe 1" transform="translate(929.134 5067.71)">
    <path id="Tracé_12705" data-name="Tracé 12705" d="M8.586,0H31.709A1.188,1.188,0,0,1,32.9,1.188V17.7a1.188,1.188,0,0,1-1.188,1.188H8.586A8.586,8.586,0,0,1,0,10.3V8.586A8.586,8.586,0,0,1,8.586,0Z" transform="matrix(0.573, -0.819, 0.819, 0.573, -828.431, -4485.409)" fill="#fff" stroke="#e6f3ff" stroke-miterlimit="10" stroke-width="2"/>
    <path id="Tracé_12706" data-name="Tracé 12706" d="M92.245,388.17a1.188,1.188,0,0,0-1.654.294l-5.971,8.528a62.892,62.892,0,0,0,7.331,6,63.593,63.593,0,0,0,8.143,4.834l5.971-8.531a1.185,1.185,0,0,0-.292-1.654Z" transform="translate(-900.837 -4899.848)" fill="#4e4e4e" stroke="#46505c" stroke-linecap="round" stroke-linejoin="round" stroke-width="4" opacity="0.18"/>
    <path id="Tracé_12707" data-name="Tracé 12707" d="M8.586,0H31.709A1.188,1.188,0,0,1,32.9,1.188V17.7a1.188,1.188,0,0,1-1.188,1.188H8.586A8.586,8.586,0,0,1,0,10.3V8.586A8.586,8.586,0,0,1,8.586,0Z" transform="matrix(0.573, -0.819, 0.819, 0.573, -828.431, -4485.409)" fill="none" stroke="#46505c" stroke-linecap="round" stroke-linejoin="round" stroke-width="4"/>
    <circle id="Ellipse_436" data-name="Ellipse 436" cx="1.741" cy="1.741" r="1.741" transform="translate(-808.399 -4560.343)" fill="#845b5b" opacity="0.33"/>
    <g id="Groupe_2844" data-name="Groupe 2844" transform="translate(-929.134 -5067.71)">
      <g id="Groupe_2838" data-name="Groupe 2838" transform="translate(0 0)" opacity="0.47">
        <path id="Tracé_12696" data-name="Tracé 12696" d="M758.647,297.65l176.878-47.4a38.875,38.875,0,0,0,27.488-47.613h0A38.875,38.875,0,0,0,915.4,175.153L636.7,249.826a38.875,38.875,0,0,1-47.613-27.49h0a38.875,38.875,0,0,1,27.486-47.609l126.861-34a38.875,38.875,0,0,0,27.493-47.613h0a38.875,38.875,0,0,0-47.613-27.488L78.857,238.3a38.874,38.874,0,0,0-27.49,47.611h0a38.875,38.875,0,0,0,47.616,27.5l100.345-26.887a38.877,38.877,0,0,1,47.613,27.49h0a38.874,38.874,0,0,1-27.49,47.611L47.69,407.644A38.877,38.877,0,0,0,20.2,455.257h0a38.875,38.875,0,0,0,47.613,27.49L175,454.024a38.877,38.877,0,0,1,47.613,27.49h0a38.874,38.874,0,0,1-27.49,47.611l-7.606,2.038A38.875,38.875,0,0,0,160.038,578.8h0a38.875,38.875,0,0,0,47.613,27.492l7.212-1.932a38.874,38.874,0,0,1,47.611,27.49h0a38.874,38.874,0,0,1-27.488,47.613l-106.8,28.615A38.875,38.875,0,0,0,100.7,755.688h0a38.875,38.875,0,0,0,47.613,27.488l195.144-52.289a38.875,38.875,0,0,1,47.613,27.49h0a38.875,38.875,0,0,1-27.493,47.614L332.3,814.37a38.877,38.877,0,0,0-27.488,47.613h0a38.874,38.874,0,0,0,47.613,27.488L849.317,756.33a38.876,38.876,0,0,0,27.488-47.613h0a38.875,38.875,0,0,0-47.613-27.49l-14.617,3.917a38.875,38.875,0,0,1-47.613-27.481h0a38.875,38.875,0,0,1,27.495-47.611l96.117-25.759a38.875,38.875,0,0,0,27.49-47.613h0a38.876,38.876,0,0,0-47.613-27.49L734.163,545.7a38.875,38.875,0,0,1-47.613-27.49h0a38.877,38.877,0,0,1,27.492-47.6l96.5-25.857a38.873,38.873,0,0,0,27.488-47.613h0a38.873,38.873,0,0,0-47.613-27.505l-11.645,3.12a38.875,38.875,0,0,1-47.613-27.488h0a38.875,38.875,0,0,1,27.486-47.618Z" transform="translate(-18.866 -64.29)" fill="#76d1ff"/>
        <rect id="Rectangle_2396" data-name="Rectangle 2396" width="88.341" height="77.757" rx="22.638" transform="matrix(0.966, -0.259, 0.259, 0.966, 854.544, 283.112)" fill="#76d1ff"/>
      </g>
      <g id="Groupe_2839" data-name="Groupe 2839" transform="translate(273.188 339.253)" opacity="0.33">
        <rect id="Rectangle_2397" data-name="Rectangle 2397" width="446.487" height="78.098" rx="14" transform="translate(0 0)" fill="#4e4e4e" stroke="#000" stroke-linecap="round" stroke-linejoin="round" stroke-width="1"/>
        <rect id="Rectangle_2398" data-name="Rectangle 2398" width="446.487" height="78.098" rx="14" transform="translate(0 0)" fill="#4e4e4e"/>
        <path id="Tracé_12697" data-name="Tracé 12697" d="M201.991,261.845h398.4a24.042,24.042,0,0,1,24.042,24.042v35.1a14.681,14.681,0,0,1-14.681,14.681H192.632a14.681,14.681,0,0,1-14.681-14.681v-35.1a24.042,24.042,0,0,1,24.042-24.042Z" transform="translate(-177.949 -261.845)" fill="#4e4e4e" opacity="0.17"/>
        <rect id="Rectangle_2399" data-name="Rectangle 2399" width="446.487" height="78.098" rx="14" transform="translate(0 0)" fill="#4e4e4e" stroke="#46505c" stroke-linecap="round" stroke-linejoin="round" stroke-width="4"/>
        <rect id="Rectangle_2400" data-name="Rectangle 2400" width="60.003" height="384.666" transform="translate(415.577 8.799) rotate(90)" fill="#4e4e4e"/>
        <rect id="Rectangle_2401" data-name="Rectangle 2401" width="60.003" height="384.666" transform="translate(415.577 8.799) rotate(90)" fill="#4e4e4e" stroke="#46505c" stroke-linecap="round" stroke-linejoin="round" stroke-width="1"/>
        <rect id="Rectangle_2402" data-name="Rectangle 2402" width="446.487" height="295.369" rx="14" transform="translate(0.002 78.098)" fill="#4e4e4e"/>
        <rect id="Rectangle_2403" data-name="Rectangle 2403" width="281.63" height="432.749" rx="10" transform="translate(439.62 84.967) rotate(90)" fill="#4e4e4e" stroke="#e6f3ff" stroke-miterlimit="10" stroke-width="2"/>
        <path id="Tracé_12698" data-name="Tracé 12698" d="M294.769,471.5h55.124a6.869,6.869,0,0,1,6.869,6.869v6.56H287.9v-6.56A6.869,6.869,0,0,1,294.769,471.5Z" transform="translate(-99.087 -111.468)" fill="#4e4e4e"/>
        <rect id="Rectangle_2404" data-name="Rectangle 2404" width="446.487" height="295.369" rx="14" transform="translate(0.002 78.098)" fill="#4e4e4e" stroke="#46505c" stroke-linecap="round" stroke-linejoin="round" stroke-width="4"/>
        <rect id="Rectangle_2405" data-name="Rectangle 2405" width="394.97" height="157.988" rx="3" transform="translate(25.759 101.143)" fill="#4e4e4e"/>
        <rect id="Rectangle_2406" data-name="Rectangle 2406" width="24.042" height="24.042" rx="1" transform="translate(79.14 220.493)" fill="#4e4e4e" stroke="#626c84" stroke-linecap="round" stroke-linejoin="round" stroke-width="1"/>
        <rect id="Rectangle_2407" data-name="Rectangle 2407" width="24.042" height="24.042" rx="1" transform="translate(41.98 220.493)" fill="#4e4e4e" stroke="#626c84" stroke-linecap="round" stroke-linejoin="round" stroke-width="1"/>
        <rect id="Rectangle_2408" data-name="Rectangle 2408" width="172.677" height="24.042" rx="1" transform="translate(116.298 220.493)" fill="#4e4e4e" stroke="#626c84" stroke-linecap="round" stroke-linejoin="round" stroke-width="1"/>
        <rect id="Rectangle_2409" data-name="Rectangle 2409" width="24.042" height="24.042" rx="1" transform="translate(302.093 220.493)" fill="#4e4e4e" stroke="#626c84" stroke-linecap="round" stroke-linejoin="round" stroke-width="1"/>
        <rect id="Rectangle_2410" data-name="Rectangle 2410" width="17.173" height="10.518" rx="1" transform="translate(363.295 234.016)" fill="#4e4e4e" stroke="#626c84" stroke-linecap="round" stroke-linejoin="round" stroke-width="1"/>
        <rect id="Rectangle_2411" data-name="Rectangle 2411" width="17.173" height="10.518" rx="1" transform="translate(363.295 220.493)" fill="#4e4e4e" stroke="#626c84" stroke-linecap="round" stroke-linejoin="round" stroke-width="1"/>
        <rect id="Rectangle_2412" data-name="Rectangle 2412" width="17.173" height="10.518" rx="1" transform="translate(387.336 234.016)" fill="#4e4e4e" stroke="#626c84" stroke-linecap="round" stroke-linejoin="round" stroke-width="1"/>
        <rect id="Rectangle_2413" data-name="Rectangle 2413" width="17.173" height="10.518" rx="1" transform="translate(339.253 234.016)" fill="#4e4e4e" stroke="#626c84" stroke-linecap="round" stroke-linejoin="round" stroke-width="1"/>
        <rect id="Rectangle_2414" data-name="Rectangle 2414" width="57.767" height="24.042" rx="1" transform="translate(41.98 186.285)" fill="#4e4e4e" stroke="#626c84" stroke-linecap="round" stroke-linejoin="round" stroke-width="1"/>
        <rect id="Rectangle_2415" data-name="Rectangle 2415" width="24.042" height="24.042" rx="1" transform="translate(113.174 186.285)" fill="#4e4e4e" stroke="#626c84" stroke-linecap="round" stroke-linejoin="round" stroke-width="1"/>
        <rect id="Rectangle_2416" data-name="Rectangle 2416" width="24.042" height="24.042" rx="1" transform="translate(150.334 186.285)" fill="#4e4e4e" stroke="#626c84" stroke-linecap="round" stroke-linejoin="round" stroke-width="1"/>
        <rect id="Rectangle_2417" data-name="Rectangle 2417" width="24.042" height="24.042" rx="1" transform="translate(187.492 186.285)" fill="#4e4e4e" stroke="#626c84" stroke-linecap="round" stroke-linejoin="round" stroke-width="1"/>
        <rect id="Rectangle_2418" data-name="Rectangle 2418" width="24.042" height="24.042" rx="1" transform="translate(224.652 186.285)" fill="#4e4e4e" stroke="#626c84" stroke-linecap="round" stroke-linejoin="round" stroke-width="1"/>
        <rect id="Rectangle_2419" data-name="Rectangle 2419" width="24.042" height="24.042" rx="1" transform="translate(261.81 186.285)" fill="#4e4e4e" stroke="#626c84" stroke-linecap="round" stroke-linejoin="round" stroke-width="1"/>
        <rect id="Rectangle_2420" data-name="Rectangle 2420" width="24.042" height="24.042" rx="1" transform="translate(298.97 186.285)" fill="#4e4e4e" stroke="#626c84" stroke-linecap="round" stroke-linejoin="round" stroke-width="1"/>
        <rect id="Rectangle_2421" data-name="Rectangle 2421" width="65.256" height="24.042" rx="1" transform="translate(339.253 186.285)" fill="#4e4e4e" stroke="#626c84" stroke-linecap="round" stroke-linejoin="round" stroke-width="1"/>
        <rect id="Rectangle_2422" data-name="Rectangle 2422" width="24.042" height="24.042" rx="1" transform="translate(99.747 151.115)" fill="#4e4e4e" stroke="#626c84" stroke-linecap="round" stroke-linejoin="round" stroke-width="1"/>
        <rect id="Rectangle_2423" data-name="Rectangle 2423" width="44.649" height="24.042" rx="1" transform="translate(41.98 151.115)" fill="#4e4e4e" stroke="#626c84" stroke-linecap="round" stroke-linejoin="round" stroke-width="1"/>
        <rect id="Rectangle_2424" data-name="Rectangle 2424" width="24.042" height="24.042" rx="1" transform="translate(136.905 151.115)" fill="#4e4e4e" stroke="#626c84" stroke-linecap="round" stroke-linejoin="round" stroke-width="1"/>
        <rect id="Rectangle_2425" data-name="Rectangle 2425" width="24.042" height="24.042" rx="1" transform="translate(174.065 151.115)" fill="#4e4e4e" stroke="#626c84" stroke-linecap="round" stroke-linejoin="round" stroke-width="1"/>
        <rect id="Rectangle_2426" data-name="Rectangle 2426" width="24.042" height="24.042" rx="1" transform="translate(211.223 151.115)" fill="#4e4e4e" stroke="#626c84" stroke-linecap="round" stroke-linejoin="round" stroke-width="1"/>
        <rect id="Rectangle_2427" data-name="Rectangle 2427" width="24.042" height="24.042" rx="1" transform="translate(248.383 151.115)" fill="#4e4e4e" stroke="#626c84" stroke-linecap="round" stroke-linejoin="round" stroke-width="1"/>
        <rect id="Rectangle_2428" data-name="Rectangle 2428" width="24.042" height="24.042" rx="1" transform="translate(285.542 151.115)" fill="#4e4e4e" stroke="#626c84" stroke-linecap="round" stroke-linejoin="round" stroke-width="1"/>
        <rect id="Rectangle_2429" data-name="Rectangle 2429" width="24.042" height="24.042" rx="1" transform="translate(322.7 151.115)" fill="#4e4e4e" stroke="#626c84" stroke-linecap="round" stroke-linejoin="round" stroke-width="1"/>
        <rect id="Rectangle_2430" data-name="Rectangle 2430" width="44.649" height="24.042" rx="1" transform="translate(359.86 151.115)" fill="#4e4e4e" stroke="#626c84" stroke-linecap="round" stroke-linejoin="round" stroke-width="1"/>
        <rect id="Rectangle_2431" data-name="Rectangle 2431" width="24.042" height="24.042" rx="1" transform="translate(79.59 117.457)" fill="#4e4e4e" stroke="#626c84" stroke-linecap="round" stroke-linejoin="round" stroke-width="1"/>
        <rect id="Rectangle_2432" data-name="Rectangle 2432" width="24.042" height="24.042" rx="1" transform="translate(41.98 117.457)" fill="#4e4e4e" stroke="#626c84" stroke-linecap="round" stroke-linejoin="round" stroke-width="1"/>
        <rect id="Rectangle_2433" data-name="Rectangle 2433" width="24.042" height="24.042" rx="1" transform="translate(117.199 117.457)" fill="#4e4e4e" stroke="#626c84" stroke-linecap="round" stroke-linejoin="round" stroke-width="1"/>
        <rect id="Rectangle_2434" data-name="Rectangle 2434" width="24.042" height="24.042" rx="1" transform="translate(154.809 117.457)" fill="#4e4e4e" stroke="#626c84" stroke-linecap="round" stroke-linejoin="round" stroke-width="1"/>
        <rect id="Rectangle_2435" data-name="Rectangle 2435" width="24.042" height="24.042" rx="1" transform="translate(192.419 117.457)" fill="#4e4e4e" stroke="#626c84" stroke-linecap="round" stroke-linejoin="round" stroke-width="1"/>
        <rect id="Rectangle_2436" data-name="Rectangle 2436" width="24.042" height="24.042" rx="1" transform="translate(230.029 117.457)" fill="#4e4e4e" stroke="#626c84" stroke-linecap="round" stroke-linejoin="round" stroke-width="1"/>
        <rect id="Rectangle_2437" data-name="Rectangle 2437" width="24.042" height="24.042" rx="1" transform="translate(267.638 117.457)" fill="#4e4e4e" stroke="#626c84" stroke-linecap="round" stroke-linejoin="round" stroke-width="1"/>
        <rect id="Rectangle_2438" data-name="Rectangle 2438" width="24.042" height="24.042" rx="1" transform="translate(305.248 117.457)" fill="#4e4e4e" stroke="#626c84" stroke-linecap="round" stroke-linejoin="round" stroke-width="1"/>
        <rect id="Rectangle_2439" data-name="Rectangle 2439" width="24.042" height="24.042" rx="1" transform="translate(342.858 117.457)" fill="#4e4e4e" stroke="#626c84" stroke-linecap="round" stroke-linejoin="round" stroke-width="1"/>
        <rect id="Rectangle_2440" data-name="Rectangle 2440" width="24.042" height="24.042" rx="1" transform="translate(380.467 117.457)" fill="#4e4e4e" stroke="#626c84" stroke-linecap="round" stroke-linejoin="round" stroke-width="1"/>
        <rect id="Rectangle_2441" data-name="Rectangle 2441" width="24.042" height="24.042" rx="1" transform="translate(79.14 220.493)" fill="#4e4e4e"/>
        <rect id="Rectangle_2442" data-name="Rectangle 2442" width="24.042" height="24.042" rx="1" transform="translate(41.98 220.493)" fill="#4e4e4e"/>
        <rect id="Rectangle_2443" data-name="Rectangle 2443" width="172.677" height="24.042" rx="1" transform="translate(116.298 220.493)" fill="#4e4e4e"/>
        <rect id="Rectangle_2444" data-name="Rectangle 2444" width="24.042" height="24.042" rx="1" transform="translate(302.093 220.493)" fill="#4e4e4e"/>
        <rect id="Rectangle_2445" data-name="Rectangle 2445" width="17.173" height="10.518" rx="1" transform="translate(363.295 234.016)" fill="#4e4e4e"/>
        <rect id="Rectangle_2446" data-name="Rectangle 2446" width="17.173" height="10.518" rx="1" transform="translate(363.295 220.493)" fill="#4e4e4e"/>
        <rect id="Rectangle_2447" data-name="Rectangle 2447" width="17.173" height="10.518" rx="1" transform="translate(387.336 234.016)" fill="#4e4e4e"/>
        <rect id="Rectangle_2448" data-name="Rectangle 2448" width="17.173" height="10.518" rx="1" transform="translate(339.253 234.016)" fill="#4e4e4e"/>
        <rect id="Rectangle_2449" data-name="Rectangle 2449" width="57.767" height="24.042" rx="1" transform="translate(41.98 186.285)" fill="#4e4e4e"/>
        <rect id="Rectangle_2450" data-name="Rectangle 2450" width="24.042" height="24.042" rx="1" transform="translate(113.174 186.285)" fill="#4e4e4e"/>
        <rect id="Rectangle_2451" data-name="Rectangle 2451" width="24.042" height="24.042" rx="1" transform="translate(150.334 186.285)" fill="#4e4e4e"/>
        <rect id="Rectangle_2452" data-name="Rectangle 2452" width="24.042" height="24.042" rx="1" transform="translate(187.492 186.285)" fill="#4e4e4e"/>
        <rect id="Rectangle_2453" data-name="Rectangle 2453" width="24.042" height="24.042" rx="1" transform="translate(224.652 186.285)" fill="#4e4e4e"/>
        <rect id="Rectangle_2454" data-name="Rectangle 2454" width="24.042" height="24.042" rx="1" transform="translate(261.81 186.285)" fill="#4e4e4e"/>
        <rect id="Rectangle_2455" data-name="Rectangle 2455" width="24.042" height="24.042" rx="1" transform="translate(298.97 186.285)" fill="#4e4e4e"/>
        <rect id="Rectangle_2456" data-name="Rectangle 2456" width="65.256" height="24.042" rx="1" transform="translate(339.253 186.285)" fill="#4e4e4e"/>
        <rect id="Rectangle_2457" data-name="Rectangle 2457" width="24.042" height="24.042" rx="1" transform="translate(99.747 151.115)" fill="#4e4e4e"/>
        <rect id="Rectangle_2458" data-name="Rectangle 2458" width="44.649" height="24.042" rx="1" transform="translate(41.98 151.115)" fill="#4e4e4e"/>
        <rect id="Rectangle_2459" data-name="Rectangle 2459" width="24.042" height="24.042" rx="1" transform="translate(136.905 151.115)" fill="#4e4e4e"/>
        <rect id="Rectangle_2460" data-name="Rectangle 2460" width="24.042" height="24.042" rx="1" transform="translate(174.065 151.115)" fill="#4e4e4e"/>
        <rect id="Rectangle_2461" data-name="Rectangle 2461" width="24.042" height="24.042" rx="1" transform="translate(211.223 151.115)" fill="#4e4e4e"/>
        <rect id="Rectangle_2462" data-name="Rectangle 2462" width="24.042" height="24.042" rx="1" transform="translate(248.383 151.115)" fill="#4e4e4e"/>
        <rect id="Rectangle_2463" data-name="Rectangle 2463" width="24.042" height="24.042" rx="1" transform="translate(285.542 151.115)" fill="#4e4e4e"/>
        <rect id="Rectangle_2464" data-name="Rectangle 2464" width="24.042" height="24.042" rx="1" transform="translate(322.7 151.115)" fill="#4e4e4e"/>
        <rect id="Rectangle_2465" data-name="Rectangle 2465" width="44.649" height="24.042" rx="1" transform="translate(359.86 151.115)" fill="#4e4e4e"/>
        <rect id="Rectangle_2466" data-name="Rectangle 2466" width="24.042" height="24.042" rx="1" transform="translate(79.59 117.457)" fill="#4e4e4e"/>
        <rect id="Rectangle_2467" data-name="Rectangle 2467" width="24.042" height="24.042" rx="1" transform="translate(41.98 117.457)" fill="#4e4e4e"/>
        <rect id="Rectangle_2468" data-name="Rectangle 2468" width="24.042" height="24.042" rx="1" transform="translate(117.199 117.457)" fill="#4e4e4e"/>
        <rect id="Rectangle_2469" data-name="Rectangle 2469" width="24.042" height="24.042" rx="1" transform="translate(154.809 117.457)" fill="#4e4e4e"/>
        <rect id="Rectangle_2470" data-name="Rectangle 2470" width="24.042" height="24.042" rx="1" transform="translate(192.419 117.457)" fill="#4e4e4e"/>
        <rect id="Rectangle_2471" data-name="Rectangle 2471" width="24.042" height="24.042" rx="1" transform="translate(230.029 117.457)" fill="#4e4e4e"/>
        <rect id="Rectangle_2472" data-name="Rectangle 2472" width="24.042" height="24.042" rx="1" transform="translate(267.638 117.457)" fill="#4e4e4e"/>
        <rect id="Rectangle_2473" data-name="Rectangle 2473" width="24.042" height="24.042" rx="1" transform="translate(305.248 117.457)" fill="#4e4e4e"/>
        <rect id="Rectangle_2474" data-name="Rectangle 2474" width="24.042" height="24.042" rx="1" transform="translate(342.858 117.457)" fill="#4e4e4e"/>
        <rect id="Rectangle_2475" data-name="Rectangle 2475" width="24.042" height="24.042" rx="1" transform="translate(380.467 117.457)" fill="#4e4e4e"/>
        <path id="Tracé_12699" data-name="Tracé 12699" d="M222.95,298.339H514.884v23.09a6.869,6.869,0,0,1-6.869,6.869h-278.2a6.869,6.869,0,0,1-6.869-6.869v-23.09Z" transform="translate(-145.673 -235.669)" fill="#4e4e4e"/>
        <path id="Tracé_12700" data-name="Tracé 12700" d="M508.015,314.653h-278.2a6.869,6.869,0,0,1-6.869-6.869v6.869a6.869,6.869,0,0,0,6.869,6.869h278.2a6.869,6.869,0,0,0,6.869-6.869v-6.869A6.869,6.869,0,0,1,508.015,314.653Z" transform="translate(-145.673 -228.895)" fill="#4e4e4e" opacity="0.25"/>
        <path id="Tracé_12701" data-name="Tracé 12701" d="M222.95,298.339H514.884v23.09a6.869,6.869,0,0,1-6.869,6.869h-278.2a6.869,6.869,0,0,1-6.869-6.869v-23.09Z" transform="translate(-145.673 -235.669)" fill="#4e4e4e" stroke="#46505c" stroke-linecap="round" stroke-linejoin="round" stroke-width="2"/>
        <rect id="Rectangle_2476" data-name="Rectangle 2476" width="127.077" height="87.58" rx="2" transform="translate(159.707 267.717)" fill="#4e4e4e"/>
        <rect id="Rectangle_2477" data-name="Rectangle 2477" width="127.077" height="87.58" rx="2" transform="translate(159.707 267.717)" fill="#4e4e4e" stroke="#626c84" stroke-linecap="round" stroke-linejoin="round" stroke-width="1"/>
      </g>
      <g id="Groupe_2840" data-name="Groupe 2840" transform="translate(112.724 477.494)" opacity="0.33">
        <path id="Tracé_12702" data-name="Tracé 12702" d="M8.586,0H31.711A1.188,1.188,0,0,1,32.9,1.188V17.7a1.188,1.188,0,0,1-1.188,1.188H8.586A8.586,8.586,0,0,1,0,10.3V8.586A8.586,8.586,0,0,1,8.586,0Z" transform="translate(0.141 118.598) rotate(-55.022)" fill="#4e4e4e" stroke="#46505c" stroke-linecap="round" stroke-linejoin="round" stroke-width="4"/>
        <path id="Tracé_12703" data-name="Tracé 12703" d="M8.586,0H31.711A1.188,1.188,0,0,1,32.9,1.188V17.7a1.188,1.188,0,0,1-1.188,1.188H8.586A8.586,8.586,0,0,1,0,10.3V8.586A8.586,8.586,0,0,1,8.586,0Z" transform="translate(0.141 118.598) rotate(-55.022)" fill="#4e4e4e" stroke="#46505c" stroke-linecap="round" stroke-linejoin="round" stroke-width="4"/>
        <circle id="Ellipse_414" data-name="Ellipse 414" cx="55.941" cy="55.941" r="55.941" transform="translate(0 0)" fill="#4e4e4e" stroke="#46505c" stroke-linecap="round" stroke-linejoin="round" stroke-width="4"/>
        <circle id="Ellipse_415" data-name="Ellipse 415" cx="55.941" cy="55.941" r="55.941" transform="translate(0 0)" fill="#4e4e4e" stroke="#46505c" stroke-linecap="round" stroke-linejoin="round" stroke-width="4"/>
        <circle id="Ellipse_416" data-name="Ellipse 416" cx="43.541" cy="43.541" r="43.541" transform="translate(12.4 12.4)" fill="#4e4e4e" stroke="#46505c" stroke-linecap="round" stroke-linejoin="round" stroke-width="4"/>
        <circle id="Ellipse_417" data-name="Ellipse 417" cx="43.541" cy="43.541" r="43.541" transform="translate(12.4 12.4)" fill="#4e4e4e" stroke="#46505c" stroke-linecap="round" stroke-linejoin="round" stroke-width="4"/>
        <path id="Tracé_12704" data-name="Tracé 12704" d="M101.759,378.844c.582-1.312,1.212-2.6,1.855-3.857,2.919-5.722,6.411-11.653,11.983-15.158,4.731-2.978,11.348-4.144,16.475-1.509,4.448,2.284,7.128,6.981,11.186,9.9a73.393,73.393,0,0,0,8.507,4.473,12.776,12.776,0,0,1,6.548,6.733c1.374,4.2-.891,8.676-.914,13.092a13.018,13.018,0,0,0,1.952,6.9,6.712,6.712,0,0,1,1.5,3.4,4.465,4.465,0,0,1-2.945,3.537c-4.51,2.131-9.776,1.362-14.736.826s-10.451-.649-14.372,2.435a41.775,41.775,0,0,0-4.446,4.795,6.993,6.993,0,0,1-10.733,1.094,45.973,45.973,0,0,1-9.146-10.374,28.2,28.2,0,0,1-5.449-11.26C98.138,388.763,99.623,383.651,101.759,378.844Z" transform="translate(-74.282 -331.941)" fill="#4e4e4e" stroke="#46505c" stroke-linecap="round" stroke-linejoin="round" stroke-width="4" opacity="0.33"/>
        <circle id="Ellipse_418" data-name="Ellipse 418" cx="2.703" cy="2.703" r="2.703" transform="translate(62.045 83.498)" fill="#4e4e4e" stroke="#46505c" stroke-linecap="round" stroke-linejoin="round" stroke-width="4" opacity="0.33"/>
        <circle id="Ellipse_419" data-name="Ellipse 419" cx="1.872" cy="1.872" r="1.872" transform="translate(55.84 85.327)" fill="#4e4e4e" stroke="#46505c" stroke-linecap="round" stroke-linejoin="round" stroke-width="4" opacity="0.33"/>
        <circle id="Ellipse_420" data-name="Ellipse 420" cx="1.697" cy="1.697" r="1.697" transform="translate(69.437 81.991)" fill="#4e4e4e" stroke="#46505c" stroke-linecap="round" stroke-linejoin="round" stroke-width="4" opacity="0.33"/>
        <circle id="Ellipse_421" data-name="Ellipse 421" cx="1.216" cy="1.216" r="1.216" transform="translate(50.575 86.684)" fill="#4e4e4e" stroke="#46505c" stroke-linecap="round" stroke-linejoin="round" stroke-width="4" opacity="0.33"/>
        <circle id="Ellipse_422" data-name="Ellipse 422" cx="0.742" cy="0.742" r="0.742" transform="translate(75.752 81.152)" fill="#4e4e4e" stroke="#46505c" stroke-linecap="round" stroke-linejoin="round" stroke-width="4" opacity="0.33"/>
        <circle id="Ellipse_423" data-name="Ellipse 423" cx="1.741" cy="1.741" r="1.741" transform="translate(20.413 43.912)" fill="#4e4e4e" stroke="#46505c" stroke-linecap="round" stroke-linejoin="round" stroke-width="4" opacity="0.33"/>
        <circle id="Ellipse_424" data-name="Ellipse 424" cx="1.638" cy="1.638" r="1.638" transform="translate(67.921 23.755)" fill="#4e4e4e" stroke="#46505c" stroke-linecap="round" stroke-linejoin="round" stroke-width="4" opacity="0.33"/>
        <circle id="Ellipse_425" data-name="Ellipse 425" cx="1.484" cy="1.484" r="1.484" transform="translate(78.724 31.98)" fill="#4e4e4e" stroke="#46505c" stroke-linecap="round" stroke-linejoin="round" stroke-width="4" opacity="0.33"/>
        <circle id="Ellipse_426" data-name="Ellipse 426" cx="0.649" cy="0.649" r="0.649" transform="translate(80.776 37.019)" fill="#4e4e4e" stroke="#46505c" stroke-linecap="round" stroke-linejoin="round" stroke-width="4" opacity="0.33"/>
      </g>
      <circle id="Ellipse_427" data-name="Ellipse 427" cx="55.941" cy="55.941" r="55.941" transform="translate(100.322 463.454)" fill="#fff" stroke="#e6f3ff" stroke-miterlimit="10" stroke-width="2"/>
      <circle id="Ellipse_428" data-name="Ellipse 428" cx="55.941" cy="55.941" r="55.941" transform="translate(100.322 463.454)" fill="none" stroke="#46505c" stroke-linecap="round" stroke-linejoin="round" stroke-width="4"/>
      <circle id="Ellipse_429" data-name="Ellipse 429" cx="43.541" cy="43.541" r="43.541" transform="translate(112.722 475.854)" fill="#845b5b"/>
      <circle id="Ellipse_430" data-name="Ellipse 430" cx="43.541" cy="43.541" r="43.541" transform="translate(112.722 475.854)" fill="none" stroke="#46505c" stroke-linecap="round" stroke-linejoin="round" stroke-width="2"/>
      <path id="Tracé_12708" data-name="Tracé 12708" d="M94.538,370.667c.582-1.31,1.212-2.6,1.855-3.857,2.919-5.72,6.412-11.651,11.983-15.158,4.733-2.978,11.348-4.142,16.475-1.509,4.448,2.284,7.128,6.982,11.186,9.9a73.4,73.4,0,0,0,8.509,4.465,12.788,12.788,0,0,1,6.548,6.728c1.374,4.2-.891,8.677-.915,13.092a13.017,13.017,0,0,0,1.953,6.9,6.714,6.714,0,0,1,1.5,3.4,4.465,4.465,0,0,1-2.945,3.539c-4.511,2.129-9.778,1.362-14.738.824s-10.449-.648-14.372,2.435a41.914,41.914,0,0,0-4.446,4.795,6.994,6.994,0,0,1-10.733,1.1,46.023,46.023,0,0,1-9.146-10.376,28.179,28.179,0,0,1-5.444-11.252C90.907,380.586,92.4,375.473,94.538,370.667Z" transform="translate(33.262 139.689)" fill="#845b5b" opacity="0.33"/>
      <circle id="Ellipse_431" data-name="Ellipse 431" cx="2.703" cy="2.703" r="2.703" transform="translate(162.366 546.951)" fill="#845b5b" opacity="0.33"/>
      <circle id="Ellipse_432" data-name="Ellipse 432" cx="1.872" cy="1.872" r="1.872" transform="translate(156.162 548.779)" fill="#845b5b" opacity="0.33"/>
      <circle id="Ellipse_433" data-name="Ellipse 433" cx="1.697" cy="1.697" r="1.697" transform="translate(169.759 545.445)" fill="#845b5b" opacity="0.33"/>
      <circle id="Ellipse_434" data-name="Ellipse 434" cx="1.216" cy="1.216" r="1.216" transform="translate(150.897 550.138)" fill="#845b5b" opacity="0.33"/>
      <circle id="Ellipse_435" data-name="Ellipse 435" cx="0.742" cy="0.742" r="0.742" transform="translate(176.074 544.606)" fill="#845b5b" opacity="0.33"/>
      <circle id="Ellipse_437" data-name="Ellipse 437" cx="1.638" cy="1.638" r="1.638" transform="translate(168.243 487.207)" fill="#845b5b" opacity="0.33"/>
      <circle id="Ellipse_438" data-name="Ellipse 438" cx="1.484" cy="1.484" r="1.484" transform="translate(179.046 495.433)" fill="#845b5b" opacity="0.33"/>
      <circle id="Ellipse_439" data-name="Ellipse 439" cx="0.649" cy="0.649" r="0.649" transform="translate(181.098 500.471)" fill="#845b5b" opacity="0.33"/>
      <circle id="Ellipse_440" data-name="Ellipse 440" cx="3.435" cy="3.435" r="3.435" transform="translate(156.645 519.557)" fill="#845b5b"/>
      <circle id="Ellipse_441" data-name="Ellipse 441" cx="6.01" cy="6.01" r="6.01" transform="translate(142.882 503.791)" fill="#845b5b"/>
      <rect id="Rectangle_2478" data-name="Rectangle 2478" width="446.487" height="281.63" rx="14" transform="translate(259.536 119.545)" fill="none" stroke="#000" stroke-linecap="round" stroke-linejoin="round" stroke-width="1"/>
      <rect id="Rectangle_2479" data-name="Rectangle 2479" width="446.487" height="281.63" rx="14" transform="translate(259.536 119.545)" fill="#626c84"/>
      <rect id="Rectangle_2480" data-name="Rectangle 2480" width="446.487" height="281.63" rx="14" transform="translate(259.536 119.545)" fill="#626c84"/>
      <rect id="Rectangle_2481" data-name="Rectangle 2481" width="446.487" height="266.203" rx="14" transform="translate(259.536 119.545)" fill="#626c84" opacity="0.17"/>
      <path id="Tracé_12709" data-name="Tracé 12709" d="M194.042,140.769h398.4a24.042,24.042,0,0,1,24.042,24.042V391.489h0V157.942A24.042,24.042,0,0,0,592.446,133.9h-398.4A24.042,24.042,0,0,0,170,157.942v6.869a24.042,24.042,0,0,1,24.042-24.042Z" transform="translate(89.536 -14.361)" fill="#fff" opacity="0.1"/>
      <g id="Groupe_2841" data-name="Groupe 2841" transform="translate(395.589 119.545)" opacity="0.1">
        <path id="Tracé_12710" data-name="Tracé 12710" d="M249.227,415.534h27.595L481.438,133.9H453.844Z" transform="translate(-249.227 -133.904)" fill="#fff"/>
        <path id="Tracé_12711" data-name="Tracé 12711" d="M274.566,415.534h8.49L487.674,133.9h-8.492Z" transform="translate(-231.052 -133.904)" fill="#fff"/>
      </g>
      <rect id="Rectangle_2482" data-name="Rectangle 2482" width="446.487" height="281.63" rx="14" transform="translate(259.536 119.545)" fill="none" stroke="#46505c" stroke-linecap="round" stroke-linejoin="round" stroke-width="4"/>
      <path id="Tracé_12723" data-name="Tracé 12723" d="M0,0H216.375V384.666H0Z" transform="translate(675.113 151.28) rotate(90)" fill="#838def"/>
      <g id="Groupe_2842" data-name="Groupe 2842" transform="translate(421.661 151.28)" opacity="0.06">
        <path id="Tracé_12712" data-name="Tracé 12712" d="M264.409,368.759H292l157.2-216.375H421.614Z" transform="translate(-264.409 -152.384)" fill="#fff"/>
        <path id="Tracé_12713" data-name="Tracé 12713" d="M289.748,368.759h8.492l157.2-216.375h-8.49Z" transform="translate(-246.234 -152.384)" fill="#fff"/>
      </g>
      <rect id="Rectangle_2484" data-name="Rectangle 2484" width="216.375" height="384.666" transform="translate(675.113 151.28) rotate(90)" fill="none" stroke="#46505c" stroke-linecap="round" stroke-linejoin="round" stroke-width="1"/>
      <rect id="Rectangle_2485" data-name="Rectangle 2485" width="446.487" height="295.369" rx="14" transform="translate(259.536 401.176)" fill="#e6f3ff"/>
      <rect id="Rectangle_2486" data-name="Rectangle 2486" width="281.63" height="432.749" rx="10" transform="translate(699.154 408.045) rotate(90)" fill="#fff" stroke="#e6f3ff" stroke-miterlimit="10" stroke-width="2"/>
      <path id="Tracé_12714" data-name="Tracé 12714" d="M286.818,462.084h55.124a6.869,6.869,0,0,1,6.869,6.869v6.56H279.949v-6.56A6.869,6.869,0,0,1,286.818,462.084Z" transform="translate(168.398 221.031)" fill="#e6f3ff"/>
      <rect id="Rectangle_2487" data-name="Rectangle 2487" width="446.487" height="295.369" rx="14" transform="translate(259.536 401.176)" fill="none" stroke="#46505c" stroke-linecap="round" stroke-linejoin="round" stroke-width="4"/>
      <rect id="Rectangle_2488" data-name="Rectangle 2488" width="394.97" height="157.988" rx="3" transform="translate(285.295 424.22)" fill="#e6f3ff"/>
      <rect id="Rectangle_2489" data-name="Rectangle 2489" width="24.042" height="24.042" rx="1" transform="translate(338.674 543.57)" fill="none" stroke="#626c84" stroke-linecap="round" stroke-linejoin="round" stroke-width="1"/>
      <rect id="Rectangle_2490" data-name="Rectangle 2490" width="24.042" height="24.042" rx="1" transform="translate(301.516 543.57)" fill="none" stroke="#626c84" stroke-linecap="round" stroke-linejoin="round" stroke-width="1"/>
      <rect id="Rectangle_2491" data-name="Rectangle 2491" width="172.677" height="24.042" rx="1" transform="translate(375.834 543.57)" fill="none" stroke="#626c84" stroke-linecap="round" stroke-linejoin="round" stroke-width="1"/>
      <rect id="Rectangle_2492" data-name="Rectangle 2492" width="24.042" height="24.042" rx="1" transform="translate(561.629 543.57)" fill="none" stroke="#626c84" stroke-linecap="round" stroke-linejoin="round" stroke-width="1"/>
      <rect id="Rectangle_2493" data-name="Rectangle 2493" width="17.173" height="10.518" rx="1" transform="translate(622.829 557.093)" fill="none" stroke="#626c84" stroke-linecap="round" stroke-linejoin="round" stroke-width="1"/>
      <rect id="Rectangle_2494" data-name="Rectangle 2494" width="17.173" height="10.518" rx="1" transform="translate(622.829 543.57)" fill="none" stroke="#626c84" stroke-linecap="round" stroke-linejoin="round" stroke-width="1"/>
      <rect id="Rectangle_2495" data-name="Rectangle 2495" width="17.173" height="10.518" rx="1" transform="translate(646.87 557.093)" fill="none" stroke="#626c84" stroke-linecap="round" stroke-linejoin="round" stroke-width="1"/>
      <rect id="Rectangle_2496" data-name="Rectangle 2496" width="17.173" height="10.518" rx="1" transform="translate(598.787 557.093)" fill="none" stroke="#626c84" stroke-linecap="round" stroke-linejoin="round" stroke-width="1"/>
      <rect id="Rectangle_2497" data-name="Rectangle 2497" width="57.767" height="24.042" rx="1" transform="translate(301.516 509.363)" fill="none" stroke="#626c84" stroke-linecap="round" stroke-linejoin="round" stroke-width="1"/>
      <rect id="Rectangle_2498" data-name="Rectangle 2498" width="24.042" height="24.042" rx="1" transform="translate(372.71 509.363)" fill="none" stroke="#626c84" stroke-linecap="round" stroke-linejoin="round" stroke-width="1"/>
      <rect id="Rectangle_2499" data-name="Rectangle 2499" width="24.042" height="24.042" rx="1" transform="translate(409.868 509.363)" fill="none" stroke="#626c84" stroke-linecap="round" stroke-linejoin="round" stroke-width="1"/>
      <rect id="Rectangle_2500" data-name="Rectangle 2500" width="24.042" height="24.042" rx="1" transform="translate(447.028 509.363)" fill="none" stroke="#626c84" stroke-linecap="round" stroke-linejoin="round" stroke-width="1"/>
      <rect id="Rectangle_2501" data-name="Rectangle 2501" width="24.042" height="24.042" rx="1" transform="translate(484.186 509.363)" fill="none" stroke="#626c84" stroke-linecap="round" stroke-linejoin="round" stroke-width="1"/>
      <rect id="Rectangle_2502" data-name="Rectangle 2502" width="24.042" height="24.042" rx="1" transform="translate(521.346 509.363)" fill="none" stroke="#626c84" stroke-linecap="round" stroke-linejoin="round" stroke-width="1"/>
      <rect id="Rectangle_2503" data-name="Rectangle 2503" width="24.042" height="24.042" rx="1" transform="translate(558.504 509.363)" fill="none" stroke="#626c84" stroke-linecap="round" stroke-linejoin="round" stroke-width="1"/>
      <rect id="Rectangle_2504" data-name="Rectangle 2504" width="65.256" height="24.042" rx="1" transform="translate(598.787 509.363)" fill="none" stroke="#626c84" stroke-linecap="round" stroke-linejoin="round" stroke-width="1"/>
      <rect id="Rectangle_2505" data-name="Rectangle 2505" width="24.042" height="24.042" rx="1" transform="translate(359.281 474.193)" fill="none" stroke="#626c84" stroke-linecap="round" stroke-linejoin="round" stroke-width="1"/>
      <rect id="Rectangle_2506" data-name="Rectangle 2506" width="44.649" height="24.042" rx="1" transform="translate(301.516 474.193)" fill="none" stroke="#626c84" stroke-linecap="round" stroke-linejoin="round" stroke-width="1"/>
      <rect id="Rectangle_2507" data-name="Rectangle 2507" width="24.042" height="24.042" rx="1" transform="translate(396.441 474.193)" fill="none" stroke="#626c84" stroke-linecap="round" stroke-linejoin="round" stroke-width="1"/>
      <rect id="Rectangle_2508" data-name="Rectangle 2508" width="24.042" height="24.042" rx="1" transform="translate(433.599 474.193)" fill="none" stroke="#626c84" stroke-linecap="round" stroke-linejoin="round" stroke-width="1"/>
      <rect id="Rectangle_2509" data-name="Rectangle 2509" width="24.042" height="24.042" rx="1" transform="translate(470.759 474.193)" fill="none" stroke="#626c84" stroke-linecap="round" stroke-linejoin="round" stroke-width="1"/>
      <rect id="Rectangle_2510" data-name="Rectangle 2510" width="24.042" height="24.042" rx="1" transform="translate(507.919 474.193)" fill="none" stroke="#626c84" stroke-linecap="round" stroke-linejoin="round" stroke-width="1"/>
      <rect id="Rectangle_2511" data-name="Rectangle 2511" width="24.042" height="24.042" rx="1" transform="translate(545.076 474.193)" fill="none" stroke="#626c84" stroke-linecap="round" stroke-linejoin="round" stroke-width="1"/>
      <rect id="Rectangle_2512" data-name="Rectangle 2512" width="24.042" height="24.042" rx="1" transform="translate(582.236 474.193)" fill="none" stroke="#626c84" stroke-linecap="round" stroke-linejoin="round" stroke-width="1"/>
      <rect id="Rectangle_2513" data-name="Rectangle 2513" width="44.649" height="24.042" rx="1" transform="translate(619.394 474.193)" fill="none" stroke="#626c84" stroke-linecap="round" stroke-linejoin="round" stroke-width="1"/>
      <rect id="Rectangle_2514" data-name="Rectangle 2514" width="24.042" height="24.042" rx="1" transform="translate(339.126 440.534)" fill="none" stroke="#626c84" stroke-linecap="round" stroke-linejoin="round" stroke-width="1"/>
      <rect id="Rectangle_2515" data-name="Rectangle 2515" width="24.042" height="24.042" rx="1" transform="translate(301.516 440.534)" fill="none" stroke="#626c84" stroke-linecap="round" stroke-linejoin="round" stroke-width="1"/>
      <rect id="Rectangle_2516" data-name="Rectangle 2516" width="24.042" height="24.042" rx="1" transform="translate(376.735 440.534)" fill="none" stroke="#626c84" stroke-linecap="round" stroke-linejoin="round" stroke-width="1"/>
      <rect id="Rectangle_2517" data-name="Rectangle 2517" width="24.042" height="24.042" rx="1" transform="translate(414.345 440.534)" fill="none" stroke="#626c84" stroke-linecap="round" stroke-linejoin="round" stroke-width="1"/>
      <rect id="Rectangle_2518" data-name="Rectangle 2518" width="24.042" height="24.042" rx="1" transform="translate(451.955 440.534)" fill="none" stroke="#626c84" stroke-linecap="round" stroke-linejoin="round" stroke-width="1"/>
      <rect id="Rectangle_2519" data-name="Rectangle 2519" width="24.042" height="24.042" rx="1" transform="translate(489.563 440.534)" fill="none" stroke="#626c84" stroke-linecap="round" stroke-linejoin="round" stroke-width="1"/>
      <rect id="Rectangle_2520" data-name="Rectangle 2520" width="24.042" height="24.042" rx="1" transform="translate(527.172 440.534)" fill="none" stroke="#626c84" stroke-linecap="round" stroke-linejoin="round" stroke-width="1"/>
      <rect id="Rectangle_2521" data-name="Rectangle 2521" width="24.042" height="24.042" rx="1" transform="translate(564.782 440.534)" fill="none" stroke="#626c84" stroke-linecap="round" stroke-linejoin="round" stroke-width="1"/>
      <rect id="Rectangle_2522" data-name="Rectangle 2522" width="24.042" height="24.042" rx="1" transform="translate(602.392 440.534)" fill="none" stroke="#626c84" stroke-linecap="round" stroke-linejoin="round" stroke-width="1"/>
      <rect id="Rectangle_2523" data-name="Rectangle 2523" width="24.042" height="24.042" rx="1" transform="translate(640.001 440.534)" fill="none" stroke="#626c84" stroke-linecap="round" stroke-linejoin="round" stroke-width="1"/>
      <rect id="Rectangle_2524" data-name="Rectangle 2524" width="24.042" height="24.042" rx="1" transform="translate(338.674 543.57)" fill="#626c84"/>
      <rect id="Rectangle_2525" data-name="Rectangle 2525" width="24.042" height="24.042" rx="1" transform="translate(301.516 543.57)" fill="#626c84"/>
      <rect id="Rectangle_2526" data-name="Rectangle 2526" width="172.677" height="24.042" rx="1" transform="translate(375.834 543.57)" fill="#626c84"/>
      <rect id="Rectangle_2527" data-name="Rectangle 2527" width="24.042" height="24.042" rx="1" transform="translate(561.629 543.57)" fill="#626c84"/>
      <rect id="Rectangle_2528" data-name="Rectangle 2528" width="17.173" height="10.518" rx="1" transform="translate(622.829 557.093)" fill="#626c84"/>
      <rect id="Rectangle_2529" data-name="Rectangle 2529" width="17.173" height="10.518" rx="1" transform="translate(622.829 543.57)" fill="#626c84"/>
      <rect id="Rectangle_2530" data-name="Rectangle 2530" width="17.173" height="10.518" rx="1" transform="translate(646.87 557.093)" fill="#626c84"/>
      <rect id="Rectangle_2531" data-name="Rectangle 2531" width="17.173" height="10.518" rx="1" transform="translate(598.787 557.093)" fill="#626c84"/>
      <rect id="Rectangle_2532" data-name="Rectangle 2532" width="57.767" height="24.042" rx="1" transform="translate(301.516 509.363)" fill="#626c84"/>
      <rect id="Rectangle_2533" data-name="Rectangle 2533" width="24.042" height="24.042" rx="1" transform="translate(372.71 509.363)" fill="#626c84"/>
      <rect id="Rectangle_2534" data-name="Rectangle 2534" width="24.042" height="24.042" rx="1" transform="translate(409.868 509.363)" fill="#626c84"/>
      <rect id="Rectangle_2535" data-name="Rectangle 2535" width="24.042" height="24.042" rx="1" transform="translate(447.028 509.363)" fill="#626c84"/>
      <rect id="Rectangle_2536" data-name="Rectangle 2536" width="24.042" height="24.042" rx="1" transform="translate(484.186 509.363)" fill="#626c84"/>
      <rect id="Rectangle_2537" data-name="Rectangle 2537" width="24.042" height="24.042" rx="1" transform="translate(521.346 509.363)" fill="#626c84"/>
      <rect id="Rectangle_2538" data-name="Rectangle 2538" width="24.042" height="24.042" rx="1" transform="translate(558.504 509.363)" fill="#626c84"/>
      <rect id="Rectangle_2539" data-name="Rectangle 2539" width="65.256" height="24.042" rx="1" transform="translate(598.787 509.363)" fill="#626c84"/>
      <rect id="Rectangle_2540" data-name="Rectangle 2540" width="24.042" height="24.042" rx="1" transform="translate(359.281 474.193)" fill="#626c84"/>
      <rect id="Rectangle_2541" data-name="Rectangle 2541" width="44.649" height="24.042" rx="1" transform="translate(301.516 474.193)" fill="#626c84"/>
      <rect id="Rectangle_2542" data-name="Rectangle 2542" width="24.042" height="24.042" rx="1" transform="translate(396.441 474.193)" fill="#626c84"/>
      <rect id="Rectangle_2543" data-name="Rectangle 2543" width="24.042" height="24.042" rx="1" transform="translate(433.599 474.193)" fill="#626c84"/>
      <rect id="Rectangle_2544" data-name="Rectangle 2544" width="24.042" height="24.042" rx="1" transform="translate(470.759 474.193)" fill="#626c84"/>
      <rect id="Rectangle_2545" data-name="Rectangle 2545" width="24.042" height="24.042" rx="1" transform="translate(507.919 474.193)" fill="#626c84"/>
      <rect id="Rectangle_2546" data-name="Rectangle 2546" width="24.042" height="24.042" rx="1" transform="translate(545.076 474.193)" fill="#626c84"/>
      <rect id="Rectangle_2547" data-name="Rectangle 2547" width="24.042" height="24.042" rx="1" transform="translate(582.236 474.193)" fill="#626c84"/>
      <rect id="Rectangle_2548" data-name="Rectangle 2548" width="44.649" height="24.042" rx="1" transform="translate(619.394 474.193)" fill="#626c84"/>
      <rect id="Rectangle_2549" data-name="Rectangle 2549" width="24.042" height="24.042" rx="1" transform="translate(339.126 440.534)" fill="#626c84"/>
      <rect id="Rectangle_2550" data-name="Rectangle 2550" width="24.042" height="24.042" rx="1" transform="translate(301.516 440.534)" fill="#626c84"/>
      <rect id="Rectangle_2551" data-name="Rectangle 2551" width="24.042" height="24.042" rx="1" transform="translate(376.735 440.534)" fill="#626c84"/>
      <rect id="Rectangle_2552" data-name="Rectangle 2552" width="24.042" height="24.042" rx="1" transform="translate(414.345 440.534)" fill="#626c84"/>
      <rect id="Rectangle_2553" data-name="Rectangle 2553" width="24.042" height="24.042" rx="1" transform="translate(451.955 440.534)" fill="#626c84"/>
      <rect id="Rectangle_2554" data-name="Rectangle 2554" width="24.042" height="24.042" rx="1" transform="translate(489.563 440.534)" fill="#626c84"/>
      <rect id="Rectangle_2555" data-name="Rectangle 2555" width="24.042" height="24.042" rx="1" transform="translate(527.172 440.534)" fill="#626c84"/>
      <rect id="Rectangle_2556" data-name="Rectangle 2556" width="24.042" height="24.042" rx="1" transform="translate(564.782 440.534)" fill="#626c84"/>
      <rect id="Rectangle_2557" data-name="Rectangle 2557" width="24.042" height="24.042" rx="1" transform="translate(602.392 440.534)" fill="#626c84"/>
      <rect id="Rectangle_2558" data-name="Rectangle 2558" width="24.042" height="24.042" rx="1" transform="translate(640.001 440.534)" fill="#626c84"/>
      <path id="Tracé_12715" data-name="Tracé 12715" d="M215,288.92H506.934v23.09a6.869,6.869,0,0,1-6.869,6.869h-278.2A6.869,6.869,0,0,1,215,312.01Z" transform="translate(121.812 96.828)" fill="#626c84"/>
      <rect id="Rectangle_2559" data-name="Rectangle 2559" width="291.934" height="3.435" transform="translate(336.813 385.748)" fill="#fff" opacity="0.12"/>
      <path id="Tracé_12716" data-name="Tracé 12716" d="M500.065,305.234h-278.2A6.869,6.869,0,0,1,215,298.365v6.869a6.869,6.869,0,0,0,6.869,6.869h278.2a6.869,6.869,0,0,0,6.869-6.869v-6.869A6.869,6.869,0,0,1,500.065,305.234Z" transform="translate(121.812 103.602)" fill="#626c84" opacity="0.25"/>
      <path id="Tracé_12717" data-name="Tracé 12717" d="M215,288.92H506.934v23.09a6.869,6.869,0,0,1-6.869,6.869h-278.2A6.869,6.869,0,0,1,215,312.01Z" transform="translate(121.812 96.828)" fill="none" stroke="#46505c" stroke-linecap="round" stroke-linejoin="round" stroke-width="2"/>
      <rect id="Rectangle_2560" data-name="Rectangle 2560" width="127.077" height="87.58" rx="2" transform="translate(419.241 590.794)" fill="#e6f3ff"/>
      <rect id="Rectangle_2561" data-name="Rectangle 2561" width="127.077" height="87.58" rx="2" transform="translate(419.241 590.794)" fill="none" stroke="#626c84" stroke-linecap="round" stroke-linejoin="round" stroke-width="1"/>
      <circle id="Ellipse_442" data-name="Ellipse 442" cx="5.152" cy="5.152" r="5.152" transform="translate(477.628 131.82)" fill="#fff" opacity="0.52"/>
      <circle id="Ellipse_443" data-name="Ellipse 443" cx="5.152" cy="5.152" r="5.152" transform="translate(477.628 131.82)" fill="none" stroke="#46505c" stroke-linecap="round" stroke-linejoin="round" stroke-width="1"/>
      <rect id="Rectangle_2562" data-name="Rectangle 2562" width="24.042" height="3.435" rx="1" transform="translate(567.543 173.167)" fill="#fff"/>
      <rect id="Rectangle_2563" data-name="Rectangle 2563" width="24.042" height="3.435" rx="1" transform="translate(612.147 173.167)" fill="#fff"/>
      <rect id="Rectangle_2564" data-name="Rectangle 2564" width="24.042" height="3.435" rx="1" transform="translate(522.941 173.167)" fill="#fff"/>
      <circle id="Ellipse_444" data-name="Ellipse 444" cx="8.306" cy="8.306" r="8.306" transform="translate(315.168 167.472)" fill="#fff"/>
      <g id="Groupe_2843" data-name="Groupe 2843" transform="translate(395.756 245.951)" opacity="0.72">
        <rect id="Rectangle_2565" data-name="Rectangle 2565" width="173.845" height="6.259" transform="translate(0 20.775)" fill="#fff"/>
        <rect id="Rectangle_2566" data-name="Rectangle 2566" width="129.875" height="6.35" transform="translate(21.986 0)" fill="#fff"/>
      </g>
      <rect id="Rectangle_2567" data-name="Rectangle 2567" width="68.301" height="18.825" rx="5.481" transform="translate(453.78 315.383)" fill="none" stroke="#fff" stroke-miterlimit="10" stroke-width="1"/>
    </g>
    <path id="Tracé_12720" data-name="Tracé 12720" d="M253.541,564.912a2.335,2.335,0,0,0,2.5-2.4,2.133,2.133,0,0,0-2.359-2.27,2.265,2.265,0,0,0-2.5,2.2v.067a2.346,2.346,0,0,0,2.359,2.4Z" transform="translate(-781.37 -4776.288)" fill="#fff"/>
    <path id="Tracé_12722" data-name="Tracé 12722" d="M322.56,564.912a2.335,2.335,0,0,0,2.5-2.4,2.133,2.133,0,0,0-2.359-2.27,2.265,2.265,0,0,0-2.5,2.2v.067a2.346,2.346,0,0,0,2.36,2.4Z" transform="translate(-731.866 -4776.288)" fill="#fff"/>
  </g>
</svg>
