<svg xmlns="http://www.w3.org/2000/svg" width="49" height="38.071" viewBox="0 0 49 38.071">
  <g id="quotation-marks" transform="translate(0)">
    <path id="Tracé_12735" data-name="Tracé 12735" d="M10.093,54.255c.6-3.758,5.3-7.772,8.967-7.857a.97.97,0,0,0,.683-.256.7.7,0,0,0,.427-.427c1.281-2.391.6-4.27-1.537-5.808-2.477-1.793-6.405,0-8.37,1.623C5.311,45.629.272,52.717.528,59.464a28.244,28.244,0,0,0,.6,13.409c.854,2.562,3.331,3.843,5.893,4.014s7.857.939,10.163-.6,2.477-4.527,2.733-7.089c.256-2.818,1.025-8.114-1.366-10.334C16.157,56.731,9.325,59.037,10.093,54.255Z" transform="translate(0 -39.159)" fill="#453ecc"/>
    <path id="Tracé_12736" data-name="Tracé 12736" d="M212.053,54.255c.6-3.758,5.295-7.772,8.967-7.857a.97.97,0,0,0,.683-.256.7.7,0,0,0,.427-.427c1.281-2.391.6-4.27-1.537-5.808-2.477-1.793-6.405,0-8.37,1.623-4.953,4.1-9.992,11.188-9.736,17.935a28.246,28.246,0,0,0,.6,13.409c.854,2.562,3.331,3.843,5.893,4.014s7.857.939,10.163-.6,2.477-4.527,2.733-7.089c.256-2.818,1.025-8.114-1.366-10.334C218.117,56.731,211.2,59.037,212.053,54.255Z" transform="translate(-173.777 -39.159)" fill="#453ecc"/>
  </g>
</svg>
