<svg xmlns="http://www.w3.org/2000/svg" xmlns:xlink="http://www.w3.org/1999/xlink" width="237.565" height="220.306" viewBox="0 0 237.565 220.306">
  <defs>
    <linearGradient id="linear-gradient" x1="0.047" y1="0.689" x2="0.898" y2="0.144" gradientUnits="objectBoundingBox">
      <stop offset="0" stop-color="#dcfdee" stop-opacity="0"/>
      <stop offset="0.629" stop-color="#d2f3e4"/>
    </linearGradient>
  </defs>
  <g id="user-interface" transform="translate(0 -18.599)">
    <g id="Groupe_2674" data-name="Groupe 2674" transform="translate(0 18.599)">
      <path id="Tracé_12422" data-name="Tracé 12422" d="M7.458,147.285c8.689,29.7,33.736,90.277,76.059,84.839,42.449-5.454,25.872-60.192,64.731-67.694,17.106-3.3,28.7,26.3,45.845,25.382,22.081-1.186,33.319-23.043,39.49-41.418,13.083-38.961-6.509-105.026-52.366-116.468-40.017-9.985-44.7,38.908-79.493,24.707C82.168,48.651,84.122,24.814,60.3,20-11.754,5.454-4.1,107.769,7.458,147.285Z" transform="translate(0 -18.599)" fill="url(#linear-gradient)"/>
    </g>
    <g id="Groupe_2694" data-name="Groupe 2694" transform="translate(26.275 20.977)">
      <g id="Groupe_2692" data-name="Groupe 2692" transform="translate(32.545 0)">
        <g id="Groupe_2685" data-name="Groupe 2685">
          <g id="Groupe_2684" data-name="Groupe 2684">
            <path id="Tracé_12423" data-name="Tracé 12423" d="M233.134,257.2H145.688a13.92,13.92,0,0,1-13.92-13.92V66.643a13.92,13.92,0,0,1,13.92-13.92h87.446a13.92,13.92,0,0,1,13.92,13.92V243.276A13.92,13.92,0,0,1,233.134,257.2Z" transform="translate(-129.448 -39.268)" fill="#2626bc" opacity="0.1"/>
            <path id="Tracé_12424" data-name="Tracé 12424" d="M233.134,233.2H145.688a13.92,13.92,0,0,1-13.92-13.92V42.643a13.92,13.92,0,0,1,13.92-13.92h87.446a13.92,13.92,0,0,1,13.92,13.92V219.276a13.92,13.92,0,0,1-13.92,13.92Z" transform="translate(-129.448 -26.404)" fill="#838def"/>
            <path id="Tracé_12425" data-name="Tracé 12425" d="M131.77,71.632H247.054V236.285H131.77Z" transform="translate(-129.449 -49.403)" fill="#453ecc"/>
            <path id="Tracé_12426" data-name="Tracé 12426" d="M206.559,166H182.922a4.64,4.64,0,0,1-4.64-4.64V139.544a4.64,4.64,0,0,1,4.64-4.64h23.637a4.64,4.64,0,0,1,4.64,4.64v21.813A4.64,4.64,0,0,1,206.559,166Z" transform="translate(-154.38 -83.317)" fill="#1f50c9"/>
            <path id="Tracé_12427" data-name="Tracé 12427" d="M291.478,165.715H267.841a4.64,4.64,0,0,1-4.64-4.64V139.262a4.64,4.64,0,0,1,4.64-4.64h23.637a4.64,4.64,0,0,1,4.64,4.64v21.813A4.64,4.64,0,0,1,291.478,165.715Z" transform="translate(-199.897 -83.166)" fill="#1f50c9"/>
            <g id="Groupe_2675" data-name="Groupe 2675" transform="translate(102.835 51.456)">
              <path id="Tracé_12428" data-name="Tracé 12428" d="M363.037,134.622v31.092h-10a4.642,4.642,0,0,1-4.64-4.64V139.262a4.642,4.642,0,0,1,4.64-4.64Z" transform="translate(-348.398 -134.622)" fill="#1f50c9"/>
            </g>
            <g id="Groupe_2676" data-name="Groupe 2676" transform="translate(32.662 32.172)">
              <path id="Tracé_12429" data-name="Tracé 12429" d="M249.443,93.061H199.48a2.32,2.32,0,0,0,0,4.64h49.963a2.32,2.32,0,1,0,0-4.64Z" transform="translate(-197.16 -93.061)" fill="#fff"/>
            </g>
            <g id="Groupe_2682" data-name="Groupe 2682" transform="translate(23.902 46.579)">
              <g id="Groupe_2678" data-name="Groupe 2678" transform="translate(0 0.131)">
                <path id="Tracé_12430" data-name="Tracé 12430" d="M206.559,155.485H182.922a4.64,4.64,0,0,1-4.64-4.64V129.032a4.64,4.64,0,0,1,4.64-4.64h23.637a4.64,4.64,0,0,1,4.64,4.64v21.813A4.64,4.64,0,0,1,206.559,155.485Z" transform="translate(-178.282 -124.392)" fill="#fee"/>
                <g id="Groupe_2677" data-name="Groupe 2677" transform="translate(11.429 13.82)">
                  <path id="Tracé_12431" data-name="Tracé 12431" d="M214.829,170.507h-9.6a2.32,2.32,0,1,0,0,4.64h9.6a2.32,2.32,0,1,0,0-4.64Z" transform="translate(-202.913 -162.93)" fill="#fff"/>
                  <path id="Tracé_12432" data-name="Tracé 12432" d="M222.869,154.177h-2.636a2.32,2.32,0,1,0,0,4.64h2.636a2.32,2.32,0,0,0,0-4.64Z" transform="translate(-210.953 -154.177)" fill="#fff"/>
                </g>
              </g>
              <g id="Groupe_2680" data-name="Groupe 2680" transform="translate(39.402)">
                <path id="Tracé_12433" data-name="Tracé 12433" d="M291.478,155.2H267.841a4.64,4.64,0,0,1-4.64-4.64V128.75a4.64,4.64,0,0,1,4.64-4.64h23.637a4.64,4.64,0,0,1,4.64,4.64v21.813A4.64,4.64,0,0,1,291.478,155.2Z" transform="translate(-263.201 -124.11)" fill="#35e7b3"/>
                <g id="Groupe_2679" data-name="Groupe 2679" transform="translate(11.429 13.82)">
                  <path id="Tracé_12434" data-name="Tracé 12434" d="M299.748,170.226h-9.6a2.32,2.32,0,1,0,0,4.64h9.6a2.32,2.32,0,0,0,0-4.64Z" transform="translate(-287.832 -162.649)" fill="#fff"/>
                  <path id="Tracé_12435" data-name="Tracé 12435" d="M307.788,153.9h-2.636a2.32,2.32,0,1,0,0,4.64h2.636a2.32,2.32,0,0,0,0-4.64Z" transform="translate(-295.872 -153.895)" fill="#fff"/>
                </g>
              </g>
              <g id="Groupe_2681" data-name="Groupe 2681" transform="translate(78.933 0)">
                <path id="Tracé_12436" data-name="Tracé 12436" d="M363.037,124.111V155.2h-10a4.642,4.642,0,0,1-4.64-4.64V128.751a4.642,4.642,0,0,1,4.64-4.64Z" transform="translate(-348.398 -124.111)" fill="#9fb0fe"/>
              </g>
            </g>
            <path id="Tracé_12437" data-name="Tracé 12437" d="M131.77,314.07V228.352a11.6,11.6,0,0,1,11.6-11.6h92.084a11.6,11.6,0,0,1,11.6,11.6V314.07Z" transform="translate(-129.449 -127.188)" fill="#fff"/>
            <path id="Tracé_12438" data-name="Tracé 12438" d="M230.454,232.836H143.008a16.258,16.258,0,0,1-16.24-16.24V39.964a16.258,16.258,0,0,1,16.24-16.24h87.446a16.258,16.258,0,0,1,16.24,16.24V216.6A16.258,16.258,0,0,1,230.454,232.836ZM143.008,28.364a11.613,11.613,0,0,0-11.6,11.6V216.6a11.613,11.613,0,0,0,11.6,11.6h87.446a11.613,11.613,0,0,0,11.6-11.6V39.964a11.613,11.613,0,0,0-11.6-11.6Z" transform="translate(-126.768 -23.724)" fill="#2626bc"/>
            <g id="Groupe_2683" data-name="Groupe 2683" transform="translate(49.531 10.38)">
              <path id="Tracé_12439" data-name="Tracé 12439" d="M252.061,50.734H235.837a2.32,2.32,0,0,1,0-4.64h16.224a2.32,2.32,0,1,1,0,4.64Z" transform="translate(-233.517 -46.094)" fill="#b7c5ff"/>
            </g>
            <circle id="Ellipse_392" data-name="Ellipse 392" cx="2.321" cy="2.321" r="2.321" transform="translate(76.579 10.378)" fill="#b7c5ff"/>
          </g>
        </g>
        <g id="Groupe_2687" data-name="Groupe 2687" transform="translate(15.259 104.556)">
          <g id="Groupe_2686" data-name="Groupe 2686" transform="translate(22.856)">
            <path id="Tracé_12440" data-name="Tracé 12440" d="M220.829,249.062h-9.6a2.32,2.32,0,0,0,0,4.64h9.6a2.32,2.32,0,0,0,0-4.64Z" transform="translate(-208.913 -249.062)" fill="#35e7b3"/>
            <path id="Tracé_12441" data-name="Tracé 12441" d="M268.156,269.335H211.233a2.32,2.32,0,0,0,0,4.64h56.923a2.32,2.32,0,0,0,0-4.64Z" transform="translate(-208.913 -259.928)" fill="#838def"/>
          </g>
          <path id="Tracé_12442" data-name="Tracé 12442" d="M171.38,263.109h-9.406a2.32,2.32,0,0,1-2.32-2.32v-9.406a2.32,2.32,0,0,1,2.32-2.32h9.406a2.32,2.32,0,0,1,2.32,2.32v9.406A2.32,2.32,0,0,1,171.38,263.109Z" transform="translate(-159.654 -249.063)" fill="#35e7b3"/>
        </g>
        <g id="Groupe_2689" data-name="Groupe 2689" transform="translate(15.259 133.297)">
          <g id="Groupe_2688" data-name="Groupe 2688" transform="translate(22.856)">
            <path id="Tracé_12443" data-name="Tracé 12443" d="M220.829,311.006h-9.6a2.32,2.32,0,0,0,0,4.64h9.6a2.32,2.32,0,1,0,0-4.64Z" transform="translate(-208.913 -311.006)" fill="#fee"/>
            <path id="Tracé_12444" data-name="Tracé 12444" d="M268.156,331.278H211.233a2.32,2.32,0,1,0,0,4.64h56.923a2.32,2.32,0,0,0,0-4.64Z" transform="translate(-208.913 -321.872)" fill="#838def"/>
          </g>
          <path id="Tracé_12445" data-name="Tracé 12445" d="M171.38,325.052h-9.406a2.32,2.32,0,0,1-2.32-2.32v-9.406a2.32,2.32,0,0,1,2.32-2.32h9.406a2.32,2.32,0,0,1,2.32,2.32v9.406A2.32,2.32,0,0,1,171.38,325.052Z" transform="translate(-159.654 -311.006)" fill="#fee"/>
        </g>
        <g id="Groupe_2691" data-name="Groupe 2691" transform="translate(15.259 162.039)">
          <g id="Groupe_2690" data-name="Groupe 2690" transform="translate(22.856)">
            <path id="Tracé_12446" data-name="Tracé 12446" d="M220.829,372.949h-9.6a2.32,2.32,0,0,0,0,4.64h9.6a2.32,2.32,0,0,0,0-4.64Z" transform="translate(-208.913 -372.949)" fill="#453ecc"/>
            <path id="Tracé_12447" data-name="Tracé 12447" d="M268.156,393.221H211.233a2.32,2.32,0,0,0,0,4.64h56.923a2.32,2.32,0,0,0,0-4.64Z" transform="translate(-208.913 -383.815)" fill="#838def"/>
          </g>
          <path id="Tracé_12448" data-name="Tracé 12448" d="M171.38,387h-9.406a2.32,2.32,0,0,1-2.32-2.32v-9.406a2.32,2.32,0,0,1,2.32-2.32h9.406a2.32,2.32,0,0,1,2.32,2.32v9.406A2.32,2.32,0,0,1,171.38,387Z" transform="translate(-159.654 -372.949)" fill="#453ecc"/>
        </g>
      </g>
      <path id="Tracé_12449" data-name="Tracé 12449" d="M410.676,381.919a6.631,6.631,0,1,1,6.631-6.631A6.639,6.639,0,0,1,410.676,381.919Zm0-8.622a1.991,1.991,0,1,0,1.991,1.991A1.993,1.993,0,0,0,410.676,373.3Z" transform="translate(-242.845 -208.609)" fill="#453ecc"/>
      <path id="Tracé_12450" data-name="Tracé 12450" d="M74.343,167.257a2.32,2.32,0,0,1-2.32-2.32,2.787,2.787,0,0,0-2.784-2.784,2.32,2.32,0,1,1,0-4.64,2.787,2.787,0,0,0,2.784-2.784,2.32,2.32,0,0,1,4.64,0,2.787,2.787,0,0,0,2.784,2.784,2.32,2.32,0,1,1,0,4.64,2.787,2.787,0,0,0-2.784,2.784A2.32,2.32,0,0,1,74.343,167.257Z" transform="translate(-62.144 -92.7)" fill="#35e7b3"/>
      <path id="Tracé_12451" data-name="Tracé 12451" d="M424.076,425.341a2.32,2.32,0,0,1-2.32-2.32,2.787,2.787,0,0,0-2.784-2.784,2.32,2.32,0,0,1,0-4.64,2.787,2.787,0,0,0,2.784-2.784,2.32,2.32,0,1,1,4.64,0,2.787,2.787,0,0,0,2.784,2.784,2.32,2.32,0,0,1,0,4.64,2.787,2.787,0,0,0-2.784,2.784A2.32,2.32,0,0,1,424.076,425.341Z" transform="translate(-249.602 -231.034)" fill="#35e7b3"/>
      <g id="Groupe_2693" data-name="Groupe 2693" transform="translate(0 44.032)">
        <path id="Tracé_12452" data-name="Tracé 12452" d="M435.076,133.47a2.32,2.32,0,0,1-2.32-2.32,2.787,2.787,0,0,0-2.784-2.784,2.32,2.32,0,1,1,0-4.64,2.787,2.787,0,0,0,2.784-2.784,2.32,2.32,0,0,1,4.64,0,2.787,2.787,0,0,0,2.784,2.784,2.32,2.32,0,1,1,0,4.64,2.787,2.787,0,0,0-2.784,2.784A2.32,2.32,0,0,1,435.076,133.47Z" transform="translate(-255.498 -118.622)" fill="#f7f9fc"/>
        <path id="Tracé_12453" data-name="Tracé 12453" d="M64.051,216.554a2.32,2.32,0,0,1-2.32-2.32,2.787,2.787,0,0,0-2.784-2.784,2.32,2.32,0,1,1,0-4.64,2.787,2.787,0,0,0,2.784-2.784,2.32,2.32,0,1,1,4.64,0,2.787,2.787,0,0,0,2.784,2.784,2.32,2.32,0,1,1,0,4.64,2.787,2.787,0,0,0-2.784,2.784A2.32,2.32,0,0,1,64.051,216.554Z" transform="translate(-56.627 -163.155)" fill="#f7f9fc"/>
      </g>
    </g>
  </g>
</svg>
