<svg xmlns="http://www.w3.org/2000/svg" xmlns:xlink="http://www.w3.org/1999/xlink" width="242" height="220.639" viewBox="0 0 242 220.639">
  <defs>
    <linearGradient id="linear-gradient" x1="0.189" y1="0.946" x2="0.869" y2="0.009" gradientUnits="objectBoundingBox">
      <stop offset="0" stop-color="#d2deff" stop-opacity="0"/>
      <stop offset="0.685" stop-color="#d2deff"/>
    </linearGradient>
  </defs>
  <g id="user-interface_1_" data-name="user-interface (1)" transform="translate(0 -22.597)">
    <g id="Groupe_2703" data-name="Groupe 2703" transform="translate(0 29.714)">
      <path id="Tracé_12458" data-name="Tracé 12458" d="M2.314,174.573c8.247,81.708,138.213,79,198.9,64.406,38.98-9.375,41.4-28.11,40.7-68.063-.454-25.753,1.627-93.929-15.127-115.386C201.046,22.571,177.99,43.243,146.119,54,105.24,67.8,89.311,43.163,50.418,43.9-6.6,44.973-1.942,132.4,2.314,174.573Z" transform="translate(0 -37.654)" fill="url(#linear-gradient)"/>
    </g>
    <g id="Groupe_2714" data-name="Groupe 2714" transform="translate(17.266 22.597)">
      <g id="Groupe_2713" data-name="Groupe 2713" transform="translate(0 28.05)">
        <g id="Groupe_2707" data-name="Groupe 2707">
          <g id="Groupe_2704" data-name="Groupe 2704">
            <path id="Tracé_12459" data-name="Tracé 12459" d="M237.181,273.662H48.62a7.09,7.09,0,0,1-7.09-7.09V118.032a7.09,7.09,0,0,1,7.09-7.09H237.181a7.09,7.09,0,0,1,7.09,7.09v148.54A7.09,7.09,0,0,1,237.181,273.662Z" transform="translate(-39.166 -97.235)" fill="#2626bc" opacity="0.1"/>
            <path id="Tracé_12460" data-name="Tracé 12460" d="M237.181,249.662H48.62a7.09,7.09,0,0,1-7.09-7.09V94.032a7.09,7.09,0,0,1,7.09-7.09H237.181a7.09,7.09,0,0,1,7.09,7.09v148.54A7.09,7.09,0,0,1,237.181,249.662Z" transform="translate(-39.166 -84.579)" fill="#fff"/>
            <path id="Tracé_12461" data-name="Tracé 12461" d="M244.271,119.7V94.033a7.09,7.09,0,0,0-7.09-7.09H48.62a7.09,7.09,0,0,0-7.09,7.09V119.7Z" transform="translate(-39.166 -84.58)" fill="#35e7b3"/>
            <path id="Tracé_12462" data-name="Tracé 12462" d="M234.544,249.388H45.982a9.464,9.464,0,0,1-9.453-9.453V91.4a9.464,9.464,0,0,1,9.453-9.453H234.544A9.464,9.464,0,0,1,244,91.4v148.54a9.463,9.463,0,0,1-9.453,9.453ZM45.982,86.67A4.732,4.732,0,0,0,41.256,91.4v148.54a4.732,4.732,0,0,0,4.727,4.727H234.544a4.732,4.732,0,0,0,4.727-4.727V91.4a4.732,4.732,0,0,0-4.727-4.727Z" transform="translate(-36.529 -81.943)" fill="#2626bc"/>
          </g>
          <g id="Groupe_2706" data-name="Groupe 2706" transform="translate(18.052 12.289)">
            <g id="Groupe_2705" data-name="Groupe 2705" transform="translate(0 2.363)">
              <circle id="Ellipse_393" data-name="Ellipse 393" cx="5.152" cy="5.152" r="5.152" fill="#453ecc"/>
              <circle id="Ellipse_394" data-name="Ellipse 394" cx="5.152" cy="5.152" r="5.152" transform="translate(16.449)" fill="#fff"/>
              <circle id="Ellipse_395" data-name="Ellipse 395" cx="5.152" cy="5.152" r="5.152" transform="translate(32.897)" fill="#97ffd2"/>
            </g>
            <path id="Tracé_12463" data-name="Tracé 12463" d="M360.475,123.173H296.119V111.595h64.356a2.363,2.363,0,0,1,2.363,2.363v6.852A2.364,2.364,0,0,1,360.475,123.173Z" transform="translate(-191.475 -109.869)" fill="#dcfdee"/>
            <path id="Tracé_12464" data-name="Tracé 12464" d="M284.588,109.816a6.408,6.408,0,1,0-1.995,10.41l2.055,2.055a2.363,2.363,0,0,0,3.342-3.342l-2.055-2.055A6.414,6.414,0,0,0,284.588,109.816Zm-5.72,3.342a1.681,1.681,0,1,1,0,2.378A1.684,1.684,0,0,1,278.867,113.158Z" transform="translate(-179.626 -107.942)" fill="#fff"/>
          </g>
        </g>
        <g id="Groupe_2708" data-name="Groupe 2708" transform="translate(87.829 52.442)">
          <circle id="Ellipse_396" data-name="Ellipse 396" cx="15.905" cy="15.905" r="15.905" fill="#35e7b3"/>
          <path id="Tracé_12465" data-name="Tracé 12465" d="M255.093,218.925a7.853,7.853,0,1,0-13.461,5.492,7.822,7.822,0,0,0-2.245,5.488v2.316a15.847,15.847,0,0,0,4.727,1.763V229.9a3.127,3.127,0,0,1,6.253,0v4.079a15.847,15.847,0,0,0,4.727-1.763V229.9a7.806,7.806,0,0,0-2.25-5.488A7.826,7.826,0,0,0,255.093,218.925Zm-7.856,3.129a3.127,3.127,0,1,1,3.129-3.129A3.132,3.132,0,0,1,247.238,222.054Z" transform="translate(-231.334 -202.482)" fill="#fff"/>
        </g>
        <path id="Tracé_12466" data-name="Tracé 12466" d="M244.241,296.795h-112.1a4.727,4.727,0,0,1-4.727-4.727v-7.156a4.726,4.726,0,0,1,4.727-4.727h112.1a4.726,4.726,0,0,1,4.727,4.727v7.156a4.726,4.726,0,0,1-4.726,4.727Z" transform="translate(-84.456 -186.485)" fill="#d2deff"/>
        <path id="Tracé_12467" data-name="Tracé 12467" d="M358.9,280.187H344.84V296.8H358.9a4.726,4.726,0,0,0,4.727-4.727v-7.155A4.727,4.727,0,0,0,358.9,280.187Z" transform="translate(-199.115 -186.486)" fill="#9fb0fe"/>
        <g id="Groupe_2709" data-name="Groupe 2709" transform="translate(49.337 119.757)">
          <path id="Tracé_12468" data-name="Tracé 12468" d="M158.685,355.45H143.275a2.364,2.364,0,0,1-2.363-2.363v-15.41a2.364,2.364,0,0,1,2.363-2.363h15.409a2.364,2.364,0,0,1,2.363,2.363v15.41A2.363,2.363,0,0,1,158.685,355.45Z" transform="translate(-140.912 -335.314)" fill="#838def"/>
          <path id="Tracé_12469" data-name="Tracé 12469" d="M221.21,355.45H205.8a2.364,2.364,0,0,1-2.363-2.363v-15.41a2.364,2.364,0,0,1,2.363-2.363h15.41a2.364,2.364,0,0,1,2.363,2.363v15.41A2.363,2.363,0,0,1,221.21,355.45Z" transform="translate(-173.884 -335.314)" fill="#35e7b3"/>
          <path id="Tracé_12470" data-name="Tracé 12470" d="M283.734,355.45H268.324a2.363,2.363,0,0,1-2.363-2.363v-15.41a2.364,2.364,0,0,1,2.363-2.363h15.409a2.364,2.364,0,0,1,2.363,2.363v15.41A2.363,2.363,0,0,1,283.734,355.45Z" transform="translate(-206.856 -335.314)" fill="#453ecc"/>
          <path id="Tracé_12471" data-name="Tracé 12471" d="M346.259,355.45h-15.41a2.364,2.364,0,0,1-2.363-2.363v-15.41a2.364,2.364,0,0,1,2.363-2.363h15.41a2.364,2.364,0,0,1,2.363,2.363v15.41A2.363,2.363,0,0,1,346.259,355.45Z" transform="translate(-239.828 -335.314)" fill="#8399fe"/>
        </g>
        <g id="Groupe_2710" data-name="Groupe 2710" transform="translate(180.415 43.934)">
          <path id="Tracé_12472" data-name="Tracé 12472" d="M430.372,179.622H420.6a2.363,2.363,0,1,1,0-4.727h9.775a2.363,2.363,0,1,1,0,4.727Z" transform="translate(-418.234 -174.895)" fill="#8399fe"/>
        </g>
        <g id="Groupe_2711" data-name="Groupe 2711" transform="translate(180.415 54.805)">
          <path id="Tracé_12473" data-name="Tracé 12473" d="M430.372,202.622H420.6a2.363,2.363,0,1,1,0-4.727h9.775a2.363,2.363,0,1,1,0,4.727Z" transform="translate(-418.234 -197.895)" fill="#8399fe"/>
        </g>
        <g id="Groupe_2712" data-name="Groupe 2712" transform="translate(180.415 65.676)">
          <path id="Tracé_12474" data-name="Tracé 12474" d="M430.372,225.622H420.6a2.363,2.363,0,1,1,0-4.727h9.775a2.363,2.363,0,1,1,0,4.727Z" transform="translate(-418.234 -220.895)" fill="#8399fe"/>
        </g>
      </g>
      <path id="Tracé_12475" data-name="Tracé 12475" d="M353.184,47.231a6.755,6.755,0,1,1,6.755-6.755A6.763,6.763,0,0,1,353.184,47.231Zm0-8.783a2.028,2.028,0,1,0,2.028,2.028A2.031,2.031,0,0,0,353.184,38.448Z" transform="translate(-199.953 -28.463)" fill="#6583fe"/>
      <path id="Tracé_12476" data-name="Tracé 12476" d="M78.087,47.231a6.755,6.755,0,1,1,6.755-6.755A6.763,6.763,0,0,1,78.087,47.231Zm0-8.783a2.028,2.028,0,1,0,2.029,2.028A2.03,2.03,0,0,0,78.087,38.448Z" transform="translate(-54.882 -28.463)" fill="#35e7b3"/>
      <path id="Tracé_12477" data-name="Tracé 12477" d="M423.8,37.722a2.363,2.363,0,0,1-2.363-2.363,2.839,2.839,0,0,0-2.836-2.836,2.363,2.363,0,1,1,0-4.727,2.839,2.839,0,0,0,2.836-2.836,2.363,2.363,0,1,1,4.727,0A2.839,2.839,0,0,0,429,27.8a2.363,2.363,0,1,1,0,4.727,2.839,2.839,0,0,0-2.836,2.836A2.363,2.363,0,0,1,423.8,37.722Z" transform="translate(-236.764 -22.597)" fill="#453ecc"/>
      <path id="Tracé_12478" data-name="Tracé 12478" d="M317.048,472.528a2.363,2.363,0,0,1-2.363-2.363,2.839,2.839,0,0,0-2.836-2.836,2.363,2.363,0,1,1,0-4.727,2.839,2.839,0,0,0,2.836-2.836,2.363,2.363,0,1,1,4.727,0,2.839,2.839,0,0,0,2.835,2.836,2.363,2.363,0,0,1,0,4.727,2.839,2.839,0,0,0-2.835,2.836A2.363,2.363,0,0,1,317.048,472.528Z" transform="translate(-180.471 -251.889)" fill="#453ecc"/>
      <path id="Tracé_12479" data-name="Tracé 12479" d="M269.209,472.528a2.363,2.363,0,0,1-2.363-2.363,2.839,2.839,0,0,0-2.836-2.836,2.363,2.363,0,1,1,0-4.727,2.839,2.839,0,0,0,2.836-2.836,2.363,2.363,0,0,1,4.727,0,2.839,2.839,0,0,0,2.836,2.836,2.363,2.363,0,0,1,0,4.727,2.839,2.839,0,0,0-2.836,2.836A2.363,2.363,0,0,1,269.209,472.528Z" transform="translate(-155.244 -251.889)" fill="#35e7b3"/>
    </g>
  </g>
</svg>
